<svg xmlns="http://www.w3.org/2000/svg" xml:space="preserve" width="1000" height="311.166" viewBox="0 0 1000 311.166"><g fill="#6c3c97"><path d="M157.838 102.487c0-28.38-22.833-51.235-50.751-51.235H81.919v102.016h25.168c27.918 0 50.75-22.87 50.75-50.781m114.487 203.381h-92.387l-73.35-101.796H81.92v101.577H.5V.501h116.64c67.242 0 122.127 45.725 122.127 101.986 0 34.312-21.041 64.96-53.064 83.71l86.122 119.664"/><path d="M364.144 120.8c-21.502 0-39.792 29.226-39.792 65.405s18.29 65.443 39.792 65.443c22.001 0 40.261-29.264 40.261-65.443 0-36.18-18.26-65.406-40.26-65.406m125.324 65.406c0 69.117-56.208 124.463-125.325 124.463-69.094 0-124.886-55.346-124.886-124.463 0-69.064 55.792-124.44 124.886-124.44 69.117 0 125.325 55.376 125.325 124.44m191.07-119.376-93.793 93.778V66.51h-81.398v239.13h81.398v-96.997l97.92 96.998h102.46L662.696 181.194 765.76 78.166v141.906c0 47.115 28.342 90.596 99.688 90.596 33.874 0 64.96-19.212 80.068-36.595l36.602 31.569h17.384V66.829h-81.414v154.618c-9.167 16-21.94 26.06-41.681 26.06-20.028 0-29.219-11.874-29.219-49.852V66.83H680.54z"/></g></svg>
