<svg xmlns="http://www.w3.org/2000/svg" xml:space="preserve" viewBox="0 0 275 173.7"><style>.st4{fill:#002041}</style><path fill="#6e37fa" d="M194.4 39.5v61.6c0 2 1.7 3.7 3.7 3.7.6 0 1.3-.2 1.8-.5l53.4-30.8c1.8-1 2.4-3.3 1.4-5-.3-.6-.8-1-1.4-1.4l-53.4-30.8c-1.8-1-4-.4-5 1.4-.4.6-.5 1.2-.5 1.8z"/><path fill="#f40953" d="M74.9 132.4V70.8c0-2-1.6-3.7-3.7-3.7-.7 0-1.3.2-1.9.5L16 98.4c-1.8 1-2.4 3.3-1.3 5.1.3.6.8 1 1.3 1.3l53.4 30.8c1.8 1 4 .4 5-1.4.3-.5.5-1.2.5-1.8z"/><path fill="#ff9408" d="M104.3 91.4V153c0 2 1.7 3.7 3.7 3.7.6 0 1.3-.2 1.8-.5l53.3-30.8c1.8-1 2.4-3.3 1.3-5-.3-.6-.8-1-1.3-1.3l-53.3-30.8c-1.8-1-4-.4-5 1.4-.3.5-.5 1.1-.5 1.7z"/><path fill="#32bbb9" d="M165.2 80.6V19c0-2-1.7-3.7-3.7-3.7-.6 0-1.3.2-1.8.5l-53.4 30.8c-1.8 1-2.4 3.3-1.3 5 .3.6.8 1 1.3 1.3l53.4 30.8c1.8 1 4 .4 5-1.3.4-.5.5-1.1.5-1.8z"/></svg>
