<svg xmlns="http://www.w3.org/2000/svg" xml:space="preserve" width="20" height="20" viewBox="0 0 20 20"><path d="M17.85 14.227c-.106.307-.217.6-.335.881a10.338 10.338 0 0 1-1.022 1.836c-.536.766-.976 1.296-1.315 1.59-.525.483-1.088.731-1.691.744-.433 0-.954-.123-1.562-.372-.609-.249-1.169-.372-1.681-.372-.537 0-1.113.123-1.729.372-.617.249-1.114.38-1.494.392-.578.025-1.154-.229-1.729-.764-.367-.32-.826-.869-1.376-1.646-.59-.83-1.075-1.793-1.455-2.891-.407-1.185-.611-2.333-.611-3.444 0-1.273.275-2.371.826-3.291a4.846 4.846 0 0 1 1.73-1.75 4.654 4.654 0 0 1 2.339-.66c.459 0 1.061.142 1.809.421.746.28 1.225.422 1.435.422.157 0 .689-.166 1.591-.497.853-.307 1.573-.434 2.163-.384 1.598.129 2.798.759 3.597 1.894-1.429.866-2.136 2.079-2.122 3.635.013 1.212.452 2.221 1.316 3.022.392.371.83.658 1.316.862zM13.83.305c.013.127.019.254.019.38 0 .95-.347 1.837-1.038 2.658-.835.976-1.845 1.54-2.94 1.451a2.95 2.95 0 0 1-.022-.36c0-.912.397-1.888 1.102-2.686.352-.404.8-.74 1.342-1.008.542-.264 1.055-.41 1.537-.435z"/></svg>
