<svg width="962" height="529" viewBox="0 0 962 529" fill="none" xmlns="http://www.w3.org/2000/svg">
<rect x="55" y="392" width="142" height="50" rx="10" fill="#FFF3D4"/>
<rect x="55" y="330" width="142" height="50" rx="10" fill="#FFF3D4"/>
<rect x="279" y="330" width="142" height="112" rx="10" fill="#FFC713"/>
<path d="M301.912 417.48C301.912 418.305 301.613 418.953 301.017 419.422C300.42 419.892 299.597 420.127 298.547 420.127C297.498 420.127 296.639 419.964 295.97 419.638V418.204C296.393 418.403 296.842 418.559 297.316 418.673C297.794 418.788 298.238 418.845 298.649 418.845C299.25 418.845 299.692 418.73 299.976 418.502C300.263 418.273 300.407 417.967 300.407 417.582C300.407 417.235 300.276 416.94 300.014 416.699C299.751 416.458 299.21 416.172 298.389 415.842C297.542 415.5 296.946 415.108 296.599 414.668C296.252 414.228 296.078 413.699 296.078 413.081C296.078 412.307 296.353 411.697 296.903 411.253C297.453 410.809 298.192 410.586 299.119 410.586C300.007 410.586 300.892 410.781 301.772 411.17L301.29 412.408C300.464 412.061 299.728 411.888 299.081 411.888C298.59 411.888 298.217 411.996 297.963 412.211C297.709 412.423 297.583 412.704 297.583 413.056C297.583 413.297 297.633 413.504 297.735 413.678C297.836 413.847 298.004 414.008 298.236 414.16C298.469 414.312 298.888 414.514 299.493 414.763C300.174 415.047 300.674 415.311 300.991 415.557C301.309 415.802 301.541 416.079 301.689 416.388C301.838 416.697 301.912 417.061 301.912 417.48ZM305.041 420H303.549V412.979H305.041V420ZM303.46 411.12C303.46 410.853 303.532 410.648 303.676 410.504C303.824 410.36 304.034 410.288 304.305 410.288C304.567 410.288 304.77 410.36 304.914 410.504C305.062 410.648 305.136 410.853 305.136 411.12C305.136 411.374 305.062 411.575 304.914 411.723C304.77 411.867 304.567 411.938 304.305 411.938C304.034 411.938 303.824 411.867 303.676 411.723C303.532 411.575 303.46 411.374 303.46 411.12ZM313.109 412.979V413.798L311.909 414.021C312.019 414.169 312.11 414.351 312.182 414.566C312.254 414.782 312.29 415.011 312.29 415.252C312.29 415.976 312.04 416.545 311.541 416.959C311.042 417.374 310.354 417.582 309.478 417.582C309.254 417.582 309.051 417.565 308.869 417.531C308.547 417.73 308.386 417.962 308.386 418.229C308.386 418.39 308.46 418.51 308.608 418.591C308.761 418.671 309.038 418.711 309.44 418.711H310.665C311.439 418.711 312.028 418.876 312.43 419.207C312.832 419.537 313.033 420.013 313.033 420.635C313.033 421.43 312.705 422.044 312.049 422.476C311.393 422.907 310.445 423.123 309.205 423.123C308.249 423.123 307.519 422.954 307.015 422.615C306.512 422.277 306.26 421.794 306.26 421.168C306.26 420.736 306.395 420.372 306.666 420.076C306.941 419.784 307.324 419.581 307.815 419.467C307.616 419.382 307.451 419.247 307.32 419.061C307.193 418.87 307.129 418.671 307.129 418.464C307.129 418.201 307.203 417.979 307.352 417.797C307.5 417.615 307.72 417.436 308.012 417.258C307.648 417.101 307.352 416.847 307.123 416.496C306.899 416.141 306.787 415.726 306.787 415.252C306.787 414.49 307.026 413.9 307.504 413.481C307.986 413.062 308.672 412.853 309.561 412.853C309.759 412.853 309.967 412.867 310.183 412.897C310.403 412.922 310.568 412.95 310.678 412.979H313.109ZM307.593 421.092C307.593 421.413 307.737 421.661 308.024 421.834C308.316 422.008 308.725 422.095 309.25 422.095C310.062 422.095 310.667 421.978 311.065 421.746C311.463 421.513 311.662 421.204 311.662 420.819C311.662 420.514 311.552 420.296 311.332 420.165C311.116 420.038 310.712 419.975 310.119 419.975H308.989C308.562 419.975 308.221 420.074 307.967 420.273C307.718 420.476 307.593 420.749 307.593 421.092ZM308.234 415.252C308.234 415.692 308.346 416.031 308.57 416.268C308.799 416.505 309.125 416.623 309.548 416.623C310.411 416.623 310.843 416.162 310.843 415.239C310.843 414.782 310.735 414.431 310.519 414.186C310.307 413.936 309.984 413.811 309.548 413.811C309.116 413.811 308.788 413.934 308.564 414.179C308.344 414.425 308.234 414.782 308.234 415.252ZM320.593 420H319.095V415.684C319.095 415.142 318.985 414.738 318.765 414.471C318.549 414.205 318.204 414.071 317.73 414.071C317.099 414.071 316.638 414.257 316.346 414.63C316.054 415.002 315.908 415.626 315.908 416.502V420H314.417V412.979H315.584L315.794 413.9H315.87C316.082 413.566 316.382 413.307 316.771 413.125C317.161 412.944 317.592 412.853 318.066 412.853C319.751 412.853 320.593 413.709 320.593 415.423V420ZM327.061 420L326.763 419.022H326.712C326.373 419.45 326.033 419.742 325.69 419.898C325.347 420.051 324.907 420.127 324.37 420.127C323.68 420.127 323.14 419.941 322.751 419.568C322.366 419.196 322.173 418.669 322.173 417.988C322.173 417.264 322.442 416.718 322.979 416.35C323.517 415.982 324.336 415.781 325.436 415.747L326.648 415.709V415.334C326.648 414.886 326.543 414.552 326.331 414.332C326.124 414.107 325.8 413.995 325.36 413.995C325 413.995 324.655 414.048 324.325 414.154C323.995 414.26 323.678 414.384 323.373 414.528L322.891 413.462C323.271 413.263 323.688 413.113 324.141 413.011C324.594 412.905 325.021 412.853 325.423 412.853C326.316 412.853 326.989 413.047 327.442 413.437C327.899 413.826 328.127 414.437 328.127 415.271V420H327.061ZM324.839 418.984C325.381 418.984 325.815 418.834 326.141 418.534C326.471 418.229 326.636 417.804 326.636 417.258V416.648L325.734 416.687C325.032 416.712 324.52 416.83 324.198 417.042C323.881 417.249 323.722 417.569 323.722 418C323.722 418.314 323.815 418.557 324.001 418.73C324.188 418.9 324.467 418.984 324.839 418.984ZM331.701 420H330.209V410.123H331.701V420ZM335.332 420H333.84V410.123H335.332V420ZM338.963 420H337.471V412.979H338.963V420ZM337.382 411.12C337.382 410.853 337.454 410.648 337.598 410.504C337.746 410.36 337.956 410.288 338.227 410.288C338.489 410.288 338.692 410.36 338.836 410.504C338.984 410.648 339.058 410.853 339.058 411.12C339.058 411.374 338.984 411.575 338.836 411.723C338.692 411.867 338.489 411.938 338.227 411.938C337.956 411.938 337.746 411.867 337.598 411.723C337.454 411.575 337.382 411.374 337.382 411.12ZM347.278 420H345.78V415.684C345.78 415.142 345.67 414.738 345.45 414.471C345.234 414.205 344.889 414.071 344.416 414.071C343.785 414.071 343.324 414.257 343.032 414.63C342.74 415.002 342.594 415.626 342.594 416.502V420H341.102V412.979H342.27L342.479 413.9H342.556C342.767 413.566 343.068 413.307 343.457 413.125C343.846 412.944 344.278 412.853 344.752 412.853C346.436 412.853 347.278 413.709 347.278 415.423V420ZM355.283 412.979V413.798L354.083 414.021C354.193 414.169 354.284 414.351 354.356 414.566C354.428 414.782 354.464 415.011 354.464 415.252C354.464 415.976 354.214 416.545 353.715 416.959C353.215 417.374 352.528 417.582 351.652 417.582C351.428 417.582 351.224 417.565 351.042 417.531C350.721 417.73 350.56 417.962 350.56 418.229C350.56 418.39 350.634 418.51 350.782 418.591C350.935 418.671 351.212 418.711 351.614 418.711H352.839C353.613 418.711 354.201 418.876 354.604 419.207C355.006 419.537 355.207 420.013 355.207 420.635C355.207 421.43 354.879 422.044 354.223 422.476C353.567 422.907 352.619 423.123 351.379 423.123C350.423 423.123 349.693 422.954 349.189 422.615C348.685 422.277 348.434 421.794 348.434 421.168C348.434 420.736 348.569 420.372 348.84 420.076C349.115 419.784 349.498 419.581 349.989 419.467C349.79 419.382 349.625 419.247 349.494 419.061C349.367 418.87 349.303 418.671 349.303 418.464C349.303 418.201 349.377 417.979 349.525 417.797C349.674 417.615 349.894 417.436 350.186 417.258C349.822 417.101 349.525 416.847 349.297 416.496C349.073 416.141 348.96 415.726 348.96 415.252C348.96 414.49 349.2 413.9 349.678 413.481C350.16 413.062 350.846 412.853 351.734 412.853C351.933 412.853 352.141 412.867 352.356 412.897C352.576 412.922 352.742 412.95 352.852 412.979H355.283ZM349.767 421.092C349.767 421.413 349.91 421.661 350.198 421.834C350.49 422.008 350.899 422.095 351.423 422.095C352.236 422.095 352.841 421.978 353.239 421.746C353.637 421.513 353.835 421.204 353.835 420.819C353.835 420.514 353.725 420.296 353.505 420.165C353.29 420.038 352.885 419.975 352.293 419.975H351.163C350.736 419.975 350.395 420.074 350.141 420.273C349.891 420.476 349.767 420.749 349.767 421.092ZM350.408 415.252C350.408 415.692 350.52 416.031 350.744 416.268C350.973 416.505 351.299 416.623 351.722 416.623C352.585 416.623 353.017 416.162 353.017 415.239C353.017 414.782 352.909 414.431 352.693 414.186C352.481 413.936 352.158 413.811 351.722 413.811C351.29 413.811 350.962 413.934 350.738 414.179C350.518 414.425 350.408 414.782 350.408 415.252ZM365.477 417.48C365.477 418.305 365.179 418.953 364.582 419.422C363.985 419.892 363.162 420.127 362.113 420.127C361.063 420.127 360.204 419.964 359.536 419.638V418.204C359.959 418.403 360.407 418.559 360.881 418.673C361.36 418.788 361.804 418.845 362.214 418.845C362.815 418.845 363.257 418.73 363.541 418.502C363.829 418.273 363.973 417.967 363.973 417.582C363.973 417.235 363.841 416.94 363.579 416.699C363.317 416.458 362.775 416.172 361.954 415.842C361.108 415.5 360.511 415.108 360.164 414.668C359.817 414.228 359.644 413.699 359.644 413.081C359.644 412.307 359.919 411.697 360.469 411.253C361.019 410.809 361.757 410.586 362.684 410.586C363.573 410.586 364.457 410.781 365.337 411.17L364.855 412.408C364.03 412.061 363.293 411.888 362.646 411.888C362.155 411.888 361.783 411.996 361.529 412.211C361.275 412.423 361.148 412.704 361.148 413.056C361.148 413.297 361.199 413.504 361.3 413.678C361.402 413.847 361.569 414.008 361.802 414.16C362.035 414.312 362.453 414.514 363.059 414.763C363.74 415.047 364.239 415.311 364.557 415.557C364.874 415.802 365.107 416.079 365.255 416.388C365.403 416.697 365.477 417.061 365.477 417.48ZM370.181 420.127C369.089 420.127 368.234 419.81 367.616 419.175C367.003 418.536 366.696 417.658 366.696 416.541C366.696 415.394 366.981 414.492 367.553 413.836C368.124 413.181 368.909 412.853 369.908 412.853C370.834 412.853 371.567 413.134 372.104 413.697C372.641 414.26 372.91 415.034 372.91 416.02V416.826H368.232C368.253 417.507 368.437 418.032 368.784 418.4C369.131 418.764 369.62 418.946 370.25 418.946C370.665 418.946 371.05 418.908 371.406 418.832C371.765 418.752 372.151 418.62 372.561 418.438V419.651C372.197 419.824 371.829 419.947 371.457 420.019C371.084 420.091 370.659 420.127 370.181 420.127ZM369.908 413.982C369.434 413.982 369.053 414.133 368.765 414.433C368.482 414.734 368.312 415.172 368.257 415.747H371.444C371.435 415.167 371.296 414.729 371.025 414.433C370.754 414.133 370.382 413.982 369.908 413.982ZM378.166 412.853C378.466 412.853 378.714 412.874 378.909 412.916L378.763 414.306C378.551 414.255 378.331 414.23 378.103 414.23C377.506 414.23 377.021 414.425 376.649 414.814C376.281 415.203 376.097 415.709 376.097 416.331V420H374.605V412.979H375.773L375.97 414.217H376.046C376.279 413.798 376.581 413.466 376.954 413.221C377.33 412.975 377.734 412.853 378.166 412.853ZM381.816 420L379.15 412.979H380.724L382.152 417.061C382.398 417.747 382.546 418.301 382.597 418.724H382.647C382.686 418.419 382.834 417.865 383.092 417.061L384.52 412.979H386.107L383.428 420H381.816ZM388.665 420H387.173V412.979H388.665V420ZM387.084 411.12C387.084 410.853 387.156 410.648 387.3 410.504C387.448 410.36 387.658 410.288 387.929 410.288C388.191 410.288 388.394 410.36 388.538 410.504C388.686 410.648 388.76 410.853 388.76 411.12C388.76 411.374 388.686 411.575 388.538 411.723C388.394 411.867 388.191 411.938 387.929 411.938C387.658 411.938 387.448 411.867 387.3 411.723C387.156 411.575 387.084 411.374 387.084 411.12ZM393.635 420.127C392.573 420.127 391.765 419.818 391.21 419.2C390.66 418.578 390.385 417.687 390.385 416.528C390.385 415.347 390.673 414.439 391.249 413.805C391.828 413.17 392.664 412.853 393.756 412.853C394.496 412.853 395.163 412.99 395.755 413.265L395.305 414.465C394.674 414.219 394.154 414.097 393.743 414.097C392.529 414.097 391.921 414.903 391.921 416.515C391.921 417.302 392.072 417.895 392.372 418.292C392.677 418.686 393.121 418.883 393.705 418.883C394.369 418.883 394.998 418.718 395.59 418.388V419.689C395.324 419.846 395.038 419.958 394.733 420.025C394.433 420.093 394.067 420.127 393.635 420.127ZM400.307 420.127C399.215 420.127 398.36 419.81 397.742 419.175C397.129 418.536 396.822 417.658 396.822 416.541C396.822 415.394 397.107 414.492 397.679 413.836C398.25 413.181 399.035 412.853 400.034 412.853C400.96 412.853 401.693 413.134 402.23 413.697C402.767 414.26 403.036 415.034 403.036 416.02V416.826H398.358C398.379 417.507 398.563 418.032 398.91 418.4C399.257 418.764 399.746 418.946 400.376 418.946C400.791 418.946 401.176 418.908 401.532 418.832C401.891 418.752 402.277 418.62 402.687 418.438V419.651C402.323 419.824 401.955 419.947 401.583 420.019C401.21 420.091 400.785 420.127 400.307 420.127ZM400.034 413.982C399.56 413.982 399.179 414.133 398.891 414.433C398.608 414.734 398.438 415.172 398.383 415.747H401.57C401.561 415.167 401.422 414.729 401.151 414.433C400.88 414.133 400.508 413.982 400.034 413.982Z" fill="#344A5E"/>
<path d="M365.353 345.787L363.387 347.727C363.952 348.3 364.489 348.902 364.995 349.529C365.504 350.156 365.979 350.806 366.424 351.479C366.866 352.152 367.278 352.843 367.654 353.557C368.029 354.271 368.372 355 368.676 355.745C368.983 356.493 369.251 357.253 369.484 358.023C369.714 358.796 369.908 359.579 370.064 360.37C370.22 361.161 370.338 361.959 370.415 362.76C370.494 363.564 370.532 364.367 370.532 365.174C370.532 365.982 370.494 366.786 370.415 367.59C370.338 368.391 370.22 369.189 370.064 369.98C369.908 370.771 369.714 371.554 369.484 372.324C369.251 373.097 368.983 373.857 368.676 374.602C368.372 375.349 368.029 376.079 367.654 376.793C367.278 377.504 366.866 378.198 366.424 378.871C365.979 379.544 365.504 380.194 364.995 380.821C364.489 381.448 363.952 382.047 363.387 382.623L365.353 384.563C365.982 383.925 366.577 383.257 367.14 382.561C367.705 381.865 368.231 381.143 368.725 380.394C369.218 379.646 369.676 378.876 370.092 378.085C370.512 377.292 370.89 376.48 371.23 375.651C371.57 374.822 371.869 373.977 372.127 373.12C372.383 372.263 372.6 371.393 372.772 370.515C372.946 369.634 373.076 368.749 373.163 367.856C373.25 366.965 373.293 366.072 373.293 365.174C373.293 364.278 373.25 363.385 373.163 362.491C373.076 361.601 372.946 360.715 372.772 359.835C372.6 358.955 372.383 358.087 372.127 357.23C371.869 356.37 371.57 355.528 371.23 354.698C370.89 353.867 370.512 353.058 370.092 352.265C369.676 351.474 369.218 350.703 368.725 349.954C368.231 349.206 367.705 348.485 367.14 347.788C366.577 347.092 365.982 346.424 365.353 345.787Z" fill="#344A5E"/>
<path d="M358.836 352.37L356.875 354.315C357.228 354.67 357.563 355.044 357.88 355.436C358.197 355.825 358.493 356.229 358.769 356.649C359.045 357.066 359.304 357.498 359.536 357.941C359.772 358.386 359.986 358.839 360.175 359.305C360.367 359.768 360.533 360.242 360.679 360.723C360.822 361.204 360.945 361.69 361.042 362.182C361.139 362.676 361.211 363.172 361.259 363.671C361.311 364.17 361.334 364.672 361.334 365.174C361.334 365.678 361.311 366.177 361.259 366.678C361.211 367.178 361.139 367.674 361.042 368.165C360.945 368.659 360.822 369.146 360.679 369.627C360.533 370.108 360.367 370.581 360.175 371.045C359.986 371.51 359.772 371.963 359.536 372.409C359.304 372.851 359.045 373.281 358.769 373.701C358.493 374.121 358.197 374.525 357.88 374.914C357.563 375.303 357.228 375.677 356.875 376.035L358.836 377.978C359.253 377.558 359.646 377.118 360.02 376.657C360.393 376.199 360.743 375.723 361.07 375.229C361.398 374.735 361.699 374.226 361.975 373.704C362.251 373.179 362.502 372.644 362.727 372.096C362.952 371.549 363.151 370.991 363.32 370.425C363.491 369.857 363.634 369.284 363.75 368.703C363.865 368.122 363.949 367.536 364.008 366.947C364.064 366.359 364.095 365.767 364.095 365.174C364.095 364.582 364.064 363.991 364.008 363.403C363.949 362.814 363.865 362.228 363.75 361.647C363.634 361.066 363.491 360.493 363.32 359.925C363.151 359.359 362.952 358.801 362.727 358.253C362.502 357.706 362.251 357.171 361.975 356.646C361.699 356.124 361.398 355.615 361.07 355.121C360.743 354.627 360.393 354.151 360.02 353.69C359.646 353.232 359.253 352.792 358.836 352.37Z" fill="#344A5E"/>
<path d="M328.924 347.727L326.958 345.787C326.329 346.424 325.734 347.092 325.171 347.788C324.606 348.485 324.077 349.206 323.586 349.954C323.093 350.703 322.635 351.474 322.218 352.265C321.799 353.058 321.421 353.867 321.081 354.698C320.741 355.528 320.442 356.37 320.183 357.23C319.928 358.087 319.71 358.955 319.539 359.835C319.365 360.715 319.235 361.601 319.148 362.491C319.061 363.385 319.018 364.278 319.018 365.174C319.018 366.072 319.061 366.965 319.148 367.856C319.235 368.749 319.365 369.634 319.539 370.515C319.71 371.393 319.928 372.263 320.183 373.12C320.442 373.977 320.741 374.822 321.081 375.651C321.421 376.48 321.799 377.292 322.218 378.085C322.635 378.876 323.093 379.646 323.586 380.394C324.077 381.143 324.606 381.865 325.171 382.561C325.734 383.257 326.329 383.925 326.958 384.563L328.924 382.623C328.359 382.047 327.822 381.448 327.314 380.821C326.807 380.194 326.332 379.544 325.887 378.871C325.445 378.198 325.033 377.504 324.657 376.793C324.281 376.079 323.939 375.349 323.635 374.602C323.328 373.857 323.059 373.097 322.827 372.324C322.597 371.554 322.402 370.771 322.246 369.98C322.091 369.189 321.973 368.391 321.894 367.59C321.817 366.786 321.779 365.982 321.779 365.174C321.779 364.367 321.817 363.564 321.894 362.76C321.973 361.959 322.091 361.161 322.246 360.37C322.402 359.579 322.597 358.796 322.827 358.023C323.059 357.253 323.328 356.493 323.635 355.745C323.939 355 324.281 354.271 324.657 353.557C325.033 352.843 325.445 352.152 325.887 351.479C326.332 350.806 326.807 350.156 327.314 349.529C327.822 348.902 328.359 348.3 328.924 347.727Z" fill="#344A5E"/>
<path d="M333.476 352.37C333.059 352.792 332.665 353.232 332.292 353.69C331.919 354.151 331.568 354.627 331.241 355.121C330.914 355.615 330.612 356.124 330.336 356.646C330.06 357.171 329.807 357.706 329.585 358.253C329.36 358.801 329.16 359.359 328.991 359.925C328.82 360.493 328.677 361.066 328.562 361.647C328.447 362.228 328.363 362.814 328.304 363.403C328.247 363.991 328.217 364.582 328.217 365.174C328.217 365.767 328.247 366.359 328.304 366.947C328.363 367.536 328.447 368.122 328.562 368.703C328.677 369.284 328.82 369.857 328.991 370.425C329.16 370.991 329.36 371.549 329.585 372.096C329.807 372.644 330.06 373.179 330.336 373.704C330.612 374.226 330.914 374.735 331.241 375.229C331.568 375.723 331.919 376.199 332.292 376.657C332.665 377.118 333.059 377.558 333.476 377.978L335.434 376.035C335.084 375.677 334.749 375.303 334.432 374.914C334.115 374.525 333.818 374.121 333.542 373.701C333.263 373.281 333.008 372.851 332.773 372.409C332.54 371.963 332.325 371.51 332.136 371.045C331.944 370.581 331.778 370.108 331.632 369.627C331.487 369.146 331.366 368.659 331.269 368.165C331.172 367.674 331.101 367.178 331.052 366.678C331.001 366.177 330.978 365.678 330.978 365.174C330.978 364.672 331.001 364.17 331.052 363.671C331.101 363.172 331.172 362.676 331.269 362.182C331.366 361.69 331.487 361.204 331.632 360.723C331.778 360.242 331.944 359.768 332.136 359.305C332.325 358.839 332.54 358.386 332.773 357.941C333.008 357.498 333.263 357.066 333.542 356.649C333.818 356.229 334.115 355.825 334.432 355.436C334.749 355.044 335.084 354.67 335.434 354.315L333.476 352.37Z" fill="#344A5E"/>
<path d="M346.156 356.426C345.612 356.426 345.072 356.475 344.538 356.575C344.001 356.675 343.482 356.823 342.973 357.023C342.467 357.22 341.982 357.463 341.521 357.752C341.059 358.039 340.629 358.369 340.228 358.737C339.826 359.108 339.466 359.51 339.141 359.948C338.817 360.385 338.533 360.849 338.295 361.34C338.057 361.829 337.868 362.336 337.725 362.863C337.582 363.387 337.487 363.922 337.444 364.465C337.4 365.01 337.408 365.553 337.467 366.093C337.526 366.635 337.633 367.168 337.791 367.687C337.95 368.209 338.154 368.711 338.405 369.194C338.656 369.678 338.952 370.134 339.287 370.561C339.624 370.991 339.998 371.383 340.409 371.741C340.818 372.099 341.258 372.417 341.728 372.69C342.199 372.967 342.69 373.197 343.201 373.381C343.715 373.563 344.239 373.699 344.776 373.783V398.327H347.537V373.783C348.074 373.699 348.598 373.563 349.112 373.381C349.623 373.197 350.114 372.967 350.584 372.69C351.055 372.417 351.494 372.099 351.903 371.741C352.315 371.383 352.688 370.991 353.026 370.561C353.361 370.134 353.655 369.678 353.908 369.194C354.158 368.711 354.363 368.209 354.521 367.687C354.68 367.168 354.787 366.635 354.846 366.093C354.905 365.553 354.91 365.01 354.869 364.465C354.826 363.922 354.731 363.387 354.588 362.863C354.445 362.336 354.255 361.829 354.018 361.34C353.777 360.849 353.496 360.385 353.171 359.948C352.847 359.51 352.486 359.108 352.085 358.737C351.684 358.369 351.254 358.039 350.791 357.752C350.331 357.463 349.845 357.22 349.339 357.023C348.831 356.823 348.312 356.675 347.775 356.575C347.24 356.475 346.701 356.426 346.156 356.426Z" fill="#344A5E"/>
<rect x="529" y="330" width="142" height="112" rx="10" fill="#9CB9C9"/>
<path fill-rule="evenodd" clip-rule="evenodd" d="M613.58 411.637H581.845C578.486 411.637 575.789 408.896 575.789 405.574V373.765C575.789 370.441 578.486 367.743 581.845 367.743H613.58C616.898 367.743 619.636 370.441 619.636 373.765V405.574C619.636 408.896 616.898 411.637 613.58 411.637ZM610.346 395.068C610.095 395.068 609.806 394.943 609.681 394.695L604.785 387.759V394.237C604.785 394.695 604.412 395.068 603.957 395.068C603.499 395.068 603.126 394.695 603.126 394.237V385.144C603.126 384.77 603.333 384.437 603.706 384.353C604.039 384.23 604.412 384.353 604.619 384.645L609.515 391.621V385.144C609.515 384.686 609.888 384.312 610.346 384.312C610.801 384.312 611.174 384.686 611.174 385.144V394.237C611.174 394.569 610.926 394.902 610.594 395.028C610.509 395.028 610.427 395.068 610.346 395.068ZM597.527 395.068H594.332C593.877 395.068 593.503 394.695 593.503 394.237V385.144C593.503 384.686 593.877 384.312 594.332 384.312H597.527C599.726 384.312 601.551 386.098 601.551 388.34V390.999C601.551 393.241 599.726 395.068 597.527 395.068ZM595.162 393.407H597.527C598.813 393.407 599.889 392.327 599.889 390.999V388.34C599.889 387.012 598.813 385.973 597.527 385.973H595.162V393.407ZM589.602 395.068C586.657 395.068 584.251 392.66 584.251 389.668C584.251 386.72 586.657 384.312 589.602 384.312C590.182 384.312 590.765 384.396 591.305 384.56C591.719 384.726 591.967 385.185 591.844 385.64C591.678 386.057 591.22 386.306 590.765 386.139C590.392 386.014 590.019 385.973 589.602 385.973C587.57 385.973 585.91 387.634 585.91 389.668C585.91 391.747 587.57 393.407 589.602 393.407C590.019 393.407 590.392 393.323 590.765 393.2C591.22 393.075 591.678 393.282 591.844 393.738C591.967 394.155 591.719 394.651 591.305 394.777C590.765 394.943 590.182 395.068 589.602 395.068ZM613.539 407.568H581.845C580.726 407.568 579.813 406.654 579.813 405.533V373.806C579.813 372.685 580.726 371.771 581.845 371.771H613.539C614.659 371.771 615.571 372.685 615.571 373.806V405.533C615.571 406.654 614.659 407.568 613.539 407.568ZM581.845 373.432C581.638 373.432 581.472 373.599 581.472 373.806V405.533C581.472 405.741 581.638 405.907 581.845 405.907H613.539C613.746 405.907 613.912 405.741 613.912 405.533V373.806C613.912 373.599 613.746 373.432 613.539 373.432H581.845Z" fill="white"/>
<path fill-rule="evenodd" clip-rule="evenodd" d="M597.692 369.404C597.237 369.404 596.863 369.031 596.863 368.572V362.136C596.863 361.68 597.237 361.307 597.692 361.307C598.149 361.307 598.522 361.68 598.522 362.136V368.572C598.522 369.031 598.149 369.404 597.692 369.404Z" fill="white"/>
<mask id="mask0_1462_992" style="mask-type:luminance" maskUnits="userSpaceOnUse" x="593" y="354" width="10" height="10">
<path d="M593.17 354.246H602.333V363.103H593.17V354.246Z" fill="white"/>
</mask>
<g mask="url(#mask0_1462_992)">
<path fill-rule="evenodd" clip-rule="evenodd" d="M597.69 362.968C595.284 362.968 593.336 361.015 593.336 358.607C593.336 356.198 595.284 354.246 597.69 354.246C600.098 354.246 602.046 356.198 602.046 358.607C602.046 361.015 600.098 362.968 597.69 362.968Z" fill="white"/>
</g>
<path fill-rule="evenodd" clip-rule="evenodd" d="M625.237 390.708H618.807C618.35 390.708 617.977 390.334 617.977 389.876C617.977 389.421 618.35 389.047 618.807 389.047H625.237C625.692 389.047 626.065 389.421 626.065 389.876C626.065 390.334 625.692 390.708 625.237 390.708Z" fill="white"/>
<mask id="mask1_1462_992" style="mask-type:luminance" maskUnits="userSpaceOnUse" x="623" y="385" width="11" height="10">
<path d="M623.932 385.379H633.365V394.552H623.932V385.379Z" fill="white"/>
</mask>
<g mask="url(#mask1_1462_992)">
<path fill-rule="evenodd" clip-rule="evenodd" d="M628.763 394.237C626.357 394.237 624.406 392.287 624.406 389.876C624.406 387.468 626.357 385.518 628.763 385.518C631.168 385.518 633.119 387.468 633.119 389.876C633.119 392.287 631.168 394.237 628.763 394.237Z" fill="white"/>
</g>
<path fill-rule="evenodd" clip-rule="evenodd" d="M597.317 418.033C596.862 418.033 596.488 417.659 596.488 417.201V410.808C596.488 410.35 596.862 409.977 597.317 409.977C597.774 409.977 598.147 410.35 598.147 410.808V417.245C598.147 417.7 597.774 418.033 597.317 418.033Z" fill="white"/>
<path fill-rule="evenodd" clip-rule="evenodd" d="M597.317 425.135C594.911 425.135 592.963 423.182 592.963 420.774C592.963 418.366 594.911 416.413 597.317 416.413C599.725 416.413 601.673 418.366 601.673 420.774C601.673 423.182 599.725 425.135 597.317 425.135Z" fill="white"/>
<path fill-rule="evenodd" clip-rule="evenodd" d="M576.617 390.334H570.188C569.733 390.334 569.359 389.96 569.359 389.502C569.359 389.047 569.733 388.673 570.188 388.673H576.617C577.075 388.673 577.448 389.047 577.448 389.502C577.448 389.96 577.075 390.334 576.617 390.334Z" fill="white"/>
<mask id="mask2_1462_992" style="mask-type:luminance" maskUnits="userSpaceOnUse" x="562" y="384" width="10" height="10">
<path d="M562.307 384.724H571.574V393.897H562.307V384.724Z" fill="white"/>
</mask>
<g mask="url(#mask2_1462_992)">
<path fill-rule="evenodd" clip-rule="evenodd" d="M566.663 393.863C564.257 393.863 562.307 391.913 562.307 389.502C562.307 387.094 564.257 385.144 566.663 385.144C569.069 385.144 571.019 387.094 571.019 389.502C571.019 391.913 569.069 393.863 566.663 393.863Z" fill="white"/>
</g>
<path fill-rule="evenodd" clip-rule="evenodd" d="M617.23 370.94C617.023 370.94 616.816 370.858 616.65 370.691C616.317 370.359 616.317 369.819 616.65 369.486L619.47 366.704C619.802 366.371 620.3 366.371 620.633 366.704C620.965 367.037 620.965 367.536 620.633 367.866L617.854 370.691C617.688 370.858 617.478 370.94 617.23 370.94Z" fill="white"/>
<path fill-rule="evenodd" clip-rule="evenodd" d="M622.373 369.072C621.338 369.072 620.259 368.698 619.469 367.866C618.682 367.119 618.268 366.083 618.268 364.962C618.268 363.882 618.682 362.843 619.469 362.054C621.087 360.434 623.7 360.434 625.278 362.054C626.896 363.674 626.896 366.29 625.278 367.866C624.49 368.698 623.411 369.072 622.373 369.072Z" fill="white"/>
<path fill-rule="evenodd" clip-rule="evenodd" d="M620.052 412.884C619.843 412.884 619.636 412.799 619.47 412.676L616.65 409.851C616.317 409.521 616.317 409.022 616.65 408.689C616.982 408.356 617.521 408.356 617.854 408.689L620.633 411.471C620.965 411.804 620.965 412.344 620.633 412.676C620.467 412.799 620.259 412.884 620.052 412.884Z" fill="white"/>
<path fill-rule="evenodd" clip-rule="evenodd" d="M622.374 418.532C621.338 418.532 620.26 418.115 619.47 417.327C617.854 415.707 617.854 413.091 619.47 411.471C620.26 410.683 621.295 410.268 622.374 410.268C623.494 410.268 624.491 410.683 625.278 411.471C626.896 413.091 626.896 415.707 625.278 417.327C624.491 418.115 623.412 418.532 622.374 418.532Z" fill="white"/>
<path fill-rule="evenodd" clip-rule="evenodd" d="M575.375 412.884C575.168 412.884 574.918 412.799 574.792 412.676C574.462 412.344 574.462 411.804 574.792 411.471L577.574 408.689C577.904 408.356 578.402 408.356 578.734 408.689C579.067 409.022 579.067 409.521 578.734 409.851L575.955 412.676C575.789 412.799 575.582 412.884 575.375 412.884Z" fill="white"/>
<path fill-rule="evenodd" clip-rule="evenodd" d="M573.052 418.532C571.973 418.532 570.935 418.115 570.106 417.327C569.36 416.538 568.902 415.499 568.902 414.378C568.902 413.298 569.36 412.259 570.106 411.471C570.894 410.724 571.932 410.268 573.052 410.268C574.13 410.268 575.168 410.724 575.956 411.471C576.702 412.259 577.157 413.298 577.157 414.378C577.157 415.499 576.702 416.538 575.956 417.327C575.125 418.115 574.09 418.532 573.052 418.532Z" fill="white"/>
<path fill-rule="evenodd" clip-rule="evenodd" d="M578.154 370.94C577.947 370.94 577.74 370.858 577.574 370.691L574.792 367.866C574.462 367.536 574.462 367.037 574.792 366.704C575.084 366.371 575.623 366.371 575.955 366.704L578.734 369.486C579.067 369.819 579.067 370.359 578.734 370.691C578.568 370.858 578.361 370.94 578.154 370.94Z" fill="white"/>
<path fill-rule="evenodd" clip-rule="evenodd" d="M573.052 369.072C571.932 369.072 570.894 368.657 570.106 367.866C569.36 367.119 568.902 366.082 568.902 364.961C568.902 363.881 569.36 362.842 570.106 362.054C570.894 361.263 571.932 360.849 573.052 360.849C574.13 360.849 575.168 361.263 575.956 362.054C576.702 362.842 577.157 363.881 577.157 364.961C577.157 366.082 576.702 367.119 575.956 367.866C575.168 368.657 574.13 369.072 573.052 369.072Z" fill="white"/>
<rect x="765" y="274" width="142" height="112" rx="10" fill="#FFC713"/>
<path d="M803.576 354.72H805.15L801.9 364H800.301L797.063 354.72H798.625L800.561 360.49C800.663 360.765 800.771 361.12 800.885 361.556C800.999 361.988 801.073 362.309 801.107 362.521C801.162 362.199 801.247 361.827 801.361 361.404C801.475 360.981 801.568 360.667 801.64 360.464L803.576 354.72ZM807.708 364H806.217V356.979H807.708V364ZM806.128 355.12C806.128 354.853 806.2 354.648 806.344 354.504C806.492 354.36 806.701 354.288 806.972 354.288C807.235 354.288 807.438 354.36 807.582 354.504C807.73 354.648 807.804 354.853 807.804 355.12C807.804 355.374 807.73 355.575 807.582 355.723C807.438 355.867 807.235 355.938 806.972 355.938C806.701 355.938 806.492 355.867 806.344 355.723C806.2 355.575 806.128 355.374 806.128 355.12ZM812.215 364.127C811.339 364.127 810.656 363.81 810.165 363.175C809.674 362.54 809.429 361.649 809.429 360.502C809.429 359.351 809.676 358.456 810.171 357.817C810.671 357.174 811.361 356.853 812.241 356.853C813.163 356.853 813.866 357.193 814.348 357.875H814.424C814.352 357.371 814.316 356.973 814.316 356.681V354.123H815.814V364H814.646L814.386 363.08H814.316C813.838 363.778 813.138 364.127 812.215 364.127ZM812.615 362.921C813.229 362.921 813.675 362.75 813.955 362.407C814.234 362.06 814.378 361.499 814.386 360.725V360.515C814.386 359.631 814.242 359.002 813.955 358.63C813.667 358.257 813.216 358.071 812.603 358.071C812.078 358.071 811.674 358.285 811.39 358.712C811.107 359.136 810.965 359.741 810.965 360.528C810.965 361.306 811.102 361.901 811.377 362.312C811.653 362.718 812.065 362.921 812.615 362.921ZM821.013 364.127C819.921 364.127 819.067 363.81 818.449 363.175C817.835 362.536 817.528 361.658 817.528 360.541C817.528 359.394 817.814 358.492 818.385 357.836C818.957 357.181 819.742 356.853 820.74 356.853C821.667 356.853 822.399 357.134 822.937 357.697C823.474 358.26 823.743 359.034 823.743 360.02V360.826H819.064C819.086 361.507 819.27 362.032 819.617 362.4C819.964 362.764 820.452 362.946 821.083 362.946C821.498 362.946 821.883 362.908 822.238 362.832C822.598 362.752 822.983 362.62 823.394 362.438V363.651C823.03 363.824 822.661 363.947 822.289 364.019C821.917 364.091 821.491 364.127 821.013 364.127ZM820.74 357.982C820.266 357.982 819.885 358.133 819.598 358.433C819.314 358.734 819.145 359.172 819.09 359.747H822.276C822.268 359.167 822.128 358.729 821.857 358.433C821.587 358.133 821.214 357.982 820.74 357.982ZM831.665 360.477C831.665 361.624 831.37 362.519 830.782 363.162C830.194 363.805 829.375 364.127 828.326 364.127C827.67 364.127 827.09 363.979 826.586 363.683C826.083 363.386 825.696 362.961 825.425 362.407C825.154 361.852 825.019 361.209 825.019 360.477C825.019 359.339 825.311 358.45 825.895 357.811C826.479 357.172 827.302 356.853 828.364 356.853C829.379 356.853 830.183 357.181 830.776 357.836C831.368 358.488 831.665 359.368 831.665 360.477ZM826.555 360.477C826.555 362.098 827.153 362.908 828.351 362.908C829.536 362.908 830.128 362.098 830.128 360.477C830.128 358.873 829.532 358.071 828.338 358.071C827.712 358.071 827.257 358.279 826.974 358.693C826.694 359.108 826.555 359.703 826.555 360.477ZM843.065 357.525C843.065 358.494 842.748 359.237 842.113 359.753C841.478 360.27 840.575 360.528 839.402 360.528H838.438V364H836.92V354.72H839.593C840.752 354.72 841.62 354.957 842.195 355.431C842.775 355.905 843.065 356.603 843.065 357.525ZM838.438 359.252H839.244C840.022 359.252 840.594 359.117 840.958 358.846C841.321 358.575 841.503 358.152 841.503 357.576C841.503 357.043 841.34 356.645 841.015 356.383C840.689 356.12 840.181 355.989 839.491 355.989H838.438V359.252ZM846.251 364H844.76V354.123H846.251V364ZM852.783 364L852.485 363.022H852.434C852.096 363.45 851.755 363.742 851.412 363.898C851.069 364.051 850.629 364.127 850.092 364.127C849.402 364.127 848.862 363.941 848.473 363.568C848.088 363.196 847.896 362.669 847.896 361.988C847.896 361.264 848.164 360.718 848.702 360.35C849.239 359.982 850.058 359.781 851.158 359.747L852.371 359.709V359.334C852.371 358.886 852.265 358.552 852.053 358.332C851.846 358.107 851.522 357.995 851.082 357.995C850.722 357.995 850.377 358.048 850.047 358.154C849.717 358.26 849.4 358.384 849.095 358.528L848.613 357.462C848.994 357.263 849.41 357.113 849.863 357.011C850.316 356.905 850.743 356.853 851.146 356.853C852.038 356.853 852.711 357.047 853.164 357.437C853.621 357.826 853.85 358.437 853.85 359.271V364H852.783ZM850.562 362.984C851.103 362.984 851.537 362.834 851.863 362.534C852.193 362.229 852.358 361.804 852.358 361.258V360.648L851.457 360.687C850.754 360.712 850.242 360.83 849.92 361.042C849.603 361.249 849.444 361.569 849.444 362C849.444 362.314 849.537 362.557 849.724 362.73C849.91 362.9 850.189 362.984 850.562 362.984ZM854.865 356.979H856.49L857.918 360.959C858.134 361.527 858.278 362.06 858.35 362.559H858.401C858.439 362.326 858.509 362.045 858.61 361.715C858.712 361.381 859.249 359.802 860.223 356.979H861.835L858.833 364.933C858.287 366.393 857.377 367.123 856.103 367.123C855.773 367.123 855.451 367.087 855.138 367.015V365.834C855.362 365.885 855.618 365.911 855.906 365.911C856.626 365.911 857.131 365.494 857.423 364.66L857.684 364L854.865 356.979ZM865.967 364.127C864.875 364.127 864.021 363.81 863.403 363.175C862.789 362.536 862.482 361.658 862.482 360.541C862.482 359.394 862.768 358.492 863.339 357.836C863.911 357.181 864.696 356.853 865.694 356.853C866.621 356.853 867.353 357.134 867.891 357.697C868.428 358.26 868.697 359.034 868.697 360.02V360.826H864.019C864.04 361.507 864.224 362.032 864.571 362.4C864.918 362.764 865.407 362.946 866.037 362.946C866.452 362.946 866.837 362.908 867.192 362.832C867.552 362.752 867.937 362.62 868.348 362.438V363.651C867.984 363.824 867.616 363.947 867.243 364.019C866.871 364.091 866.445 364.127 865.967 364.127ZM865.694 357.982C865.22 357.982 864.84 358.133 864.552 358.433C864.268 358.734 864.099 359.172 864.044 359.747H867.23C867.222 359.167 867.082 358.729 866.812 358.433C866.541 358.133 866.168 357.982 865.694 357.982ZM873.953 356.853C874.253 356.853 874.501 356.874 874.695 356.916L874.549 358.306C874.338 358.255 874.118 358.23 873.889 358.23C873.292 358.23 872.808 358.425 872.436 358.814C872.067 359.203 871.883 359.709 871.883 360.331V364H870.392V356.979H871.56L871.756 358.217H871.833C872.065 357.798 872.368 357.466 872.74 357.221C873.117 356.975 873.521 356.853 873.953 356.853Z" fill="#344A5E"/>
<mask id="mask3_1462_992" style="mask-type:luminance" maskUnits="userSpaceOnUse" x="811" y="297" width="14" height="9">
<path d="M811.949 297.496H824.586V305.931H811.949V297.496Z" fill="white"/>
</mask>
<g mask="url(#mask3_1462_992)">
<path d="M818.813 297.496H817.129C814.273 297.496 811.949 299.822 811.949 302.681V305.898H824.428L818.813 297.496Z" fill="#344A5E"/>
</g>
<mask id="mask4_1462_992" style="mask-type:luminance" maskUnits="userSpaceOnUse" x="823" y="297" width="20" height="9">
<path d="M823.277 297.496H842.911V305.931H823.277V297.496Z" fill="white"/>
</mask>
<g mask="url(#mask4_1462_992)">
<path d="M842.679 305.898L837.065 297.496H823.791L829.405 305.898H842.679Z" fill="#344A5E"/>
</g>
<mask id="mask5_1462_992" style="mask-type:luminance" maskUnits="userSpaceOnUse" x="841" y="297" width="15" height="9">
<path d="M841.602 297.496H855.074V305.931H841.602V297.496Z" fill="white"/>
</mask>
<g mask="url(#mask5_1462_992)">
<path d="M849.915 297.496H842.043L847.655 305.898H855.094V302.681C855.094 299.822 852.77 297.496 849.915 297.496Z" fill="#344A5E"/>
</g>
<mask id="mask6_1462_992" style="mask-type:luminance" maskUnits="userSpaceOnUse" x="811" y="309" width="45" height="32">
<path d="M811.949 309.862H855.075V340.666H811.949V309.862Z" fill="white"/>
</mask>
<g mask="url(#mask6_1462_992)">
<path d="M811.949 310.042V335.501C811.949 338.36 814.273 340.686 817.129 340.686H849.916C852.772 340.686 855.096 338.36 855.096 335.501V310.042H811.949ZM840.214 326.257L830.435 331.908C830.164 332.064 829.863 332.141 829.561 332.141C829.259 332.141 828.96 332.064 828.689 331.908C828.15 331.596 827.815 331.02 827.815 330.395V319.094C827.815 318.469 828.147 317.893 828.689 317.581C829.229 317.269 829.893 317.269 830.433 317.581L840.212 323.232C840.751 323.544 841.083 324.12 841.083 324.744C841.083 325.369 840.754 325.945 840.212 326.257H840.214Z" fill="#344A5E"/>
</g>
<rect x="764" y="86" width="142" height="112" rx="10" fill="#2BA24C"/>
<rect x="529" y="86" width="142" height="112" rx="10" fill="#2BA24C"/>
<path d="M796.252 177L795.326 174.423H791.777L790.87 177H789.27L792.742 167.682H794.393L797.865 177H796.252ZM794.926 173.115L794.056 170.589C793.993 170.42 793.904 170.153 793.79 169.789C793.68 169.425 793.603 169.159 793.561 168.989C793.447 169.51 793.28 170.079 793.06 170.697L792.222 173.115H794.926ZM801.299 177.127C800.423 177.127 799.739 176.81 799.249 176.175C798.758 175.54 798.512 174.649 798.512 173.502C798.512 172.351 798.76 171.456 799.255 170.817C799.754 170.174 800.444 169.853 801.324 169.853C802.247 169.853 802.949 170.193 803.432 170.875H803.508C803.436 170.371 803.4 169.973 803.4 169.681V167.123H804.898V177H803.73L803.47 176.08H803.4C802.922 176.778 802.221 177.127 801.299 177.127ZM801.699 175.921C802.312 175.921 802.759 175.75 803.038 175.407C803.317 175.06 803.461 174.499 803.47 173.725V173.515C803.47 172.631 803.326 172.002 803.038 171.63C802.75 171.257 802.3 171.071 801.686 171.071C801.161 171.071 800.757 171.285 800.474 171.712C800.19 172.136 800.048 172.741 800.048 173.528C800.048 174.306 800.186 174.901 800.461 175.312C800.736 175.718 801.149 175.921 801.699 175.921ZM818.114 172.271C818.114 173.803 817.688 174.975 816.838 175.788C815.987 176.596 814.762 177 813.163 177H810.566V167.72H813.436C814.912 167.72 816.061 168.118 816.882 168.913C817.703 169.709 818.114 170.828 818.114 172.271ZM816.514 172.322C816.514 170.1 815.475 168.989 813.397 168.989H812.083V175.724H813.163C815.397 175.724 816.514 174.59 816.514 172.322ZM823.021 177.127C821.929 177.127 821.074 176.81 820.456 176.175C819.842 175.536 819.536 174.658 819.536 173.541C819.536 172.394 819.821 171.492 820.393 170.836C820.964 170.181 821.749 169.853 822.748 169.853C823.674 169.853 824.406 170.134 824.944 170.697C825.481 171.26 825.75 172.034 825.75 173.02V173.826H821.072C821.093 174.507 821.277 175.032 821.624 175.4C821.971 175.764 822.46 175.946 823.09 175.946C823.505 175.946 823.89 175.908 824.246 175.832C824.605 175.752 824.99 175.62 825.401 175.438V176.651C825.037 176.824 824.669 176.947 824.296 177.019C823.924 177.091 823.499 177.127 823.021 177.127ZM822.748 170.982C822.274 170.982 821.893 171.133 821.605 171.433C821.321 171.734 821.152 172.172 821.097 172.747H824.284C824.275 172.167 824.136 171.729 823.865 171.433C823.594 171.133 823.222 170.982 822.748 170.982ZM830.276 177.127C829.214 177.127 828.405 176.818 827.851 176.2C827.301 175.578 827.026 174.687 827.026 173.528C827.026 172.347 827.314 171.439 827.889 170.805C828.469 170.17 829.305 169.853 830.396 169.853C831.137 169.853 831.804 169.99 832.396 170.265L831.945 171.465C831.315 171.219 830.794 171.097 830.384 171.097C829.169 171.097 828.562 171.903 828.562 173.515C828.562 174.302 828.712 174.895 829.013 175.292C829.317 175.686 829.762 175.883 830.346 175.883C831.01 175.883 831.639 175.718 832.231 175.388V176.689C831.964 176.846 831.679 176.958 831.374 177.025C831.074 177.093 830.708 177.127 830.276 177.127ZM835.373 177H833.881V169.979H835.373V177ZM833.792 168.12C833.792 167.853 833.864 167.648 834.008 167.504C834.156 167.36 834.366 167.288 834.637 167.288C834.899 167.288 835.102 167.36 835.246 167.504C835.394 167.648 835.468 167.853 835.468 168.12C835.468 168.374 835.394 168.575 835.246 168.723C835.102 168.867 834.899 168.938 834.637 168.938C834.366 168.938 834.156 168.867 834.008 168.723C833.864 168.575 833.792 168.374 833.792 168.12ZM842.229 175C842.229 175.686 841.979 176.213 841.479 176.581C840.98 176.945 840.265 177.127 839.334 177.127C838.399 177.127 837.648 176.985 837.081 176.702V175.413C837.906 175.794 838.674 175.984 839.385 175.984C840.303 175.984 840.762 175.707 840.762 175.153C840.762 174.975 840.711 174.827 840.61 174.708C840.508 174.59 840.341 174.467 840.108 174.34C839.876 174.213 839.552 174.069 839.137 173.909C838.329 173.596 837.781 173.282 837.493 172.969C837.21 172.656 837.068 172.25 837.068 171.75C837.068 171.15 837.309 170.684 837.792 170.354C838.278 170.02 838.938 169.853 839.772 169.853C840.597 169.853 841.378 170.02 842.114 170.354L841.632 171.478C840.874 171.164 840.237 171.008 839.721 171.008C838.934 171.008 838.541 171.232 838.541 171.681C838.541 171.901 838.642 172.087 838.845 172.239C839.053 172.392 839.501 172.601 840.191 172.868C840.771 173.092 841.192 173.297 841.454 173.483C841.716 173.67 841.911 173.885 842.038 174.131C842.165 174.372 842.229 174.662 842.229 175ZM845.339 177H843.847V169.979H845.339V177ZM843.758 168.12C843.758 167.853 843.83 167.648 843.974 167.504C844.122 167.36 844.332 167.288 844.603 167.288C844.865 167.288 845.068 167.36 845.212 167.504C845.36 167.648 845.434 167.853 845.434 168.12C845.434 168.374 845.36 168.575 845.212 168.723C845.068 168.867 844.865 168.938 844.603 168.938C844.332 168.938 844.122 168.867 843.974 168.723C843.83 168.575 843.758 168.374 843.758 168.12ZM853.705 173.477C853.705 174.624 853.411 175.519 852.823 176.162C852.235 176.805 851.416 177.127 850.366 177.127C849.71 177.127 849.131 176.979 848.627 176.683C848.123 176.386 847.736 175.961 847.465 175.407C847.194 174.852 847.059 174.209 847.059 173.477C847.059 172.339 847.351 171.45 847.935 170.811C848.519 170.172 849.342 169.853 850.404 169.853C851.42 169.853 852.224 170.181 852.816 170.836C853.409 171.488 853.705 172.368 853.705 173.477ZM848.595 173.477C848.595 175.098 849.194 175.908 850.392 175.908C851.576 175.908 852.169 175.098 852.169 173.477C852.169 171.873 851.572 171.071 850.379 171.071C849.753 171.071 849.298 171.279 849.014 171.693C848.735 172.108 848.595 172.703 848.595 173.477ZM861.602 177H860.104V172.684C860.104 172.142 859.993 171.738 859.773 171.471C859.558 171.205 859.213 171.071 858.739 171.071C858.108 171.071 857.647 171.257 857.355 171.63C857.063 172.002 856.917 172.626 856.917 173.502V177H855.425V169.979H856.593L856.803 170.9H856.879C857.09 170.566 857.391 170.307 857.78 170.125C858.17 169.944 858.601 169.853 859.075 169.853C860.759 169.853 861.602 170.709 861.602 172.423V177ZM865.169 177H863.677V169.979H865.169V177ZM863.588 168.12C863.588 167.853 863.66 167.648 863.804 167.504C863.952 167.36 864.162 167.288 864.433 167.288C864.695 167.288 864.898 167.36 865.042 167.504C865.19 167.648 865.264 167.853 865.264 168.12C865.264 168.374 865.19 168.575 865.042 168.723C864.898 168.867 864.695 168.938 864.433 168.938C864.162 168.938 863.952 168.867 863.804 168.723C863.66 168.575 863.588 168.374 863.588 168.12ZM873.484 177H871.986V172.684C871.986 172.142 871.876 171.738 871.656 171.471C871.44 171.205 871.096 171.071 870.622 171.071C869.991 171.071 869.53 171.257 869.238 171.63C868.946 172.002 868.8 172.626 868.8 173.502V177H867.308V169.979H868.476L868.686 170.9H868.762C868.973 170.566 869.274 170.307 869.663 170.125C870.052 169.944 870.484 169.853 870.958 169.853C872.642 169.853 873.484 170.709 873.484 172.423V177ZM881.489 169.979V170.798L880.289 171.021C880.399 171.169 880.49 171.351 880.562 171.566C880.634 171.782 880.67 172.011 880.67 172.252C880.67 172.976 880.42 173.545 879.921 173.959C879.422 174.374 878.734 174.582 877.858 174.582C877.634 174.582 877.431 174.565 877.249 174.531C876.927 174.73 876.766 174.962 876.766 175.229C876.766 175.39 876.84 175.51 876.988 175.591C877.141 175.671 877.418 175.711 877.82 175.711H879.045C879.819 175.711 880.408 175.876 880.81 176.207C881.212 176.537 881.413 177.013 881.413 177.635C881.413 178.43 881.085 179.044 880.429 179.476C879.773 179.907 878.825 180.123 877.585 180.123C876.629 180.123 875.899 179.954 875.395 179.615C874.891 179.277 874.64 178.794 874.64 178.168C874.64 177.736 874.775 177.372 875.046 177.076C875.321 176.784 875.704 176.581 876.195 176.467C875.996 176.382 875.831 176.247 875.7 176.061C875.573 175.87 875.509 175.671 875.509 175.464C875.509 175.201 875.583 174.979 875.731 174.797C875.88 174.615 876.1 174.436 876.392 174.258C876.028 174.101 875.731 173.847 875.503 173.496C875.279 173.141 875.167 172.726 875.167 172.252C875.167 171.49 875.406 170.9 875.884 170.481C876.366 170.062 877.052 169.853 877.94 169.853C878.139 169.853 878.347 169.867 878.562 169.897C878.783 169.922 878.948 169.95 879.058 169.979H881.489ZM875.973 178.092C875.973 178.413 876.117 178.661 876.404 178.834C876.696 179.008 877.105 179.095 877.629 179.095C878.442 179.095 879.047 178.978 879.445 178.746C879.843 178.513 880.042 178.204 880.042 177.819C880.042 177.514 879.931 177.296 879.711 177.165C879.496 177.038 879.091 176.975 878.499 176.975H877.369C876.942 176.975 876.601 177.074 876.347 177.273C876.097 177.476 875.973 177.749 875.973 178.092ZM876.614 172.252C876.614 172.692 876.726 173.031 876.95 173.268C877.179 173.505 877.505 173.623 877.928 173.623C878.791 173.623 879.223 173.162 879.223 172.239C879.223 171.782 879.115 171.431 878.899 171.186C878.687 170.936 878.364 170.811 877.928 170.811C877.496 170.811 877.168 170.934 876.944 171.179C876.724 171.425 876.614 171.782 876.614 172.252Z" fill="white"/>
<path d="M577.293 177L576.366 174.423H572.818L571.91 177H570.311L573.783 167.682H575.433L578.905 177H577.293ZM575.966 173.115L575.097 170.589C575.033 170.42 574.944 170.153 574.83 169.789C574.72 169.425 574.644 169.159 574.602 168.989C574.487 169.51 574.32 170.079 574.1 170.697L573.262 173.115H575.966ZM582.339 177.127C581.463 177.127 580.78 176.81 580.289 176.175C579.798 175.54 579.553 174.649 579.553 173.502C579.553 172.351 579.8 171.456 580.295 170.817C580.795 170.174 581.485 169.853 582.365 169.853C583.287 169.853 583.99 170.193 584.472 170.875H584.548C584.476 170.371 584.44 169.973 584.44 169.681V167.123H585.938V177H584.771L584.51 176.08H584.44C583.962 176.778 583.262 177.127 582.339 177.127ZM582.739 175.921C583.353 175.921 583.799 175.75 584.079 175.407C584.358 175.06 584.502 174.499 584.51 173.725V173.515C584.51 172.631 584.366 172.002 584.079 171.63C583.791 171.257 583.34 171.071 582.727 171.071C582.202 171.071 581.798 171.285 581.514 171.712C581.231 172.136 581.089 172.741 581.089 173.528C581.089 174.306 581.226 174.901 581.501 175.312C581.777 175.718 582.189 175.921 582.739 175.921ZM596.958 174.48C596.958 175.305 596.66 175.953 596.063 176.422C595.466 176.892 594.643 177.127 593.594 177.127C592.544 177.127 591.685 176.964 591.017 176.638V175.204C591.44 175.403 591.888 175.559 592.362 175.673C592.84 175.788 593.285 175.845 593.695 175.845C594.296 175.845 594.738 175.73 595.022 175.502C595.31 175.273 595.454 174.967 595.454 174.582C595.454 174.235 595.322 173.94 595.06 173.699C594.798 173.458 594.256 173.172 593.435 172.842C592.589 172.5 591.992 172.108 591.645 171.668C591.298 171.228 591.125 170.699 591.125 170.081C591.125 169.307 591.4 168.697 591.95 168.253C592.5 167.809 593.238 167.586 594.165 167.586C595.054 167.586 595.938 167.781 596.818 168.17L596.336 169.408C595.511 169.061 594.774 168.888 594.127 168.888C593.636 168.888 593.264 168.996 593.01 169.211C592.756 169.423 592.629 169.704 592.629 170.056C592.629 170.297 592.68 170.504 592.781 170.678C592.883 170.847 593.05 171.008 593.283 171.16C593.515 171.312 593.934 171.514 594.54 171.763C595.221 172.047 595.72 172.311 596.038 172.557C596.355 172.802 596.588 173.079 596.736 173.388C596.884 173.697 596.958 174.061 596.958 174.48ZM601.662 177.127C600.57 177.127 599.715 176.81 599.097 176.175C598.484 175.536 598.177 174.658 598.177 173.541C598.177 172.394 598.462 171.492 599.034 170.836C599.605 170.181 600.39 169.853 601.389 169.853C602.315 169.853 603.048 170.134 603.585 170.697C604.122 171.26 604.391 172.034 604.391 173.02V173.826H599.713C599.734 174.507 599.918 175.032 600.265 175.4C600.612 175.764 601.101 175.946 601.731 175.946C602.146 175.946 602.531 175.908 602.887 175.832C603.246 175.752 603.632 175.62 604.042 175.438V176.651C603.678 176.824 603.31 176.947 602.938 177.019C602.565 177.091 602.14 177.127 601.662 177.127ZM601.389 170.982C600.915 170.982 600.534 171.133 600.246 171.433C599.963 171.734 599.793 172.172 599.738 172.747H602.925C602.916 172.167 602.777 171.729 602.506 171.433C602.235 171.133 601.863 170.982 601.389 170.982ZM609.647 169.853C609.947 169.853 610.195 169.874 610.39 169.916L610.244 171.306C610.032 171.255 609.812 171.23 609.583 171.23C608.987 171.23 608.502 171.425 608.13 171.814C607.762 172.203 607.578 172.709 607.578 173.331V177H606.086V169.979H607.254L607.451 171.217H607.527C607.76 170.798 608.062 170.466 608.435 170.221C608.811 169.975 609.215 169.853 609.647 169.853ZM613.297 177L610.631 169.979H612.205L613.633 174.061C613.879 174.747 614.027 175.301 614.078 175.724H614.128C614.167 175.419 614.315 174.865 614.573 174.061L616.001 169.979H617.588L614.909 177H613.297ZM621.72 177.127C620.628 177.127 619.774 176.81 619.156 176.175C618.542 175.536 618.235 174.658 618.235 173.541C618.235 172.394 618.521 171.492 619.092 170.836C619.664 170.181 620.449 169.853 621.447 169.853C622.374 169.853 623.106 170.134 623.644 170.697C624.181 171.26 624.45 172.034 624.45 173.02V173.826H619.771C619.793 174.507 619.977 175.032 620.324 175.4C620.671 175.764 621.16 175.946 621.79 175.946C622.205 175.946 622.59 175.908 622.945 175.832C623.305 175.752 623.69 175.62 624.101 175.438V176.651C623.737 176.824 623.368 176.947 622.996 177.019C622.624 177.091 622.198 177.127 621.72 177.127ZM621.447 170.982C620.973 170.982 620.592 171.133 620.305 171.433C620.021 171.734 619.852 172.172 619.797 172.747H622.983C622.975 172.167 622.835 171.729 622.564 171.433C622.294 171.133 621.921 170.982 621.447 170.982ZM629.706 169.853C630.006 169.853 630.254 169.874 630.448 169.916L630.302 171.306C630.091 171.255 629.871 171.23 629.642 171.23C629.045 171.23 628.561 171.425 628.188 171.814C627.82 172.203 627.636 172.709 627.636 173.331V177H626.145V169.979H627.312L627.509 171.217H627.585C627.818 170.798 628.121 170.466 628.493 170.221C628.87 169.975 629.274 169.853 629.706 169.853Z" fill="white"/>
<mask id="mask7_1462_992" style="mask-type:luminance" maskUnits="userSpaceOnUse" x="574" y="101" width="46" height="54">
<path d="M574.992 101H619.097V154.962H574.992V101Z" fill="white"/>
</mask>
<g mask="url(#mask7_1462_992)">
<path fill-rule="evenodd" clip-rule="evenodd" d="M614.252 124.062C613.689 124.351 613.076 124.625 612.429 124.883C612.303 124.932 612.173 124.957 612.048 124.957C611.631 124.957 611.24 124.704 611.076 124.292C610.867 123.752 611.13 123.143 611.664 122.93C612.252 122.698 612.805 122.449 613.306 122.191C613.82 121.927 614.448 122.135 614.709 122.652C614.97 123.166 614.765 123.798 614.252 124.062ZM588.576 125.682C588.479 126.181 588.042 126.529 587.554 126.529C587.487 126.529 587.421 126.524 587.354 126.511C586.559 126.355 585.78 126.176 585.038 125.981C584.481 125.835 584.148 125.265 584.292 124.701C584.437 124.141 585.007 123.803 585.565 123.952C586.263 124.133 586.999 124.302 587.753 124.451C588.318 124.561 588.686 125.111 588.576 125.682ZM582.995 124.292C582.832 124.704 582.441 124.957 582.024 124.957C581.896 124.957 581.768 124.932 581.643 124.883C580.994 124.625 580.383 124.351 579.82 124.062C579.306 123.798 579.102 123.166 579.363 122.652C579.623 122.135 580.252 121.927 580.766 122.191C581.267 122.449 581.819 122.698 582.407 122.93C582.942 123.143 583.205 123.752 582.995 124.292ZM613.85 118.541C616.041 117.564 617.782 116.415 619.027 115.145V123.151C618.431 125.044 616.325 126.897 613.04 128.361C608.783 130.26 603.1 131.304 597.036 131.304C590.974 131.304 585.289 130.26 581.032 128.361C577.749 126.897 575.64 125.044 575.045 123.151V115.145C576.29 116.415 578.031 117.564 580.222 118.541C584.729 120.553 590.701 121.659 597.036 121.659C603.371 121.659 609.343 120.553 613.85 118.541ZM612.219 103.439C616.619 105.138 619.043 107.542 619.043 110.201C619.043 112.862 616.619 115.265 612.219 116.965C608.147 118.539 602.755 119.406 597.036 119.406C591.317 119.406 585.925 118.539 581.853 116.965C577.453 115.265 575.029 112.862 575.029 110.201C575.029 107.542 577.453 105.138 581.853 103.439C585.925 101.865 591.317 100.998 597.036 100.998C602.755 100.998 608.147 101.865 612.219 103.439ZM614.709 134.345C614.97 134.862 614.765 135.494 614.252 135.758C613.689 136.044 613.076 136.321 612.429 136.579C612.303 136.628 612.173 136.651 612.048 136.651C611.631 136.651 611.24 136.4 611.076 135.985C610.867 135.448 611.13 134.836 611.664 134.624C612.252 134.393 612.805 134.143 613.306 133.887C613.82 133.623 614.448 133.828 614.709 134.345ZM588.576 137.375C588.479 137.877 588.042 138.225 587.554 138.225C587.487 138.225 587.421 138.217 587.354 138.204C586.559 138.048 585.78 137.871 585.038 137.677C584.483 137.531 584.148 136.958 584.292 136.397C584.437 135.837 585.005 135.499 585.562 135.645C586.263 135.829 586.999 135.996 587.753 136.144C588.318 136.257 588.686 136.807 588.576 137.375ZM582.995 135.985C582.832 136.4 582.441 136.651 582.024 136.651C581.896 136.651 581.768 136.628 581.643 136.579C580.996 136.321 580.383 136.044 579.82 135.758C579.306 135.494 579.102 134.862 579.363 134.345C579.623 133.828 580.252 133.623 580.764 133.887C581.267 134.143 581.819 134.393 582.407 134.624C582.942 134.836 583.205 135.448 582.995 135.985ZM597.036 133.513C590.701 133.513 584.729 132.405 580.222 130.396C578.031 129.418 576.29 128.269 575.045 127V135.005C575.64 136.899 577.749 138.752 581.032 140.216C585.289 142.115 590.974 143.159 597.036 143.159C603.097 143.159 608.783 142.115 613.04 140.216C616.325 138.752 618.431 136.899 619.027 135.005V127C617.782 128.269 616.041 129.418 613.85 130.396C609.343 132.405 603.371 133.513 597.036 133.513ZM614.709 146.448C614.97 146.965 614.765 147.594 614.252 147.858C613.689 148.147 613.078 148.423 612.429 148.679C612.303 148.728 612.173 148.753 612.048 148.753C611.631 148.753 611.24 148.5 611.076 148.088C610.867 147.548 611.13 146.939 611.664 146.727C612.252 146.494 612.805 146.245 613.306 145.987C613.82 145.723 614.448 145.931 614.709 146.448ZM588.576 149.478C588.479 149.979 588.042 150.325 587.554 150.325C587.487 150.325 587.421 150.32 587.354 150.307C586.559 150.151 585.78 149.972 585.038 149.78C584.483 149.634 584.148 149.061 584.292 148.5C584.437 147.937 585.005 147.602 585.562 147.748C586.263 147.929 586.999 148.098 587.753 148.247C588.318 148.357 588.686 148.907 588.576 149.478ZM582.995 148.088C582.832 148.5 582.441 148.753 582.024 148.753C581.896 148.753 581.768 148.728 581.643 148.679C580.994 148.423 580.38 148.147 579.82 147.858C579.306 147.594 579.102 146.965 579.363 146.448C579.623 145.931 580.252 145.723 580.766 145.987C581.267 146.245 581.819 146.494 582.407 146.727C582.942 146.939 583.205 147.548 582.995 148.088ZM597.036 145.176C590.701 145.176 584.729 144.07 580.222 142.058C578.031 141.081 576.29 139.932 575.045 138.665V146.67C575.64 148.562 577.749 150.414 581.032 151.878C585.289 153.777 590.974 154.824 597.036 154.824C603.097 154.824 608.783 153.777 613.04 151.878C616.325 150.414 618.431 148.562 619.027 146.67V138.665C617.782 139.932 616.041 141.081 613.85 142.058C609.343 144.07 603.371 145.176 597.036 145.176Z" fill="white"/>
</g>
<rect x="273" y="86" width="142" height="112" rx="10" fill="#9CB9C9"/>
<mask id="mask8_1462_992" style="mask-type:luminance" maskUnits="userSpaceOnUse" x="818" y="106" width="30" height="10">
<path d="M818.689 106H847.906V115.566H818.689V106Z" fill="white"/>
</mask>
<g mask="url(#mask8_1462_992)">
<path d="M847.891 108.879V112.6C847.89 112.788 847.871 112.975 847.833 113.16C847.796 113.345 847.742 113.525 847.668 113.699C847.596 113.873 847.507 114.039 847.401 114.195C847.295 114.352 847.176 114.497 847.042 114.63C846.907 114.764 846.762 114.882 846.605 114.987C846.447 115.091 846.281 115.179 846.107 115.252C845.931 115.324 845.751 115.378 845.566 115.415C845.38 115.452 845.193 115.47 845.003 115.47H821.673C821.483 115.47 821.295 115.452 821.109 115.415C820.924 115.378 820.744 115.324 820.568 115.252C820.394 115.179 820.228 115.091 820.07 114.986C819.912 114.881 819.767 114.762 819.633 114.628C819.499 114.495 819.379 114.35 819.273 114.193C819.168 114.037 819.079 113.871 819.006 113.696C818.934 113.522 818.879 113.342 818.842 113.157C818.804 112.972 818.785 112.785 818.785 112.596V108.879C818.785 108.691 818.804 108.503 818.841 108.319C818.878 108.134 818.933 107.954 819.006 107.779C819.078 107.605 819.167 107.44 819.272 107.283C819.377 107.126 819.497 106.981 819.63 106.847C819.764 106.714 819.91 106.595 820.067 106.49C820.224 106.385 820.39 106.296 820.565 106.224C820.74 106.152 820.92 106.097 821.106 106.06C821.291 106.023 821.478 106.004 821.667 106.004H845.003C845.193 106.004 845.38 106.023 845.567 106.059C845.752 106.096 845.932 106.151 846.108 106.223C846.282 106.295 846.449 106.383 846.606 106.489C846.764 106.593 846.909 106.712 847.044 106.846C847.177 106.979 847.297 107.125 847.403 107.281C847.508 107.439 847.597 107.604 847.67 107.778C847.742 107.953 847.797 108.133 847.834 108.318C847.872 108.503 847.891 108.691 847.891 108.879Z" fill="white"/>
</g>
<mask id="mask9_1462_992" style="mask-type:luminance" maskUnits="userSpaceOnUse" x="806" y="127" width="25" height="10">
<path d="M806 127.181H830.092V136.899H806V127.181Z" fill="white"/>
</mask>
<g mask="url(#mask9_1462_992)">
<path d="M830.045 129.932V134.072C830.044 134.247 830.027 134.42 829.993 134.592C829.958 134.763 829.907 134.93 829.84 135.091C829.773 135.253 829.69 135.407 829.593 135.552C829.495 135.698 829.385 135.832 829.261 135.956C829.136 136.08 829.002 136.19 828.856 136.287C828.709 136.385 828.556 136.467 828.394 136.534C828.232 136.6 828.066 136.651 827.893 136.686C827.721 136.72 827.548 136.737 827.372 136.737H808.677C808.502 136.737 808.328 136.72 808.156 136.686C807.984 136.651 807.817 136.6 807.656 136.534C807.493 136.466 807.339 136.384 807.194 136.286C807.048 136.189 806.913 136.079 806.789 135.956C806.666 135.832 806.555 135.698 806.458 135.552C806.359 135.406 806.278 135.253 806.21 135.091C806.143 134.93 806.092 134.763 806.058 134.592C806.023 134.42 806.006 134.247 806.006 134.072V129.932C806.006 129.757 806.023 129.584 806.058 129.412C806.092 129.241 806.143 129.074 806.21 128.912C806.277 128.75 806.359 128.598 806.457 128.451C806.554 128.306 806.665 128.172 806.789 128.048C806.913 127.924 807.048 127.813 807.194 127.716C807.339 127.619 807.493 127.536 807.655 127.47C807.817 127.402 807.984 127.352 808.156 127.317C808.328 127.283 808.502 127.266 808.677 127.265H827.372C827.548 127.266 827.721 127.283 827.893 127.317C828.066 127.351 828.233 127.402 828.394 127.469C828.556 127.536 828.71 127.619 828.856 127.716C829.002 127.813 829.137 127.923 829.261 128.048C829.385 128.171 829.495 128.306 829.593 128.451C829.69 128.597 829.773 128.75 829.84 128.912C829.907 129.073 829.958 129.24 829.993 129.412C830.027 129.584 830.044 129.757 830.045 129.932Z" fill="white"/>
</g>
<mask id="mask10_1462_992" style="mask-type:luminance" maskUnits="userSpaceOnUse" x="806" y="148" width="9" height="8">
<path d="M806 148.514H814.652V155.382H806V148.514Z" fill="white"/>
</mask>
<g mask="url(#mask10_1462_992)">
<path d="M807.401 148.53H813.25C813.341 148.53 813.431 148.539 813.521 148.557C813.611 148.574 813.699 148.601 813.783 148.636C813.868 148.671 813.948 148.714 814.024 148.764C814.101 148.815 814.172 148.873 814.236 148.938C814.301 149.002 814.358 149.072 814.409 149.148C814.46 149.225 814.504 149.305 814.538 149.389C814.574 149.474 814.601 149.561 814.618 149.651C814.636 149.74 814.645 149.831 814.645 149.922V154.057C814.645 154.148 814.636 154.239 814.618 154.329C814.601 154.419 814.574 154.506 814.538 154.59C814.504 154.674 814.46 154.755 814.409 154.831C814.358 154.907 814.301 154.977 814.236 155.042C814.172 155.107 814.101 155.164 814.024 155.215C813.948 155.266 813.868 155.308 813.783 155.344C813.699 155.379 813.611 155.405 813.521 155.422C813.431 155.441 813.341 155.449 813.25 155.449H807.401C807.309 155.449 807.219 155.441 807.129 155.422C807.039 155.405 806.952 155.379 806.868 155.344C806.782 155.308 806.703 155.266 806.627 155.215C806.55 155.164 806.479 155.107 806.415 155.042C806.35 154.977 806.292 154.907 806.242 154.831C806.191 154.755 806.147 154.674 806.113 154.59C806.077 154.506 806.05 154.419 806.033 154.329C806.015 154.239 806.006 154.148 806.006 154.057V149.922C806.006 149.831 806.015 149.74 806.033 149.651C806.05 149.561 806.077 149.474 806.113 149.389C806.147 149.305 806.191 149.225 806.242 149.148C806.292 149.072 806.35 149.002 806.415 148.938C806.479 148.873 806.55 148.815 806.627 148.764C806.703 148.714 806.782 148.671 806.868 148.636C806.952 148.601 807.039 148.574 807.129 148.557C807.219 148.539 807.309 148.53 807.401 148.53Z" fill="white"/>
</g>
<mask id="mask11_1462_992" style="mask-type:luminance" maskUnits="userSpaceOnUse" x="821" y="148" width="10" height="8">
<path d="M821.303 148.514H830.091V155.382H821.303V148.514Z" fill="white"/>
</mask>
<g mask="url(#mask11_1462_992)">
<path d="M822.743 148.53H828.591C828.683 148.53 828.773 148.539 828.863 148.557C828.953 148.574 829.04 148.601 829.125 148.636C829.209 148.671 829.29 148.714 829.366 148.764C829.442 148.815 829.513 148.873 829.578 148.938C829.643 149.002 829.7 149.072 829.751 149.148C829.802 149.225 829.845 149.305 829.88 149.389C829.915 149.474 829.941 149.561 829.96 149.651C829.978 149.74 829.987 149.831 829.987 149.922V154.057C829.987 154.148 829.978 154.239 829.96 154.329C829.941 154.419 829.915 154.506 829.88 154.59C829.845 154.674 829.802 154.755 829.751 154.831C829.7 154.907 829.643 154.977 829.578 155.042C829.513 155.107 829.442 155.164 829.366 155.215C829.29 155.266 829.209 155.308 829.125 155.344C829.04 155.379 828.953 155.405 828.863 155.422C828.773 155.441 828.683 155.449 828.591 155.449H822.743C822.651 155.449 822.56 155.441 822.47 155.422C822.381 155.405 822.294 155.379 822.209 155.344C822.124 155.308 822.044 155.266 821.967 155.215C821.891 155.164 821.821 155.107 821.756 155.042C821.692 154.977 821.633 154.907 821.582 154.831C821.532 154.755 821.489 154.674 821.453 154.59C821.419 154.506 821.392 154.419 821.375 154.329C821.357 154.239 821.348 154.148 821.348 154.057V149.922C821.348 149.831 821.357 149.74 821.375 149.651C821.392 149.561 821.419 149.474 821.453 149.389C821.489 149.305 821.532 149.225 821.582 149.148C821.633 149.072 821.692 149.002 821.756 148.938C821.821 148.873 821.891 148.815 821.967 148.764C822.044 148.714 822.124 148.671 822.209 148.636C822.294 148.601 822.381 148.574 822.47 148.557C822.56 148.539 822.651 148.53 822.743 148.53Z" fill="white"/>
</g>
<mask id="mask12_1462_992" style="mask-type:luminance" maskUnits="userSpaceOnUse" x="836" y="127" width="25" height="10">
<path d="M836.504 127.181H860.645V136.899H836.504V127.181Z" fill="white"/>
</mask>
<g mask="url(#mask12_1462_992)">
<path d="M860.672 129.931V134.072C860.671 134.247 860.654 134.42 860.62 134.591C860.586 134.763 860.535 134.93 860.467 135.091C860.4 135.252 860.318 135.406 860.22 135.551C860.123 135.697 860.012 135.832 859.888 135.955C859.765 136.079 859.629 136.189 859.483 136.286C859.338 136.384 859.184 136.465 859.022 136.533C858.86 136.599 858.694 136.65 858.521 136.685C858.35 136.719 858.176 136.736 858.001 136.736H839.305C839.13 136.736 838.957 136.718 838.786 136.684C838.614 136.649 838.447 136.598 838.286 136.531C838.124 136.464 837.97 136.382 837.825 136.285C837.68 136.187 837.545 136.077 837.422 135.953C837.298 135.83 837.187 135.695 837.091 135.549C836.993 135.405 836.912 135.251 836.844 135.09C836.777 134.928 836.727 134.762 836.693 134.591C836.658 134.42 836.641 134.247 836.641 134.072V129.931C836.641 129.756 836.658 129.583 836.693 129.411C836.727 129.239 836.778 129.073 836.845 128.911C836.912 128.749 836.994 128.597 837.092 128.45C837.189 128.305 837.299 128.171 837.424 128.047C837.548 127.923 837.683 127.812 837.828 127.715C837.974 127.618 838.128 127.536 838.29 127.469C838.452 127.402 838.619 127.351 838.79 127.317C838.963 127.283 839.137 127.266 839.312 127.265H858.001C858.176 127.266 858.35 127.283 858.521 127.317C858.694 127.351 858.86 127.402 859.022 127.47C859.185 127.536 859.338 127.619 859.483 127.716C859.629 127.813 859.765 127.923 859.888 128.048C860.012 128.171 860.123 128.306 860.22 128.451C860.318 128.597 860.4 128.75 860.467 128.911C860.535 129.073 860.586 129.24 860.62 129.411C860.654 129.583 860.671 129.756 860.672 129.931Z" fill="white"/>
</g>
<path d="M849.482 123.637V125.679H847.891V123.637C847.891 123.54 847.882 123.445 847.863 123.349C847.843 123.255 847.815 123.162 847.778 123.073C847.741 122.983 847.696 122.898 847.642 122.818C847.588 122.737 847.527 122.663 847.458 122.595C847.389 122.526 847.314 122.465 847.234 122.411C847.153 122.358 847.068 122.312 846.978 122.274C846.888 122.237 846.797 122.209 846.701 122.19C846.606 122.171 846.51 122.162 846.413 122.161H820.268C820.172 122.161 820.075 122.171 819.98 122.19C819.884 122.208 819.791 122.236 819.701 122.273C819.612 122.31 819.527 122.356 819.445 122.409C819.365 122.463 819.289 122.524 819.221 122.593C819.152 122.661 819.091 122.736 819.036 122.817C818.982 122.897 818.936 122.983 818.899 123.071C818.862 123.161 818.833 123.254 818.814 123.349C818.795 123.444 818.786 123.54 818.786 123.637V125.679H817.195V123.637C817.196 123.436 817.216 123.237 817.255 123.04C817.295 122.843 817.353 122.652 817.43 122.466C817.507 122.281 817.602 122.104 817.714 121.937C817.825 121.77 817.952 121.615 818.095 121.473C818.237 121.331 818.392 121.204 818.56 121.093C818.727 120.981 818.904 120.886 819.09 120.809C819.276 120.733 819.468 120.674 819.665 120.634C819.863 120.596 820.062 120.575 820.264 120.575H832.544V117.057H834.133V120.574H846.408C846.61 120.574 846.81 120.594 847.007 120.633C847.205 120.671 847.397 120.73 847.583 120.807C847.77 120.883 847.947 120.978 848.115 121.09C848.282 121.201 848.438 121.328 848.58 121.471C848.723 121.613 848.85 121.768 848.962 121.934C849.074 122.102 849.169 122.279 849.247 122.464C849.324 122.65 849.382 122.842 849.421 123.039C849.461 123.236 849.481 123.436 849.482 123.637Z" fill="white"/>
<path d="M826.463 144.902V146.944H824.873V144.902C824.873 144.805 824.863 144.708 824.844 144.614C824.825 144.519 824.797 144.427 824.76 144.337C824.723 144.248 824.677 144.163 824.624 144.083C824.57 144.002 824.509 143.928 824.44 143.859C824.371 143.791 824.297 143.73 824.216 143.676C824.136 143.622 824.05 143.577 823.96 143.54C823.871 143.503 823.778 143.475 823.684 143.456C823.588 143.437 823.493 143.427 823.395 143.427H812.598C812.501 143.427 812.405 143.437 812.31 143.456C812.215 143.475 812.123 143.503 812.033 143.54C811.944 143.577 811.858 143.622 811.778 143.676C811.697 143.73 811.623 143.791 811.554 143.859C811.485 143.928 811.424 144.002 811.37 144.083C811.316 144.163 811.271 144.248 811.234 144.337C811.197 144.427 811.168 144.519 811.149 144.614C811.131 144.708 811.121 144.805 811.121 144.902V146.944H809.531V144.902C809.531 144.701 809.551 144.502 809.591 144.305C809.63 144.108 809.688 143.917 809.765 143.731C809.843 143.545 809.937 143.369 810.049 143.202C810.161 143.035 810.288 142.881 810.43 142.738C810.573 142.596 810.727 142.47 810.895 142.358C811.062 142.246 811.239 142.152 811.425 142.075C811.611 141.997 811.803 141.94 812 141.9C812.198 141.86 812.396 141.841 812.598 141.841H817.203V138.323H818.792V141.841H823.395C823.597 141.841 823.796 141.861 823.994 141.9C824.191 141.94 824.382 141.997 824.569 142.075C824.754 142.152 824.932 142.246 825.099 142.358C825.266 142.47 825.421 142.596 825.564 142.738C825.706 142.881 825.833 143.035 825.945 143.202C826.056 143.369 826.151 143.545 826.228 143.731C826.306 143.917 826.363 144.108 826.403 144.305C826.442 144.502 826.463 144.701 826.463 144.902Z" fill="white"/>
<mask id="mask13_1462_992" style="mask-type:luminance" maskUnits="userSpaceOnUse" x="836" y="148" width="10" height="8">
<path d="M836.504 148.514H845.53V155.382H836.504V148.514Z" fill="white"/>
</mask>
<g mask="url(#mask13_1462_992)">
<path d="M838.085 148.53H843.933C844.025 148.53 844.115 148.539 844.205 148.557C844.295 148.574 844.382 148.601 844.467 148.636C844.552 148.671 844.632 148.714 844.708 148.764C844.785 148.815 844.855 148.873 844.919 148.938C844.984 149.002 845.042 149.072 845.093 149.148C845.144 149.225 845.188 149.305 845.222 149.389C845.257 149.474 845.284 149.561 845.302 149.651C845.319 149.74 845.329 149.831 845.329 149.922V154.057C845.329 154.148 845.319 154.239 845.302 154.329C845.284 154.419 845.257 154.506 845.222 154.59C845.188 154.674 845.144 154.755 845.093 154.831C845.042 154.907 844.984 154.977 844.919 155.042C844.855 155.107 844.785 155.164 844.708 155.215C844.632 155.266 844.552 155.308 844.467 155.344C844.382 155.379 844.295 155.405 844.205 155.422C844.115 155.441 844.025 155.449 843.933 155.449H838.085C837.993 155.449 837.902 155.441 837.813 155.422C837.723 155.405 837.636 155.379 837.551 155.344C837.466 155.308 837.386 155.266 837.31 155.215C837.233 155.164 837.163 155.107 837.099 155.042C837.034 154.977 836.975 154.907 836.925 154.831C836.874 154.755 836.83 154.674 836.796 154.59C836.761 154.506 836.734 154.419 836.716 154.329C836.699 154.239 836.689 154.148 836.689 154.057V149.922C836.689 149.831 836.699 149.74 836.716 149.651C836.734 149.561 836.761 149.474 836.796 149.389C836.83 149.305 836.874 149.225 836.925 149.148C836.975 149.072 837.034 149.002 837.099 148.938C837.163 148.873 837.233 148.815 837.31 148.764C837.386 148.714 837.466 148.671 837.551 148.636C837.636 148.601 837.723 148.574 837.813 148.557C837.902 148.539 837.993 148.53 838.085 148.53Z" fill="white"/>
</g>
<mask id="mask14_1462_992" style="mask-type:luminance" maskUnits="userSpaceOnUse" x="851" y="148" width="10" height="8">
<path d="M851.943 148.514H860.645V155.382H851.943V148.514Z" fill="white"/>
</mask>
<g mask="url(#mask14_1462_992)">
<path d="M853.429 148.53H859.277C859.368 148.53 859.459 148.539 859.549 148.557C859.639 148.574 859.726 148.601 859.81 148.636C859.895 148.671 859.976 148.714 860.052 148.764C860.128 148.815 860.198 148.873 860.263 148.938C860.328 149.002 860.386 149.072 860.437 149.148C860.488 149.225 860.53 149.305 860.566 149.389C860.601 149.474 860.627 149.561 860.646 149.651C860.663 149.74 860.672 149.831 860.672 149.922V154.057C860.672 154.148 860.663 154.239 860.646 154.329C860.627 154.419 860.601 154.506 860.566 154.59C860.53 154.674 860.488 154.755 860.437 154.831C860.386 154.907 860.328 154.977 860.263 155.042C860.198 155.107 860.128 155.164 860.052 155.215C859.976 155.266 859.895 155.308 859.81 155.344C859.726 155.379 859.639 155.405 859.549 155.422C859.459 155.441 859.368 155.449 859.277 155.449H853.429C853.337 155.449 853.246 155.441 853.156 155.422C853.067 155.405 852.98 155.379 852.894 155.344C852.81 155.308 852.729 155.266 852.653 155.215C852.577 155.164 852.506 155.107 852.441 155.042C852.377 154.977 852.319 154.907 852.268 154.831C852.218 154.755 852.174 154.674 852.139 154.59C852.105 154.506 852.078 154.419 852.06 154.329C852.042 154.239 852.033 154.148 852.033 154.057V149.922C852.033 149.831 852.042 149.74 852.06 149.651C852.078 149.561 852.105 149.474 852.139 149.389C852.174 149.305 852.218 149.225 852.268 149.148C852.319 149.072 852.377 149.002 852.441 148.938C852.506 148.873 852.577 148.815 852.653 148.764C852.729 148.714 852.81 148.671 852.894 148.636C852.98 148.601 853.067 148.574 853.156 148.557C853.246 148.539 853.337 148.53 853.429 148.53Z" fill="white"/>
</g>
<path d="M857.146 144.902V146.944H855.557V144.902C855.556 144.805 855.547 144.708 855.528 144.614C855.509 144.519 855.481 144.427 855.444 144.337C855.407 144.248 855.361 144.163 855.307 144.082C855.253 144.002 855.192 143.928 855.124 143.859C855.055 143.791 854.981 143.73 854.9 143.676C854.819 143.622 854.734 143.577 854.644 143.54C854.555 143.503 854.462 143.475 854.367 143.456C854.272 143.437 854.176 143.427 854.079 143.427H843.281C843.185 143.427 843.088 143.437 842.994 143.456C842.898 143.475 842.806 143.503 842.716 143.54C842.627 143.577 842.542 143.622 842.461 143.676C842.38 143.73 842.306 143.791 842.238 143.859C842.169 143.928 842.108 144.002 842.054 144.082C842 144.163 841.955 144.248 841.917 144.337C841.88 144.427 841.852 144.519 841.833 144.614C841.814 144.708 841.804 144.805 841.804 144.902V146.944H840.215V144.902C840.215 144.701 840.234 144.502 840.274 144.305C840.313 144.107 840.372 143.917 840.449 143.731C840.527 143.545 840.62 143.369 840.733 143.202C840.845 143.035 840.972 142.881 841.114 142.738C841.257 142.596 841.411 142.469 841.579 142.357C841.746 142.246 841.923 142.152 842.109 142.075C842.294 141.997 842.486 141.94 842.684 141.9C842.881 141.861 843.08 141.841 843.281 141.841H847.891V138.322H849.481V141.841H854.079C854.28 141.841 854.48 141.86 854.677 141.9C854.875 141.94 855.066 141.997 855.253 142.075C855.438 142.152 855.615 142.246 855.782 142.357C855.949 142.469 856.104 142.596 856.247 142.738C856.389 142.881 856.516 143.035 856.629 143.202C856.74 143.369 856.834 143.545 856.912 143.731C856.989 143.917 857.047 144.107 857.087 144.305C857.126 144.502 857.146 144.701 857.146 144.902Z" fill="white"/>
<mask id="mask15_1462_992" style="mask-type:luminance" maskUnits="userSpaceOnUse" x="77" y="401" width="41" height="31">
<path d="M77 401H117.992V431.017H77V401Z" fill="white"/>
</mask>
<g mask="url(#mask15_1462_992)">
<path d="M83.4734 401C79.8978 401 77.0195 403.878 77.0195 407.454V424.661C77.0195 428.235 79.8978 431.113 83.4734 431.113H111.436C115.01 431.113 117.888 428.235 117.888 424.661V407.454C117.888 403.878 115.01 401 111.436 401H83.4734ZM92.6152 409.066L105.519 416.057L92.6152 423.048V409.066Z" fill="#344A5E"/>
</g>
<path d="M136.455 408.491H141.36L136.044 424.713H130.891L125.596 408.491H130.52L132.73 416.716C133.188 418.54 133.439 419.812 133.484 420.529C133.538 420.014 133.641 419.367 133.794 418.589C133.951 417.813 134.087 417.201 134.205 416.757L136.455 408.491Z" fill="#344A5E"/>
<path d="M158.299 416.583C158.299 419.314 157.629 421.389 156.291 422.807C154.953 424.227 152.992 424.936 150.41 424.936C147.867 424.936 145.917 424.222 144.556 422.794C143.199 421.366 142.521 419.288 142.521 416.556C142.521 413.858 143.195 411.796 144.543 410.371C145.893 408.948 147.859 408.236 150.437 408.236C153.014 408.236 154.968 408.943 156.298 410.358C157.632 411.769 158.299 413.844 158.299 416.583ZM147.136 416.583C147.136 419.719 148.228 421.285 150.41 421.285C151.518 421.285 152.34 420.906 152.876 420.146C153.415 419.384 153.684 418.196 153.684 416.583C153.684 414.963 153.411 413.765 152.869 412.992C152.325 412.221 151.515 411.833 150.437 411.833C148.236 411.833 147.136 413.416 147.136 416.583Z" fill="#344A5E"/>
<path d="M174.997 416.261C174.997 418.969 174.25 421.056 172.76 422.519C171.268 423.984 169.173 424.715 166.475 424.715H161.227V408.493H166.845C169.445 408.493 171.453 409.16 172.868 410.494C174.286 411.824 174.997 413.746 174.997 416.261ZM170.449 416.416C170.449 414.93 170.154 413.829 169.567 413.115C168.977 412.397 168.085 412.037 166.885 412.037H165.612V421.118H166.589C167.918 421.118 168.893 420.732 169.513 419.959C170.136 419.188 170.449 418.005 170.449 416.416Z" fill="#344A5E"/>
<mask id="mask16_1462_992" style="mask-type:luminance" maskUnits="userSpaceOnUse" x="78" y="339" width="95" height="34">
<path d="M78 339H173V372.11H78V339Z" fill="white"/>
</mask>
<g mask="url(#mask16_1462_992)">
<path d="M94.5613 339H156.503C157.044 339 157.583 339.028 158.122 339.08C158.66 339.133 159.194 339.212 159.726 339.319C160.255 339.424 160.78 339.554 161.297 339.713C161.815 339.869 162.324 340.052 162.824 340.258C163.323 340.465 163.812 340.696 164.289 340.951C164.767 341.206 165.23 341.484 165.679 341.784C166.129 342.084 166.562 342.407 166.98 342.75C167.398 343.094 167.799 343.455 168.182 343.838C168.564 344.221 168.928 344.621 169.27 345.039C169.614 345.458 169.935 345.892 170.235 346.341C170.536 346.791 170.813 347.255 171.069 347.731C171.324 348.209 171.555 348.697 171.763 349.197C171.97 349.696 172.152 350.205 172.309 350.723C172.465 351.241 172.596 351.764 172.703 352.296C172.808 352.825 172.887 353.36 172.94 353.899C172.993 354.437 173.019 354.976 173.019 355.517C173.019 356.058 172.993 356.599 172.94 357.136C172.887 357.674 172.808 358.208 172.703 358.74C172.596 359.269 172.465 359.794 172.309 360.312C172.152 360.829 171.97 361.338 171.763 361.838C171.555 362.337 171.324 362.826 171.069 363.303C170.813 363.781 170.536 364.244 170.235 364.693C169.935 365.143 169.614 365.578 169.27 365.996C168.928 366.414 168.564 366.815 168.182 367.196C167.799 367.578 167.398 367.942 166.98 368.286C166.562 368.628 166.129 368.949 165.679 369.251C165.23 369.551 164.767 369.829 164.289 370.084C163.812 370.339 163.323 370.57 162.824 370.777C162.324 370.984 161.815 371.166 161.297 371.323C160.78 371.479 160.255 371.612 159.726 371.717C159.194 371.822 158.66 371.901 158.122 371.954C157.583 372.007 157.044 372.033 156.503 372.033H94.5613C94.0203 372.033 93.481 372.007 92.9418 371.954C92.4041 371.901 91.8696 371.822 91.3384 371.717C90.8088 371.612 90.284 371.479 89.7673 371.323C89.249 371.166 88.7404 370.984 88.2415 370.777C87.7409 370.57 87.2533 370.339 86.7754 370.084C86.2991 369.829 85.8356 369.551 85.3852 369.251C84.9363 368.949 84.5019 368.628 84.0837 368.286C83.6655 367.942 83.2651 367.578 82.8824 367.196C82.4998 366.815 82.1365 366.414 81.7942 365.996C81.4502 365.578 81.1289 365.143 80.8286 364.693C80.5283 364.244 80.2505 363.781 79.9954 363.303C79.7403 362.826 79.5094 362.337 79.3027 361.838C79.0944 361.338 78.9136 360.829 78.7554 360.312C78.5987 359.794 78.468 359.269 78.3614 358.74C78.2564 358.208 78.1773 357.674 78.124 357.136C78.0708 356.599 78.0449 356.058 78.0449 355.517C78.0449 354.976 78.0708 354.437 78.124 353.899C78.1773 353.36 78.2564 352.825 78.3614 352.296C78.468 351.764 78.5987 351.241 78.7554 350.723C78.9136 350.205 79.0944 349.696 79.3027 349.197C79.5094 348.697 79.7403 348.209 79.9954 347.731C80.2505 347.255 80.5283 346.791 80.8286 346.341C81.1289 345.892 81.4502 345.458 81.7942 345.039C82.1365 344.621 82.4998 344.221 82.8824 343.838C83.2651 343.455 83.6655 343.094 84.0837 342.75C84.5019 342.407 84.9363 342.084 85.3852 341.784C85.8356 341.484 86.2991 341.206 86.7754 340.951C87.2533 340.696 87.7409 340.465 88.2415 340.258C88.7404 340.052 89.249 339.869 89.7673 339.713C90.284 339.554 90.8088 339.424 91.3384 339.319C91.8696 339.212 92.4041 339.133 92.9418 339.08C93.481 339.028 94.0203 339 94.5613 339Z" fill="#344A5E"/>
</g>
<path d="M116.782 346.056H113.08V364.021H124.641V361.047H116.782V346.056Z" fill="#FFF3D4"/>
<path d="M126.998 346.056H130.699V364.021H126.998V346.056Z" fill="#FFF3D4"/>
<path d="M140.767 359.566L136.721 346.056H132.611L138.842 364.021H142.705L148.96 346.056H144.839L140.767 359.566Z" fill="#FFF3D4"/>
<path d="M154.349 361.047V356.235H161.457V353.337H154.349V349.055H162.666V346.056H150.648V364.021H162.691V361.047H154.349Z" fill="#FFF3D4"/>
<path d="M107.981 355.516C107.981 355.917 107.96 356.316 107.921 356.714C107.883 357.113 107.825 357.507 107.745 357.9C107.668 358.294 107.571 358.681 107.455 359.064C107.339 359.446 107.203 359.823 107.051 360.192C106.898 360.562 106.727 360.924 106.538 361.276C106.349 361.629 106.144 361.972 105.921 362.304C105.7 362.637 105.461 362.958 105.207 363.268C104.954 363.577 104.686 363.872 104.401 364.156C104.119 364.439 103.823 364.707 103.513 364.96C103.205 365.216 102.884 365.453 102.551 365.676C102.218 365.897 101.875 366.104 101.523 366.291C101.169 366.48 100.809 366.651 100.439 366.804C100.069 366.958 99.6931 367.092 99.3088 367.208C98.9262 367.324 98.5386 367.421 98.1463 367.5C97.7539 367.578 97.3583 367.636 96.9611 367.675C96.5623 367.715 96.1635 367.734 95.763 367.734C95.3626 367.734 94.9638 367.715 94.565 367.675C94.1678 367.636 93.7722 367.578 93.3798 367.5C92.9874 367.421 92.5999 367.324 92.2172 367.208C91.833 367.092 91.4567 366.958 91.087 366.804C90.7172 366.651 90.3572 366.48 90.0036 366.291C89.6516 366.104 89.3076 365.897 88.975 365.676C88.6424 365.453 88.3211 365.216 88.0127 364.96C87.7027 364.707 87.4072 364.439 87.1246 364.156C86.8404 363.872 86.5724 363.577 86.3189 363.268C86.0654 362.958 85.8264 362.637 85.6052 362.304C85.3824 361.972 85.1773 361.629 84.9884 361.276C84.7995 360.924 84.6284 360.562 84.475 360.192C84.3232 359.823 84.1876 359.446 84.0713 359.064C83.955 358.681 83.8582 358.294 83.7807 357.9C83.7015 357.507 83.6434 357.113 83.6047 356.714C83.5659 356.316 83.5449 355.917 83.5449 355.516C83.5449 355.116 83.5659 354.717 83.6047 354.32C83.6434 353.921 83.7015 353.525 83.7807 353.133C83.8582 352.741 83.955 352.353 84.0713 351.971C84.1876 351.588 84.3232 351.212 84.475 350.842C84.6284 350.472 84.7995 350.11 84.9884 349.757C85.1773 349.405 85.3824 349.063 85.6052 348.73C85.8264 348.396 86.0654 348.076 86.3189 347.766C86.5724 347.458 86.8404 347.16 87.1246 346.878C87.4072 346.595 87.7027 346.326 88.0127 346.072C88.3211 345.819 88.6424 345.581 88.975 345.358C89.3076 345.136 89.6516 344.931 90.0036 344.742C90.3572 344.553 90.7172 344.383 91.087 344.23C91.4567 344.076 91.833 343.941 92.2172 343.826C92.5999 343.71 92.9874 343.611 93.3798 343.534C93.7722 343.456 94.1678 343.397 94.565 343.358C94.9638 343.319 95.3626 343.3 95.763 343.3C96.1635 343.3 96.5623 343.319 96.9611 343.358C97.3583 343.397 97.7539 343.456 98.1463 343.534C98.5386 343.611 98.9262 343.71 99.3088 343.826C99.6931 343.941 100.069 344.076 100.439 344.23C100.809 344.383 101.169 344.553 101.523 344.742C101.875 344.931 102.218 345.136 102.551 345.358C102.884 345.581 103.205 345.819 103.513 346.072C103.823 346.326 104.119 346.595 104.401 346.878C104.686 347.16 104.954 347.458 105.207 347.766C105.461 348.076 105.7 348.396 105.921 348.73C106.144 349.063 106.349 349.405 106.538 349.757C106.727 350.11 106.898 350.472 107.051 350.842C107.203 351.212 107.339 351.588 107.455 351.971C107.571 352.353 107.668 352.741 107.745 353.133C107.825 353.525 107.883 353.921 107.921 354.32C107.96 354.717 107.981 355.116 107.981 355.516Z" fill="#FFF3D4"/>
<path d="M100.127 354.744L93.1826 350.735C93.0454 350.654 92.8968 350.616 92.737 350.616C92.5771 350.616 92.4286 350.654 92.2913 350.735C92.1525 350.814 92.0443 350.924 91.9652 351.061C91.8845 351.2 91.8457 351.349 91.8457 351.507V359.525C91.8457 359.685 91.8845 359.834 91.9652 359.973C92.0443 360.11 92.1525 360.218 92.2913 360.299C92.4286 360.378 92.5771 360.418 92.737 360.418C92.8968 360.418 93.0454 360.378 93.1826 360.299L100.127 356.29C100.266 356.209 100.374 356.101 100.455 355.963C100.534 355.825 100.575 355.676 100.575 355.516C100.575 355.358 100.534 355.209 100.455 355.071C100.374 354.933 100.266 354.824 100.127 354.744Z" fill="#344A5E"/>
<path d="M337.215 122.587C336.821 122.627 336.539 122.981 336.539 123.381V124.93C336.539 125.323 336.815 125.684 337.215 125.723C337.693 125.762 338.087 125.408 338.087 124.93V123.381C338.087 122.902 337.687 122.509 337.215 122.587Z" fill="white"/>
<path d="M337.215 131.508C336.821 131.548 336.539 131.902 336.539 132.302V133.81C336.539 134.204 336.815 134.565 337.215 134.604C337.693 134.644 338.087 134.29 338.087 133.81V132.302C338.087 131.83 337.687 131.43 337.215 131.508Z" fill="white"/>
<path d="M337.215 127.068C336.821 127.107 336.539 127.461 336.539 127.862V129.37C336.539 129.763 336.815 130.124 337.215 130.164C337.693 130.203 338.087 129.849 338.087 129.37V127.862C338.087 127.382 337.687 126.989 337.215 127.068Z" fill="white"/>
<path d="M337.215 118.186C336.821 118.225 336.539 118.58 336.539 118.98V120.488C336.539 120.882 336.815 121.242 337.215 121.282C337.693 121.322 338.087 120.968 338.087 120.488V118.98C338.087 118.501 337.687 118.101 337.215 118.186Z" fill="white"/>
<path d="M341.373 135.949C340.979 135.988 340.697 136.342 340.697 136.742V138.251C340.697 138.645 340.973 139.006 341.373 139.045C341.851 139.085 342.246 138.73 342.246 138.251V136.742C342.252 136.27 341.851 135.87 341.373 135.949Z" fill="white"/>
<path d="M341.373 131.508C340.979 131.548 340.697 131.902 340.697 132.302V133.81C340.697 134.204 340.973 134.565 341.373 134.604C341.851 134.644 342.246 134.29 342.246 133.81V132.302C342.252 131.83 341.851 131.43 341.373 131.508Z" fill="white"/>
<path d="M333.244 131.508C332.851 131.548 332.568 131.902 332.568 132.302V133.81C332.568 134.204 332.844 134.565 333.244 134.604C333.724 134.644 334.117 134.29 334.117 133.81V132.302C334.117 131.83 333.724 131.43 333.244 131.508Z" fill="white"/>
<path d="M337.215 135.949C336.821 135.988 336.539 136.342 336.539 136.742V138.251C336.539 138.645 336.815 139.006 337.215 139.045C337.693 139.085 338.087 138.73 338.087 138.251V136.742C338.087 136.27 337.687 135.87 337.215 135.949Z" fill="white"/>
<path d="M333.244 135.949C332.851 135.988 332.568 136.342 332.568 136.742V138.251C332.568 138.645 332.844 139.006 333.244 139.045C333.724 139.085 334.117 138.73 334.117 138.251V136.742C334.117 136.27 333.724 135.87 333.244 135.949Z" fill="white"/>
<path d="M333.244 122.587C332.851 122.627 332.568 122.981 332.568 123.381V124.93C332.568 125.323 332.844 125.684 333.244 125.723C333.724 125.762 334.117 125.408 334.117 124.93V123.381C334.117 122.902 333.724 122.509 333.244 122.587Z" fill="white"/>
<path d="M333.244 127.068C332.851 127.107 332.568 127.461 332.568 127.862V129.37C332.568 129.763 332.844 130.124 333.244 130.164C333.724 130.203 334.117 129.849 334.117 129.37V127.862C334.117 127.382 333.724 126.989 333.244 127.068Z" fill="white"/>
<path d="M354.505 132.42C354.112 132.459 353.83 132.813 353.83 133.213V134.88C353.83 135.358 354.223 135.752 354.703 135.673C355.096 135.634 355.377 135.28 355.377 134.88V133.213C355.377 132.741 354.977 132.341 354.505 132.42Z" fill="white"/>
<path d="M350.858 132.42C350.465 132.459 350.184 132.813 350.184 133.213V134.88C350.184 135.358 350.577 135.752 351.056 135.673C351.449 135.634 351.731 135.28 351.731 134.88V133.213C351.731 132.741 351.331 132.341 350.858 132.42Z" fill="white"/>
<path d="M354.703 142.017C354.223 141.977 353.83 142.332 353.83 142.81V144.516C353.83 144.995 354.223 145.389 354.703 145.309C355.096 145.27 355.377 144.916 355.377 144.516V142.81C355.377 142.417 355.103 142.062 354.703 142.017Z" fill="white"/>
<path d="M354.703 137.261C354.223 137.222 353.83 137.576 353.83 138.055V139.721C353.83 140.2 354.223 140.593 354.703 140.515C355.096 140.475 355.377 140.121 355.377 139.721V138.055C355.377 137.655 355.103 137.3 354.703 137.261Z" fill="white"/>
<path d="M351.056 137.261C350.577 137.222 350.184 137.576 350.184 138.055V139.721C350.184 140.2 350.577 140.593 351.056 140.515C351.449 140.475 351.731 140.121 351.731 139.721V138.055C351.731 137.655 351.449 137.3 351.056 137.261Z" fill="white"/>
<path d="M351.056 142.017C350.577 141.977 350.184 142.332 350.184 142.81V144.516C350.184 144.995 350.577 145.389 351.056 145.309C351.449 145.27 351.731 144.916 351.731 144.516V142.81C351.731 142.417 351.449 142.062 351.056 142.017Z" fill="white"/>
<mask id="mask17_1462_992" style="mask-type:luminance" maskUnits="userSpaceOnUse" x="314" y="101" width="59" height="59">
<path d="M314 101H373V160H314V101Z" fill="white"/>
</mask>
<g mask="url(#mask17_1462_992)">
<path d="M343.518 101C327.218 101 314 114.218 314 130.518C314 146.818 327.218 160.036 343.518 160.036C359.818 160.036 373.036 146.818 373.036 130.518C373.036 114.218 359.818 101 343.518 101ZM341.019 148.367H334.118V142.377H341.019V148.367ZM346.293 148.367H342.409V141.787C342.409 141.347 342.055 140.993 341.616 140.993H333.521C333.082 140.993 332.727 141.347 332.727 141.787V148.373H328.765V119.216C328.765 119.058 328.844 118.901 328.963 118.776C329.52 118.219 330.865 117.032 333.01 115.883C335.587 114.493 339.871 112.827 345.899 112.669C346.135 112.669 346.293 112.827 346.293 113.109V148.367ZM358.27 148.367H347.486V130.596C347.486 130.242 347.762 129.961 348.123 129.961H357.64C357.994 129.961 358.277 130.235 358.277 130.596V148.367H358.27Z" fill="white"/>
</g>
<path d="M341.373 118.186C340.979 118.225 340.697 118.58 340.697 118.98V120.488C340.697 120.882 340.973 121.242 341.373 121.282C341.851 121.322 342.246 120.968 342.246 120.488V118.98C342.252 118.501 341.851 118.101 341.373 118.186Z" fill="white"/>
<path d="M341.373 122.587C340.979 122.627 340.697 122.981 340.697 123.381V124.93C340.697 125.323 340.973 125.684 341.373 125.723C341.851 125.762 342.246 125.408 342.246 124.93V123.381C342.252 122.902 341.851 122.509 341.373 122.587Z" fill="white"/>
<path d="M341.373 127.068C340.979 127.107 340.697 127.461 340.697 127.862V129.37C340.697 129.763 340.973 130.124 341.373 130.164C341.851 130.203 342.246 129.849 342.246 129.37V127.862C342.252 127.382 341.851 126.989 341.373 127.068Z" fill="white"/>
<path d="M315.347 177L314.42 174.423H310.872L309.964 177H308.364L311.836 167.682H313.487L316.959 177H315.347ZM314.02 173.115L313.15 170.589C313.087 170.42 312.998 170.153 312.884 169.789C312.774 169.425 312.698 169.159 312.655 168.989C312.541 169.51 312.374 170.079 312.154 170.697L311.316 173.115H314.02ZM320.393 177.127C319.517 177.127 318.834 176.81 318.343 176.175C317.852 175.54 317.606 174.649 317.606 173.502C317.606 172.351 317.854 171.456 318.349 170.817C318.848 170.174 319.538 169.853 320.418 169.853C321.341 169.853 322.043 170.193 322.526 170.875H322.602C322.53 170.371 322.494 169.973 322.494 169.681V167.123H323.992V177H322.824L322.564 176.08H322.494C322.016 176.778 321.316 177.127 320.393 177.127ZM320.793 175.921C321.407 175.921 321.853 175.75 322.132 175.407C322.412 175.06 322.556 174.499 322.564 173.725V173.515C322.564 172.631 322.42 172.002 322.132 171.63C321.845 171.257 321.394 171.071 320.78 171.071C320.256 171.071 319.851 171.285 319.568 171.712C319.284 172.136 319.143 172.741 319.143 173.528C319.143 174.306 319.28 174.901 319.555 175.312C319.83 175.718 320.243 175.921 320.793 175.921ZM327.725 177L325.059 169.979H326.633L328.061 174.061C328.306 174.747 328.455 175.301 328.505 175.724H328.556C328.594 175.419 328.742 174.865 329 174.061L330.429 169.979H332.016L329.337 177H327.725ZM336.148 177.127C335.056 177.127 334.201 176.81 333.583 176.175C332.97 175.536 332.663 174.658 332.663 173.541C332.663 172.394 332.949 171.492 333.52 170.836C334.091 170.181 334.876 169.853 335.875 169.853C336.802 169.853 337.534 170.134 338.071 170.697C338.609 171.26 338.877 172.034 338.877 173.02V173.826H334.199C334.22 174.507 334.404 175.032 334.751 175.4C335.098 175.764 335.587 175.946 336.218 175.946C336.632 175.946 337.018 175.908 337.373 175.832C337.733 175.752 338.118 175.62 338.528 175.438V176.651C338.164 176.824 337.796 176.947 337.424 177.019C337.051 177.091 336.626 177.127 336.148 177.127ZM335.875 170.982C335.401 170.982 335.02 171.133 334.732 171.433C334.449 171.734 334.28 172.172 334.225 172.747H337.411C337.403 172.167 337.263 171.729 336.992 171.433C336.721 171.133 336.349 170.982 335.875 170.982ZM344.133 169.853C344.434 169.853 344.681 169.874 344.876 169.916L344.73 171.306C344.518 171.255 344.298 171.23 344.07 171.23C343.473 171.23 342.989 171.425 342.616 171.814C342.248 172.203 342.064 172.709 342.064 173.331V177H340.572V169.979H341.74L341.937 171.217H342.013C342.246 170.798 342.549 170.466 342.921 170.221C343.298 169.975 343.702 169.853 344.133 169.853ZM348.799 175.921C349.163 175.921 349.527 175.864 349.891 175.75V176.873C349.726 176.945 349.512 177.004 349.25 177.051C348.991 177.102 348.723 177.127 348.443 177.127C347.03 177.127 346.323 176.382 346.323 174.893V171.109H345.365V170.449L346.393 169.903L346.901 168.418H347.821V169.979H349.821V171.109H347.821V174.867C347.821 175.227 347.91 175.493 348.088 175.667C348.27 175.836 348.507 175.921 348.799 175.921ZM352.792 177H351.3V169.979H352.792V177ZM351.211 168.12C351.211 167.853 351.283 167.648 351.427 167.504C351.575 167.36 351.784 167.288 352.055 167.288C352.318 167.288 352.521 167.36 352.665 167.504C352.813 167.648 352.887 167.853 352.887 168.12C352.887 168.374 352.813 168.575 352.665 168.723C352.521 168.867 352.318 168.938 352.055 168.938C351.784 168.938 351.575 168.867 351.427 168.723C351.283 168.575 351.211 168.374 351.211 168.12ZM359.647 175C359.647 175.686 359.397 176.213 358.898 176.581C358.399 176.945 357.683 177.127 356.752 177.127C355.817 177.127 355.066 176.985 354.499 176.702V175.413C355.324 175.794 356.092 175.984 356.803 175.984C357.722 175.984 358.181 175.707 358.181 175.153C358.181 174.975 358.13 174.827 358.028 174.708C357.927 174.59 357.76 174.467 357.527 174.34C357.294 174.213 356.97 174.069 356.556 173.909C355.747 173.596 355.199 173.282 354.912 172.969C354.628 172.656 354.486 172.25 354.486 171.75C354.486 171.15 354.728 170.684 355.21 170.354C355.697 170.02 356.357 169.853 357.19 169.853C358.016 169.853 358.796 170.02 359.533 170.354L359.05 171.478C358.293 171.164 357.656 171.008 357.14 171.008C356.353 171.008 355.959 171.232 355.959 171.681C355.959 171.901 356.061 172.087 356.264 172.239C356.471 172.392 356.92 172.601 357.609 172.868C358.189 173.092 358.61 173.297 358.873 173.483C359.135 173.67 359.33 173.885 359.457 174.131C359.583 174.372 359.647 174.662 359.647 175ZM364.332 177.127C363.24 177.127 362.385 176.81 361.767 176.175C361.153 175.536 360.847 174.658 360.847 173.541C360.847 172.394 361.132 171.492 361.704 170.836C362.275 170.181 363.06 169.853 364.059 169.853C364.985 169.853 365.717 170.134 366.255 170.697C366.792 171.26 367.061 172.034 367.061 173.02V173.826H362.383C362.404 174.507 362.588 175.032 362.935 175.4C363.282 175.764 363.771 175.946 364.401 175.946C364.816 175.946 365.201 175.908 365.557 175.832C365.916 175.752 366.301 175.62 366.712 175.438V176.651C366.348 176.824 365.98 176.947 365.607 177.019C365.235 177.091 364.81 177.127 364.332 177.127ZM364.059 170.982C363.585 170.982 363.204 171.133 362.916 171.433C362.632 171.734 362.463 172.172 362.408 172.747H365.595C365.586 172.167 365.447 171.729 365.176 171.433C364.905 171.133 364.533 170.982 364.059 170.982ZM372.317 169.853C372.617 169.853 372.865 169.874 373.06 169.916L372.914 171.306C372.702 171.255 372.482 171.23 372.253 171.23C371.657 171.23 371.172 171.425 370.8 171.814C370.432 172.203 370.248 172.709 370.248 173.331V177H368.756V169.979H369.924L370.121 171.217H370.197C370.43 170.798 370.732 170.466 371.104 170.221C371.481 169.975 371.885 169.853 372.317 169.853ZM379.083 175C379.083 175.686 378.834 176.213 378.334 176.581C377.835 176.945 377.12 177.127 376.189 177.127C375.254 177.127 374.503 176.985 373.936 176.702V175.413C374.761 175.794 375.529 175.984 376.24 175.984C377.158 175.984 377.617 175.707 377.617 175.153C377.617 174.975 377.566 174.827 377.465 174.708C377.363 174.59 377.196 174.467 376.963 174.34C376.731 174.213 376.407 174.069 375.992 173.909C375.184 173.596 374.636 173.282 374.348 172.969C374.065 172.656 373.923 172.25 373.923 171.75C373.923 171.15 374.164 170.684 374.646 170.354C375.133 170.02 375.793 169.853 376.627 169.853C377.452 169.853 378.233 170.02 378.969 170.354L378.487 171.478C377.729 171.164 377.092 171.008 376.576 171.008C375.789 171.008 375.396 171.232 375.396 171.681C375.396 171.901 375.497 172.087 375.7 172.239C375.908 172.392 376.356 172.601 377.046 172.868C377.626 173.092 378.047 173.297 378.309 173.483C378.571 173.67 378.766 173.885 378.893 174.131C379.02 174.372 379.083 174.662 379.083 175Z" fill="white"/>
<mask id="mask18_1462_992" style="mask-type:luminance" maskUnits="userSpaceOnUse" x="453" y="94" width="41" height="41">
<path d="M453 94H494V134.999H453V94Z" fill="white"/>
</mask>
<g mask="url(#mask18_1462_992)">
<path d="M492.407 135.029H454.619C453.723 135.029 452.996 134.302 452.996 133.406V95.6176C452.996 94.7214 453.723 93.9946 454.619 93.9946H492.407C493.304 93.9946 494.03 94.7214 494.03 95.6176V133.406C494.03 134.302 493.304 135.029 492.407 135.029ZM456.242 131.783H490.785V97.2406H456.242V131.783Z" fill="#344A5E"/>
</g>
<path d="M469.525 122.259C468.628 122.259 467.902 122.986 467.902 123.882V127.012C467.902 127.908 468.628 128.635 469.525 128.635C470.421 128.635 471.148 127.908 471.148 127.012V123.882C471.148 122.986 470.421 122.259 469.525 122.259Z" fill="#344A5E"/>
<path d="M465.954 127.012V123.882C465.954 123.862 465.957 123.843 465.958 123.824H461.271C460.375 123.824 459.648 124.55 459.648 125.447C459.648 126.343 460.375 127.07 461.271 127.07H465.958C465.957 127.05 465.954 127.031 465.954 127.012Z" fill="#344A5E"/>
<path d="M485.753 123.824H473.092C473.092 123.843 473.095 123.862 473.095 123.882V127.012C473.095 127.031 473.092 127.05 473.092 127.07H485.753C486.65 127.07 487.376 126.343 487.376 125.447C487.376 124.55 486.65 123.824 485.753 123.824Z" fill="#344A5E"/>
<path d="M467.004 111.496H468.871L467.938 108.903L467.004 111.496Z" fill="#344A5E"/>
<path d="M486.077 100.39H460.946C460.05 100.39 459.324 101.116 459.324 102.012V118.565C459.324 119.461 460.05 120.188 460.946 120.188H486.077C486.973 120.188 487.7 119.461 487.7 118.565V102.012C487.7 101.116 486.973 100.39 486.077 100.39ZM472.282 116.556C472.114 116.616 471.944 116.645 471.776 116.645C471.164 116.645 470.59 116.266 470.371 115.657L469.948 114.483H465.928L465.505 115.657C465.225 116.432 464.368 116.836 463.595 116.556C462.819 116.276 462.416 115.421 462.696 114.645L466.093 105.217C466.411 104.418 467.128 103.932 467.938 103.932C468.747 103.932 469.464 104.418 469.764 105.169L473.18 114.646C473.459 115.421 473.057 116.276 472.282 116.556ZM478.908 116.627H476.385C475.561 116.627 474.892 115.959 474.892 115.134V105.424C474.892 104.6 475.561 103.932 476.385 103.932H478.799C482.107 103.932 484.417 106.545 484.417 110.288C484.417 113.847 482.049 116.572 478.908 116.627Z" fill="#344A5E"/>
<path d="M478.798 106.917H477.877V113.641H478.88C480.37 113.614 481.43 112.236 481.43 110.287C481.43 108.659 480.738 106.917 478.798 106.917Z" fill="#344A5E"/>
<path d="M529 385L519 379.226V390.774L529 385ZM421 386H520V384H421V386Z" fill="#344A5E"/>
<path d="M765 325L755 319.226V330.774L765 325ZM705 326H756V324H705V326Z" fill="#344A5E"/>
<path d="M279 384L269 378.226V389.774L279 384ZM231 385H270V383H231V385Z" fill="#344A5E"/>
<path d="M835 274L840.774 264L829.226 264L835 274ZM835 198L829.227 208L840.774 208L835 198ZM836 265L836 207L834 207L834 265L836 265Z" fill="#344A5E"/>
<path d="M529 142L519 136.226V147.774L529 142ZM415 143H520V141H415V143Z" fill="#344A5E"/>
<line x1="197" y1="352" x2="231" y2="352" stroke="#344A5E" stroke-width="2"/>
<path d="M671 141L681 146.774V135.226L671 141ZM680 142H705V140H680V142Z" fill="#344A5E"/>
<line x1="230" y1="417" x2="230" y2="352" stroke="#344A5E" stroke-width="2"/>
<line x1="704" y1="385" x2="704" y2="141" stroke="#344A5E" stroke-width="2"/>
<line x1="197" y1="416" x2="231" y2="416" stroke="#344A5E" stroke-width="2"/>
<path d="M671 385L681 390.774V379.226L671 385ZM680 386H705V384H680V386Z" fill="#344A5E"/>
</svg>
