<?xml version="1.0" encoding="UTF-8"?>
<svg id="Layer_1" data-name="Layer 1" xmlns="http://www.w3.org/2000/svg" viewBox="0 0 249.52 44">
  <defs>
    <style>
      .cls-1 {
        stroke: #fff;
        stroke-linecap: round;
        stroke-linejoin: round;
        stroke-width: 2px;
      }

      .cls-1, .cls-2 {
        fill: #fff;
      }
    </style>
  </defs>
  <g>
    <g>
      <path class="cls-2" d="M68.33,19.8c0,1.75-.3,3.36-.91,4.82-.61,1.46-1.45,2.72-2.52,3.78-1.07,1.06-2.34,1.88-3.81,2.47-1.47.59-3.08.88-4.81.88s-3.33-.29-4.79-.88c-1.46-.59-2.73-1.41-3.8-2.47-1.07-1.06-1.9-2.32-2.5-3.78-.6-1.46-.9-3.07-.9-4.82s.3-3.39.9-4.85c.6-1.46,1.43-2.71,2.5-3.75s2.33-1.84,3.8-2.42c1.46-.58,3.06-.87,4.79-.87s3.33.29,4.81.87c1.47.58,2.75,1.38,3.81,2.42,1.07,1.04,1.91,2.29,2.52,3.75.61,1.46.91,3.08.91,4.85ZM64.9,19.8c0-1.24-.2-2.41-.61-3.51-.41-1.1-.98-2.07-1.73-2.9-.75-.83-1.65-1.49-2.71-1.97-1.06-.48-2.25-.72-3.57-.72s-2.48.24-3.54.72c-1.06.48-1.96,1.14-2.69,1.97-.74.83-1.31,1.8-1.71,2.9-.41,1.1-.61,2.27-.61,3.51s.2,2.45.61,3.56c.41,1.11.98,2.08,1.73,2.9.75.82,1.64,1.47,2.69,1.94,1.05.47,2.22.71,3.53.71s2.49-.23,3.56-.71c1.07-.47,1.98-1.12,2.72-1.94.75-.82,1.33-1.79,1.73-2.9.41-1.11.61-2.3.61-3.56Z"/>
      <path class="cls-2" d="M75.5,38.87h-3.01V15.99h2.95v2.37h.1c.49-.81,1.21-1.48,2.16-2,.95-.52,2.05-.79,3.31-.79,1.13,0,2.16.2,3.08.61.93.41,1.73.97,2.4,1.7.67.73,1.19,1.58,1.55,2.55.36.97.54,2.01.54,3.12s-.18,2.16-.54,3.14c-.36.98-.87,1.84-1.53,2.56-.66.73-1.46,1.3-2.4,1.71-.94.42-1.99.62-3.17.62-1.09,0-2.11-.24-3.07-.71s-1.72-1.13-2.27-1.99h-.1v9.97ZM85.5,23.55c0-.71-.11-1.39-.32-2.05-.21-.66-.53-1.25-.96-1.76-.43-.51-.96-.92-1.59-1.22s-1.36-.45-2.19-.45c-.77,0-1.47.15-2.1.45s-1.17.71-1.62,1.22c-.45.51-.8,1.1-1.04,1.76-.25.66-.37,1.36-.37,2.08s.12,1.42.37,2.08c.25.66.59,1.25,1.04,1.75.45.5.99.9,1.62,1.2.63.3,1.33.45,2.1.45.83,0,1.56-.15,2.19-.46s1.16-.72,1.59-1.23c.43-.51.75-1.1.96-1.76.21-.66.32-1.35.32-2.05Z"/>
      <path class="cls-2" d="M107,23.45v.51c0,.17-.01.34-.03.51h-12.08c.02.64.17,1.24.43,1.8.27.56.62,1.05,1.07,1.46.45.41.97.74,1.55.97.59.23,1.21.35,1.88.35,1.03,0,1.91-.22,2.66-.67.75-.45,1.33-.99,1.76-1.63l2.12,1.7c-.81,1.08-1.77,1.87-2.87,2.38-1.1.51-2.32.76-3.67.76-1.15,0-2.22-.19-3.2-.58-.98-.38-1.83-.92-2.53-1.62-.7-.69-1.26-1.53-1.67-2.52-.41-.98-.61-2.07-.61-3.27s.2-2.26.59-3.25c.4-.99.95-1.84,1.65-2.55.71-.71,1.54-1.25,2.5-1.65.96-.4,2-.59,3.12-.59s2.12.18,3.03.54,1.68.89,2.31,1.57c.63.68,1.12,1.51,1.46,2.48.34.97.51,2.07.51,3.28ZM103.93,22.24c-.02-.6-.12-1.16-.3-1.68-.18-.52-.45-.98-.8-1.36-.35-.38-.79-.69-1.31-.91-.52-.22-1.14-.34-1.84-.34-.64,0-1.25.11-1.81.34-.57.22-1.06.53-1.47.91-.42.38-.76.84-1.03,1.36-.27.52-.42,1.08-.46,1.68h9.04Z"/>
      <path class="cls-2" d="M113.89,15.99c.04.38.07.82.1,1.3.02.48.03.88.03,1.2h.1c.19-.41.45-.79.79-1.14.33-.35.71-.66,1.14-.93.43-.27.9-.47,1.41-.62s1.05-.22,1.6-.22c.98,0,1.83.17,2.53.5.71.33,1.29.78,1.76,1.33.47.56.82,1.21,1.04,1.96.22.75.34,1.55.34,2.4v9.42h-3.01v-8.43c0-.62-.05-1.21-.14-1.76-.1-.55-.27-1.05-.53-1.47-.26-.43-.61-.77-1.06-1.03-.45-.26-1.03-.38-1.73-.38-1.2,0-2.17.45-2.93,1.36-.76.91-1.14,2.12-1.14,3.64v8.08h-3.01v-11.92c0-.41-.01-.93-.03-1.57-.02-.64-.05-1.21-.1-1.7h2.85Z"/>
      <path class="cls-2" d="M137.51,27.08h.1l6.83-18.59h3.43l-8.91,22.69h-2.95l-8.84-22.69h3.53l6.83,18.59Z"/>
      <path class="cls-2" d="M153.34,10.51c0,.56-.2,1.02-.59,1.38-.39.36-.86.54-1.41.54s-1.02-.19-1.4-.56c-.38-.37-.57-.83-.57-1.36s.19-1.02.57-1.39c.38-.37.85-.56,1.4-.56s1.02.19,1.41.56c.39.37.59.84.59,1.39ZM152.86,31.18h-3.01v-15.19h3.01v15.19Z"/>
      <path class="cls-2" d="M170.23,28.77c-.58.92-1.36,1.62-2.35,2.1-.99.48-2.04.72-3.12.72-1.17,0-2.23-.21-3.17-.62-.94-.42-1.74-.99-2.4-1.71-.66-.73-1.18-1.58-1.54-2.56-.36-.98-.54-2.03-.54-3.14s.18-2.15.54-3.12c.36-.97.88-1.82,1.55-2.55.67-.73,1.48-1.29,2.42-1.7.94-.41,1.98-.61,3.11-.61,1.24,0,2.32.26,3.24.79.92.52,1.64,1.16,2.18,1.91h.06V6.95h3.01v24.23h-2.92v-2.4h-.06ZM160.23,23.57c0,.7.11,1.38.32,2.04.21.66.53,1.25.96,1.76.43.51.95.92,1.57,1.23.62.31,1.35.46,2.18.46.77,0,1.47-.15,2.1-.45.63-.3,1.17-.7,1.62-1.2.45-.5.79-1.08,1.04-1.74.25-.66.37-1.35.37-2.08s-.12-1.42-.37-2.08c-.25-.66-.59-1.25-1.04-1.76-.45-.51-.99-.92-1.62-1.21-.63-.3-1.33-.45-2.1-.45-.83,0-1.56.15-2.18.45-.62.3-1.14.7-1.57,1.21-.43.51-.75,1.1-.96,1.76-.21.66-.32,1.34-.32,2.04Z"/>
      <path class="cls-2" d="M192.66,23.45v.51c0,.17-.01.34-.03.51h-12.08c.02.64.17,1.24.43,1.8.27.56.62,1.05,1.07,1.46.45.41.97.74,1.55.97.59.23,1.21.35,1.88.35,1.03,0,1.91-.22,2.66-.67.75-.45,1.33-.99,1.76-1.63l2.12,1.7c-.81,1.08-1.77,1.87-2.87,2.38-1.1.51-2.32.76-3.67.76-1.15,0-2.22-.19-3.2-.58-.98-.38-1.83-.92-2.53-1.62-.7-.69-1.26-1.53-1.67-2.52-.41-.98-.61-2.07-.61-3.27s.2-2.26.59-3.25c.4-.99.95-1.84,1.65-2.55.71-.71,1.54-1.25,2.5-1.65.96-.4,2-.59,3.12-.59s2.12.18,3.03.54,1.68.89,2.31,1.57c.63.68,1.12,1.51,1.46,2.48.34.97.51,2.07.51,3.28ZM189.58,22.24c-.02-.6-.12-1.16-.3-1.68-.18-.52-.45-.98-.8-1.36-.35-.38-.79-.69-1.31-.91-.52-.22-1.14-.34-1.84-.34-.64,0-1.25.11-1.81.34-.57.22-1.06.53-1.47.91-.42.38-.76.84-1.03,1.36-.27.52-.42,1.08-.46,1.68h9.04Z"/>
      <path class="cls-2" d="M212.2,23.55c0,1.18-.21,2.25-.62,3.24-.42.98-.99,1.83-1.73,2.55-.74.72-1.61,1.27-2.61,1.67-1,.39-2.08.59-3.24.59s-2.23-.2-3.24-.59c-1-.4-1.87-.95-2.6-1.67-.73-.71-1.3-1.56-1.71-2.55-.42-.98-.62-2.06-.62-3.24s.21-2.25.62-3.22c.42-.97.99-1.81,1.71-2.52.73-.71,1.59-1.25,2.6-1.65,1-.4,2.08-.59,3.24-.59s2.23.2,3.24.59,1.88.95,2.61,1.65c.74.71,1.31,1.54,1.73,2.52.42.97.62,2.05.62,3.22ZM209.06,23.57c0-.72-.11-1.42-.34-2.08-.23-.66-.55-1.24-.98-1.74-.43-.5-.96-.9-1.59-1.2-.63-.3-1.36-.45-2.17-.45s-1.54.15-2.17.45c-.63.3-1.16.7-1.59,1.2-.43.5-.75,1.08-.98,1.74-.22.66-.34,1.35-.34,2.08s.11,1.42.34,2.08c.23.66.55,1.25.98,1.76.43.51.96.92,1.59,1.21.63.3,1.36.45,2.17.45s1.54-.15,2.17-.45c.63-.3,1.16-.7,1.59-1.21.43-.51.75-1.1.98-1.76.22-.66.34-1.35.34-2.08Z"/>
      <path class="cls-2" d="M225.18,31.75c-1.5,0-2.8-.25-3.91-.75-1.11-.5-2.03-1.17-2.76-2s-1.27-1.79-1.62-2.87-.53-2.2-.53-3.35v-14.29h3.17v14.1c0,.77.1,1.53.29,2.29.19.76.51,1.44.95,2.04.44.6,1.01,1.08,1.73,1.44.71.36,1.61.54,2.68.54s1.93-.18,2.66-.54c.73-.36,1.31-.84,1.75-1.44.44-.6.75-1.28.95-2.04.19-.76.29-1.52.29-2.29v-14.1h3.17v14.29c0,1.15-.18,2.27-.53,3.35s-.89,2.04-1.62,2.87c-.73.83-1.65,1.5-2.76,2-1.11.5-2.41.75-3.91.75Z"/>
      <path class="cls-2" d="M242.52,31.18h-3.17V8.49h3.17v22.69Z"/>
    </g>
    <g>
      <g id="PathID_5" data-name="PathID 5">
        <path class="cls-2" d="M10.67,9.31c-2.53,2.52-3.8,5.57-3.8,9.14,0,3.59,1.25,6.66,3.77,9.2,1.15,1.13,2.33,1.99,3.54,2.6.88.44,1.81.75,2.77.94v.17l-9.34-.03c-3.58,0-3.36-1.8-3.35-5.37l.03-14.99c0-3.59,1.8-5.38,5.38-5.38l7.49.03v.15c-1.02.19-2.01.52-2.94.97-1.2.59-2.37,1.44-3.53,2.57"/>
      </g>
      <g id="PathID_5-2" data-name="PathID 5">
        <path class="cls-2" d="M30.71,9.31c2.53,2.52,3.8,5.57,3.8,9.14,0,3.59-1.25,6.66-3.77,9.2-1.15,1.13-2.33,1.99-3.54,2.6-.88.44-1.81.75-2.77.94v.17l9.34-.03c3.58,0,3.36-1.8,3.35-5.37l-.03-14.99c0-3.59-1.8-5.38-5.38-5.38l-7.49.03v.15c1.02.19,2.01.52,2.94.97,1.2.59,2.37,1.44,3.53,2.57"/>
      </g>
      <g id="PathID_6" data-name="PathID 6">
        <path class="cls-2" d="M28.71,19.79c-1.56,1.11-3.57,2.35-6.04,3.72-2.38,1.34-4.47,2.39-6.26,3.15l-1.99.74c-.12-.54-.24-1.33-.35-2.39-.25-2.1-.37-4.42-.37-6.96,0-2.32.17-4.5.5-6.52l.48-2.32,2.11.71c1.83.73,3.81,1.76,5.94,3.1,2.26,1.41,4.2,2.76,5.81,4.04.81.64,1.39,1.14,1.75,1.49l-1.58,1.24"/>
      </g>
    </g>
  </g>
  <line class="cls-1" x1="5.47" y1="36.16" x2="35.91" y2="36.16"/>
</svg>