<?xml version="1.0" encoding="utf-8"?>
<!-- Generator: Adobe Illustrator 25.2.0, SVG Export Plug-In . SVG Version: 6.00 Build 0)  -->
<svg version="1.1" id="Layer_1" xmlns="http://www.w3.org/2000/svg" xmlns:xlink="http://www.w3.org/1999/xlink" x="0px" y="0px"
	 width="1007.4px" height="453.2px" viewBox="0 0 1007.4 453.2" style="enable-background:new 0 0 1007.4 453.2;"
	 xml:space="preserve">
<style type="text/css">
	.st0{fill:#2571B7;}
	.st1{fill:#FFFFFF;}
	.st2{fill:#2BA24C;}
	.st3{fill-rule:evenodd;clip-rule:evenodd;fill:#FFFFFF;}
	.st4{fill-rule:evenodd;clip-rule:evenodd;fill:#FFFFFF;stroke:#FFFFFF;}
	.st5{fill-rule:evenodd;clip-rule:evenodd;fill:#2BA24C;}
	.st6{font-family:'MyriadPro-Regular';}
	.st7{font-size:14.4px;}
	.st8{font-size:12.96px;}
	.st9{fill:none;}
	.st10{fill:none;stroke:#344A5E;stroke-width:1.44;stroke-miterlimit:10;}
	.st11{fill:#344A5E;}
</style>
<g>
	<path class="st0" d="M843.2,311.5h122c5.5,0,10,4.5,10,10v92c0,5.5-4.5,10-10,10h-122c-5.5,0-10-4.5-10-10v-92
		C833.2,316,837.7,311.5,843.2,311.5z"/>
	<g>
		<path class="st1" d="M887,335h-1.7c-2.9,0-5.2,2.3-5.2,5.2v3.2h12.5L887,335z"/>
	</g>
	<g>
		<path class="st1" d="M910.9,343.4l-5.6-8.4H892l5.6,8.4H910.9z"/>
	</g>
	<g>
		<path class="st1" d="M918.1,335h-7.9l5.6,8.4h7.4v-3.2C923.3,337.3,921,335,918.1,335z"/>
	</g>
	<g>
		<path class="st1" d="M880.2,347.6V373c0,2.9,2.3,5.2,5.2,5.2h32.8c2.9,0,5.2-2.3,5.2-5.2v-25.5h-43.2V347.6z M908.4,363.8
			l-9.8,5.7c-0.3,0.2-0.6,0.2-0.9,0.2s-0.6-0.1-0.9-0.2c-0.5-0.3-0.9-0.9-0.9-1.5v-11.3c0-0.6,0.3-1.2,0.9-1.5
			c0.5-0.3,1.2-0.3,1.7,0l9.8,5.7c0.5,0.3,0.9,0.9,0.9,1.5C909.3,362.9,909,363.5,908.4,363.8L908.4,363.8z"/>
	</g>
</g>
<g>
	<path class="st2" d="M241.9,206.4h122c5.5,0,10,4.5,10,10v92c0,5.5-4.5,10-10,10h-122c-5.5,0-10-4.5-10-10v-92
		C231.9,210.9,236.4,206.4,241.9,206.4z"/>
	<g>
		<g>
			<path class="st1" d="M297.2,249.9c1.2-0.8,2.4-1.7,3.4-2.8l3.5,2l3.2-5.6l-3.5-2c0.4-1.3,0.7-2.8,0.8-4.3l4-0.7l-1.1-6.3l-4,0.7
				c-0.6-1.4-1.3-2.6-2.2-3.8l2.6-3.1l-4.9-4.1l-2.6,3.1c-1.3-0.7-2.7-1.2-4.1-1.5v-4.1h-6.4v4.1c-1.5,0.3-2.9,0.8-4.1,1.5l-2.6-3.1
				l-4.9,4.1l2.6,3.1c-0.9,1.2-1.6,2.4-2.2,3.8l-4-0.7l-1.1,6.3l4,0.7c0.1,1.5,0.3,3,0.8,4.3l-3.5,2l3.2,5.6l3.5-2
				c1,1.1,2.1,2,3.4,2.8l-1.4,3.9l6.1,2.2l1.4-3.8c0.7,0.1,1.5,0.2,2.2,0.2s1.5-0.1,2.2-0.2l1.4,3.8l6.1-2.2L297.2,249.9z
				 M288.9,244.9c-4.5,0-8.2-3.7-8.2-8.2s3.7-8.2,8.2-8.2s8.2,3.7,8.2,8.2C297.2,241.2,293.5,244.9,288.9,244.9z"/>
			<path class="st1" d="M324.9,254.7l-2.8,0.9c-0.5-0.9-1.2-1.7-2-2.5l1.6-2.5l-3.9-2.5l-1.6,2.5c-1-0.3-2-0.6-3.1-0.7l-0.4-2.9
				l-4.5,0.6l0.4,2.9c-1,0.3-2,0.8-2.8,1.5l-2.2-2l-3.1,3.4l2.2,2c-0.5,0.9-1,1.9-1.2,2.9l-2.9-0.1l-0.2,4.6l2.9,0.1
				c0.2,1.1,0.5,2.1,1,3l-2.3,1.8l2.9,3.6l2.3-1.8c0.8,0.7,1.7,1.2,2.7,1.7l-0.6,2.9l4.5,1l0.6-2.9c0.5,0,1.1-0.1,1.6-0.1
				c0.5-0.1,1.1-0.2,1.6-0.3l1.3,2.6l4.1-2.2l-1.3-2.6c0.8-0.7,1.5-1.5,2.1-2.4l2.7,1.1l1.7-4.3l-2.7-1.1c0.2-1,0.2-2.1,0.1-3.1
				l2.8-0.9L324.9,254.7z M313.3,267c-3.2,0.4-6.2-1.8-6.7-5c-0.4-3.2,1.8-6.2,5-6.7c3.2-0.4,6.2,1.8,6.7,5
				C318.7,263.6,316.5,266.6,313.3,267z"/>
			<path class="st1" d="M331.1,238.7l0.1-3.6L329,235c-0.2-0.8-0.4-1.6-0.8-2.4l1.8-1.5l-2.2-2.9l-1.8,1.4c-0.6-0.6-1.3-1-2.1-1.3
				l0.4-2.2l-3.6-0.7l-0.4,2.2c-0.8,0-1.6,0.1-2.5,0.3l-1.1-2l-3.2,1.7l1.1,2c-0.6,0.6-1.2,1.2-1.6,1.9l-2.1-0.8l-1.3,3.4l2.1,0.8
				c-0.1,0.8-0.2,1.6-0.1,2.5l-2.2,0.7l1.1,3.5l2.2-0.7c0.4,0.7,1,1.4,1.5,2l-1.2,2l3.1,1.9l1.2-2c0.8,0.3,1.6,0.4,2.4,0.5l0.3,2.3
				l3.6-0.5l-0.3-2.3c0.4-0.1,0.8-0.3,1.1-0.5c0.4-0.2,0.7-0.4,1.1-0.7l1.7,1.5l2.4-2.7l-1.7-1.5c0.4-0.7,0.7-1.5,0.9-2.3
				L331.1,238.7z M322.5,240.7c-2.2,1.2-5.1,0.4-6.3-1.9c-1.2-2.2-0.4-5.1,1.9-6.3c2.2-1.2,5.1-0.4,6.3,1.9
				C325.5,236.6,324.7,239.5,322.5,240.7z"/>
		</g>
	</g>
</g>
<g>
	<path class="st0" d="M643,311.5h122c5.5,0,10,4.5,10,10v92c0,5.5-4.5,10-10,10H643c-5.5,0-10-4.5-10-10v-92
		C633,316,637.5,311.5,643,311.5z"/>
	<g>
		<path class="st3" d="M704,331.3c-0.4,0-0.7-0.3-0.7-0.7v-5.2c0-0.4,0.3-0.7,0.7-0.7s0.7,0.3,0.7,0.7v5.2
			C704.7,331,704.4,331.3,704,331.3z"/>
		<g>
			<path class="st3" d="M704,326.1c-1.9,0-3.5-1.6-3.5-3.5s1.6-3.5,3.5-3.5s3.5,1.6,3.5,3.5S705.9,326.1,704,326.1z"/>
		</g>
		<path class="st3" d="M726.2,348.5H721c-0.4,0-0.7-0.3-0.7-0.7c0-0.4,0.3-0.7,0.7-0.7h5.2c0.4,0,0.7,0.3,0.7,0.7
			S726.6,348.5,726.2,348.5z"/>
		<g>
			<path class="st3" d="M729.1,351.3c-1.9,0-3.5-1.6-3.5-3.5s1.6-3.5,3.5-3.5s3.5,1.6,3.5,3.5C732.6,349.8,731,351.3,729.1,351.3z"
				/>
		</g>
		<path class="st3" d="M703.7,370.6c-0.4,0-0.7-0.3-0.7-0.7v-5.2c0-0.4,0.3-0.7,0.7-0.7s0.7,0.3,0.7,0.7v5.2
			C704.4,370.3,704,370.6,703.7,370.6z"/>
		<path class="st3" d="M703.7,376.3c-1.9,0-3.5-1.6-3.5-3.5s1.6-3.5,3.5-3.5s3.5,1.6,3.5,3.5C707.2,374.7,705.6,376.3,703.7,376.3z"
			/>
		<path class="st3" d="M687,348.2h-5.2c-0.4,0-0.7-0.3-0.7-0.7c0-0.4,0.3-0.7,0.7-0.7h5.2c0.4,0,0.7,0.3,0.7,0.7
			C687.6,347.9,687.3,348.2,687,348.2z"/>
		<g>
			<path class="st3" d="M678.9,351c-1.9,0-3.5-1.6-3.5-3.5s1.6-3.5,3.5-3.5s3.5,1.6,3.5,3.5C682.5,349.5,680.9,351,678.9,351z"/>
		</g>
		<path class="st3" d="M719.8,332.5c-0.2,0-0.3-0.1-0.5-0.2c-0.3-0.3-0.3-0.7,0-1l2.3-2.2c0.3-0.3,0.7-0.3,0.9,0
			c0.3,0.3,0.3,0.7,0,0.9l-2.2,2.3C720.1,332.5,720,332.5,719.8,332.5z"/>
		<path class="st3" d="M723.9,331c-0.8,0-1.7-0.3-2.3-1c-0.6-0.6-1-1.4-1-2.3s0.3-1.7,1-2.3c1.3-1.3,3.4-1.3,4.7,0s1.3,3.4,0,4.7
			C725.6,330.7,724.7,331,723.9,331z"/>
		<path class="st3" d="M722,366.4c-0.2,0-0.3-0.1-0.5-0.2l-2.3-2.3c-0.3-0.3-0.3-0.7,0-0.9c0.3-0.3,0.7-0.3,1,0l2.2,2.2
			c0.3,0.3,0.3,0.7,0,1C722.4,366.3,722.2,366.4,722,366.4z"/>
		<path class="st3" d="M723.9,371c-0.8,0-1.7-0.3-2.3-1c-1.3-1.3-1.3-3.4,0-4.7c0.6-0.6,1.5-1,2.3-1c0.9,0,1.7,0.3,2.3,1
			c1.3,1.3,1.3,3.4,0,4.7C725.6,370.6,724.7,371,723.9,371z"/>
		<path class="st3" d="M686,366.4c-0.2,0-0.4-0.1-0.5-0.2c-0.3-0.3-0.3-0.7,0-1l2.2-2.2c0.3-0.3,0.7-0.3,0.9,0
			c0.3,0.3,0.3,0.7,0,0.9l-2.2,2.3C686.3,366.3,686.1,366.4,686,366.4z"/>
		<path class="st3" d="M684.1,371c-0.9,0-1.7-0.3-2.4-1c-0.6-0.6-1-1.5-1-2.4s0.4-1.7,1-2.3c0.6-0.6,1.5-1,2.4-1s1.7,0.4,2.3,1
			s1,1.5,1,2.3c0,0.9-0.4,1.7-1,2.4C685.8,370.6,684.9,371,684.1,371z"/>
		<path class="st3" d="M688.2,332.5c-0.2,0-0.3-0.1-0.5-0.2l-2.2-2.3c-0.3-0.3-0.3-0.7,0-0.9c0.2-0.3,0.7-0.3,0.9,0l2.2,2.2
			c0.3,0.3,0.3,0.7,0,1C688.5,332.5,688.4,332.5,688.2,332.5z"/>
		<path class="st3" d="M684.1,331c-0.9,0-1.7-0.3-2.4-1c-0.6-0.6-1-1.4-1-2.3s0.4-1.7,1-2.3c0.6-0.6,1.5-1,2.4-1s1.7,0.3,2.3,1
			c0.6,0.6,1,1.5,1,2.3c0,0.9-0.4,1.7-1,2.3C685.8,330.7,685,331,684.1,331z"/>
		<path class="st4" d="M710.4,365.4h-13.5c-6.6,0-12-5.4-12-12v-11.2c0-6.6,5.4-12,12-12h13.5c6.6,0,12,5.4,12,12v11.2
			C722.4,360,717,365.4,710.4,365.4z"/>
	</g>
</g>
<g>
	<path class="st0" d="M443.9,311.5h122c5.5,0,10,4.5,10,10v92c0,5.5-4.5,10-10,10h-122c-5.5,0-10-4.5-10-10v-92
		C433.9,316,438.4,311.5,443.9,311.5z"/>
	<g>
		<g>
			<path class="st3" d="M524.8,343.2H485c-1.6,0-3-1.3-3-3v-6.6c0-1.6,1.4-3,3-3h39.8c1.6,0,3,1.4,3,3v6.6
				C527.8,341.9,526.4,343.2,524.8,343.2z"/>
			<circle class="st5" cx="521.3" cy="337.3" r="1.7"/>
		</g>
		<g>
			<path class="st3" d="M524.9,357.4h-39.8c-1.6,0-3-1.4-3-3v-6.6c0-1.6,1.4-3,3-3h39.8c1.7,0,3,1.4,3,3v6.6
				C527.9,356.1,526.5,357.4,524.9,357.4z"/>
			<circle class="st5" cx="521.4" cy="351.5" r="1.7"/>
		</g>
		<g>
			<path class="st3" d="M524.9,371.6h-39.8c-1.6,0-3-1.4-3-3V362c0-1.6,1.4-3,3-3h39.8c1.7,0,3,1.4,3,3v6.6
				C527.9,370.3,526.5,371.6,524.9,371.6z"/>
			<circle class="st5" cx="521.4" cy="365.7" r="1.7"/>
		</g>
	</g>
</g>
<g>
	<g>
		<path class="st0" d="M44.1,36.8h122c5.5,0,10,4.5,10,10v92c0,5.5-4.5,10-10,10h-122c-5.5,0-10-4.5-10-10v-92
			C34.1,41.3,38.5,36.8,44.1,36.8z"/>
		<path class="st1" d="M98.3,73.4c-0.4,0-0.7,0.4-0.7,0.8v1.5c0,0.4,0.3,0.8,0.7,0.8c0.5,0,0.9-0.3,0.9-0.8v-1.5
			C99.2,73.7,98.8,73.3,98.3,73.4z"/>
		<path class="st1" d="M98.3,82.3c-0.4,0-0.7,0.4-0.7,0.8v1.5c0,0.4,0.3,0.8,0.7,0.8c0.5,0,0.9-0.3,0.9-0.8v-1.5
			C99.2,82.7,98.8,82.3,98.3,82.3z"/>
		<path class="st1" d="M98.3,77.9c-0.4,0-0.7,0.4-0.7,0.8v1.5c0,0.4,0.3,0.8,0.7,0.8c0.5,0,0.9-0.3,0.9-0.8v-1.5
			C99.2,78.2,98.8,77.8,98.3,77.9z"/>
		<path class="st1" d="M98.3,69c-0.4,0-0.7,0.4-0.7,0.8v1.5c0,0.4,0.3,0.8,0.7,0.8c0.5,0,0.9-0.3,0.9-0.8v-1.5
			C99.2,69.3,98.8,68.9,98.3,69z"/>
		<path class="st1" d="M102.4,86.8c-0.4,0-0.7,0.4-0.7,0.8v1.5c0,0.4,0.3,0.8,0.7,0.8c0.5,0,0.9-0.3,0.9-0.8v-1.5
			C103.3,87.1,102.9,86.7,102.4,86.8z"/>
		<path class="st1" d="M102.4,82.3c-0.4,0-0.7,0.4-0.7,0.8v1.5c0,0.4,0.3,0.8,0.7,0.8c0.5,0,0.9-0.3,0.9-0.8v-1.5
			C103.3,82.7,102.9,82.3,102.4,82.3z"/>
		<path class="st1" d="M94.3,82.3c-0.4,0-0.7,0.4-0.7,0.8v1.5c0,0.4,0.3,0.8,0.7,0.8c0.5,0,0.9-0.3,0.9-0.8v-1.5
			C95.2,82.7,94.8,82.3,94.3,82.3z"/>
		<path class="st1" d="M98.3,86.8c-0.4,0-0.7,0.4-0.7,0.8v1.5c0,0.4,0.3,0.8,0.7,0.8c0.5,0,0.9-0.3,0.9-0.8v-1.5
			C99.2,87.1,98.8,86.7,98.3,86.8z"/>
		<path class="st1" d="M94.3,86.8c-0.4,0-0.7,0.4-0.7,0.8v1.5c0,0.4,0.3,0.8,0.7,0.8c0.5,0,0.9-0.3,0.9-0.8v-1.5
			C95.2,87.1,94.8,86.7,94.3,86.8z"/>
		<path class="st1" d="M94.3,73.4c-0.4,0-0.7,0.4-0.7,0.8v1.5c0,0.4,0.3,0.8,0.7,0.8c0.5,0,0.9-0.3,0.9-0.8v-1.5
			C95.2,73.7,94.8,73.3,94.3,73.4z"/>
		<path class="st1" d="M94.3,77.9c-0.4,0-0.7,0.4-0.7,0.8v1.5c0,0.4,0.3,0.8,0.7,0.8c0.5,0,0.9-0.3,0.9-0.8v-1.5
			C95.2,78.2,94.8,77.8,94.3,77.9z"/>
		<path class="st1" d="M115.6,83.3c-0.4,0-0.7,0.4-0.7,0.8v1.7c0,0.5,0.4,0.9,0.9,0.8c0.4,0,0.7-0.4,0.7-0.8V84
			C116.4,83.6,116,83.2,115.6,83.3z"/>
		<path class="st1" d="M111.9,83.3c-0.4,0-0.7,0.4-0.7,0.8v1.7c0,0.5,0.4,0.9,0.9,0.8c0.4,0,0.7-0.4,0.7-0.8V84
			C112.8,83.6,112.4,83.2,111.9,83.3z"/>
		<path class="st1" d="M115.8,92.8c-0.5,0-0.9,0.3-0.9,0.8v1.7c0,0.5,0.4,0.9,0.9,0.8c0.4,0,0.7-0.4,0.7-0.8v-1.7
			C116.4,93.2,116.2,92.9,115.8,92.8z"/>
		<path class="st1" d="M115.8,88.1c-0.5,0-0.9,0.3-0.9,0.8v1.7c0,0.5,0.4,0.9,0.9,0.8c0.4,0,0.7-0.4,0.7-0.8v-1.7
			C116.4,88.5,116.2,88.1,115.8,88.1z"/>
		<path class="st1" d="M112.1,88.1c-0.5,0-0.9,0.3-0.9,0.8v1.7c0,0.5,0.4,0.9,0.9,0.8c0.4,0,0.7-0.4,0.7-0.8v-1.7
			C112.8,88.5,112.5,88.1,112.1,88.1z"/>
		<path class="st1" d="M112.1,92.8c-0.5,0-0.9,0.3-0.9,0.8v1.7c0,0.5,0.4,0.9,0.9,0.8c0.4,0,0.7-0.4,0.7-0.8v-1.7
			C112.8,93.2,112.5,92.9,112.1,92.8z"/>
		<g>
			<path class="st1" d="M104.6,51.8c-16.3,0-29.5,13.2-29.5,29.5s13.2,29.5,29.5,29.5s29.5-13.2,29.5-29.5S120.9,51.8,104.6,51.8z
				 M102.1,99.2h-6.9v-6h6.9V99.2z M107.4,99.2h-3.9v-6.6c0-0.4-0.4-0.8-0.8-0.8h-8.1c-0.4,0-0.8,0.4-0.8,0.8v6.6h-4V70
				c0-0.2,0.1-0.3,0.2-0.4c0.6-0.6,1.9-1.7,4-2.9c2.6-1.4,6.9-3.1,12.9-3.2c0.2,0,0.4,0.2,0.4,0.4v35.3L107.4,99.2L107.4,99.2z
				 M119.3,99.2h-10.8V81.4c0-0.4,0.3-0.6,0.6-0.6h9.5c0.4,0,0.6,0.3,0.6,0.6L119.3,99.2L119.3,99.2z"/>
		</g>
		<path class="st1" d="M102.4,69c-0.4,0-0.7,0.4-0.7,0.8v1.5c0,0.4,0.3,0.8,0.7,0.8c0.5,0,0.9-0.3,0.9-0.8v-1.5
			C103.3,69.3,102.9,68.9,102.4,69z"/>
		<path class="st1" d="M102.4,73.4c-0.4,0-0.7,0.4-0.7,0.8v1.5c0,0.4,0.3,0.8,0.7,0.8c0.5,0,0.9-0.3,0.9-0.8v-1.5
			C103.3,73.7,102.9,73.3,102.4,73.4z"/>
		<path class="st1" d="M102.4,77.9c-0.4,0-0.7,0.4-0.7,0.8v1.5c0,0.4,0.3,0.8,0.7,0.8c0.5,0,0.9-0.3,0.9-0.8v-1.5
			C103.3,78.2,102.9,77.8,102.4,77.9z"/>
	</g>
	<text transform="matrix(1 0 0 1 74.2825 135.5772)" class="st1 st6 st7">Advertiser</text>
</g>
<g>
	<g>
		<path class="st0" d="M244.4,36.8h122c5.5,0,10,4.5,10,10v92c0,5.5-4.5,10-10,10h-122c-5.5,0-10-4.5-10-10v-92
			C234.4,41.3,238.9,36.8,244.4,36.8z"/>
		<g>
			<path class="st3" d="M319.6,74.9c-0.6,0.3-1.2,0.6-1.8,0.8c-0.1,0-0.3,0.1-0.4,0.1c-0.4,0-0.8-0.3-1-0.7
				c-0.2-0.5,0.1-1.1,0.6-1.4c0.6-0.2,1.1-0.5,1.6-0.7c0.5-0.3,1.1-0.1,1.4,0.5C320.4,74,320.2,74.6,319.6,74.9z M294,76.5
				c-0.1,0.5-0.5,0.8-1,0.8c-0.1,0-0.1,0-0.2,0c-0.8-0.2-1.6-0.3-2.3-0.5c-0.6-0.1-0.9-0.7-0.7-1.3c0.1-0.6,0.7-0.9,1.3-0.7
				c0.7,0.2,1.4,0.3,2.2,0.5C293.7,75.4,294.1,75.9,294,76.5z M288.4,75.1c-0.2,0.4-0.6,0.7-1,0.7c-0.1,0-0.3,0-0.4-0.1
				c-0.6-0.3-1.3-0.5-1.8-0.8s-0.7-0.9-0.5-1.4c0.3-0.5,0.9-0.7,1.4-0.5c0.5,0.3,1.1,0.5,1.6,0.7C288.3,74,288.6,74.6,288.4,75.1z
				 M319.2,69.4c2.2-1,3.9-2.1,5.2-3.4v8c-0.6,1.9-2.7,3.7-6,5.2c-4.3,1.9-9.9,2.9-16,2.9s-11.7-1-16-2.9c-3.3-1.5-5.4-3.3-6-5.2v-8
				c1.2,1.3,3,2.4,5.2,3.4c4.5,2,10.5,3.1,16.8,3.1C308.8,72.5,314.7,71.4,319.2,69.4z M317.6,54.3c4.4,1.7,6.8,4.1,6.8,6.8
				c0,2.7-2.4,5.1-6.8,6.8c-4.1,1.6-9.5,2.4-15.2,2.4s-11.1-0.9-15.2-2.4c-4.4-1.7-6.8-4.1-6.8-6.8c0-2.7,2.4-5.1,6.8-6.8
				c4.1-1.6,9.5-2.4,15.2-2.4S313.5,52.7,317.6,54.3z M320.1,85.2c0.3,0.5,0.1,1.1-0.5,1.4c-0.6,0.3-1.2,0.6-1.8,0.8
				c-0.1,0-0.3,0.1-0.4,0.1c-0.4,0-0.8-0.3-1-0.7c-0.2-0.5,0.1-1.1,0.6-1.4c0.6-0.2,1.1-0.5,1.6-0.7
				C319.2,84.5,319.8,84.7,320.1,85.2z M294,88.2c-0.1,0.5-0.5,0.9-1,0.9c-0.1,0-0.1,0-0.2,0c-0.8-0.2-1.6-0.3-2.3-0.5
				c-0.6-0.1-0.9-0.7-0.7-1.3c0.1-0.6,0.7-0.9,1.3-0.8c0.7,0.2,1.4,0.4,2.2,0.5C293.7,87.1,294.1,87.6,294,88.2z M288.4,86.8
				c-0.2,0.4-0.6,0.7-1,0.7c-0.1,0-0.3,0-0.4-0.1c-0.6-0.3-1.3-0.5-1.8-0.8s-0.7-0.9-0.5-1.4c0.3-0.5,0.9-0.7,1.4-0.5
				c0.5,0.3,1.1,0.5,1.6,0.7C288.3,85.7,288.6,86.3,288.4,86.8z M302.4,84.3c-6.3,0-12.3-1.1-16.8-3.1c-2.2-1-3.9-2.1-5.2-3.4v8
				c0.6,1.9,2.7,3.7,6,5.2c4.3,1.9,9.9,2.9,16,2.9s11.7-1,16-2.9c3.3-1.5,5.4-3.3,6-5.2v-8c-1.2,1.3-3,2.4-5.2,3.4
				C314.7,83.2,308.8,84.3,302.4,84.3z M320.1,97.3c0.3,0.5,0.1,1.1-0.5,1.4c-0.6,0.3-1.2,0.6-1.8,0.8c-0.1,0-0.3,0.1-0.4,0.1
				c-0.4,0-0.8-0.3-1-0.7c-0.2-0.5,0.1-1.1,0.6-1.4c0.6-0.2,1.1-0.5,1.6-0.7C319.2,96.6,319.8,96.8,320.1,97.3z M294,100.3
				c-0.1,0.5-0.5,0.8-1,0.8c-0.1,0-0.1,0-0.2,0c-0.8-0.2-1.6-0.3-2.3-0.5c-0.6-0.1-0.9-0.7-0.7-1.3c0.1-0.6,0.7-0.9,1.3-0.8
				c0.7,0.2,1.4,0.4,2.2,0.5C293.7,99.2,294.1,99.7,294,100.3z M288.4,98.9c-0.2,0.4-0.6,0.7-1,0.7c-0.1,0-0.3,0-0.4-0.1
				c-0.6-0.3-1.3-0.5-1.8-0.8s-0.7-0.9-0.5-1.4c0.3-0.5,0.9-0.7,1.4-0.5c0.5,0.3,1.1,0.5,1.6,0.7C288.3,97.8,288.6,98.4,288.4,98.9z
				 M302.4,96c-6.3,0-12.3-1.1-16.8-3.1c-2.2-1-3.9-2.1-5.2-3.4v8c0.6,1.9,2.7,3.7,6,5.2c4.3,1.9,9.9,2.9,16,2.9s11.7-1,16-2.9
				c3.3-1.5,5.4-3.3,6-5.2v-8c-1.2,1.3-3,2.4-5.2,3.4C314.7,94.9,308.8,96,302.4,96z"/>
		</g>
	</g>
	<text transform="matrix(1 0 0 1 276.402 135.5774)" class="st1 st6 st7">Ad Server</text>
</g>
<g>
	<g>
		<path class="st0" d="M443.9,36.8h122c5.5,0,10,4.5,10,10v92c0,5.5-4.5,10-10,10h-122c-5.5,0-10-4.5-10-10v-92
			C433.9,41.3,438.4,36.8,443.9,36.8z"/>
		<g>
			<path class="st1" d="M517.8,59.7v3.7c0,0.2,0,0.4-0.1,0.6c0,0.2-0.1,0.4-0.2,0.5c-0.1,0.2-0.2,0.3-0.3,0.5s-0.2,0.3-0.4,0.4
				c-0.1,0.1-0.3,0.3-0.4,0.4c-0.2,0.1-0.3,0.2-0.5,0.3s-0.4,0.1-0.5,0.2c-0.2,0-0.4,0.1-0.6,0.1h-23.3c-0.2,0-0.4,0-0.6-0.1
				c-0.2,0-0.4-0.1-0.5-0.2c-0.2-0.1-0.3-0.2-0.5-0.3s-0.3-0.2-0.4-0.4c-0.1-0.1-0.3-0.3-0.4-0.4c-0.1-0.2-0.2-0.3-0.3-0.5
				s-0.1-0.4-0.2-0.5c0-0.2-0.1-0.4-0.1-0.6v-3.7c0-0.2,0-0.4,0.1-0.6c0-0.2,0.1-0.4,0.2-0.5c0.1-0.2,0.2-0.3,0.3-0.5
				s0.2-0.3,0.4-0.4c0.1-0.1,0.3-0.3,0.4-0.4c0.2-0.1,0.3-0.2,0.5-0.3s0.4-0.1,0.5-0.2c0.2,0,0.4-0.1,0.6-0.1h23.3
				c0.2,0,0.4,0,0.6,0.1c0.2,0,0.4,0.1,0.5,0.2c0.2,0.1,0.3,0.2,0.5,0.3c0.2,0.1,0.3,0.2,0.4,0.4c0.1,0.1,0.3,0.3,0.4,0.4
				c0.1,0.2,0.2,0.3,0.3,0.5s0.1,0.4,0.2,0.5C517.8,59.3,517.8,59.5,517.8,59.7z"/>
		</g>
		<g>
			<path class="st1" d="M500,80.8v4.1c0,0.2,0,0.3-0.1,0.5c0,0.2-0.1,0.3-0.2,0.5c-0.1,0.2-0.2,0.3-0.2,0.5
				c-0.1,0.1-0.2,0.3-0.3,0.4c-0.1,0.1-0.3,0.2-0.4,0.3c-0.1,0.1-0.3,0.2-0.5,0.2c-0.2,0.1-0.3,0.1-0.5,0.2c-0.2,0-0.3,0.1-0.5,0.1
				h-18.7c-0.2,0-0.3,0-0.5-0.1c-0.2,0-0.3-0.1-0.5-0.2c-0.2-0.1-0.3-0.1-0.5-0.2c-0.1-0.1-0.3-0.2-0.4-0.3
				c-0.1-0.1-0.2-0.3-0.3-0.4c-0.1-0.1-0.2-0.3-0.2-0.5c-0.1-0.2-0.1-0.3-0.2-0.5c0-0.2-0.1-0.3-0.1-0.5v-4.1c0-0.2,0-0.3,0.1-0.5
				c0-0.2,0.1-0.3,0.2-0.5c0.1-0.2,0.1-0.3,0.2-0.5c0.1-0.1,0.2-0.3,0.3-0.4s0.3-0.2,0.4-0.3c0.1-0.1,0.3-0.2,0.5-0.2
				c0.2-0.1,0.3-0.1,0.5-0.2c0.2,0,0.3-0.1,0.5-0.1h18.7c0.2,0,0.3,0,0.5,0.1c0.2,0,0.3,0.1,0.5,0.2c0.2,0.1,0.3,0.1,0.5,0.2
				s0.3,0.2,0.4,0.3c0.1,0.1,0.2,0.3,0.3,0.4c0.1,0.1,0.2,0.3,0.2,0.5c0.1,0.2,0.1,0.3,0.2,0.5C499.9,80.4,500,80.6,500,80.8z"/>
		</g>
		<g>
			<path class="st1" d="M477.3,99.4h5.8c0.1,0,0.2,0,0.3,0s0.2,0,0.3,0.1c0.1,0,0.2,0.1,0.2,0.1c0.1,0.1,0.1,0.1,0.2,0.2
				c0.1,0.1,0.1,0.1,0.2,0.2c0.1,0.1,0.1,0.2,0.1,0.2c0,0.1,0.1,0.2,0.1,0.3s0,0.2,0,0.3v4.1c0,0.1,0,0.2,0,0.3s0,0.2-0.1,0.3
				c0,0.1-0.1,0.2-0.1,0.2c-0.1,0.1-0.1,0.1-0.2,0.2c-0.1,0.1-0.1,0.1-0.2,0.2c-0.1,0.1-0.2,0.1-0.2,0.1c-0.1,0-0.2,0.1-0.3,0.1
				s-0.2,0-0.3,0h-5.8c-0.1,0-0.2,0-0.3,0s-0.2,0-0.3-0.1c-0.1,0-0.2-0.1-0.2-0.1c-0.1-0.1-0.1-0.1-0.2-0.2
				c-0.1-0.1-0.1-0.1-0.2-0.2c-0.1-0.1-0.1-0.2-0.1-0.2c0-0.1-0.1-0.2-0.1-0.3s0-0.2,0-0.3v-4.1c0-0.1,0-0.2,0-0.3s0-0.2,0.1-0.3
				c0-0.1,0.1-0.2,0.1-0.2c0-0.1,0.1-0.1,0.2-0.2c0.1-0.1,0.1-0.1,0.2-0.2c0.1-0.1,0.2-0.1,0.2-0.1c0.1,0,0.2-0.1,0.3-0.1
				S477.2,99.4,477.3,99.4z"/>
		</g>
		<g>
			<path class="st1" d="M492.7,99.4h5.8c0.1,0,0.2,0,0.3,0s0.2,0,0.3,0.1c0.1,0,0.2,0.1,0.2,0.1c0.1,0.1,0.1,0.1,0.2,0.2
				c0.1,0.1,0.1,0.1,0.2,0.2c0.1,0.1,0.1,0.2,0.1,0.2c0,0.1,0.1,0.2,0.1,0.3s0,0.2,0,0.3v4.1c0,0.1,0,0.2,0,0.3s0,0.2-0.1,0.3
				c0,0.1-0.1,0.2-0.1,0.2c-0.1,0.1-0.1,0.1-0.2,0.2c-0.1,0.1-0.1,0.1-0.2,0.2c-0.1,0.1-0.2,0.1-0.2,0.1c-0.1,0-0.2,0.1-0.3,0.1
				s-0.2,0-0.3,0h-5.8c-0.1,0-0.2,0-0.3,0s-0.2,0-0.3-0.1c-0.1,0-0.2-0.1-0.2-0.1c-0.1-0.1-0.1-0.1-0.2-0.2
				c-0.1-0.1-0.1-0.1-0.2-0.2c0-0.1-0.1-0.2-0.1-0.2c0-0.1-0.1-0.2-0.1-0.3s0-0.2,0-0.3v-4.1c0-0.1,0-0.2,0-0.3s0-0.2,0.1-0.3
				c0-0.1,0.1-0.2,0.1-0.2c0.1-0.1,0.1-0.1,0.2-0.2c0.1-0.1,0.1-0.1,0.2-0.2c0.1-0.1,0.2-0.1,0.2-0.1c0.1,0,0.2-0.1,0.3-0.1
				S492.6,99.4,492.7,99.4z"/>
		</g>
		<g>
			<path class="st1" d="M530.6,80.8v4.1c0,0.2,0,0.3-0.1,0.5c0,0.2-0.1,0.3-0.2,0.5c-0.1,0.2-0.1,0.3-0.2,0.5
				c-0.1,0.1-0.2,0.3-0.3,0.4c-0.1,0.1-0.3,0.2-0.4,0.3c-0.1,0.1-0.3,0.2-0.5,0.2c-0.2,0.1-0.3,0.1-0.5,0.2c-0.2,0-0.3,0.1-0.5,0.1
				h-18.7c-0.2,0-0.3,0-0.5-0.1c-0.2,0-0.3-0.1-0.5-0.2c-0.2-0.1-0.3-0.1-0.5-0.2c-0.1-0.1-0.3-0.2-0.4-0.3
				c-0.1-0.1-0.2-0.3-0.3-0.4c-0.1-0.1-0.2-0.3-0.2-0.5c-0.1-0.2-0.1-0.3-0.2-0.5c0-0.2-0.1-0.3-0.1-0.5v-4.1c0-0.2,0-0.3,0.1-0.5
				c0-0.2,0.1-0.3,0.2-0.5c0.1-0.2,0.1-0.3,0.2-0.5c0.1-0.1,0.2-0.3,0.3-0.4c0.1-0.1,0.3-0.2,0.4-0.3c0.1-0.1,0.3-0.2,0.5-0.2
				c0.2-0.1,0.3-0.1,0.5-0.2c0.2,0,0.3-0.1,0.5-0.1h18.7c0.2,0,0.3,0,0.5,0.1c0.2,0,0.3,0.1,0.5,0.2c0.2,0.1,0.3,0.1,0.5,0.2
				c0.1,0.1,0.3,0.2,0.4,0.3c0.1,0.1,0.2,0.3,0.3,0.4c0.1,0.1,0.2,0.3,0.2,0.5c0.1,0.2,0.1,0.3,0.2,0.5
				C530.6,80.4,530.6,80.6,530.6,80.8z"/>
		</g>
		<path class="st1" d="M519.4,74.5v2h-1.6v-2c0-0.1,0-0.2,0-0.3s0-0.2-0.1-0.3c0-0.1-0.1-0.2-0.1-0.3c-0.1-0.1-0.1-0.2-0.2-0.2
			c-0.1-0.1-0.1-0.1-0.2-0.2c-0.1-0.1-0.2-0.1-0.3-0.1s-0.2-0.1-0.3-0.1s-0.2,0-0.3,0h-26.1c-0.1,0-0.2,0-0.3,0s-0.2,0-0.3,0.1
			c-0.1,0-0.2,0.1-0.3,0.1c-0.1,0.1-0.2,0.1-0.2,0.2c-0.1,0.1-0.1,0.1-0.2,0.2c-0.1,0.1-0.1,0.2-0.1,0.3s-0.1,0.2-0.1,0.3
			s0,0.2,0,0.3v2h-1.6v-2c0-0.2,0-0.4,0.1-0.6c0-0.2,0.1-0.4,0.2-0.6c0.1-0.2,0.2-0.4,0.3-0.5c0.1-0.2,0.2-0.3,0.4-0.5
			c0.1-0.1,0.3-0.3,0.5-0.4c0.2-0.1,0.3-0.2,0.5-0.3s0.4-0.1,0.6-0.2c0.2,0,0.4-0.1,0.6-0.1h12.3v-3.5h1.6v3.5h12.3
			c0.2,0,0.4,0,0.6,0.1c0.2,0,0.4,0.1,0.6,0.2c0.2,0.1,0.4,0.2,0.5,0.3c0.2,0.1,0.3,0.2,0.5,0.4c0.1,0.1,0.3,0.3,0.4,0.5
			c0.1,0.2,0.2,0.3,0.3,0.5s0.1,0.4,0.2,0.6C519.4,74.1,519.4,74.3,519.4,74.5z"/>
		<path class="st1" d="M496.4,95.7v2h-1.6v-2c0-0.1,0-0.2,0-0.3s0-0.2-0.1-0.3c0-0.1-0.1-0.2-0.1-0.3c-0.1-0.1-0.1-0.2-0.2-0.2
			c-0.1-0.1-0.1-0.1-0.2-0.2c-0.1-0.1-0.2-0.1-0.3-0.1s-0.2-0.1-0.3-0.1s-0.2,0-0.3,0h-10.8c-0.1,0-0.2,0-0.3,0s-0.2,0-0.3,0.1
			c-0.1,0-0.2,0.1-0.3,0.1c-0.1,0.1-0.2,0.1-0.2,0.2c-0.1,0.1-0.1,0.1-0.2,0.2c-0.1,0.1-0.1,0.2-0.1,0.3s-0.1,0.2-0.1,0.3
			s0,0.2,0,0.3v2h-1.6v-2c0-0.2,0-0.4,0.1-0.6c0-0.2,0.1-0.4,0.2-0.6c0.1-0.2,0.2-0.4,0.3-0.5c0.1-0.2,0.2-0.3,0.4-0.5
			c0.1-0.1,0.3-0.3,0.5-0.4c0.2-0.1,0.3-0.2,0.5-0.3s0.4-0.1,0.6-0.2c0.2,0,0.4-0.1,0.6-0.1h4.6V89h1.6v3.5h4.6c0.2,0,0.4,0,0.6,0.1
			c0.2,0,0.4,0.1,0.6,0.2c0.2,0.1,0.4,0.2,0.5,0.3s0.3,0.2,0.5,0.4c0.1,0.1,0.3,0.3,0.4,0.5c0.1,0.2,0.2,0.3,0.3,0.5
			s0.1,0.4,0.2,0.6C496.4,95.3,496.4,95.5,496.4,95.7z"/>
		<g>
			<path class="st1" d="M508,99.4h5.8c0.1,0,0.2,0,0.3,0s0.2,0,0.3,0.1c0.1,0,0.2,0.1,0.2,0.1c0.1,0.1,0.1,0.1,0.2,0.2
				c0.1,0.1,0.1,0.1,0.2,0.2c0.1,0.1,0.1,0.2,0.1,0.2c0,0.1,0.1,0.2,0.1,0.3s0,0.2,0,0.3v4.1c0,0.1,0,0.2,0,0.3s0,0.2-0.1,0.3
				c0,0.1-0.1,0.2-0.1,0.2c-0.1,0.1-0.1,0.1-0.2,0.2c-0.1,0.1-0.1,0.1-0.2,0.2c-0.1,0.1-0.2,0.1-0.2,0.1c-0.1,0-0.2,0.1-0.3,0.1
				s-0.2,0-0.3,0H508c-0.1,0-0.2,0-0.3,0s-0.2,0-0.3-0.1c-0.1,0-0.2-0.1-0.2-0.1c-0.1-0.1-0.1-0.1-0.2-0.2c-0.1-0.1-0.1-0.1-0.2-0.2
				c-0.1-0.1-0.1-0.2-0.1-0.2c0-0.1-0.1-0.2-0.1-0.3s0-0.2,0-0.3v-4.1c0-0.1,0-0.2,0-0.3s0-0.2,0.1-0.3c0-0.1,0.1-0.2,0.1-0.2
				c0-0.1,0.1-0.1,0.2-0.2c0.1-0.1,0.1-0.1,0.2-0.2c0.1-0.1,0.2-0.1,0.2-0.1c0.1,0,0.2-0.1,0.3-0.1S507.9,99.4,508,99.4z"/>
		</g>
		<g>
			<path class="st1" d="M523.4,99.4h5.8c0.1,0,0.2,0,0.3,0s0.2,0,0.3,0.1c0.1,0,0.2,0.1,0.2,0.1c0.1,0.1,0.1,0.1,0.2,0.2
				c0.1,0.1,0.1,0.1,0.2,0.2c0.1,0.1,0.1,0.2,0.1,0.2c0,0.1,0.1,0.2,0.1,0.3s0,0.2,0,0.3v4.1c0,0.1,0,0.2,0,0.3s0,0.2-0.1,0.3
				c0,0.1-0.1,0.2-0.1,0.2c-0.1,0.1-0.1,0.1-0.2,0.2c-0.1,0.1-0.1,0.1-0.2,0.2c-0.1,0.1-0.2,0.1-0.2,0.1c-0.1,0-0.2,0.1-0.3,0.1
				s-0.2,0-0.3,0h-5.8c-0.1,0-0.2,0-0.3,0s-0.2,0-0.3-0.1c-0.1,0-0.2-0.1-0.2-0.1c-0.1-0.1-0.1-0.1-0.2-0.2
				c-0.1-0.1-0.1-0.1-0.2-0.2c0-0.1-0.1-0.2-0.1-0.2c0-0.1-0.1-0.2-0.1-0.3s0-0.2,0-0.3v-4.1c0-0.1,0-0.2,0-0.3s0-0.2,0.1-0.3
				c0-0.1,0.1-0.2,0.1-0.2c0.1-0.1,0.1-0.1,0.2-0.2c0.1-0.1,0.1-0.1,0.2-0.2c0.1-0.1,0.2-0.1,0.2-0.1c0.1,0,0.2-0.1,0.3-0.1
				S523.3,99.4,523.4,99.4z"/>
		</g>
		<path class="st1" d="M527.1,95.7v2h-1.6v-2c0-0.1,0-0.2,0-0.3s0-0.2-0.1-0.3c0-0.1-0.1-0.2-0.1-0.3c-0.1-0.1-0.1-0.2-0.2-0.2
			c-0.1-0.1-0.1-0.1-0.2-0.2c-0.1-0.1-0.2-0.1-0.3-0.1s-0.2-0.1-0.3-0.1s-0.2,0-0.3,0h-10.8c-0.1,0-0.2,0-0.3,0s-0.2,0-0.3,0.1
			c-0.1,0-0.2,0.1-0.3,0.1s-0.2,0.1-0.2,0.2c-0.1,0.1-0.1,0.1-0.2,0.2c-0.1,0.1-0.1,0.2-0.1,0.3s-0.1,0.2-0.1,0.3s0,0.2,0,0.3v2
			h-1.6v-2c0-0.2,0-0.4,0.1-0.6c0-0.2,0.1-0.4,0.2-0.6c0.1-0.2,0.2-0.4,0.3-0.5c0.1-0.2,0.2-0.3,0.4-0.5c0.1-0.1,0.3-0.3,0.5-0.4
			c0.2-0.1,0.3-0.2,0.5-0.3s0.4-0.1,0.6-0.2c0.2,0,0.4-0.1,0.6-0.1h4.6V89h1.6v3.5h4.6c0.2,0,0.4,0,0.6,0.1c0.2,0,0.4,0.1,0.6,0.2
			c0.2,0.1,0.4,0.2,0.5,0.3c0.2,0.1,0.3,0.2,0.5,0.4c0.1,0.1,0.3,0.3,0.4,0.5c0.1,0.2,0.2,0.3,0.3,0.5s0.1,0.4,0.2,0.6
			C527,95.3,527.1,95.5,527.1,95.7z"/>
	</g>
	<text transform="matrix(1 0 0 1 459.5088 135.5772)" class="st1 st6 st7">Ad Decisioning</text>
</g>
<text transform="matrix(1 0 0 1 242.4312 304.1797)" class="st1 st6 st7">OptiView Ad Engine</text>
<text transform="matrix(1 0 0 1 455.8986 410.6278)" class="st1 st6 st7">Streaming Server</text>
<text transform="matrix(1 0 0 1 687.3713 410.6277)" class="st1 st6 st7">CDN</text>
<text transform="matrix(1 0 0 1 884.7427 410.6275)" class="st1 st6 st7">Player</text>
<text transform="matrix(1 0 0 1 309.001 181.2861)" class="st6 st8">Ad Master</text>
<text transform="matrix(1 0 0 1 322.0009 346.4872)" class="st6 st8">Conformed Ad</text>
<polygon class="st9" points="351.2,340.6 392.5,340.6 392.5,340.6 "/>
<text transform="matrix(1 0 0 1 193.9117 397.3036)" class="st6 st7">Primary Content</text>
<g>
	<line class="st9" x1="176.3" y1="96.5" x2="233.7" y2="96.5"/>
	<g>
		<line class="st10" x1="176.3" y1="96.5" x2="223.4" y2="96.5"/>
		<g>
			<polygon class="st11" points="221.3,103.7 233.7,96.5 221.3,89.3 			"/>
		</g>
	</g>
</g>
<g>
	<line class="st9" x1="303" y1="148.8" x2="303" y2="206.2"/>
	<g>
		<line class="st10" x1="303" y1="148.8" x2="303" y2="195.9"/>
		<g>
			<polygon class="st11" points="295.8,193.8 303,206.2 310.2,193.8 			"/>
		</g>
	</g>
</g>
<g>
	<line class="st9" x1="305.8" y1="355.5" x2="433.7" y2="355.5"/>
	<g>
		<line class="st10" x1="305.8" y1="355.5" x2="423.4" y2="355.5"/>
		<g>
			<polygon class="st11" points="421.3,362.7 433.7,355.5 421.3,348.3 			"/>
		</g>
	</g>
</g>
<g>
	<line class="st9" x1="775.3" y1="368.5" x2="832.7" y2="368.5"/>
	<g>
		<line class="st10" x1="775.3" y1="368.5" x2="822.4" y2="368.5"/>
		<g>
			<polygon class="st11" points="820.3,375.7 832.7,368.5 820.3,361.3 			"/>
		</g>
	</g>
</g>
<g>
	<line class="st9" x1="575.3" y1="368.5" x2="632.7" y2="368.5"/>
	<g>
		<line class="st10" x1="575.3" y1="368.5" x2="622.4" y2="368.5"/>
		<g>
			<polygon class="st11" points="620.3,375.7 632.7,368.5 620.3,361.3 			"/>
		</g>
	</g>
</g>
<g>
	<line class="st9" x1="298.4" y1="393.5" x2="434.7" y2="393.5"/>
	<g>
		<line class="st10" x1="298.4" y1="393.5" x2="424.4" y2="393.5"/>
		<g>
			<polygon class="st11" points="422.3,400.7 434.7,393.5 422.3,386.3 			"/>
		</g>
	</g>
</g>
<line class="st10" x1="305.8" y1="318.2" x2="305.8" y2="356.2"/>
<g>
	<line class="st9" x1="504.9" y1="311.5" x2="504.9" y2="149.4"/>
	<g>
		<line class="st10" x1="504.9" y1="301.2" x2="504.9" y2="159.7"/>
		<g>
			<polygon class="st11" points="512.1,299.1 504.9,311.5 497.7,299.1 			"/>
		</g>
		<g>
			<polygon class="st11" points="512.1,161.8 504.9,149.4 497.7,161.8 			"/>
		</g>
	</g>
</g>
</svg>
