<svg xmlns="http://www.w3.org/2000/svg" xml:space="preserve" version="1.1" viewBox="0 0 259 288"><style>.st0{fill:#6f7273}.st1{fill:#85c300}</style><path d="M169.3 107.9c-2.1-3.7-.9-8.3 2.8-10.5L210.8 75c1.9-1.1 2.6-3.6 1.5-5.5-.4-.6-.9-1.1-1.5-1.5L134 23.8c-2.5-1.5-5.6-1.5-8.1 0L49.2 68.2c-1.9 1.1-2.6 3.6-1.5 5.5.4.6.9 1.1 1.5 1.5l38.7 22.4c3.7 2.1 4.9 6.8 2.8 10.4-2.1 3.7-6.8 4.9-10.5 2.8L24.6 78.6c-3.9-2.2-5.2-7.2-3-11.1.7-1.2 1.7-2.3 3-3L126 6.1c2.5-1.5 5.6-1.5 8.1 0l101.4 58.5c3.9 2.2 5.2 7.2 3 11.1-.7 1.2-1.7 2.3-3 3l-55.6 32.1c-3.8 2.1-8.5.8-10.6-2.9z" class="st0"/><path d="M212.2 187 142 146.4c-2.5-1.4-4-4.1-4-7V58.2c0-4.5 3.6-8.1 8.1-8.1 1.4 0 2.8.4 4.1 1.1L175.7 66c3.7 2.1 4.9 6.8 2.8 10.4-2.1 3.7-6.8 4.9-10.5 2.8l-8.8-5.1c-1.9-1.1-4.4-.5-5.5 1.4-.3.6-.5 1.3-.5 2v52.8c0 2.9 1.5 5.6 4 7l51.8 29.9v-17.1c0-4.2 3.4-7.7 7.7-7.7 4.2 0 7.7 3.4 7.7 7.7v29.7c.1 4.5-3.5 8.1-8 8.2-1.4.1-2.9-.3-4.2-1z" class="st1"/><path d="M137.9 274.9v-64.3c0-4.2 3.4-7.7 7.7-7.7 4.2 0 7.7 3.4 7.7 7.7v44.7c0 2.2 1.8 4 4 4 .7 0 1.4-.2 2-.5l76.7-44.3c2.5-1.4 4-4.1 4-7v-88.6c-.1-2.2-1.9-4-4.1-4-.7 0-1.3.2-1.9.5l-38.7 22.4c-3.7 2.1-8.4.9-10.5-2.8-2.1-3.7-.9-8.3 2.8-10.5l55.6-32.1c3.9-2.2 8.8-.9 11.1 3 .7 1.2 1.1 2.6 1.1 4.1v117c0 2.9-1.5 5.6-4 7L150 282c-3.9 2.2-8.8.9-11.1-3-.6-1.3-1-2.7-1-4.1z" class="st0"/><path d="M35.6 180v-29.7c0-4.2 3.4-7.7 7.7-7.7 4.2 0 7.7 3.4 7.7 7.7v17.1l51.7-29.8c2.5-1.4 4.1-4.1 4-7V77.8c0-2.2-1.9-4-4.1-4-.7 0-1.4.2-2 .5l-8.8 5.1c-3.7 2.1-8.4.9-10.5-2.8-2.1-3.7-.9-8.3 2.8-10.5l25.7-14.8c3.9-2.2 8.8-.9 11 2.9.7 1.2 1.1 2.6 1.1 4.1v81c0 2.9-1.5 5.6-4 7L47.8 187c-3.9 2.2-8.8.9-11-2.9-.8-1.3-1.2-2.7-1.2-4.1z" class="st1"/><path d="M110 281.9 8.6 223.4c-2.5-1.5-4-4.1-4-7v-117c0-4.5 3.6-8.1 8.1-8.1 1.4 0 2.8.4 4.1 1.1l55.6 32.1c3.7 2.1 4.9 6.8 2.8 10.5-2.1 3.7-6.8 4.9-10.5 2.8L26 115.4c-1.9-1.1-4.4-.4-5.5 1.5-.3.6-.5 1.2-.5 1.9v88.7c0 2.9 1.5 5.6 4 7l76.7 44.3c1.9 1.1 4.4.5 5.5-1.5.4-.6.5-1.3.5-2v-44.7c0-4.2 3.4-7.7 7.7-7.7 4.2 0 7.7 3.4 7.7 7.7v64.2c0 4.5-3.6 8.1-8 8.2-1.5 0-2.9-.4-4.1-1.1z" class="st0"/><path d="M168.2 226.7c-2.1-3.7-.9-8.3 2.8-10.5l8.8-5.1c1.9-1.1 2.6-3.6 1.5-5.5-.4-.6-.9-1.1-1.5-1.5L134 177.7c-2.5-1.4-5.6-1.4-8.1 0l-45.7 26.4c-1.9 1.1-2.6 3.6-1.5 5.5.4.6.9 1.1 1.5 1.5l8.8 5.1c3.7 2.1 4.9 6.8 2.8 10.5-2.1 3.7-6.8 4.9-10.5 2.8l-25.6-14.8c-3.9-2.2-5.2-7.2-3-11.1.7-1.2 1.7-2.3 3-3L126 160c2.5-1.5 5.6-1.5 8.1 0l70.3 40.6c3.9 2.2 5.2 7.2 3 11.1-.7 1.2-1.7 2.3-3 3l-25.6 14.8c-3.6 2.2-8.4 1-10.5-2.7-.1 0-.1-.1-.1-.1z" class="st1"/></svg>
