<?xml version="1.0" encoding="utf-8"?>
<!-- Generator: Adobe Illustrator 25.2.0, SVG Export Plug-In . SVG Version: 6.00 Build 0)  -->
<svg version="1.1" id="Layer_1" xmlns="http://www.w3.org/2000/svg" xmlns:xlink="http://www.w3.org/1999/xlink" x="0px" y="0px"
	 width="250px" height="44px" viewBox="0 0 250 44" style="enable-background:new 0 0 250 44;" xml:space="preserve">
<style type="text/css">
	.st0{fill:none;stroke:#000000;stroke-width:2;stroke-linecap:round;stroke-linejoin:round;}
	.st1{display:none;}
	.st2{fill:#FFFFFF;}
	.st3{display:inline;}
	.st4{stroke:#231F20;stroke-width:0.288;stroke-miterlimit:10;}
	.st5{font-family:'AvenirNext-Medium';}
	.st6{font-size:31.586px;}
	.st7{letter-spacing:-1.1;}
</style>
<g>
	<line class="st0" x1="43.9" y1="36.7" x2="74.3" y2="36.7"/>
	<g>
		<g>
			<path class="st1" d="M44.5,31.3c-0.7,0-1.2-0.6-1.2-1.5V9.2c0-0.8,0.6-1.4,1.2-1.4h28.2c0.7,0,1.2,0.6,1.2,1.4v20.6
				c0,0.8-0.6,1.5-1.2,1.5C72.7,31.3,44.5,31.3,44.5,31.3z"/>
			<path d="M72.7,8.7c0.1,0,0.2,0.2,0.2,0.4v20.6c0,0.2-0.1,0.5-0.2,0.5H44.5c-0.1,0-0.2-0.2-0.2-0.5V9.2c0-0.2,0.1-0.4,0.2-0.4
				L72.7,8.7 M72.7,6.7H44.5c-1.3,0-2.2,1.1-2.2,2.5v20.6c0,1.4,1,2.5,2.2,2.5h28.2c1.3,0,2.2-1.1,2.2-2.5V9.2
				C75,7.8,74,6.7,72.7,6.7L72.7,6.7L72.7,6.7z"/>
		</g>
		<path class="st2" d="M56.4,22.8l-0.5-1.4h-2.7l-0.5,1.4H51l2.9-6.9h1.6l2.8,6.9H56.4L56.4,22.8z M65.9,20.9
			c-0.2,0.4-0.5,0.8-0.9,1.1c-0.4,0.3-0.8,0.5-1.2,0.6c-0.5,0.1-0.9,0.2-1.4,0.2h-2.6V16h2.5c0.5,0,1,0.1,1.4,0.2
			c0.5,0.1,0.9,0.3,1.3,0.6s0.7,0.6,0.9,1c0.2,0.4,0.3,1,0.3,1.6C66.3,20,66.2,20.5,65.9,20.9z M63.9,17.8c-0.2-0.1-0.4-0.3-0.7-0.3
			s-0.5-0.1-0.8-0.1h-0.8v4h0.8c0.3,0,0.6,0,0.9-0.1c0.3-0.1,0.5-0.2,0.7-0.3c0.2-0.1,0.4-0.4,0.5-0.6s0.2-0.6,0.2-1s-0.1-0.7-0.2-1
			C64.2,18.2,64.1,18,63.9,17.8L63.9,17.8L63.9,17.8z M53.7,20.2h1.7l-0.8-2.4L53.7,20.2L53.7,20.2z"/>
		<g class="st1">
			<path class="st3" d="M84.3,31.7h-3.5L90.6,9h2.9l9.7,22.7h-3.6l-2.3-5.6H86.6L84.3,31.7L84.3,31.7z M87.7,23.3h8.5l-4.2-10.6
				L87.7,23.3z"/>
			<path class="st3" d="M118.1,29.3c-0.6,0.9-1.4,1.6-2.4,2.1s-2,0.7-3.1,0.7c-1.2,0-2.2-0.2-3.2-0.6c-0.9-0.4-1.7-1-2.4-1.7
				c-0.7-0.7-1.2-1.6-1.5-2.6s-0.5-2-0.5-3.1s0.2-2.1,0.5-3.1c0.4-1,0.9-1.8,1.6-2.5s1.5-1.3,2.4-1.7s2-0.6,3.1-0.6
				c1.2,0,2.3,0.3,3.2,0.8c0.9,0.5,1.6,1.2,2.2,1.9h0.1V7.5h3v24.2h-2.9L118.1,29.3L118.1,29.3L118.1,29.3z M108.1,24.1
				c0,0.7,0.1,1.4,0.3,2c0.2,0.7,0.5,1.2,1,1.8c0.4,0.5,0.9,0.9,1.6,1.2c0.6,0.3,1.4,0.5,2.2,0.5c0.8,0,1.5-0.1,2.1-0.5
				c0.6-0.3,1.2-0.7,1.6-1.2s0.8-1.1,1-1.7s0.4-1.4,0.4-2.1s-0.1-1.4-0.4-2.1s-0.6-1.2-1-1.8s-1-0.9-1.6-1.2
				c-0.6-0.3-1.3-0.5-2.1-0.5c-0.8,0-1.6,0.1-2.2,0.5c-0.6,0.3-1.1,0.7-1.6,1.2c-0.4,0.5-0.8,1.1-1,1.8S108.1,23.4,108.1,24.1
				L108.1,24.1z"/>
			<path class="st3" d="M134.5,20.3c-0.3-0.6-0.8-1-1.4-1.4s-1.3-0.5-2.1-0.5c-0.3,0-0.7,0-1,0.1c-0.3,0.1-0.6,0.2-0.9,0.4
				c-0.3,0.2-0.5,0.4-0.6,0.6s-0.2,0.5-0.2,0.9c0,0.6,0.3,1.1,0.9,1.4s1.4,0.6,2.6,0.9c0.7,0.2,1.4,0.4,2,0.6
				c0.6,0.2,1.2,0.5,1.6,0.9s0.8,0.8,1.1,1.3c0.3,0.5,0.4,1.1,0.4,1.7c0,0.9-0.2,1.7-0.5,2.3s-0.8,1.1-1.4,1.5
				c-0.6,0.4-1.2,0.7-1.9,0.9c-0.7,0.2-1.5,0.3-2.2,0.3c-1.1,0-2.3-0.2-3.4-0.7c-1.1-0.5-2-1.1-2.7-2l2.1-1.8c0.4,0.6,1,1.1,1.7,1.5
				c0.7,0.4,1.5,0.6,2.4,0.6c0.4,0,0.8,0,1.1-0.1c0.4-0.1,0.7-0.2,1-0.4c0.3-0.2,0.5-0.4,0.7-0.7c0.2-0.3,0.3-0.6,0.3-1.1
				c0-0.7-0.3-1.2-1-1.6s-1.7-0.7-3-1c-0.5-0.1-1-0.3-1.6-0.5c-0.5-0.2-1-0.4-1.4-0.8s-0.8-0.7-1-1.2c-0.3-0.5-0.4-1.1-0.4-1.8
				c0-0.8,0.2-1.5,0.5-2.1s0.8-1.1,1.3-1.4s1.1-0.6,1.8-0.8s1.4-0.3,2.1-0.3c1.1,0,2.1,0.2,3.2,0.6c1,0.4,1.8,1,2.4,1.9L134.5,20.3
				L134.5,20.3z"/>
		</g>
	</g>
	<text transform="matrix(0.8982 0 0 1 81.8778 31.7748)" class="st4 st5 st6 st7">Ad Engine</text>
	<g>
		<rect x="44" y="8.1" width="29.7" height="22.3"/>
		<g>
			<g>
				<path class="st2" d="M57.8,20.5c0.4-0.3,0.8-0.6,1.1-0.9l1.2,0.7l1.1-1.9L60,17.6c0.2-0.5,0.2-0.9,0.3-1.5l1.4-0.2l-0.4-2.1
					l-1.4,0.2c-0.2-0.5-0.4-0.9-0.7-1.3l0.9-1.1l-1.7-1.4l-0.9,1.1c-0.4-0.2-0.9-0.4-1.4-0.5V9.5h-2.2v1.4c-0.5,0.1-1,0.3-1.4,0.5
					l-0.9-1.1L50,11.7l0.9,1.1c-0.3,0.4-0.6,0.8-0.7,1.3l-1.4-0.2L48.4,16l1.4,0.2c0,0.5,0.1,1,0.3,1.5l-1.2,0.7l1.1,1.9l1.2-0.7
					c0.3,0.4,0.7,0.7,1.1,0.9l-0.5,1.3l2,0.7l0.5-1.3c0.2,0,0.5,0.1,0.7,0.1c0.2,0,0.5,0,0.7-0.1l0.5,1.3l2-0.7L57.8,20.5z M55,18.8
					c-1.5,0-2.8-1.2-2.8-2.8s1.2-2.8,2.8-2.8c1.5,0,2.8,1.2,2.8,2.8C57.7,17.5,56.5,18.8,55,18.8z"/>
				<path class="st2" d="M67.1,22.1l-0.9,0.3c-0.2-0.3-0.4-0.6-0.7-0.8l0.5-0.8l-1.3-0.8l-0.5,0.8c-0.3-0.1-0.7-0.2-1-0.2l-0.1-1
					l-1.5,0.2l0.1,1c-0.3,0.1-0.7,0.3-0.9,0.5l-0.7-0.7l-1,1.1l0.7,0.7c-0.2,0.3-0.3,0.6-0.4,1l-1,0l-0.1,1.6l1,0
					c0.1,0.4,0.2,0.7,0.3,1l-0.8,0.6l1,1.2l0.8-0.6c0.3,0.2,0.6,0.4,0.9,0.6l-0.2,1l1.5,0.3l0.2-1c0.2,0,0.4,0,0.5,0
					c0.2,0,0.4-0.1,0.5-0.1l0.5,0.9l1.4-0.7l-0.5-0.9c0.3-0.2,0.5-0.5,0.7-0.8l0.9,0.4l0.6-1.4l-0.9-0.4c0.1-0.3,0.1-0.7,0-1.1
					l0.9-0.3L67.1,22.1z M63.1,26.2c-1.1,0.2-2.1-0.6-2.2-1.7c-0.2-1.1,0.6-2.1,1.7-2.2c1.1-0.2,2.1,0.6,2.2,1.7
					C65,25.1,64.2,26.1,63.1,26.2z"/>
				<path class="st2" d="M69.2,16.7l0-1.2l-0.8,0c0-0.3-0.1-0.5-0.3-0.8l0.6-0.5l-0.8-1l-0.6,0.5c-0.2-0.2-0.5-0.3-0.7-0.4l0.2-0.8
					l-1.2-0.2L65.5,13c-0.3,0-0.6,0-0.8,0.1l-0.4-0.7l-1.1,0.6l0.4,0.7c-0.2,0.2-0.4,0.4-0.6,0.6l-0.7-0.3l-0.5,1.1l0.7,0.3
					c0,0.3-0.1,0.6,0,0.8l-0.7,0.2l0.4,1.2l0.7-0.2c0.1,0.2,0.3,0.5,0.5,0.7L63,18.8l1,0.6l0.4-0.7c0.3,0.1,0.5,0.2,0.8,0.2l0.1,0.8
					l1.2-0.2l-0.1-0.8c0.1,0,0.3-0.1,0.4-0.2c0.1-0.1,0.2-0.1,0.4-0.2l0.6,0.5l0.8-0.9l-0.6-0.5c0.1-0.2,0.2-0.5,0.3-0.8L69.2,16.7z
					 M66.2,17.4c-0.8,0.4-1.7,0.1-2.1-0.6C63.7,16,64,15,64.8,14.6c0.8-0.4,1.7-0.1,2.1,0.6C67.3,16,67,17,66.2,17.4z"/>
			</g>
		</g>
	</g>
</g>
</svg>
