<?xml version="1.0" encoding="UTF-8"?>
<svg id="Layer_1" data-name="Layer 1" xmlns="http://www.w3.org/2000/svg" viewBox="0 0 250 44">
  <defs>
    <style>
      .cls-1 {
        fill: none;
        stroke: #000;
        stroke-linecap: round;
        stroke-linejoin: round;
        stroke-width: 2px;
      }

      .cls-2 {
        fill: #fff;
      }

      .cls-3 {
        font-family: AvenirNext-Medium, 'Avenir Next';
        font-size: 32.04px;
        font-weight: 500;
      }
    </style>
  </defs>
  <line class="cls-1" x1="78.8" y1="36.16" x2="109.24" y2="36.16"/>
  <g>
    <g>
      <path d="M79.39,30.74c-.7,0-1.25-.64-1.25-1.45V8.64c0-.82.55-1.45,1.25-1.45h28.22c.7,0,1.25.64,1.25,1.45v20.65c0,.81-.55,1.45-1.25,1.45h-28.22Z"/>
      <path d="M107.61,8.18c.14,0,.25.21.25.45v20.65c0,.24-.12.45-.25.45h-28.22c-.14,0-.25-.21-.25-.45V8.64c0-.25.12-.45.25-.45h28.22M107.61,6.18h-28.22c-1.26,0-2.25,1.08-2.25,2.45v20.65c0,1.38.99,2.45,2.25,2.45h28.22c1.26,0,2.25-1.08,2.25-2.45V8.64c0-1.38-.99-2.45-2.25-2.45h0Z"/>
    </g>
    <path class="cls-2" d="M91.34,22.33l-.53-1.35h-2.66l-.5,1.35h-1.8l2.88-6.87h1.61l2.85,6.87h-1.84ZM100.83,20.43c-.22.44-.52.8-.88,1.08-.37.28-.78.49-1.24.62-.46.13-.92.2-1.4.2h-2.56v-6.87h2.48c.49,0,.96.06,1.44.17.47.11.89.3,1.26.56.37.26.67.61.89,1.05.23.44.34.98.34,1.63,0,.6-.11,1.12-.33,1.56ZM98.75,17.3c-.21-.15-.45-.26-.72-.32s-.54-.1-.83-.1h-.82v4.02h.78c.3,0,.58-.03.86-.1.27-.07.52-.18.73-.33.21-.15.38-.36.5-.62s.19-.58.19-.96-.06-.71-.19-.97c-.13-.25-.29-.46-.5-.61h0ZM88.62,19.65h1.73l-.85-2.36-.87,2.36Z"/>
    <text class="cls-3" transform="translate(115.5 31.18)"><tspan x="0" y="0">Ads</tspan></text>
  </g>
</svg>