<svg width="2523" height="400" viewBox="0 0 2523 400" fill="none" xmlns="http://www.w3.org/2000/svg">
<path d="M2520.38 377.23C2520.16 375.852 2519.95 374.49 2519.72 373.128C2518.33 364.677 2516.6 356.325 2514.59 348.087C2511.06 333.696 2506.62 319.65 2501.32 306.047C2496.84 294.527 2491.74 283.32 2486.08 272.457C2478.8 258.509 2470.59 245.119 2461.52 232.385C2450.4 216.78 2437.98 202.16 2424.42 188.688C2418.73 183.026 2412.84 177.562 2406.76 172.327C2393.59 160.956 2379.52 150.602 2364.7 141.347C2364.83 141.133 2364.94 140.904 2365.07 140.69C2371.86 128.958 2378.67 117.241 2385.46 105.509C2392.1 94.0551 2398.74 82.6014 2405.38 71.1477C2410.16 62.9267 2414.93 54.6892 2419.68 46.4681C2420.81 44.5154 2421.7 42.4971 2422.37 40.4295C2424.23 34.6699 2424.31 28.6148 2422.82 22.9864C2422.44 21.5917 2421.98 20.2297 2421.42 18.9005C2420.86 17.5714 2420.21 16.275 2419.47 15.0279C2416.93 10.7615 2413.3 7.05301 2408.74 4.34548C2404.71 1.94972 2400.2 0.522114 2395.58 0.111882C2393.64 -0.0522114 2391.69 -0.0358021 2389.75 0.161109C2388.15 0.325202 2386.56 0.62057 2384.98 1.0308C2379.36 2.52405 2374.14 5.609 2370.08 10.0723C2368.62 11.6804 2367.3 13.4526 2366.17 15.4053C2361.4 23.6264 2356.63 31.8639 2351.87 40.0849L2331.95 74.446C2325.16 86.1786 2318.35 97.8949 2311.56 109.628C2310.82 110.907 2310.07 112.187 2309.33 113.484C2308.3 113.073 2307.28 112.663 2306.25 112.269C2268.81 97.9933 2228.19 90.1825 2185.73 90.1825C2184.57 90.1825 2183.42 90.1825 2182.25 90.1989C2144.5 90.5763 2108.23 97.14 2074.39 108.922C2070.48 110.284 2066.61 111.728 2062.77 113.238C2062.08 112.04 2061.37 110.842 2060.69 109.644C2053.9 97.9113 2047.09 86.195 2040.3 74.4624C2033.66 63.0087 2027.02 51.555 2020.38 40.1013C2015.6 31.8803 2010.83 23.6428 2006.08 15.4218C2004.94 13.469 2003.63 11.6968 2002.17 10.0887C1998.11 5.6254 1992.89 2.54046 1987.27 1.04721C1985.69 0.636979 1984.1 0.341612 1982.49 0.177519C1980.56 -0.0193928 1978.61 -0.0358021 1976.67 0.128291C1972.05 0.522114 1967.54 1.94972 1963.5 4.36189C1958.94 7.06942 1955.34 10.7779 1952.78 15.0443C1952.04 16.2914 1951.38 17.5878 1950.83 18.9169C1950.27 20.2461 1949.79 21.6081 1949.43 23.0028C1947.94 28.6312 1948.02 34.6863 1949.87 40.4459C1950.55 42.5135 1951.43 44.5318 1952.56 46.4846C1957.34 54.7056 1962.11 62.9431 1966.86 71.1641C1973.51 82.6178 1980.15 94.0715 1986.79 105.525C1993.58 117.258 2000.38 128.974 2007.17 140.707C2007.22 140.805 2007.29 140.904 2007.34 141.002C1993.64 149.519 1980.61 158.954 1968.31 169.275C1960.94 175.462 1953.84 181.943 1947.04 188.72C1933.49 202.192 1921.08 216.813 1909.94 232.418C1900.86 245.152 1892.64 258.525 1885.38 272.49C1879.72 283.353 1874.62 294.56 1870.14 306.08C1864.84 319.683 1860.4 333.729 1856.87 348.12C1854.86 356.358 1853.15 364.694 1851.74 373.161C1851.51 374.523 1851.3 375.901 1851.09 377.263C1850.33 382.169 1849.69 387.109 1849.15 392.081H2522.26C2521.72 387.109 2521.08 382.169 2520.33 377.263L2520.38 377.23Z" fill="#34A853"/>
<path d="M2360.79 298.987C2374.26 290.021 2376.22 269.277 2365.16 252.656C2354.11 236.034 2334.23 229.829 2320.77 238.795C2307.3 247.762 2305.34 268.505 2316.4 285.126C2327.45 301.748 2347.33 307.954 2360.79 298.987Z" fill="#202124"/>
<path d="M2055.6 285.184C2066.66 268.562 2064.7 247.819 2051.23 238.853C2037.76 229.886 2017.89 236.092 2006.83 252.713C1995.78 269.335 1997.74 290.078 2011.2 299.044C2024.67 308.011 2044.55 301.805 2055.6 285.184Z" fill="#202124"/>
<path d="M1516.22 266.002C1516.22 220.834 1548.82 185.201 1589.95 185.201C1631.08 185.201 1661.17 219.83 1661.17 266.002C1661.17 312.173 1630.58 347.806 1589.95 347.806C1549.32 347.806 1516.22 311.672 1516.22 266.002ZM1374.78 391.97H1432.46V141.037H1374.78V391.97ZM1365.75 57.2257C1365.75 78.806 1383.31 96.3713 1403.87 96.3713C1424.43 96.3713 1441.49 78.806 1441.49 57.2257C1441.49 37.1511 1424.43 20.0877 1403.87 20.0877C1383.31 20.0877 1365.75 37.1511 1365.75 57.2257ZM1139.55 265.5C1139.55 220.332 1172.65 185.201 1215.28 185.201C1257.92 185.201 1291.02 220.332 1291.02 265.5C1291.02 310.668 1257.41 347.806 1215.28 347.806C1173.15 347.806 1139.55 311.17 1139.55 265.5ZM1080.86 265.5C1080.86 340.78 1140.05 400 1215.28 400C1290.52 400 1349.7 340.78 1349.7 265.5C1349.7 190.22 1291.52 133.007 1215.28 133.007C1139.05 133.007 1080.86 190.722 1080.86 265.5ZM924.879 391.97H982.559V260.481C982.559 208.287 1010.14 185.201 1056.29 185.201C1064.81 185.201 1071.33 185.703 1077.35 187.209V136.521C1071.33 134.513 1060.8 133.007 1049.27 133.007C971.023 133.007 924.879 182.19 924.879 260.481V391.97ZM693.659 266.002C693.659 220.834 726.261 185.201 767.389 185.201C808.517 185.201 838.611 219.83 838.611 266.002C838.611 312.173 808.015 347.806 767.389 347.806C726.762 347.806 693.659 311.672 693.659 266.002ZM634.977 266.002C634.977 338.772 693.158 400 761.872 400C790.461 400 816.542 388.457 832.09 369.386H834.598V391.97H892.278V0.0130615H834.598V161.614H832.09C817.043 143.547 790.962 133.007 761.872 133.007C692.656 133.007 634.977 193.733 634.977 266.002ZM382.19 391.97H439.869V244.924C439.869 209.793 463.443 185.201 496.044 185.201C528.646 185.201 552.219 209.793 552.219 244.924V391.97H609.899V244.924C609.899 183.696 561.247 133.007 496.044 133.007C430.841 133.007 382.19 183.696 382.19 244.924V391.97ZM117.365 241.41L179.559 63.2481H182.568L244.762 241.41H117.365ZM0 391.97H65.203L97.8045 298.623H264.323L296.924 391.97H362.127L217.176 0.0130615H144.951L0 391.97ZM1584.43 400C1613.02 400 1639.1 388.457 1654.65 369.386H1657.16V391.97H1714.84V0.0130615H1657.16V161.614H1654.65C1639.6 143.547 1613.52 133.007 1584.43 133.007C1515.22 133.007 1457.54 193.733 1457.54 266.002C1457.54 338.271 1515.72 400 1584.43 400Z" fill="#202124"/>
</svg>
