<svg xmlns="http://www.w3.org/2000/svg" viewBox="0 0 300 371.43"><defs><radialGradient id="radial-gradient" cx="5649.77" cy="4319.41" r="1817.72" gradientTransform="matrix(.25 0 0 .25 -1404 -1054.53)" gradientUnits="userSpaceOnUse"><stop offset="0" stop-color="#fff" stop-opacity=".1"/><stop offset="1" stop-color="#fff" stop-opacity="0"/></radialGradient><linearGradient id="linear-gradient" x1="6254.1" x2="6424.34" y1="5576.56" y2="5406.31" gradientTransform="matrix(.25 0 0 .25 -1404 -1054.53)" gradientUnits="userSpaceOnUse"><stop offset="0" stop-color="#1a237e" stop-opacity=".4"/><stop offset="1" stop-color="#1a237e" stop-opacity="0"/></linearGradient><clipPath id="clip-path"><path fill="none" d="m300 171.43-100 100 100 100H185.72l-42.86-42.86-57.15-57.15 100-100ZM185.72 0 0 185.72l57.15 57.15L300 0Z"/></clipPath><style>.cls-2{clip-path:url(#clip-path)}.cls-4{fill:#54c5f8}</style></defs><g class="cls-2"><path d="M300 171.43H185.72L85.73 271.44l57.12 57.13L300 171.43z" class="cls-4"/></g><g class="cls-2"><path d="M57.15 242.87 0 185.72 185.72 0H300L57.15 242.87z" class="cls-4"/></g><path fill="#01579b" d="m142.85 328.57 42.87 42.87H300l-99.99-100-57.16 57.13z" class="cls-2"/><path fill="url(#linear-gradient)" d="m142.85 328.57 84.76-29.33-27.6-27.8-57.16 57.13z" class="cls-2"/><path fill="#29b6f6" d="m85.716 271.44 57.141-57.142L200 271.44l-57.142 57.141z" class="cls-2"/><path fill="url(#radial-gradient)" d="m300 171.43-100 100 100 100H185.72l-42.86-42.86-57.15-57.15 100-100ZM185.72 0 0 185.72l57.15 57.15L300 0Z"/></svg>
