<?xml version="1.0" encoding="UTF-8"?>
<svg id="Layer_1" data-name="Layer 1" xmlns="http://www.w3.org/2000/svg" viewBox="0 0 250 44">
  <defs>
    <style>
      .cls-1 {
        stroke: #fff;
        stroke-linecap: round;
        stroke-linejoin: round;
        stroke-width: 2px;
      }

      .cls-1, .cls-2, .cls-3 {
        fill: #fff;
      }

      .cls-4 {
        letter-spacing: 0em;
      }

      .cls-3 {
        font-family: AvenirNext-Medium, 'Avenir Next';
        font-size: 32.04px;
        font-weight: 500;
      }

      .cls-5 {
        letter-spacing: -.02em;
      }

      .cls-6 {
        letter-spacing: 0em;
      }
    </style>
  </defs>
  <g>
    <path class="cls-2" d="M32.69,30.73c-.7,0-1.25-.64-1.25-1.45V8.64c0-.81.55-1.45,1.25-1.45h28.22c.7,0,1.25.64,1.25,1.45v20.65c0,.81-.55,1.45-1.25,1.45h-28.22Z"/>
    <path class="cls-2" d="M60.91,8.18c.14,0,.25.21.25.45v20.65c0,.24-.12.45-.25.45h-28.22c-.14,0-.25-.21-.25-.45V8.64c0-.25.12-.45.25-.45h28.22M60.91,6.18h-28.22c-1.26,0-2.25,1.08-2.25,2.45v20.65c0,1.38.99,2.45,2.25,2.45h28.22c1.26,0,2.25-1.08,2.25-2.45V8.64c0-1.38-.99-2.45-2.25-2.45h0Z"/>
  </g>
  <line class="cls-1" x1="31.58" y1="36.16" x2="62.02" y2="36.16"/>
  <text class="cls-3" transform="translate(68.8 31.18)"><tspan class="cls-6" x="0" y="0">S</tspan><tspan x="18.04" y="0">t</tspan><tspan class="cls-5" x="28.58" y="0">r</tspan><tspan class="cls-6" x="39.61" y="0">e</tspan><tspan class="cls-4" x="57.78" y="0">aming</tspan></text>
  <g>
    <g>
      <polygon points="40.58 22.17 36.45 22.17 36.45 15.62 38.04 15.62 38.04 20.79 40.58 20.79 40.58 22.17"/>
      <polygon points="38.04 15.62 36.45 15.62 36.45 22.17 40.58 22.17 40.58 20.79 38.04 20.79 38.04 15.62 38.04 15.62"/>
    </g>
    <g>
      <rect x="41.85" y="15.62" width="1.59" height="6.55"/>
      <polygon points="43.44 15.62 41.85 15.62 41.85 22.17 43.44 22.17 43.44 15.62 43.44 15.62"/>
    </g>
    <g>
      <polygon points="48.77 22.17 47.19 22.17 44.71 15.62 46.49 15.62 48.01 20.27 48.04 20.27 49.55 15.62 51.3 15.62 48.78 22.17 48.77 22.17"/>
      <polygon points="51.3 15.62 49.55 15.62 48.04 20.27 48.01 20.27 46.49 15.62 44.71 15.62 47.19 22.17 48.77 22.17 48.77 22.17 51.3 15.62 51.3 15.62"/>
    </g>
    <g>
      <polygon points="57.14 22.17 52.57 22.17 52.57 15.62 56.98 15.62 56.98 16.95 54.1 16.95 54.1 18.19 56.82 18.19 56.82 19.46 54.1 19.46 54.1 20.82 57.14 20.82 57.14 22.17"/>
      <polygon points="56.98 15.62 52.57 15.62 52.57 22.17 57.14 22.17 57.14 20.82 54.1 20.82 54.1 19.46 56.82 19.46 56.82 18.19 54.1 18.19 54.1 16.95 56.98 16.95 56.98 15.62 56.98 15.62"/>
    </g>
  </g>
</svg>