<svg xmlns="http://www.w3.org/2000/svg" viewBox="0 0 234.4 37.3"><path fill="#ffc60f" d="M17.9 5.4c-3.7 3.7-5.5 8.1-5.5 13.2s1.8 9.6 5.5 13.3c1.7 1.6 3.4 2.9 5.1 3.8 1.2.6 2.6 1.1 4 1.4v.2H7.8c-5.2 0-7.8-2.6-7.8-7.8V7.8C0 2.6 2.6 0 7.8 0h19.4v.2c-1.5.3-2.9.8-4.2 1.5-1.8.8-3.5 2.1-5.1 3.7"/><path d="M44 20.5c-2.3 1.6-5.2 3.4-8.8 5.4-3.5 1.9-6.5 3.5-9.1 4.6l-2.9 1.1c-.2-.8-.4-1.9-.5-3.5-.4-3-.5-6.4-.5-10.1 0-3.4.2-6.5.7-9.4l.7-3.4 3 1c2.6 1.1 5.5 2.6 8.6 4.5 3.3 2.1 6.1 4 8.4 5.8 1.2.9 2 1.6 2.5 2.1L44 20.5" class="cls-2"/><path fill="#ffc60f" d="M65 7.8v21.7c0 5.2-2.6 7.8-7.8 7.8H37.7V37c3.6-.7 6.7-2.4 9.4-5.1 3.7-3.7 5.5-8.1 5.5-13.3S50.7 9 47.1 5.4C44.4 2.7 41.2 1 37.5.3V0h19.7C62.4 0 65 2.6 65 7.8"/><path d="M90.6 3.6v3.7h-8.7v24.8h-4.4V7.3h-8.7V3.6h21.8M91.6 32.2V3.6H96v12.2h16V3.6h4.4v28.6H112V19.6H96v12.6h-4.4M139.5 3.6v3.7h-14.6v8.5h13.9v3.7h-13.9v8.9h14.9v3.7h-19.3V3.6h19M156.7 28.7c6.4 0 9.6-3.6 9.6-10.9s-3.2-10.7-9.6-10.7-9.7 3.6-9.7 10.7 3.2 10.9 9.7 10.9M142.4 18c0-9.7 4.8-14.5 14.3-14.5s14.1 4.8 14.1 14.5-4.7 14.4-14.1 14.4-14.3-4.8-14.3-14.4" class="cls-2"/><g fill="#999"><path d="M173.31 20.62c0-5.11 3.85-9.03 9.73-9.03.77 0 1.26.04 1.93.14V4.2c0-.14.07-.21.21-.21h3.01c.18 0 .21.07.21.17v21.7c0 .59 0 1.29.07 1.89 0 .17-.04.25-.17.31-2.1.91-4.17 1.29-6.16 1.29-4.97 0-8.82-2.94-8.82-8.75Zm11.66-5.85c-.53-.21-1.26-.28-2.03-.28-3.68 0-6.09 2.42-6.09 5.95 0 4.27 2.66 5.95 5.6 5.95.84 0 1.79-.11 2.52-.39V14.76ZM206.84 20.41c0 5.36-3.33 8.96-8.12 8.96-5.71 0-8.23-4.55-8.23-8.89 0-4.94 3.22-8.89 8.26-8.89s8.09 3.88 8.09 8.82Zm-12.88 0c0 3.43 1.79 6.06 4.83 6.06 2.38 0 4.58-1.92 4.58-5.95 0-3.15-1.4-6.02-4.79-6.02-2.7 0-4.62 2.31-4.62 5.92ZM220.84 28.57c0 .14 0 .21-.14.25-1.16.46-2.52.56-3.85.56-5.67 0-8.79-3.99-8.79-8.82 0-5.15 3.71-8.96 9.31-8.96 1.79 0 2.77.17 3.33.42.14.04.17.14.17.32l-.03 2.55c0 .21-.14.21-.25.17-.84-.31-1.75-.49-3.15-.49-3.43 0-5.88 2.21-5.88 5.85 0 4.06 2.83 5.88 5.92 5.88 1.26 0 2.34-.14 3.15-.42.17-.04.21.04.21.14v2.56ZM228.33 14.36c-2.14 0-2.87.98-2.87 1.93s.59 1.58 3.08 2.59c3.71 1.4 5.11 2.87 5.11 5.36 0 3.26-2.62 5.15-6.51 5.15-2 0-3.75-.38-4.79-1.01-.14-.07-.18-.14-.18-.32v-2.73c0-.18.11-.25.21-.18 1.47.98 3.29 1.4 4.87 1.4 2.06 0 3.08-.84 3.08-2s-.74-1.82-3.08-2.73c-3.61-1.37-5.01-2.87-5.01-5.36s2.13-4.87 6.16-4.87c1.96 0 3.43.31 4.2.7.17.1.21.25.21.38v2.52c0 .17-.14.28-.32.17-1.01-.59-2.66-1.02-4.17-1.02Z"/></g></svg>
