<svg xmlns="http://www.w3.org/2000/svg" viewBox="0 0 243.46 37.3"><path fill="#ffc60f" d="M17.9 5.4c-3.7 3.7-5.5 8.1-5.5 13.2s1.8 9.6 5.5 13.3c1.7 1.6 3.4 2.9 5.1 3.8 1.2.6 2.6 1.1 4 1.4v.2H7.8c-5.2 0-7.8-2.6-7.8-7.8V7.8C0 2.6 2.6 0 7.8 0h19.4v.2c-1.5.3-2.9.8-4.2 1.5-1.8.8-3.5 2.1-5.1 3.7"/><path d="M44 20.5c-2.3 1.6-5.2 3.4-8.8 5.4-3.5 1.9-6.5 3.5-9.1 4.6l-2.9 1.1c-.2-.8-.4-1.9-.5-3.5-.4-3-.5-6.4-.5-10.1 0-3.4.2-6.5.7-9.4l.7-3.4 3 1c2.6 1.1 5.5 2.6 8.6 4.5 3.3 2.1 6.1 4 8.4 5.8 1.2.9 2 1.6 2.5 2.1L44 20.5"/><path fill="#ffc60f" d="M65 7.8v21.7c0 5.2-2.6 7.8-7.8 7.8H37.7V37c3.6-.7 6.7-2.4 9.4-5.1 3.7-3.7 5.5-8.1 5.5-13.3S50.7 9 47.1 5.4C44.4 2.7 41.2 1 37.5.3V0h19.7C62.4 0 65 2.6 65 7.8"/><path d="M90.6 3.6v3.7h-8.7v24.8h-4.4V7.3h-8.7V3.6h21.8M91.6 32.2V3.6H96v12.2h16V3.6h4.4v28.6H112V19.6H96v12.6h-4.4M139.5 3.6v3.7h-14.6v8.5h13.9v3.7h-13.9v8.9h14.9v3.7h-19.3V3.6h19M156.7 28.7c6.4 0 9.6-3.6 9.6-10.9s-3.2-10.7-9.6-10.7-9.7 3.6-9.7 10.7 3.2 10.9 9.7 10.9M142.4 18c0-9.7 4.8-14.5 14.3-14.5s14.1 4.8 14.1 14.5-4.7 14.4-14.1 14.4-14.3-4.8-14.3-14.4"/><g fill="#999"><path d="M175.08 20.93c0-5.22 3.89-9.4 10.22-9.4.5 0 .94.04 1.55.11V4.26c0-.18.07-.25.22-.25h3.92c.18 0 .18.07.18.22v21.74c0 .72.07 1.66.14 2.3 0 .18-.04.25-.22.32a17.01 17.01 0 0 1-6.8 1.4c-5.22 0-9.21-3.02-9.21-9.07Zm11.77-5.51c-.47-.18-1.04-.25-1.69-.25-3.2 0-5.62 2.05-5.62 5.54 0 3.92 2.34 5.54 5.22 5.54.72 0 1.44-.07 2.09-.29V15.41ZM211.94 20.68c0 5.58-3.56 9.32-8.64 9.32-6.01 0-8.67-4.64-8.67-9.21 0-5.11 3.35-9.25 8.75-9.25s8.57 4.21 8.57 9.14Zm-12.92.04c0 3.31 1.62 5.62 4.36 5.62 2.23 0 4.14-1.84 4.14-5.54 0-2.99-1.3-5.61-4.36-5.61-2.41 0-4.14 2.12-4.14 5.54ZM227.89 29.14c0 .18-.04.25-.18.29-1.15.47-2.59.58-4 .58-5.83 0-9.29-4-9.29-9.18s3.96-9.29 9.9-9.29c1.8 0 2.77.18 3.38.4.14.07.18.18.18.4l-.04 3.2c0 .25-.14.25-.29.22-.76-.29-1.69-.47-3.1-.47-3.28 0-5.58 1.94-5.58 5.4 0 3.92 2.84 5.44 5.62 5.44 1.3 0 2.41-.11 3.13-.36.18-.07.25.04.25.18v3.21ZM237.18 15.03c-1.91 0-2.56.79-2.56 1.55s.54 1.33 2.84 2.23c4.1 1.51 5.51 3.13 5.51 5.69 0 3.38-2.66 5.51-7.09 5.51-2.12 0-4-.4-5.08-1.01-.18-.11-.25-.18-.25-.4v-3.42c0-.18.14-.25.29-.18 1.55 1.01 3.53 1.44 5.15 1.44 1.87 0 2.77-.65 2.77-1.58s-.68-1.48-2.92-2.38c-3.92-1.44-5.33-3.06-5.33-5.65 0-2.74 2.23-5.29 6.73-5.29 2.09 0 3.67.29 4.54.72.18.11.22.25.22.43v3.17c0 .18-.11.29-.32.22-1.12-.61-2.92-1.04-4.5-1.04Z"/></g></svg>
