<?xml version="1.0" encoding="utf-8"?>
<!-- Generator: Adobe Illustrator 23.0.3, SVG Export Plug-In . SVG Version: 6.00 Build 0)  -->
<svg version="1.1" id="Layer_1" xmlns="http://www.w3.org/2000/svg" xmlns:xlink="http://www.w3.org/1999/xlink" x="0px" y="0px"
	 viewBox="0 0 195 60" style="enable-background:new 0 0 195 60;" xml:space="preserve">
<style type="text/css">
	.st0{clip-path:url(#SVGID_2_);}
	.st1{clip-path:url(#SVGID_4_);fill:#FFC60F;}
	.st2{clip-path:url(#SVGID_4_);}
	.st3{fill:#FFFFFF;}
	.st4{fill:#FFF9EE;}
	.st5{fill:#FFFAF3;}
	.st6{fill:#FFFCF8;}
	.st7{fill:#9BB8C9;}
	.st8{fill:none;stroke:#F4F4F4;stroke-width:9.5359;stroke-linecap:round;stroke-linejoin:round;stroke-miterlimit:10;}
	.st9{fill:#CDD8E0;}
	.st10{fill:#4C4C4C;}
	.st11{opacity:0.55;fill:#D4D4D4;}
	.st12{fill:#5B5B5B;}
	.st13{fill:#7194A5;}
	.st14{fill:#FBFFF9;}
	.st15{fill:#FFC713;}
	.st16{fill:#DBB18A;}
	.st17{fill:#EABFA2;}
	.st18{fill:#FFF3D4;}
	.st19{fill:#F9DFC5;}
	.st20{clip-path:url(#XMLID_3_);fill:#EFCCB9;}
	.st21{fill:#515E6D;}
	.st22{fill:#EFCEB9;}
	.st23{fill:#665A44;}
	.st24{fill:url(#SVGID_5_);}
	.st25{fill:url(#SVGID_6_);}
	.st26{fill:none;stroke:#666666;stroke-width:0.6405;stroke-miterlimit:10;}
	.st27{clip-path:url(#XMLID_5_);fill:#DDB294;}
	.st28{clip-path:url(#XMLID_6_);fill:#DDB294;}
	.st29{clip-path:url(#XMLID_6_);fill:#4C4C4C;}
	.st30{clip-path:url(#XMLID_6_);fill:#5B5B5B;}
	.st31{fill:#CE9C7A;}
	.st32{clip-path:url(#XMLID_7_);}
	.st33{fill:#EAD4A4;}
	.st34{fill:url(#SVGID_7_);}
	.st35{fill:url(#SVGID_8_);}
	.st36{fill:#878787;}
	.st37{fill:#F4D5BD;}
	.st38{clip-path:url(#XMLID_9_);fill:#4C4C4C;}
	.st39{fill:#9B9B9B;}
	.st40{fill:#CCCCCC;}
	.st41{clip-path:url(#SVGID_10_);}
	.st42{clip-path:url(#SVGID_12_);fill:#FFFFFF;}
	.st43{fill:#CE9367;}
	.st44{clip-path:url(#SVGID_14_);}
	.st45{clip-path:url(#SVGID_16_);fill:#FFFFFF;}
	.st46{fill-rule:evenodd;clip-rule:evenodd;fill:#CDD8E0;}
	.st47{clip-path:url(#XMLID_10_);fill:#FFC713;}
	.st48{clip-path:url(#XMLID_10_);fill:#D3A111;}
	.st49{clip-path:url(#XMLID_11_);fill:#8E7565;}
	.st50{clip-path:url(#XMLID_12_);fill:#8E7565;}
	.st51{clip-path:url(#XMLID_12_);fill:#4C4C4C;}
	.st52{clip-path:url(#XMLID_12_);fill:#5B5B5B;}
	.st53{clip-path:url(#XMLID_12_);}
	.st54{clip-path:url(#XMLID_13_);fill:#668591;}
	.st55{clip-path:url(#XMLID_12_);fill:#FFC713;}
	.st56{fill:#597C89;}
	.st57{fill:#AD917D;}
	.st58{fill-rule:evenodd;clip-rule:evenodd;fill:#E5E5E5;}
	.st59{fill:#E5E5E5;}
	.st60{fill:none;stroke:#5B5B5B;stroke-width:4.0832;stroke-miterlimit:10;}
	.st61{fill-rule:evenodd;clip-rule:evenodd;fill:#9BB8C9;}
	.st62{clip-path:url(#SVGID_18_);}
	.st63{clip-path:url(#SVGID_20_);fill:#FFFFFF;}
	.st64{clip-path:url(#SVGID_22_);}
	.st65{clip-path:url(#SVGID_24_);fill:#FFFFFF;}
	.st66{fill:#6C6D6D;}
	.st67{fill:#919191;}
	.st68{clip-path:url(#SVGID_26_);}
	.st69{clip-path:url(#SVGID_28_);fill:#FFFFFF;}
	.st70{clip-path:url(#SVGID_30_);}
	.st71{clip-path:url(#SVGID_32_);fill:#FFFFFF;}
	.st72{clip-path:url(#SVGID_34_);}
	.st73{clip-path:url(#SVGID_36_);fill:#FFFFFF;}
	.st74{fill:#D6A51D;}
	.st75{fill:#E8D4B3;}
	.st76{clip-path:url(#SVGID_38_);}
	.st77{clip-path:url(#SVGID_40_);fill:#FFFFFF;}
	.st78{clip-path:url(#SVGID_42_);}
	.st79{clip-path:url(#SVGID_44_);fill:#FFFFFF;}
	.st80{clip-path:url(#SVGID_46_);}
	.st81{clip-path:url(#SVGID_48_);fill:#FFFFFF;}
	.st82{fill-rule:evenodd;clip-rule:evenodd;fill:#878787;}
	.st83{fill-rule:evenodd;clip-rule:evenodd;fill:#FFFFFF;}
	.st84{fill:#FFCD55;}
	.st85{fill:#323657;}
	.st86{clip-path:url(#SVGID_50_);}
	.st87{clip-path:url(#SVGID_52_);fill:#FFFFFF;}
	.st88{clip-path:url(#SVGID_54_);}
	.st89{clip-path:url(#SVGID_56_);fill:#FFFFFF;}
	.st90{clip-path:url(#SVGID_58_);}
	.st91{clip-path:url(#SVGID_60_);fill:#FFFFFF;}
	.st92{fill:none;stroke:#FFC713;stroke-width:0.9611;stroke-miterlimit:10;}
	.st93{fill:none;stroke:#FFC713;stroke-width:1.9222;stroke-linecap:round;stroke-miterlimit:10;}
	.st94{fill:none;stroke:#FFC713;stroke-width:1.4711;stroke-miterlimit:10;}
	.st95{fill:none;stroke:#FFC713;stroke-width:1.0639;stroke-miterlimit:10;}
	.st96{fill-rule:evenodd;clip-rule:evenodd;fill:none;stroke:#FFC713;stroke-width:1.0639;stroke-miterlimit:10;}
	.st97{fill-rule:evenodd;clip-rule:evenodd;fill:#FFC713;}
	.st98{fill:#FFFFFF;stroke:#FFC713;stroke-width:0.9611;stroke-miterlimit:10;}
	.st99{clip-path:url(#XMLID_14_);fill:#7194A5;}
	.st100{fill:#231F20;}
	.st101{fill:#999999;}
	.st102{clip-path:url(#SVGID_62_);}
	.st103{clip-path:url(#SVGID_64_);fill:#FFC60F;}
	.st104{clip-path:url(#SVGID_64_);}
	.st105{clip-path:url(#SVGID_64_);fill:#999999;}
	.st106{fill:none;stroke:#FFC713;stroke-width:3.1884;stroke-miterlimit:10;}
	.st107{fill:none;stroke:#E5E5E5;stroke-width:2.0408;stroke-miterlimit:10;}
</style>
<g id="THEO_Logo_-_Horizontal_2_">
	<g>
		<defs>
			<rect id="SVGID_1_" x="0" y="11" width="195" height="38.72"/>
		</defs>
		<clipPath id="SVGID_2_">
			<use xlink:href="#SVGID_1_"  style="overflow:visible;"/>
		</clipPath>
		<g class="st0">
			<defs>
				<rect id="SVGID_3_" x="0" y="11" width="195" height="38.72"/>
			</defs>
			<clipPath id="SVGID_4_">
				<use xlink:href="#SVGID_3_"  style="overflow:visible;"/>
			</clipPath>
			<path class="st1" d="M18.55,16.58c-3.8,3.78-5.7,8.36-5.72,13.74c-0.01,5.4,1.87,10,5.66,13.83c1.73,1.69,3.5,3,5.32,3.91
				c1.3,0.65,2.68,1.12,4.16,1.41l0,0.26L8.04,49.68C2.67,49.67-0.01,46.98,0,41.6l0.05-22.52c0.01-5.4,2.7-8.09,8.08-8.08
				l20.15,0.04l0,0.23c-1.56,0.3-3.04,0.78-4.42,1.45C22.05,13.61,20.28,14.89,18.55,16.58"/>
			<path class="st2" d="M45.66,32.33c-2.34,1.67-5.37,3.54-9.08,5.59c-3.58,2.01-6.71,3.59-9.41,4.74l-2.99,1.11
				c-0.19-0.81-0.36-2-0.53-3.59c-0.37-3.16-0.56-6.64-0.56-10.46c0-3.49,0.25-6.76,0.76-9.79l0.73-3.49l3.17,1.07
				c2.75,1.09,5.72,2.64,8.93,4.66c3.39,2.13,6.31,4.15,8.74,6.07c1.21,0.97,2.09,1.71,2.62,2.23L45.66,32.33"/>
			<path class="st1" d="M67.48,19.1v22.54c0,5.38-2.69,8.07-8.07,8.07H39.09v-0.26c3.73-0.72,6.99-2.48,9.79-5.3
				c3.79-3.82,5.69-8.42,5.69-13.82c0-5.38-1.9-9.96-5.69-13.76c-2.84-2.84-6.16-4.61-9.95-5.3V11h20.49
				C64.8,11,67.48,13.7,67.48,19.1"/>
			<polygon class="st2" points="95.85,12.27 95.85,16.87 85.08,16.87 85.08,47.57 79.6,47.57 79.6,16.87 68.83,16.87 68.83,12.27 
							"/>
			<polygon class="st2" points="97.1,47.57 97.1,12.27 102.54,12.27 102.54,27.4 122.31,27.4 122.31,12.27 127.75,12.27 
				127.75,47.57 122.31,47.57 122.31,32 102.54,32 102.54,47.57 			"/>
			<polyline class="st2" points="156.3,12.27 156.3,16.87 138.28,16.87 138.28,27.4 155.46,27.4 155.46,32 138.28,32 138.28,43.02 
				156.69,43.02 156.69,47.57 132.85,47.57 132.85,12.27 156.3,12.27 			"/>
			<path class="st2" d="M177.52,43.26c7.87,0,11.8-4.47,11.8-13.41c0-8.81-3.93-13.22-11.8-13.22c-8.03,0-12.04,4.41-12.04,13.22
				C165.48,38.79,169.49,43.26,177.52,43.26 M159.8,29.99c0-11.98,5.91-17.97,17.72-17.97c11.65,0,17.48,5.99,17.48,17.97
				c0,11.88-5.83,17.82-17.48,17.82C165.71,47.81,159.8,41.87,159.8,29.99"/>
		</g>
	</g>
</g>
</svg>
