<svg xmlns="http://www.w3.org/2000/svg" fill="#344a5e" viewBox="0 0 1443.2 209.34"><path d="M100.3 30.84c-20.55 20.47-30.86 45.23-30.91 74.3-.06 29.18 10.14 54.11 30.61 74.78 9.36 9.16 18.95 16.21 28.79 21.15 7.03 3.53 14.52 6.07 22.49 7.61v1.4l-107.77-.22C14.45 209.8-.06 195.24 0 166.18L.25 44.35C.3 15.17 14.87.61 43.93.67l108.99.22v1.23c-8.44 1.63-16.42 4.25-23.93 7.86-9.74 4.79-19.3 11.74-28.7 20.86"/><path d="M246.94 116.04c-12.68 9.03-29.05 19.12-49.13 30.25-19.35 10.88-36.32 19.41-50.9 25.62l-16.16 6.01c-1.02-4.37-1.97-10.84-2.86-19.41-2-17.08-3.01-35.94-3.01-56.57 0-18.89 1.36-36.54 4.09-52.97l3.94-18.87 17.15 5.76c14.85 5.91 30.95 14.31 48.29 25.18 18.36 11.5 34.11 22.44 47.25 32.82 6.56 5.22 11.3 9.25 14.19 12.07l-12.86 10.1"/><path d="M364.99 44.46v121.91c0 29.09-14.54 43.63-43.63 43.63H211.41v-1.41c20.18-3.87 37.82-13.42 52.95-28.67 20.52-20.64 30.79-45.56 30.79-74.76s-10.26-53.89-30.79-74.41C249 15.39 231.05 5.83 210.53 2.08V.66h110.83c29.09 0 43.63 14.6 43.63 43.8"/><path d="M522.83 91.41c0 42.61-30.85 67.73-68.25 67.73-38.98 0-66.24-27.52-66.24-64.78 0-39.94 28.98-67.85 67.9-67.84 40.14 0 66.59 27.81 66.58 64.9ZM406.98 93.8c0 27.75 18.51 51.67 48.45 51.67 30.14 0 48.75-22.84 48.75-53.25 0-26.03-16.61-52.05-48.39-52.05-31.92 0-48.81 24.95-48.81 53.63ZM538.15 95.34c0-10.91-.25-20.94-.77-30.37h15.88l1.01 17h.39c7.39-11.66 19.9-19.28 37.77-19.27 24.83 0 44.03 19.34 44.03 46.44 0 32.78-22.77 50.01-47.18 50-13.79 0-26.48-5.32-33.07-15.77h-.39v51.48h-17.67V95.33Zm17.66 22.91c0 2.24.27 4.43.74 6.53 3.12 11.21 14.67 20.99 29.44 20.99 19.98 0 32.56-13.82 32.56-35.74 0-18.08-11.51-33.79-31.63-33.79-13.22 0-25.82 7.98-29.83 21.93-.6 2.13-1.28 4.6-1.28 6.72v13.35ZM661.37 114.54c.41 20.71 16.15 31.16 35.39 31.16 14.11 0 22.28-2.35 29.45-5.12l3.16 12.27c-6.21 2.6-17.44 6.32-34.81 6.32-30.93 0-50.15-19.08-50.15-46.46 0-27.2 18.01-49.99 48.29-49.98 34.4 0 42.51 28.48 42.5 44.13 0 3.48-.23 6.01-.68 7.7h-73.17Zm56.73-12.43c.14-7.9-3.58-27.21-26.72-27.22-19.92 0-28.18 15.91-29.77 27.21h56.5ZM750.47 90.19c0-9.18-.25-17.49-.77-25.18h15.74l1.01 16.47h.5c4.81-9.04 16.83-18.75 34.18-18.74 12.85 0 36.49 7 36.49 41.67v52.5h-17.67v-50.9c0-16.15-6.89-29.12-24.55-29.12-12.83 0-22.5 8.7-25.95 17.88-.78 1.98-1.32 4.98-1.32 7.6v54.53h-17.67V90.2ZM881.04 156.85 836.9 28.79h17.92l21.38 64.15c6.07 18.22 10.9 32.88 14.6 47.33h.36c3.96-14.23 9.54-29.77 15.87-46.91l23.7-64.57h17.61l-48.85 128.06h-18.45ZM970.11 38.27c0 5.67-4 10.69-10.69 10.69-6.2 0-10.2-5.02-10.2-10.69s4.25-10.69 10.51-10.69 10.33 4.83 10.38 10.69Zm-18.75 118.58V64.96h16.55v91.89h-16.55ZM1072.97 20.81v111.77c0 8.84.24 17.6.73 24.27h-14.95l-.76-17.34h-.36c-5.58 11.51-17.57 19.62-33.6 19.62-23.43 0-41.75-19.49-41.75-46.53-.18-30.1 19.77-49.91 43.8-49.91 15.82 0 25.9 7.78 29.99 14.97h.36V20.81h16.55Zm-16.56 82.36c0-2.26-.25-5.24-.82-7.5-3.05-10.86-12.73-19.68-26.51-19.68-18.2 0-30.05 14.59-30.05 35.4 0 18.41 10.24 33.9 29.87 33.9 12.82 0 23.77-9.27 26.64-21.54.62-2.36.87-4.77.87-7.52v-13.06ZM1103.33 114.5c.38 20.71 15.13 31.16 33.16 31.16 13.22 0 20.87-2.35 27.6-5.13l2.96 12.27c-5.82 2.61-16.34 6.33-32.61 6.33-28.98 0-46.99-19.08-46.99-46.46s16.87-49.99 45.24-49.99c32.23 0 39.83 28.48 39.83 44.12 0 3.48-.22 6.01-.64 7.7h-68.55Zm53.14-12.44c.13-7.9-3.36-27.21-25.04-27.21-18.67 0-26.4 15.91-27.89 27.21h52.93ZM1274.85 109.76c0 33.51-24.83 49.36-48.51 49.36-26.53 0-46.79-19.21-46.79-47.33 0-29.83 20.98-49.12 48.33-49.12s46.97 20.42 46.97 47.08Zm-78.31 1.41c0 21.8 13.85 35.16 30.45 35.16s30.87-12.8 30.87-35.82c0-16.03-9.17-35.02-30.36-35.02s-30.96 17.15-30.96 35.69ZM1310.45 28.78v72.6c0 30.37 14.69 43.95 34.99 43.95 22.08 0 36.49-13.96 36.49-43.95v-72.6h17.76v71.78c0 41.4-23.62 58.56-55.13 58.56-29.17 0-51.88-15.7-51.88-58.18V28.78h17.76ZM1441.24 28.78v128.06h-17.76V28.78h17.76Z"/></svg>
