<?xml version="1.0" encoding="UTF-8"?>
<svg id="Layer_1" data-name="Layer 1" xmlns="http://www.w3.org/2000/svg" viewBox="0 0 249.52 44">
  <defs>
    <style>
      .cls-1 {
        stroke: #fff;
        stroke-linecap: round;
        stroke-linejoin: round;
        stroke-width: 2px;
      }

      .cls-1, .cls-2, .cls-3 {
        fill: #fff;
      }

      .cls-3 {
        font-family: AvenirNext-Medium, 'Avenir Next';
        font-size: 32.04px;
        font-weight: 500;
      }

      .cls-4 {
        letter-spacing: -.02em;
      }
    </style>
  </defs>
  <g>
    <text class="cls-3" transform="translate(42.69 31.18)"><tspan x="0" y="0">Open</tspan><tspan class="cls-4" x="84.53" y="0">V</tspan><tspan x="104.53" y="0">ideoUI</tspan></text>
    <g>
      <g id="PathID_5" data-name="PathID 5">
        <path class="cls-2" d="M10.67,9.31c-2.53,2.52-3.8,5.57-3.8,9.14,0,3.59,1.25,6.66,3.77,9.2,1.15,1.13,2.33,1.99,3.54,2.6.88.44,1.81.75,2.77.94v.17l-9.34-.03c-3.58,0-3.36-1.8-3.35-5.37l.03-14.99c0-3.59,1.8-5.38,5.38-5.38l7.49.03v.15c-1.02.19-2.01.52-2.94.97-1.2.59-2.37,1.44-3.53,2.57"/>
      </g>
      <g id="PathID_5-2" data-name="PathID 5">
        <path class="cls-2" d="M30.71,9.31c2.53,2.52,3.8,5.57,3.8,9.14,0,3.59-1.25,6.66-3.77,9.2-1.15,1.13-2.33,1.99-3.54,2.6-.88.44-1.81.75-2.77.94v.17l9.34-.03c3.58,0,3.36-1.8,3.35-5.37l-.03-14.99c0-3.59-1.8-5.38-5.38-5.38l-7.49.03v.15c1.02.19,2.01.52,2.94.97,1.2.59,2.37,1.44,3.53,2.57"/>
      </g>
      <g id="PathID_6" data-name="PathID 6">
        <path class="cls-2" d="M28.71,19.79c-1.56,1.11-3.57,2.35-6.04,3.72-2.38,1.34-4.47,2.39-6.26,3.15l-1.99.74c-.12-.54-.24-1.33-.35-2.39-.25-2.1-.37-4.42-.37-6.96,0-2.32.17-4.5.5-6.52l.48-2.32,2.11.71c1.83.73,3.81,1.76,5.94,3.1,2.26,1.41,4.2,2.76,5.81,4.04.81.64,1.39,1.14,1.75,1.49l-1.58,1.24"/>
      </g>
    </g>
  </g>
  <line class="cls-1" x1="5.47" y1="36.16" x2="35.91" y2="36.16"/>
</svg>