<?xml version="1.0" encoding="UTF-8"?>
<svg id="Layer_1" data-name="Layer 1" xmlns="http://www.w3.org/2000/svg" viewBox="0 0 250 44">
  <defs>
    <style>
      .cls-1 {
        fill: none;
        stroke: #000;
        stroke-linecap: round;
        stroke-linejoin: round;
        stroke-width: 2px;
      }
    </style>
  </defs>
  <g>
    <g>
      <path d="M101.54,8.49h6.92c1.22,0,2.33.12,3.33.37,1,.25,1.86.62,2.56,1.14s1.25,1.17,1.63,1.96.58,1.74.58,2.85-.21,2.1-.62,2.92c-.42.81-.99,1.47-1.73,1.99-.74.51-1.61.89-2.63,1.14-1.01.25-2.11.37-3.28.37h-3.59v9.97h-3.17V8.49ZM104.71,18.52h3.36c.77,0,1.48-.07,2.13-.21.65-.14,1.21-.35,1.68-.64.47-.29.83-.67,1.09-1.14.26-.47.38-1.05.38-1.73s-.13-1.25-.4-1.71c-.27-.46-.63-.83-1.09-1.12-.46-.29-1.01-.49-1.65-.61-.64-.12-1.33-.18-2.08-.18h-3.43v7.34Z"/>
      <path d="M123.52,31.18h-3.01V6.95h3.01v24.23Z"/>
      <path d="M138.23,21.34c0-1.13-.34-1.97-1.03-2.52-.68-.54-1.59-.82-2.72-.82-.85,0-1.66.17-2.42.5-.76.33-1.39.75-1.91,1.27l-1.6-1.92c.75-.71,1.66-1.26,2.74-1.67,1.08-.41,2.24-.61,3.48-.61,1.09,0,2.04.16,2.84.46s1.46.73,1.97,1.27.9,1.16,1.15,1.89c.26.73.38,1.51.38,2.34v6.63c0,.51.02,1.05.05,1.62.03.57.09,1.03.18,1.39h-2.72c-.17-.73-.26-1.45-.26-2.18h-.1c-.56.81-1.26,1.44-2.1,1.89-.84.45-1.84.67-3,.67-.6,0-1.22-.08-1.87-.24-.65-.16-1.25-.42-1.78-.79-.53-.36-.98-.84-1.33-1.44-.35-.6-.53-1.33-.53-2.21,0-1.15.31-2.07.93-2.74.62-.67,1.43-1.19,2.44-1.54,1-.35,2.14-.58,3.4-.69,1.26-.11,2.53-.16,3.81-.16v-.42ZM137.49,23.94c-.75,0-1.52.03-2.32.1-.8.06-1.53.19-2.18.38-.65.19-1.19.48-1.62.87-.43.38-.64.9-.64,1.54,0,.45.09.82.27,1.12s.42.54.72.74c.3.19.63.33.99.4s.74.11,1.12.11c1.41,0,2.49-.42,3.25-1.27.76-.84,1.14-1.91,1.14-3.19v-.8h-.74Z"/>
      <path d="M151.91,27.91h.06l4.2-11.92h3.2l-7.37,18.78c-.26.64-.53,1.21-.83,1.71-.3.5-.65.93-1.06,1.28-.41.35-.88.62-1.43.82-.54.19-1.19.29-1.94.29-.32,0-.65-.02-.98-.05-.33-.03-.67-.09-1.01-.18l.29-2.66c.51.17,1.01.26,1.51.26.79,0,1.38-.22,1.76-.66.38-.44.74-1.06,1.06-1.88l.96-2.53-6.5-15.19h3.37l4.71,11.92Z"/>
      <path d="M176.49,23.45v.51c0,.17-.01.34-.03.51h-12.08c.02.64.17,1.24.43,1.8.27.56.62,1.05,1.07,1.46.45.41.97.74,1.55.97.59.23,1.21.35,1.88.35,1.03,0,1.91-.22,2.66-.67.75-.45,1.33-.99,1.76-1.63l2.12,1.7c-.81,1.08-1.77,1.87-2.87,2.38-1.1.51-2.32.76-3.67.76-1.15,0-2.22-.19-3.2-.58-.98-.38-1.83-.92-2.53-1.62-.7-.69-1.26-1.53-1.67-2.52-.41-.98-.61-2.07-.61-3.27s.2-2.26.59-3.25c.4-.99.95-1.84,1.65-2.55.71-.71,1.54-1.25,2.5-1.65.96-.4,2-.59,3.12-.59s2.12.18,3.03.54,1.68.89,2.31,1.57c.63.68,1.12,1.51,1.46,2.48.34.97.51,2.07.51,3.28ZM173.41,22.24c-.02-.6-.12-1.16-.3-1.68-.18-.52-.45-.98-.8-1.36-.35-.38-.79-.69-1.31-.91-.52-.22-1.14-.34-1.84-.34-.64,0-1.25.11-1.81.34-.57.22-1.06.53-1.47.91-.42.38-.76.84-1.03,1.36-.27.52-.42,1.08-.46,1.68h9.04Z"/>
      <path d="M180.62,17.69c-.02-.64-.05-1.21-.1-1.7h2.85c.04.38.07.83.1,1.33s.03.91.03,1.23h.1c.43-.9,1.05-1.62,1.87-2.16.82-.54,1.75-.82,2.77-.82.47,0,.87.04,1.19.13l-.13,2.79c-.43-.11-.89-.16-1.38-.16-.73,0-1.36.13-1.89.4-.53.27-.98.62-1.33,1.07-.35.45-.61.97-.79,1.55s-.26,1.2-.26,1.84v7.98h-3.01v-11.92c0-.41-.01-.93-.03-1.57Z"/>
    </g>
    <g>
      <g id="PathID_5" data-name="PathID 5">
        <path d="M66.76,9.31c-2.53,2.52-3.8,5.57-3.8,9.14,0,3.59,1.25,6.66,3.77,9.2,1.15,1.13,2.33,1.99,3.54,2.6.88.44,1.81.75,2.77.94v.17l-9.34-.03c-3.58,0-3.36-1.8-3.35-5.37l.03-14.99c0-3.59,1.8-5.38,5.38-5.38l7.49.03v.15c-1.02.19-2.01.52-2.94.97-1.2.59-2.37,1.44-3.53,2.57"/>
      </g>
      <g id="PathID_5-2" data-name="PathID 5">
        <path d="M86.8,9.31c2.53,2.52,3.8,5.57,3.8,9.14,0,3.59-1.25,6.66-3.77,9.2-1.15,1.13-2.33,1.99-3.54,2.6-.88.44-1.81.75-2.77.94v.17l9.34-.03c3.58,0,3.36-1.8,3.35-5.37l-.03-14.99c0-3.59-1.8-5.38-5.38-5.38l-7.49.03v.15c1.02.19,2.01.52,2.94.97,1.2.59,2.37,1.44,3.53,2.57"/>
      </g>
      <g id="PathID_6" data-name="PathID 6">
        <path d="M84.81,19.79c-1.56,1.11-3.57,2.35-6.04,3.72-2.38,1.34-4.47,2.39-6.26,3.15l-1.99.74c-.12-.54-.24-1.33-.35-2.39-.25-2.1-.37-4.42-.37-6.96,0-2.32.17-4.5.5-6.52l.48-2.32,2.11.71c1.83.73,3.81,1.76,5.94,3.1,2.26,1.41,4.2,2.76,5.81,4.04.81.64,1.39,1.14,1.75,1.49l-1.58,1.24"/>
      </g>
    </g>
  </g>
  <line class="cls-1" x1="61.58" y1="36.16" x2="92.02" y2="36.16"/>
</svg>