<svg xmlns="http://www.w3.org/2000/svg" viewBox="0 0 1250 222"><defs><style>.cls-1{fill:#ffc60f;}.cls-2{fill:#999;stroke:#999;stroke-miterlimit:10;stroke-width:2.65644px;}.cls-3{fill:#fff;}</style></defs><title>THEOlive</title><g><path class="cls-1" d="M103.68816,35.658q-30.824,30.6999-30.91356,74.29977-.0881,43.77409,30.61354,74.7761a116.06923,116.06923,0,0,0,28.78777,21.15324,86.26744,86.26744,0,0,0,22.4875,7.60587l-.00283,1.40474-107.76323-.21688q-43.59894-.08774-43.51112-43.68475L3.63141,49.16856Q3.71951,5.39583,47.31836,5.483l108.99337.21935-.00248,1.23032a97.16993,97.16993,0,0,0-23.92319,7.86315q-14.60791,7.1796-28.6979,20.8622"/></g><g><path class="cls-3" d="M250.3228,120.85277q-19.01762,13.55188-49.126,30.25491-29.02467,16.31321-50.90132,25.62331l-16.16071,6.01092a168.76984,168.76984,0,0,1-2.85811-19.41443,488.01281,488.01281,0,0,1-3.00545-56.56707,323.75333,323.75333,0,0,1,4.08825-52.97059l3.9444-18.87221,17.14644,5.76466q22.2743,8.86938,48.28965,25.18a533.32435,533.32435,0,0,1,47.25381,32.81683q9.84738,7.835,14.18575,12.07248l-12.8567,10.10118"/></g><g><path class="cls-1" d="M368.3799,49.28054v121.9107q0,43.62969-43.62768,43.62767H214.80347v-1.40844q30.26292-5.80331,52.9518-28.6737Q298.539,153.7735,298.54062,109.972q0-43.63-30.78535-74.413Q244.70936,12.51164,213.924,6.8841V5.47657H324.75222q43.62859,0,43.62768,43.804"/></g><g><path class="cls-3" d="M512.14641,30.85529v20.9H463.23226V191.15715H438.33174V51.7553h-48.9094v-20.9H512.14641"/></g><g><path class="cls-3" d="M517.83254,191.15715V30.85529h24.6788v68.7008h89.81725V30.85529h24.67352V191.15715H632.32859v-70.701H542.51134v70.70105h-24.6788"/></g><g><path class="cls-3" d="M786.6603,30.85529v20.9H704.84407V99.55609h78.03744v20.9H704.84407v50.028h83.59476v20.673H680.16528V30.84526h106.495"/></g><g><path class="cls-3" d="M883.06588,171.59223q53.58253,0,53.57983-60.921,0-60.0243-53.57983-60.024-54.69583,0-54.69369,60.024,0,60.9207,54.69369,60.921M802.58,111.34118q0-81.59952,80.48589-81.594,79.372,0,79.37252,81.594,0,80.92715-79.37252,80.92933-80.48614,0-80.48589-80.92933"/></g><path class="cls-2" d="M982.415,51h17.37752V191.20221H982.415Z"/><path class="cls-2" d="M1045.71033,68.77183c.198,5.92423-4.14636,10.66379-11.05811,10.66379a10.333,10.333,0,0,1-10.46577-10.66379,10.5886,10.5886,0,0,1,10.861-10.86095C1041.564,57.91088,1045.71033,62.65044,1045.71033,68.77183Zm-19.35169,122.43038V95.6276h17.37752v95.57461Z"/><path class="cls-2" d="M1079.27723,95.6276l18.75935,53.71154a245.85274,245.85274,0,0,1,7.70124,24.48556h.59233c2.17219-7.8984,4.93672-15.7968,8.09643-24.48556L1132.9879,95.6276h18.16788l-37.51956,95.57461h-16.58716L1060.715,95.6276Z"/><path class="cls-2" d="M1175.24183,146.57461c.39518,23.49891,15.40249,33.17432,32.78,33.17432,12.4408,0,19.944-2.17219,26.46059-4.93672l2.96255,12.4408c-6.12225,2.76453-16.588,5.92424-31.79248,5.92424-29.42314,0-46.99782-19.35255-46.99782-48.18249,0-28.8308,16.98234-51.53935,44.82563-51.53935,31.20015,0,39.49372,27.44811,39.49372,45.02278a65.6011,65.6011,0,0,1-.59233,8.09642Zm50.947-12.4408c.19716-11.0581-4.54153-28.2376-24.09124-28.2376-17.57467,0-25.27592,16.192-26.65775,28.2376Z"/></svg>
