<svg xmlns="http://www.w3.org/2000/svg" viewBox="0 0 50 50"><path d="M35.98 32.49c-.9 0-1.26-.54-1.26-.54-.06-.24-.12-3.82-.15-7.37-.03-3.7 0-7.37.18-7.4 1.05-1.96 4.36-5.9 4.36-5.9-6.2 1.23-9.57 5.29-9.57 5.29-.99-.78-3.04-.66-3.04-.66.96.51 1.9 2.05 1.9 3.31v12.45s-2.08 1.84-3.67 1.84c-.96 0-1.53-.51-1.87-.93-.21-.3-.3-.54-.3-.54V16.67c-.21.15-.48.27-.75.27-.33 0-.69-.18-.93-.66-.18-.39-.3-.93-.3-1.77 0-2.83 3.22-4.72 3.22-4.72-4.06 1.08-7.85 3.19-12.88 8.97-5.02 5.78-4.06 10.53-4.06 10.53s1.35-3.31 4.69-6.77c1.59-1.62 2.77-2.17 3.58-2.2.9 0 1.32.66 1.32 1.26v11.7c0 1.14-.75 1.41-1.44 1.38-.57 0-1.11-.21-1.11-.21 3.43 4.96 11.61 5.69 11.61 5.69l3.61-3.85.09.06 3.31 2.8c6.02-3.58 8.94-10.23 8.94-10.23-2.74 2.92-4.45 3.58-5.48 3.58Z" class="cls-1"/><path d="M25.03-.21C11.19-.21 0 11.07 0 25s11.19 25.21 25 25.21S50 38.93 50 25C50.03 11.07 38.84-.21 25.03-.21Zm16.91 42.3c-4.51 4.54-10.53 7.07-16.91 7.07s-12.39-2.5-16.91-7.07c-4.51-4.54-7.01-10.62-7.01-17.06s2.5-12.48 7.01-17.06C12.64 3.4 18.62.9 25.03.9s12.39 2.5 16.91 7.07c4.51 4.54 7.01 10.62 7.01 17.06s-2.5 12.48-7.01 17.06Z" class="cls-1"/></svg>
