<svg xmlns="http://www.w3.org/2000/svg" width="252" height="252" viewBox="0 0 252 252"><path fill="#21759b" d="M225.405 71.65c8.843 16.133 13.875 34.65 13.875 54.346 0 41.793-22.65 78.28-56.328 97.917l34.6-100.04c6.462-16.161 8.614-29.084 8.614-40.574 0-4.171-.274-8.042-.76-11.65m-83.795 1.234c6.82-.36 12.965-1.076 12.965-1.076 6.104-.723 5.384-9.694-.723-9.336 0 0-18.35 1.44-30.194 1.44-11.131 0-29.835-1.44-29.835-1.44-6.11-.358-6.825 8.973-.719 9.336 0 0 5.779.717 11.883 1.076l17.648 48.358-24.795 74.35-41.25-122.708a231.492 231.492 0 0 0 12.964-1.076c6.1-.723 5.38-9.694-.724-9.336 0 0-18.346 1.44-30.192 1.44-2.126 0-4.63-.054-7.29-.138 20.255-30.752 55.071-51.06 94.65-51.06 29.49 0 56.343 11.276 76.497 29.743-.488-.03-.964-.09-1.467-.09-11.128 0-19.024 9.693-19.024 20.105 0 9.336 5.387 17.234 11.128 26.569 4.308 7.545 9.34 17.237 9.34 31.242 0 9.694-3.73 20.947-8.62 36.622l-11.303 37.753zM126 239.287a113.245 113.245 0 0 1-32.004-4.616l33.993-98.766 34.819 95.398c.23.56.51 1.076.81 1.56A113.044 113.044 0 0 1 126 239.287M12.718 125.994a112.83 112.83 0 0 1 9.809-46.1l54.04 148.055c-37.795-18.36-63.85-57.113-63.85-101.953M126 0C56.524 0 .002 56.52.002 125.996c0 69.477 56.522 126.005 126 126.005C195.473 252 252 195.473 252 125.996 252 56.52 195.474 0 126 0"/></svg>
