<svg xmlns="http://www.w3.org/2000/svg" viewBox="0 0 230.98 37.31"><path fill="#ffc60f" d="M17.85 5.38c-3.66 3.65-5.5 8.06-5.51 13.24s1.81 9.64 5.45 13.32c1.67 1.63 3.38 2.89 5.13 3.77 1.25.63 2.59 1.08 4.01 1.36v.25l-19.2-.04c-5.18-.01-7.76-2.6-7.75-7.78L.03 7.78C.04 2.59 2.63 0 7.81 0l19.42.04v.22c-1.5.29-2.93.76-4.26 1.4-1.73.85-3.44 2.09-5.11 3.72"/><path d="M43.97 20.55c-2.26 1.61-5.18 3.41-8.75 5.39-3.45 1.94-6.47 3.46-9.07 4.56l-2.88 1.07c-.18-.78-.35-1.93-.51-3.46-.36-3.04-.54-6.4-.54-10.08 0-3.37.24-6.51.73-9.44l.7-3.36 3.05 1.03c2.65 1.05 5.51 2.55 8.6 4.49 3.27 2.05 6.08 4 8.42 5.85 1.17.93 2.01 1.65 2.53 2.15l-2.29 1.8" class="cls-1"/><path fill="#ffc60f" d="M65.01 7.8v21.72c0 5.18-2.59 7.77-7.77 7.77H37.65v-.25c3.59-.69 6.74-2.39 9.43-5.11 3.66-3.68 5.48-8.12 5.48-13.32s-1.83-9.6-5.48-13.26C44.34 2.61 41.15.91 37.49.24v-.25h19.74c5.18 0 7.77 2.6 7.77 7.8"/><path d="M90.62 3.63v3.72h-8.71v24.84h-4.44V7.35h-8.71V3.63h21.86M91.63 32.19V3.63h4.4v12.24h16V3.63h4.4v28.56h-4.4v-12.6h-16v12.6h-4.4M139.53 3.63v3.72h-14.58v8.52h13.9v3.72h-13.9v8.91h14.89v3.68h-19.29V3.63h18.97M156.7 28.7c6.36 0 9.55-3.62 9.55-10.85s-3.18-10.69-9.55-10.69-9.74 3.56-9.74 10.69 3.25 10.85 9.74 10.85m-14.34-10.73c0-9.69 4.78-14.54 14.34-14.54s14.14 4.84 14.14 14.54-4.71 14.42-14.14 14.42-14.34-4.81-14.34-14.42" class="cls-1"/><g fill="#999"><path d="M175.52 13.52c0-.14.03-.2.19-.22.83-.03 2.84-.08 5.46-.08 6.91 0 10.43 3.67 10.43 8.88 0 7-5.68 9.55-10.55 9.55-1.79 0-4.41 0-5.37-.06-.12 0-.15-.08-.15-.25V13.52Zm3.46 15.32c.59.03 1.23.06 1.97.06 4.13 0 7.03-2.3 7.03-6.72.03-4.23-2.87-6.22-6.85-6.22-.8 0-1.45.03-2.16.06v12.82ZM206.84 24.64c0 4.34-2.84 7.2-7.04 7.2-4.91 0-7.03-3.56-7.03-7.14 0-4 2.71-7.17 7.1-7.17s6.97 3.14 6.97 7.11Zm-10.58 0c0 2.66 1.33 4.54 3.64 4.54 1.85 0 3.42-1.48 3.42-4.48 0-2.41-1.05-4.48-3.61-4.48-2 0-3.46 1.62-3.46 4.42ZM218.87 31.22c0 .11-.03.17-.15.22-.93.34-2.07.39-3.21.39-4.81 0-7.59-3.05-7.59-7.08s3.21-7.22 8.08-7.22c1.42 0 2.22.14 2.72.31.12.06.15.14.15.31l-.03 2.35c0 .17-.09.17-.22.14-.62-.22-1.39-.34-2.53-.34-2.71 0-4.63 1.54-4.63 4.31 0 3.19 2.34 4.4 4.69 4.4 1.05 0 1.91-.08 2.5-.28.15-.03.22.03.22.14v2.35ZM225.54 20.1c-1.6 0-2.16.67-2.16 1.29s.43 1.09 2.44 1.88c3.27 1.2 4.41 2.44 4.41 4.37 0 2.66-2.28 4.2-5.8 4.2-1.76 0-3.27-.28-4.17-.76-.12-.06-.18-.14-.18-.28v-2.52c0-.14.12-.2.22-.14 1.3.76 2.87 1.09 4.2 1.09 1.6 0 2.35-.56 2.35-1.34 0-.7-.53-1.2-2.47-1.96-3.12-1.12-4.29-2.35-4.29-4.34 0-2.16 1.91-4.06 5.52-4.06 1.7 0 2.99.25 3.67.56.15.08.19.2.19.34v2.3c0 .17-.12.25-.28.17-.93-.45-2.31-.78-3.64-.78Z"/></g></svg>
