<svg xmlns="http://www.w3.org/2000/svg" fill="#fff" viewBox="0 0 1443.2 209.34"><path fill="#ffc60f" d="M100.3 30.84c-20.55 20.47-30.86 45.23-30.91 74.3-.06 29.18 10.14 54.11 30.61 74.78 9.36 9.16 18.95 16.21 28.79 21.15 7.03 3.53 14.52 6.07 22.49 7.61v1.4l-107.77-.22C14.45 209.8-.06 195.24 0 166.18L.25 44.35C.3 15.17 14.87.61 43.93.67l108.99.22v1.23c-8.44 1.63-16.42 4.25-23.93 7.86-9.74 4.79-19.3 11.74-28.7 20.86"/><path d="M246.94 116.04c-12.68 9.03-29.05 19.12-49.13 30.25-19.35 10.88-36.32 19.41-50.9 25.62l-16.16 6.01c-1.02-4.37-1.97-10.84-2.86-19.41-2-17.08-3.01-35.94-3.01-56.57 0-18.89 1.36-36.54 4.09-52.97l3.94-18.87 17.15 5.76c14.85 5.91 30.95 14.31 48.29 25.18 18.36 11.5 34.11 22.44 47.25 32.82 6.56 5.22 11.3 9.25 14.19 12.07l-12.86 10.1"/><path fill="#ffc60f" d="M364.99 44.46v121.91c0 29.09-14.54 43.63-43.63 43.63H211.41v-1.41c20.18-3.87 37.82-13.42 52.95-28.67 20.52-20.64 30.79-45.56 30.79-74.76s-10.26-53.89-30.79-74.41C249 15.39 231.05 5.83 210.53 2.08V.66h110.83c29.09 0 43.63 14.6 43.63 43.8"/><path d="M440.57 161.67c-18.96 0-33.57-5.23-43.84-15.68-10.27-10.45-15.4-23.65-15.4-39.58s5.22-29.84 15.67-39.89c10.44-10.05 24.73-15.07 42.84-15.07 12.8 0 23.79 2.59 32.97 7.76 9.18 5.18 15.85 11.85 20.02 20.02s6.25 17.33 6.25 27.48c0 16.54-5.23 29.84-15.67 39.89-10.45 10.05-24.73 15.07-42.84 15.07Zm0-15.22c11.83 0 21.04-3.4 27.62-10.2 6.58-6.8 9.87-16.39 9.87-28.77 0-13.09-3.38-23.16-10.14-30.22-6.76-7.05-16.12-10.58-28.08-10.58s-21.04 3.4-27.62 10.2c-6.58 6.8-9.87 16.39-9.87 28.77 0 13.09 3.38 23.17 10.14 30.22 6.76 7.06 16.12 10.58 28.08 10.58ZM546.53 78.85c33.33 0 50 13.4 50 40.19 0 13.5-4.2 23.88-12.59 31.13-8.39 7.26-20.5 10.88-36.32 10.88-5.92 0-11.23-.56-15.94-1.67v29.08h-19.93V83.11c10.99-2.84 22.58-4.26 34.78-4.26Zm-.18 67.9c20.04 0 30.07-8.93 30.07-26.79s-10.45-26.79-31.34-26.79c-4.11 0-8.58.36-13.4 1.07v50.85c5.07 1.12 9.96 1.67 14.67 1.67ZM688.36 113.71c0 4.16-.36 8.48-1.09 12.94h-63.58c2.54 13.4 12.44 20.09 29.71 20.09 11.11 0 21.74-1.93 31.88-5.78-.97 5.78-1.99 10.86-3.08 15.22-8.45 3.25-18.24 4.87-29.35 4.87-16.42 0-28.77-3.6-37.04-10.81-8.27-7.21-12.41-17.45-12.41-30.75 0-12.18 3.59-22 10.78-29.46 7.18-7.46 18.32-11.19 33.42-11.19 13.52 0 23.7 3.25 30.52 9.74 6.82 6.5 10.23 14.87 10.23 25.12Zm-41.84-20.86c-13.77 0-21.5 6.6-23.19 19.79h44.92c0-6.29-1.9-11.16-5.71-14.61-3.8-3.45-9.15-5.18-16.03-5.18ZM737.27 78.85c15.94 0 27.26 2.44 33.96 7.31 6.7 4.87 10.05 12.18 10.05 21.92v51.15h-19.93v-48.26c0-6.39-1.72-10.96-5.16-13.7-3.44-2.74-9.93-4.11-19.47-4.11-4.71 0-9.96.41-15.76 1.22v64.85h-19.93V83.11c13.89-2.84 25.96-4.26 36.23-4.26ZM874.4 53.88h21.56l-42.57 105.35h-24.27L786.73 53.88h22.28l32.61 86.32 32.79-86.32ZM912.25 70.78c-3.62 0-6.61-.99-8.97-2.97-2.35-1.98-3.53-4.44-3.53-7.38s1.18-5.4 3.53-7.38c2.36-1.98 5.34-2.97 8.97-2.97s6.43.99 8.79 2.97c2.35 1.98 3.53 4.44 3.53 7.38s-1.18 5.4-3.53 7.38c-2.36 1.98-5.28 2.97-8.79 2.97Zm-9.96 88.45V80.68h19.93v78.55h-19.93ZM999.93 54.95c5.07-1.52 11.65-2.28 19.74-2.28v106.56h-18.3l-1.09-9.74c-5.43 7.71-14.07 11.57-25.9 11.57s-21.74-3.55-28.98-10.66c-7.25-7.1-10.87-16.95-10.87-29.53 0-13.5 4.28-23.87 12.86-31.13 8.57-7.26 21.13-10.88 37.68-10.88 4.83 0 9.78.41 14.85 1.22V54.96ZM980 147.36c7.25 0 13.89-1.93 19.93-5.78V94.69c-5.8-1.01-11.11-1.52-15.94-1.52-9.66 0-16.94 2.41-21.83 7.23-4.89 4.82-7.34 11.65-7.34 20.48 0 8.12 2.05 14.56 6.16 19.33 4.1 4.77 10.44 7.15 19.02 7.15ZM1116.4 113.71c0 4.16-.36 8.48-1.09 12.94h-63.58c2.54 13.4 12.44 20.09 29.71 20.09 11.11 0 21.74-1.93 31.88-5.78-.97 5.78-1.99 10.86-3.08 15.22-8.45 3.25-18.24 4.87-29.35 4.87-16.42 0-28.77-3.6-37.04-10.81-8.27-7.21-12.41-17.45-12.41-30.75 0-12.18 3.59-22 10.78-29.46 7.18-7.46 18.32-11.19 33.42-11.19 13.52 0 23.7 3.25 30.52 9.74 6.82 6.5 10.23 14.87 10.23 25.12Zm-41.84-20.86c-13.77 0-21.5 6.6-23.19 19.79h44.92c0-6.29-1.9-11.16-5.71-14.61-3.8-3.45-9.15-5.18-16.03-5.18ZM1169.65 161.06c-14.49 0-25.78-3.75-33.87-11.27-8.09-7.51-12.14-17.1-12.14-28.77 0-13.19 4.28-23.52 12.86-30.98 8.57-7.46 20.23-11.19 34.96-11.19s26.11 3.73 34.15 11.19c8.03 7.46 12.05 17.08 12.05 28.85 0 13.3-4.26 23.65-12.77 31.06s-20.26 11.11-35.23 11.11Zm1.27-14.31c8.7 0 15.28-2.33 19.74-7 4.47-4.67 6.7-11.16 6.7-19.49 0-9.03-2.33-15.81-6.97-20.32-4.65-4.52-11.14-6.77-19.47-6.77-8.94 0-15.67 2.34-20.2 7-4.53 4.67-6.79 11.17-6.79 19.49 0 18.07 8.99 27.1 26.99 27.1Z"/><path fill="#999" d="M1306.42 55.1c6.76-1.62 13.52-2.44 20.29-2.44v70.33c0 11.26-4.02 20.53-12.05 27.78-8.03 7.26-19.59 10.88-34.69 10.88s-27.41-3.63-35.5-10.88c-8.09-7.26-12.14-16.52-12.14-27.78V55.1c6.76-1.62 13.52-2.44 20.29-2.44v67.9c0 8.22 2.32 14.64 6.97 19.26 4.65 4.62 11.44 6.93 20.38 6.93s15.42-2.28 19.83-6.85c4.41-4.57 6.61-10.81 6.61-18.72V55.1ZM1353.15 55.1c6.76-1.62 13.52-2.44 20.29-2.44v106.56h-20.29V55.1Z"/></svg>
