<svg xmlns="http://www.w3.org/2000/svg" viewBox="0 0 1434.02 209.42"><defs><style>.cls-1{fill:#ffc60f;}.cls-2{fill:#999;}.cls-3{fill:#fff;}</style></defs><title>THEOplayer</title><g><path class="cls-1" d="M100.18,30.18q-30.83,30.71-30.91,74.3-.09,43.77,30.61,74.78,14,13.74,28.79,21.15A86.28,86.28,0,0,0,151.15,208v1.4L43.39,209.2q-43.6-.07-43.51-43.68L.12,43.69Q.21-.08,43.81,0l109,.22V1.46a96.74,96.74,0,0,0-23.92,7.86q-14.61,7.18-28.7,20.86"/></g><g><path class="cls-3" d="M246.81,115.38q-19,13.55-49.12,30.25-29,16.32-50.9,25.62l-16.16,6a167,167,0,0,1-2.86-19.42,486.58,486.58,0,0,1-3-56.57,323.4,323.4,0,0,1,4.09-53l4-18.87,17.14,5.77q22.27,8.86,48.29,25.18A532.47,532.47,0,0,1,245.49,93.2q9.84,7.85,14.18,12.08l-12.86,10.1"/></g><g><path class="cls-1" d="M364.87,43.8V165.71q0,43.64-43.63,43.63h-110v-1.41q30.27-5.79,53-28.67Q295,148.3,295,104.5q0-43.64-30.78-74.42Q241.2,7,210.42,1.41V0H321.24q43.63,0,43.63,43.8"/></g><g><path class="cls-3" d="M508.64,20.38v20.9H459.72v139.4h-24.9V41.28H385.91V20.38H508.64"/></g><g><path class="cls-3" d="M514.32,180.68V20.38H539v68.7h89.82V20.38h24.67v160.3H628.82V110H539v70.7H514.32"/></g><g><path class="cls-3" d="M783.15,20.38v20.9H701.34v47.8h78V110h-78v50h83.59v20.67H676.66V20.37H783.15"/></g><g><path class="cls-3" d="M879.56,161.12q53.58,0,53.58-60.93,0-60-53.58-60-54.7,0-54.7,60,0,60.93,54.7,60.93m-80.49-60.26q0-81.6,80.49-81.59,79.37,0,79.37,81.59,0,80.94-79.37,80.93-80.49,0-80.49-80.93"/></g><g><path class="cls-2" d="M996.23,125.86a42.33,42.33,0,0,0,19.1,4q26.29,0,26.3-32.08,0-27.69-26.12-27.69a87.34,87.34,0,0,0-19.28,1.75v54M976.77,57.32a193.64,193.64,0,0,1,38.92-4q45.21,0,45.22,44.7,0,49.08-45.4,49.08-11.22,0-19.28-4.21v36.81H976.77V57.32"/></g><g><path class="cls-2" d="M1095.21,20.69V147.07h-19.45V20.69h19.45"/></g><g><path class="cls-2" d="M1109,117.27q0-29.62,38.39-29.62,13.49,0,21.73,1.75V82.74q0-13-22.61-13a126.39,126.39,0,0,0-30.32,4.2V58a108,108,0,0,1,30.32-4.73q42.06,0,42.07,30.68v63.1h-10.7l-6-6.31q-10.87,6.3-27.35,6.31-35.58,0-35.58-29.8m38.39-13.15q-18.93,0-18.94,12.8,0,13.86,16.13,13.85,15.95,0,24.54-6.31V105.52a131.47,131.47,0,0,0-21.73-1.4"/></g><g><path class="cls-2" d="M1196.77,53.29h20.34l24.36,70.46,25.07-70.46h19.8L1246.9,149.7q-8.4,24.18-30.67,30.67l-6.84-13.85q15.43-7.17,21.91-20.68l-34.53-92.55"/></g><g><path class="cls-2" d="M1370,106.58h-60.48q0,24.18,33.13,24.19a138.18,138.18,0,0,0,25.6-2.63v16.12a152.64,152.64,0,0,1-30.86,2.81q-47.33,0-47.32-47.86,0-45.93,44.87-45.92,43.3,0,35.06,53.29m-60.48-16.83h42.78q1.05-20.18-19.82-20.16-21.55,0-23,20.16"/></g><g><path class="cls-2" d="M1388.28,147.07V53.29h14l2.45,11.57q10-11.56,29.27-11.57V70.12q-17.18,0-26.29,10.34v66.61h-19.45"/></g></svg>
