<?xml version="1.0" encoding="UTF-8"?>
<svg id="Layer_1" data-name="Layer 1" xmlns="http://www.w3.org/2000/svg" viewBox="0 0 198.08 44">
  <defs>
    <style>
      .cls-1 {
        fill: #fff;
        font-family: AvenirNext-Bold, 'Avenir Next';
        font-size: 9.4px;
        font-weight: 700;
      }

      .cls-2 {
        fill: none;
        stroke: #000;
        stroke-linecap: round;
        stroke-linejoin: round;
        stroke-width: 2px;
      }

      .cls-3 {
        letter-spacing: .14em;
      }

      .cls-4 {
        letter-spacing: .15em;
      }

      .cls-5 {
        letter-spacing: 0em;
      }

      .cls-6 {
        letter-spacing: -.02em;
      }

      .cls-7 {
        letter-spacing: 0em;
      }

      .cls-8 {
        font-family: AvenirNext-Medium, 'Avenir Next';
        font-size: 32.04px;
        font-weight: 500;
      }
    </style>
  </defs>
  <g>
    <path d="M7.89,30.73c-.7,0-1.25-.64-1.25-1.45V8.64c0-.81.55-1.45,1.25-1.45h28.22c.7,0,1.25.64,1.25,1.45v20.65c0,.81-.55,1.45-1.25,1.45H7.89Z"/>
    <path d="M36.11,8.18c.14,0,.25.21.25.45v20.65c0,.24-.12.45-.25.45H7.89c-.14,0-.25-.21-.25-.45V8.64c0-.25.12-.45.25-.45h28.22M36.11,6.18H7.89c-1.26,0-2.25,1.08-2.25,2.45v20.65c0,1.38.99,2.45,2.25,2.45h28.22c1.26,0,2.25-1.08,2.25-2.45V8.64c0-1.38-.99-2.45-2.25-2.45h0Z"/>
  </g>
  <line class="cls-2" x1="6.78" y1="36.16" x2="37.22" y2="36.16"/>
  <text class="cls-8" transform="translate(44 31.18)"><tspan class="cls-7" x="0" y="0">S</tspan><tspan x="18.04" y="0">t</tspan><tspan class="cls-6" x="28.58" y="0">r</tspan><tspan class="cls-7" x="39.61" y="0">e</tspan><tspan class="cls-5" x="57.78" y="0">aming</tspan></text>
  <text class="cls-1" transform="translate(12.02 22.17)"><tspan class="cls-3" x="0" y="0">R</tspan><tspan class="cls-4" x="7.53" y="0">TS</tspan></text>
</svg>