<svg xmlns="http://www.w3.org/2000/svg" viewBox="0 0 494.479 125.033"><path fill="#fff" d="M478.581 29.627 459.624 72.25l-18.959-42.624H424.77l26.906 60.48-6.596 14.85c-1.746 3.91-6.347 5.679-10.247 3.94l-2.088-.933-5.875 13.185h.002l.024.011 5.041 2.248c9.459 4.221 20.62-.07 24.852-9.556.036-.077 34.456-76.999 37.69-84.225Zm-66.524 33.085c0-11.005-9.049-20.056-20.054-20.056-8.812 0-16.358 5.73-19.019 13.725a19.983 19.983 0 0 0-1.037 6.331c0 2.205.374 4.325 1.037 6.316 2.644 7.947 10.121 13.74 19.019 13.74 11.005 0 20.054-8.927 20.054-20.056m13.208.123c0 18.344-14.92 33.262-33.262 33.262a33.07 33.07 0 0 1-19.019-5.997V96h-14.583V.016h14.582l.001 35.553a33.062 33.062 0 0 1 19.019-5.998c18.342 0 33.262 14.92 33.262 33.264M331.62 96h14.552V.017H331.62zm-22.623-33.292c0-11.005-9.05-20.055-20.054-20.055-11.007 0-20.056 8.927-20.056 20.055 0 11.005 8.926 20.055 20.056 20.055 11.004 0 20.054-8.927 20.054-20.055m13.207.123c0 18.342-14.92 33.261-33.261 33.261-18.344 0-33.264-14.919-33.264-33.261 0-18.344 14.92-33.263 33.264-33.263 18.341 0 33.261 14.919 33.261 33.263M233.74 48c0-18.427-15.019-33.447-33.445-33.447h-20.118v66.894h20.118c18.426 0 33.445-15.022 33.445-33.447m14.555 0c0 26.467-21.534 48-48 48h-34.672V0h34.672c26.466 0 48 21.532 48 48M136.555 0h-14.163c-26.444 0-48 21.557-48 48.001s21.556 48 48 48h14.163zM0 0h14.163c26.444 0 48 21.557 48 48.001s-21.556 48-48 48H0z"/></svg>
