<?xml version="1.0" encoding="UTF-8"?>
<svg xmlns="http://www.w3.org/2000/svg" width="506" height="127" viewBox="0 0 506 127" fill="none">
  <path d="M63.9737 126.856C98.9645 126.856 127.33 98.4908 127.33 63.5C127.33 28.5092 98.9645 0.143555 63.9737 0.143555C28.9828 0.143555 0.617188 28.5092 0.617188 63.5C0.617188 98.4908 28.9828 126.856 63.9737 126.856Z" fill="#64748C"></path>
  <path d="M63.9737 126.856C98.9645 126.856 127.33 98.4908 127.33 63.5C127.33 28.5092 98.9645 0.143555 63.9737 0.143555C28.9828 0.143555 0.617188 28.5092 0.617188 63.5C0.617188 98.4908 28.9828 126.856 63.9737 126.856Z" fill="url(#paint0_linear_73_29940)" fill-opacity="0.15"></path>
  <path d="M74.8563 74.9949C72.9697 73.081 71.1766 71.0346 69.4888 68.8596C61.2175 58.2067 56.5829 45.8854 55.3901 33.3848L59.7987 87.3084C64.7334 92.5355 70.2333 97.0882 76.1893 100.908H76.201L74.8601 74.991L74.8563 74.9949Z" fill="url(#paint1_linear_73_29940)"></path>
  <path d="M99.9121 49.9666C99.039 49.0701 98.2048 48.119 97.4175 47.1095C93.9873 42.6931 91.8552 37.6843 90.9509 32.5352H90.7326L83.1667 58.3159C85.7744 61.6681 88.7174 64.6032 91.9136 67.1213H91.9214L99.9082 49.9666H99.9121Z" fill="url(#paint2_linear_73_29940)"></path>
  <path d="M68.8614 116.683L76.1972 100.92C76.1972 100.92 76.1894 100.916 76.1855 100.912C70.2334 97.092 64.7296 92.5393 59.7948 87.3122C57.8303 85.2307 55.9515 83.0401 54.1741 80.7481C42.9715 66.322 36.6647 49.1751 35.7877 31.3071L18.5005 31.0031C18.5005 31.0031 18.5005 31.0109 18.5005 31.0148C19.3268 52.1921 26.5419 73.3265 40.5314 91.3426C48.6079 101.742 58.2474 110.216 68.8614 116.683Z" fill="white"></path>
  <path d="M55.3901 33.3887C56.5828 45.8893 61.2174 58.2106 69.4888 68.8635C71.1766 71.0385 72.9735 73.0849 74.8562 74.9988C77.8498 78.0392 81.0772 80.7443 84.484 83.1181L91.9251 67.129C91.9251 67.129 91.9212 67.1251 91.9173 67.1212C88.721 64.607 85.7781 61.668 83.1704 58.3158C83.1587 58.3002 83.147 58.2846 83.1353 58.269C77.0195 50.3914 73.566 41.2781 72.6344 32.0206C72.6344 31.9972 72.6305 31.9777 72.6266 31.9543L55.2498 31.6464V31.7048C55.2926 32.2661 55.3394 32.8274 55.3901 33.3848V33.3887Z" fill="white"></path>
  <path d="M97.4171 47.1093C98.2005 48.1189 99.0347 49.0739 99.9117 49.9665L105.84 37.2243L108.004 32.5741L90.9504 32.5312C91.8548 37.6803 93.9908 42.6891 97.4171 47.1054V47.1093Z" fill="white"></path>
  <path d="M174.129 96.9071L156.921 29.0869H166.181L174.231 63.4011C176.243 71.8525 178.052 80.304 179.262 86.8446H179.465C180.573 80.1006 182.687 72.0506 185 63.2994L194.056 29.0869H203.214L211.467 63.5028C213.378 71.5528 215.192 79.6028 216.199 86.7483H216.402C217.81 79.3031 219.721 71.7562 221.835 63.3048L230.789 29.0922H239.744L220.523 96.9125H211.366L202.812 61.592C200.698 52.9372 199.29 46.2948 198.386 39.4545H198.183C196.973 46.1985 195.464 52.8355 192.948 61.592L183.287 96.9125H174.129V96.9071Z" fill="black"></path>
  <path d="M255.635 34.5194C255.737 37.5382 253.521 39.9521 249.999 39.9521C246.878 39.9521 244.668 37.5382 244.668 34.5194C244.668 31.5007 246.98 28.985 250.202 28.985C253.424 28.985 255.635 31.399 255.635 34.5194ZM245.776 96.907V48.2055H254.629V96.907H245.776Z" fill="black"></path>
  <path d="M268.813 63.3956C268.813 57.6579 268.711 52.7283 268.411 48.2002H276.161L276.461 57.7596H276.863C279.078 51.2189 284.409 47.0922 290.345 47.0922C291.352 47.0922 292.058 47.1939 292.861 47.392V55.7417C291.956 55.5383 291.052 55.442 289.842 55.442C283.601 55.442 279.175 60.1735 277.971 66.8105C277.767 68.0201 277.569 69.4278 277.569 70.9372V96.8963H268.813V63.3849V63.3956Z" fill="black"></path>
  <path d="M305.139 74.1647C305.343 86.138 312.986 91.0675 321.844 91.0675C328.181 91.0675 332.008 89.9596 335.327 88.5519L336.836 94.8892C333.716 96.2968 328.385 97.9079 320.634 97.9079C305.642 97.9079 296.688 88.0488 296.688 73.3565C296.688 58.6641 305.343 47.0922 319.532 47.0922C335.428 47.0922 339.657 61.078 339.657 70.0326C339.657 71.8417 339.453 73.2548 339.357 74.1593H305.145L305.139 74.1647ZM331.098 67.8274C331.2 62.1913 328.786 53.4402 318.82 53.4402C309.865 53.4402 305.942 61.6936 305.236 67.8274H331.098Z" fill="black"></path>
  <path d="M384.836 95.098C382.524 96.3077 377.391 97.9134 370.85 97.9134C356.158 97.9134 346.599 87.9526 346.599 73.0568C346.599 58.1611 356.865 47.194 372.761 47.194C377.996 47.194 382.62 48.5 385.04 49.7097L383.027 56.55C380.913 55.3404 377.594 54.2378 372.761 54.2378C361.591 54.2378 355.553 62.4912 355.553 72.6554C355.553 83.9276 362.8 90.8696 372.456 90.8696C377.487 90.8696 380.806 89.5636 383.321 88.4557L384.831 95.098H384.836Z" fill="black"></path>
  <path d="M421.661 96.9071L420.955 90.7679H420.655C417.936 94.5895 412.707 98.015 405.759 98.015C395.9 98.015 390.869 91.0729 390.869 84.0292C390.869 72.2539 401.333 65.815 420.152 65.9167V64.9104C420.152 60.8854 419.044 53.6383 409.083 53.6383C404.555 53.6383 399.823 55.0459 396.403 57.2618L394.391 51.4277C398.416 48.8104 404.25 47.103 410.389 47.103C425.279 47.103 428.903 57.2672 428.903 67.0246V85.2388C428.903 89.4672 429.106 93.5886 429.706 96.9124H421.656L421.661 96.9071ZM420.355 72.0505C410.694 71.8471 399.727 73.5599 399.727 83.0176C399.727 88.7554 403.549 91.469 408.077 91.469C414.414 91.469 418.439 87.444 419.852 83.3173C420.152 82.4128 420.355 81.4065 420.355 80.5019V72.0505Z" fill="black"></path>
  <path d="M441.486 87.8508C444.104 89.5635 448.733 91.3726 453.16 91.3726C459.599 91.3726 462.617 88.1505 462.617 84.1255C462.617 79.8971 460.102 77.5848 453.561 75.1709C444.805 72.0505 440.683 67.2226 440.683 61.3831C440.683 53.5365 447.021 47.0922 457.49 47.0922C462.419 47.0922 466.75 48.4999 469.463 50.111L467.247 56.5499C465.336 55.3403 461.815 53.7345 457.286 53.7345C452.052 53.7345 449.135 56.7533 449.135 60.3769C449.135 64.4019 452.052 66.211 458.394 68.6303C466.846 71.8524 471.176 76.0755 471.176 83.3226C471.176 91.8758 464.534 97.9133 452.962 97.9133C447.631 97.9133 442.696 96.6073 439.276 94.5948L441.492 87.8508H441.486Z" fill="black"></path>
  <path d="M492.703 34.2145V48.2003H505.383V54.9443H492.703V81.2086C492.703 87.2461 494.416 90.6662 499.346 90.6662C501.658 90.6662 503.371 90.3665 504.479 90.0614L504.88 96.7038C503.167 97.4103 500.454 97.9134 497.028 97.9134C492.901 97.9134 489.583 96.6074 487.469 94.1881C484.953 91.5708 484.049 87.2461 484.049 81.5083V54.9443H476.502V48.2003H484.049V36.5267L492.703 34.2145Z" fill="black"></path>
  <defs>
    <linearGradient id="paint0_linear_73_29940" x1="63.9737" y1="0.139657" x2="63.9737" y2="126.86" gradientUnits="userSpaceOnUse">
      <stop stop-color="white"></stop>
      <stop offset="0.01" stop-color="#FAFBFB"></stop>
      <stop offset="0.11" stop-color="#D2D7DE"></stop>
      <stop offset="0.22" stop-color="#B0B8C4"></stop>
      <stop offset="0.34" stop-color="#949FB0"></stop>
      <stop offset="0.47" stop-color="#7F8CA0"></stop>
      <stop offset="0.6" stop-color="#6F7E94"></stop>
      <stop offset="0.76" stop-color="#66768E"></stop>
      <stop offset="1" stop-color="#64748C"></stop>
    </linearGradient>
    <linearGradient id="paint1_linear_73_29940" x1="65.7936" y1="100.916" x2="65.7936" y2="33.3887" gradientUnits="userSpaceOnUse">
      <stop stop-color="#F9BA08"></stop>
      <stop offset="0.47" stop-color="#F9B708"></stop>
      <stop offset="0.75" stop-color="#F9AF08"></stop>
      <stop offset="0.98" stop-color="#F9A008"></stop>
      <stop offset="1" stop-color="#F99F08"></stop>
    </linearGradient>
    <linearGradient id="paint2_linear_73_29940" x1="91.5394" y1="67.1252" x2="91.5394" y2="32.5352" gradientUnits="userSpaceOnUse">
      <stop stop-color="#F9BA08"></stop>
      <stop offset="0.47" stop-color="#F9B708"></stop>
      <stop offset="0.75" stop-color="#F9AF08"></stop>
      <stop offset="0.98" stop-color="#F9A008"></stop>
      <stop offset="1" stop-color="#F99F08"></stop>
    </linearGradient>
  </defs>
</svg>
