<svg xmlns="http://www.w3.org/2000/svg" width="675" height="675" viewBox="0 0 675 675"><path fill="#34A853" d="M672.38 514.23c-.22-1.378-.43-2.74-.66-4.102a335.112 335.112 0 0 0-5.13-25.041 337.18 337.18 0 0 0-28.51-75.63 341.207 341.207 0 0 0-24.56-40.072 338.6 338.6 0 0 0-37.1-43.697 334.176 334.176 0 0 0-17.66-16.361 339.62 339.62 0 0 0-42.06-30.98c.13-.214.24-.443.37-.657 6.79-11.732 13.6-23.449 20.39-35.181l19.92-34.361a10427.4 10427.4 0 0 0 14.3-24.68 31.28 31.28 0 0 0 2.69-6.038 30.96 30.96 0 0 0 .45-17.444 31.743 31.743 0 0 0-3.35-7.959c-2.54-4.266-6.17-7.974-10.73-10.682a31.15 31.15 0 0 0-13.16-4.233 31.455 31.455 0 0 0-5.83.05c-1.6.163-3.19.459-4.77.869a30.865 30.865 0 0 0-14.9 9.041 31.106 31.106 0 0 0-3.91 5.333c-4.77 8.221-9.54 16.459-14.3 24.68l-19.92 34.361c-6.79 11.733-13.6 23.449-20.39 35.182-.74 1.279-1.49 2.559-2.23 3.856-1.03-.411-2.05-.821-3.08-1.215-37.44-14.276-78.06-22.087-120.52-22.087-1.16 0-2.31 0-3.48.017-37.75.377-74.02 6.941-107.86 18.723a314.032 314.032 0 0 0-11.62 4.316c-.69-1.198-1.4-2.396-2.08-3.594-6.79-11.733-13.6-23.449-20.39-35.182l-19.92-34.36c-4.78-8.222-9.55-16.46-14.3-24.68a31.643 31.643 0 0 0-3.91-5.333 30.865 30.865 0 0 0-14.9-9.042c-1.58-.41-3.17-.705-4.78-.87a31.34 31.34 0 0 0-5.82-.049 30.784 30.784 0 0 0-13.17 4.234 30.809 30.809 0 0 0-10.72 10.682 30.373 30.373 0 0 0-1.95 3.873 29.589 29.589 0 0 0-1.4 4.086 31.048 31.048 0 0 0 .44 17.443 31.905 31.905 0 0 0 2.69 6.039c4.78 8.22 9.55 16.458 14.3 24.68 6.65 11.453 13.29 22.907 19.93 34.36 6.79 11.733 13.59 23.449 20.38 35.182.05.098.12.197.17.295a339.667 339.667 0 0 0-39.03 28.273 337.741 337.741 0 0 0-21.27 19.445 341.007 341.007 0 0 0-37.1 43.698 335.863 335.863 0 0 0-24.56 40.072 337.18 337.18 0 0 0-28.51 75.63 343.767 343.767 0 0 0-5.13 25.041c-.23 1.362-.44 2.74-.65 4.102a328.42 328.42 0 0 0-1.94 14.818h673.11c-.54-4.972-1.18-9.912-1.93-14.818l.05-.033Z"/><path fill="#202124" d="M512.79 435.987c13.47-8.966 15.43-29.71 4.37-46.331-11.05-16.622-30.93-22.827-44.39-13.861-13.47 8.967-15.43 29.71-4.37 46.331 11.05 16.622 30.93 22.828 44.39 13.861ZM207.6 422.184c11.06-16.622 9.1-37.365-4.37-46.331-13.47-8.967-33.34-2.761-44.4 13.86-11.05 16.622-9.09 37.365 4.37 46.331 13.47 8.967 33.35 2.761 44.4-13.86Z"/></svg>
