<svg xmlns="http://www.w3.org/2000/svg" viewBox="0 0 521.333 521.333"><path fill="#fb1ea7" d="m393.449 221.449-2.782-2.782V81.747l2.484-2.249c2.798-2.532 77.81-36.831 80.551-36.831.97 0 2.485.72 3.365 1.6l1.6 1.6v140.386l-2.334 2.015c-2.683 2.316-71.36 33.769-76.614 35.088l-3.488.875z"/><path fill="#214362" d="M89.362 314.009c-23.818-14.235-44.068-26.926-45-28.2l-1.695-2.319V102.491l1.364-2.548c.75-1.402 2.568-3.193 4.04-3.98l2.675-1.433 25.991 13.382 17.155 8.832 43.146 22.213 1.48 3.25L140 145.46v190.128l-2.438 2.206c-3.509 3.175-1.125 4.351-48.2-23.784z"/><path fill="#fb1ea7" d="M142.337 476.333 140.261 474l-.464-58.266-.464-58.266 1.334-1.197c.733-.659 23.533-10.91 50.666-22.782 27.134-11.872 52.634-23.221 56.667-25.221l7.333-3.636 2.544-5.192 2.543-5.192.643-79.216.644-79.215 2.823-1.85c1.552-1.017 22.618-10.601 46.813-21.298l43.99-19.449 4 .39 4 .39.34 144.303.339 144.303-5.332 2.72c-5.494 2.803-187.5 83.646-202.307 89.86-9.795 4.111-11.29 4.233-14.036 1.147z"/></svg>
