<?xml version="1.0" encoding="utf-8"?>
<!-- Generator: Adobe Illustrator 25.2.0, SVG Export Plug-In . SVG Version: 6.00 Build 0)  -->
<svg version="1.1" id="Layer_2" xmlns="http://www.w3.org/2000/svg" xmlns:xlink="http://www.w3.org/1999/xlink" x="0px" y="0px"
	 width="250px" height="44px" viewBox="0 0 250 44" style="enable-background:new 0 0 250 44;" xml:space="preserve">
<style type="text/css">
	.st0{fill:#FFFFFF;}
</style>
<g>
	<g>
		<path class="st0" d="M64.4,25l-23.8,5.9c-0.7,0.2-1.3-0.3-1.3-1V12.6c0-0.5,0.3-0.9,0.8-1l23.8-5.9c0.7-0.2,1.3,0.3,1.3,1v17.3
			C65.2,24.4,64.9,24.8,64.4,25z"/>
		<path class="st0" d="M68.4,6.6v19.3c0,0.5-0.3,0.9-0.8,1l-25.8,6.4c-0.5,0.1-0.8,0.5-0.8,1v5.4c0,0.7,0.6,1.2,1.3,1l29.6-7.4
			c2.4-0.6,4.1-2.8,4.1-5.2v-23c0-0.7-0.6-1.2-1.3-1l-5.5,1.4C68.7,5.7,68.4,6.1,68.4,6.6z"/>
	</g>
	<g>
		<path class="st0" d="M88.6,29.3h-2.9l8-18.5h2.4l8,18.5h-2.9l-1.9-4.6h-8.8L88.6,29.3z M91.4,22.4h6.9l-3.5-8.7L91.4,22.4z"/>
		<path class="st0" d="M116.3,27.3c-0.5,0.8-1.1,1.3-1.9,1.7c-0.8,0.4-1.7,0.6-2.6,0.6c-1,0-1.8-0.2-2.6-0.5c-0.8-0.3-1.4-0.8-2-1.4
			c-0.5-0.6-1-1.3-1.3-2.1c-0.3-0.8-0.4-1.7-0.4-2.6c0-0.9,0.1-1.8,0.4-2.6c0.3-0.8,0.7-1.5,1.3-2.1c0.6-0.6,1.2-1.1,2-1.4
			c0.8-0.3,1.6-0.5,2.5-0.5c1,0,1.9,0.2,2.6,0.6c0.8,0.4,1.3,0.9,1.8,1.6h0.1V9.5h2.5v19.8h-2.4L116.3,27.3L116.3,27.3z M108.1,23
			c0,0.6,0.1,1.1,0.3,1.7c0.2,0.5,0.4,1,0.8,1.4c0.3,0.4,0.8,0.8,1.3,1c0.5,0.3,1.1,0.4,1.8,0.4c0.6,0,1.2-0.1,1.7-0.4
			c0.5-0.2,1-0.6,1.3-1c0.4-0.4,0.6-0.9,0.9-1.4c0.2-0.5,0.3-1.1,0.3-1.7c0-0.6-0.1-1.2-0.3-1.7c-0.2-0.5-0.5-1-0.9-1.4
			c-0.4-0.4-0.8-0.7-1.3-1c-0.5-0.2-1.1-0.4-1.7-0.4c-0.7,0-1.3,0.1-1.8,0.4c-0.5,0.2-0.9,0.6-1.3,1c-0.4,0.4-0.6,0.9-0.8,1.4
			C108.2,21.9,108.1,22.5,108.1,23z"/>
		<path class="st0" d="M132.3,26.9h9.7v2.3h-12.3V10.7h11.9V13h-9.3v5.6h8.7v2.2h-8.7V26.9z"/>
		<path class="st0" d="M147.5,16.8c0,0.3,0.1,0.7,0.1,1.1c0,0.4,0,0.7,0,1h0.1c0.2-0.3,0.4-0.6,0.6-0.9c0.3-0.3,0.6-0.5,0.9-0.8
			c0.3-0.2,0.7-0.4,1.2-0.5c0.4-0.1,0.9-0.2,1.3-0.2c0.8,0,1.5,0.1,2.1,0.4c0.6,0.3,1.1,0.6,1.4,1.1c0.4,0.5,0.7,1,0.8,1.6
			c0.2,0.6,0.3,1.3,0.3,2v7.7h-2.5v-6.9c0-0.5,0-1-0.1-1.4c-0.1-0.5-0.2-0.9-0.4-1.2c-0.2-0.4-0.5-0.6-0.9-0.8
			c-0.4-0.2-0.8-0.3-1.4-0.3c-1,0-1.8,0.4-2.4,1.1c-0.6,0.7-0.9,1.7-0.9,3v6.6h-2.5v-9.7c0-0.3,0-0.8,0-1.3c0-0.5,0-1-0.1-1.4H147.5
			z"/>
		<path class="st0" d="M161.5,31.4c0.5,0.6,1.2,1.1,2,1.5c0.8,0.4,1.6,0.5,2.5,0.5c0.8,0,1.5-0.1,2.1-0.4c0.6-0.2,1-0.6,1.3-1
			c0.3-0.4,0.6-0.9,0.7-1.5c0.1-0.6,0.2-1.2,0.2-1.8v-1.6h-0.1c-0.5,0.7-1.1,1.2-1.9,1.6c-0.8,0.4-1.6,0.5-2.5,0.5
			c-0.9,0-1.8-0.2-2.6-0.5c-0.8-0.3-1.4-0.8-2-1.4c-0.5-0.6-1-1.3-1.3-2c-0.3-0.8-0.4-1.6-0.4-2.5c0-0.9,0.1-1.7,0.4-2.5
			c0.3-0.8,0.7-1.5,1.3-2.1c0.5-0.6,1.2-1,2-1.4c0.8-0.3,1.6-0.5,2.6-0.5c0.9,0,1.7,0.2,2.6,0.6c0.8,0.4,1.5,1,1.9,1.8h0.1v-2h2.4
			v11.8c0,0.9-0.1,1.8-0.3,2.6c-0.2,0.8-0.6,1.6-1.2,2.2c-0.5,0.6-1.2,1.1-2.1,1.5c-0.9,0.4-2,0.6-3.2,0.6c-1.1,0-2.2-0.2-3.3-0.6
			c-1.1-0.4-2-0.9-2.8-1.7L161.5,31.4z M162.2,22.9c0,0.6,0.1,1.1,0.3,1.6c0.2,0.5,0.5,1,0.8,1.4c0.4,0.4,0.8,0.7,1.3,1
			c0.5,0.2,1.1,0.4,1.7,0.4c0.6,0,1.2-0.1,1.7-0.3c0.5-0.2,1-0.5,1.3-0.9c0.4-0.4,0.7-0.9,0.9-1.4c0.2-0.5,0.3-1.1,0.3-1.7
			c0-0.6-0.1-1.2-0.3-1.7c-0.2-0.5-0.5-1-0.9-1.4c-0.4-0.4-0.8-0.7-1.3-1c-0.5-0.2-1.1-0.4-1.7-0.4c-0.6,0-1.2,0.1-1.7,0.4
			c-0.5,0.2-0.9,0.5-1.3,0.9c-0.4,0.4-0.6,0.9-0.8,1.4C162.3,21.8,162.2,22.3,162.2,22.9z"/>
		<path class="st0" d="M179.9,12.4c0,0.5-0.2,0.8-0.5,1.1c-0.3,0.3-0.7,0.4-1.2,0.4s-0.8-0.2-1.1-0.5c-0.3-0.3-0.5-0.7-0.5-1.1
			c0-0.5,0.2-0.8,0.5-1.1c0.3-0.3,0.7-0.5,1.1-0.5s0.8,0.2,1.2,0.5C179.8,11.5,179.9,11.9,179.9,12.4z M179.5,29.3h-2.5V16.8h2.5
			V29.3z"/>
		<path class="st0" d="M186.1,16.8c0,0.3,0.1,0.7,0.1,1.1c0,0.4,0,0.7,0,1h0.1c0.2-0.3,0.4-0.6,0.6-0.9c0.3-0.3,0.6-0.5,0.9-0.8
			c0.3-0.2,0.7-0.4,1.2-0.5c0.4-0.1,0.9-0.2,1.3-0.2c0.8,0,1.5,0.1,2.1,0.4c0.6,0.3,1.1,0.6,1.4,1.1c0.4,0.5,0.7,1,0.8,1.6
			c0.2,0.6,0.3,1.3,0.3,2v7.7h-2.5v-6.9c0-0.5,0-1-0.1-1.4c-0.1-0.5-0.2-0.9-0.4-1.2c-0.2-0.4-0.5-0.6-0.9-0.8
			c-0.4-0.2-0.8-0.3-1.4-0.3c-1,0-1.8,0.4-2.4,1.1c-0.6,0.7-0.9,1.7-0.9,3v6.6h-2.5v-9.7c0-0.3,0-0.8,0-1.3c0-0.5,0-1-0.1-1.4H186.1
			z"/>
		<path class="st0" d="M210.7,22.9c0,0.1,0,0.3,0,0.4s0,0.3,0,0.4h-9.9c0,0.5,0.1,1,0.4,1.5c0.2,0.5,0.5,0.9,0.9,1.2
			c0.4,0.3,0.8,0.6,1.3,0.8c0.5,0.2,1,0.3,1.5,0.3c0.8,0,1.6-0.2,2.2-0.5c0.6-0.4,1.1-0.8,1.4-1.3l1.7,1.4c-0.7,0.9-1.4,1.5-2.3,1.9
			c-0.9,0.4-1.9,0.6-3,0.6c-0.9,0-1.8-0.2-2.6-0.5c-0.8-0.3-1.5-0.8-2.1-1.3c-0.6-0.6-1-1.3-1.4-2.1c-0.3-0.8-0.5-1.7-0.5-2.7
			c0-1,0.2-1.8,0.5-2.7c0.3-0.8,0.8-1.5,1.3-2.1c0.6-0.6,1.3-1,2-1.3c0.8-0.3,1.6-0.5,2.5-0.5c0.9,0,1.7,0.1,2.5,0.4
			c0.7,0.3,1.4,0.7,1.9,1.3c0.5,0.6,0.9,1.2,1.2,2C210.5,21.1,210.7,21.9,210.7,22.9z M208.2,21.9c0-0.5-0.1-0.9-0.3-1.4
			c-0.1-0.4-0.4-0.8-0.7-1.1c-0.3-0.3-0.6-0.6-1.1-0.7c-0.4-0.2-0.9-0.3-1.5-0.3c-0.5,0-1,0.1-1.5,0.3c-0.5,0.2-0.9,0.4-1.2,0.7
			c-0.3,0.3-0.6,0.7-0.8,1.1c-0.2,0.4-0.3,0.9-0.4,1.4H208.2z"/>
	</g>
</g>
</svg>
