<?xml version="1.0" encoding="utf-8"?>
<!-- Generator: Adobe Illustrator 25.2.0, SVG Export Plug-In . SVG Version: 6.00 Build 0)  -->
<svg version="1.1" id="Layer_2" xmlns="http://www.w3.org/2000/svg" xmlns:xlink="http://www.w3.org/1999/xlink" x="0px" y="0px"
	 width="250px" height="44px" viewBox="0 0 250 44" style="enable-background:new 0 0 250 44;" xml:space="preserve">
<g>
	<g>
		<path d="M62.1,24.4l-23.7,5.9c-0.7,0.2-1.3-0.3-1.3-1V12.1c0-0.5,0.3-0.9,0.8-1l23.7-5.9c0.7-0.2,1.3,0.3,1.3,1v17.2
			C62.9,23.8,62.5,24.3,62.1,24.4z"/>
		<path d="M66,6.1v19.3c0,0.5-0.3,0.9-0.8,1l-25.7,6.4c-0.5,0.1-0.8,0.5-0.8,1v5.4c0,0.7,0.6,1.2,1.3,1l29.5-7.4
			c2.4-0.6,4.1-2.8,4.1-5.2V4.7c0-0.7-0.6-1.2-1.3-1l-5.5,1.4C66.3,5.2,66,5.6,66,6.1z"/>
	</g>
	<g>
		<path d="M86.2,28.7h-2.9l8-18.5h2.3l7.9,18.5h-2.9l-1.9-4.5h-8.8L86.2,28.7z M89,21.9h6.9l-3.4-8.7L89,21.9z"/>
		<path d="M113.7,26.7c-0.5,0.7-1.1,1.3-1.9,1.7c-0.8,0.4-1.7,0.6-2.5,0.6c-1,0-1.8-0.2-2.6-0.5c-0.8-0.3-1.4-0.8-2-1.4
			c-0.5-0.6-1-1.3-1.3-2.1c-0.3-0.8-0.4-1.7-0.4-2.6c0-0.9,0.1-1.8,0.4-2.5c0.3-0.8,0.7-1.5,1.3-2.1c0.6-0.6,1.2-1.1,2-1.4
			c0.8-0.3,1.6-0.5,2.5-0.5c1,0,1.9,0.2,2.6,0.6c0.7,0.4,1.3,0.9,1.8,1.6h0.1V8.9h2.5v19.7h-2.4L113.7,26.7L113.7,26.7z M105.6,22.5
			c0,0.6,0.1,1.1,0.3,1.7c0.2,0.5,0.4,1,0.8,1.4c0.3,0.4,0.8,0.7,1.3,1s1.1,0.4,1.8,0.4c0.6,0,1.2-0.1,1.7-0.4c0.5-0.2,1-0.6,1.3-1
			c0.4-0.4,0.6-0.9,0.8-1.4c0.2-0.5,0.3-1.1,0.3-1.7c0-0.6-0.1-1.2-0.3-1.7c-0.2-0.5-0.5-1-0.8-1.4c-0.4-0.4-0.8-0.7-1.3-1
			c-0.5-0.2-1.1-0.4-1.7-0.4c-0.7,0-1.3,0.1-1.8,0.4s-0.9,0.6-1.3,1c-0.3,0.4-0.6,0.9-0.8,1.4C105.7,21.3,105.6,21.9,105.6,22.5z"/>
		<path d="M129.7,26.4h9.7v2.3h-12.2V10.2h11.8v2.3h-9.3V18h8.7v2.2h-8.7V26.4z"/>
		<path d="M144.9,16.3c0,0.3,0.1,0.7,0.1,1.1c0,0.4,0,0.7,0,1h0.1c0.2-0.3,0.4-0.6,0.6-0.9c0.3-0.3,0.6-0.5,0.9-0.8
			c0.3-0.2,0.7-0.4,1.1-0.5c0.4-0.1,0.9-0.2,1.3-0.2c0.8,0,1.5,0.1,2.1,0.4c0.6,0.3,1.1,0.6,1.4,1.1c0.4,0.5,0.7,1,0.8,1.6
			c0.2,0.6,0.3,1.3,0.3,2v7.7h-2.5v-6.9c0-0.5,0-1-0.1-1.4c-0.1-0.5-0.2-0.9-0.4-1.2c-0.2-0.3-0.5-0.6-0.9-0.8
			c-0.4-0.2-0.8-0.3-1.4-0.3c-1,0-1.8,0.4-2.4,1.1c-0.6,0.7-0.9,1.7-0.9,3v6.6h-2.5V19c0-0.3,0-0.8,0-1.3c0-0.5,0-1-0.1-1.4H144.9z"
			/>
		<path d="M158.8,30.8c0.5,0.6,1.2,1.1,2,1.5c0.8,0.4,1.6,0.5,2.5,0.5c0.8,0,1.5-0.1,2.1-0.4c0.6-0.2,1-0.6,1.3-1
			c0.3-0.4,0.6-0.9,0.7-1.4c0.1-0.6,0.2-1.2,0.2-1.8v-1.6h-0.1c-0.5,0.7-1.1,1.2-1.9,1.6c-0.8,0.4-1.6,0.5-2.5,0.5
			c-0.9,0-1.8-0.2-2.6-0.5c-0.8-0.3-1.4-0.8-2-1.4c-0.5-0.6-1-1.2-1.3-2c-0.3-0.8-0.4-1.6-0.4-2.5c0-0.9,0.1-1.7,0.4-2.5
			c0.3-0.8,0.7-1.5,1.3-2c0.5-0.6,1.2-1,2-1.4c0.8-0.3,1.6-0.5,2.6-0.5c0.9,0,1.7,0.2,2.5,0.6c0.8,0.4,1.4,1,1.9,1.7h0.1v-2h2.4V28
			c0,0.9-0.1,1.8-0.3,2.6c-0.2,0.8-0.6,1.6-1.1,2.2c-0.5,0.6-1.2,1.1-2.1,1.5c-0.9,0.4-1.9,0.6-3.2,0.6c-1.1,0-2.2-0.2-3.2-0.6
			c-1.1-0.4-2-0.9-2.8-1.7L158.8,30.8z M159.5,22.4c0,0.6,0.1,1.1,0.3,1.6s0.5,1,0.8,1.4c0.4,0.4,0.8,0.7,1.3,1
			c0.5,0.2,1.1,0.4,1.7,0.4c0.6,0,1.2-0.1,1.7-0.3c0.5-0.2,1-0.5,1.3-0.9c0.4-0.4,0.6-0.9,0.8-1.4c0.2-0.5,0.3-1.1,0.3-1.7
			c0-0.6-0.1-1.1-0.3-1.7c-0.2-0.5-0.5-1-0.9-1.4c-0.4-0.4-0.8-0.7-1.3-1c-0.5-0.2-1.1-0.4-1.7-0.4c-0.6,0-1.2,0.1-1.7,0.4
			c-0.5,0.2-0.9,0.5-1.3,0.9c-0.4,0.4-0.6,0.9-0.8,1.4C159.6,21.2,159.5,21.8,159.5,22.4z"/>
		<path d="M177.2,11.8c0,0.5-0.2,0.8-0.5,1.1c-0.3,0.3-0.7,0.4-1.2,0.4s-0.8-0.2-1.1-0.5c-0.3-0.3-0.5-0.7-0.5-1.1
			c0-0.5,0.2-0.8,0.5-1.1c0.3-0.3,0.7-0.5,1.1-0.5s0.8,0.2,1.2,0.5C177,11,177.2,11.4,177.2,11.8z M176.8,28.7h-2.5V16.3h2.5V28.7z"
			/>
		<path d="M183.3,16.3c0,0.3,0.1,0.7,0.1,1.1c0,0.4,0,0.7,0,1h0.1c0.2-0.3,0.4-0.6,0.6-0.9c0.3-0.3,0.6-0.5,0.9-0.8
			c0.3-0.2,0.7-0.4,1.1-0.5c0.4-0.1,0.9-0.2,1.3-0.2c0.8,0,1.5,0.1,2.1,0.4c0.6,0.3,1.1,0.6,1.4,1.1c0.4,0.5,0.7,1,0.8,1.6
			c0.2,0.6,0.3,1.3,0.3,2v7.7h-2.5v-6.9c0-0.5,0-1-0.1-1.4c-0.1-0.5-0.2-0.9-0.4-1.2c-0.2-0.3-0.5-0.6-0.9-0.8
			c-0.4-0.2-0.8-0.3-1.4-0.3c-1,0-1.8,0.4-2.4,1.1c-0.6,0.7-0.9,1.7-0.9,3v6.6h-2.5V19c0-0.3,0-0.8,0-1.3c0-0.5,0-1-0.1-1.4H183.3z"
			/>
		<path d="M207.8,22.4c0,0.1,0,0.3,0,0.4s0,0.3,0,0.4H198c0,0.5,0.1,1,0.4,1.5c0.2,0.5,0.5,0.9,0.9,1.2c0.4,0.3,0.8,0.6,1.3,0.8
			c0.5,0.2,1,0.3,1.5,0.3c0.8,0,1.6-0.2,2.2-0.5c0.6-0.4,1.1-0.8,1.4-1.3l1.7,1.4c-0.7,0.9-1.4,1.5-2.3,1.9c-0.9,0.4-1.9,0.6-3,0.6
			c-0.9,0-1.8-0.2-2.6-0.5c-0.8-0.3-1.5-0.8-2.1-1.3c-0.6-0.6-1-1.2-1.4-2c-0.3-0.8-0.5-1.7-0.5-2.7c0-1,0.2-1.8,0.5-2.6
			c0.3-0.8,0.8-1.5,1.3-2.1c0.6-0.6,1.3-1,2-1.3c0.8-0.3,1.6-0.5,2.5-0.5s1.7,0.1,2.5,0.4c0.7,0.3,1.4,0.7,1.9,1.3
			c0.5,0.6,0.9,1.2,1.2,2C207.7,20.5,207.8,21.4,207.8,22.4z M205.3,21.4c0-0.5-0.1-0.9-0.2-1.4c-0.1-0.4-0.4-0.8-0.7-1.1
			c-0.3-0.3-0.6-0.6-1.1-0.7c-0.4-0.2-0.9-0.3-1.5-0.3c-0.5,0-1,0.1-1.5,0.3c-0.5,0.2-0.9,0.4-1.2,0.7c-0.3,0.3-0.6,0.7-0.8,1.1
			c-0.2,0.4-0.3,0.9-0.4,1.4H205.3z"/>
	</g>
</g>
</svg>
