<?xml version="1.0" encoding="UTF-8"?><svg id="Warstwa_2" xmlns="http://www.w3.org/2000/svg" viewBox="0 0 220 27.99"><defs><style>.cls-1,.cls-2{fill:#fff;}.cls-2{fill-rule:evenodd;}</style></defs><g id="Warstwa_1-2"><path class="cls-2" d="m213.97,12.67l-7.11-.58c-2.54-.19-3.11-.65-3.11-1.5,0-1.04.85-1.46,2.38-1.46h12.18c.38,0,.69-.31.69-.69v-1.54c0-.38-.31-.69-.69-.69h-11.87c-3.19,0-5.96,1.15-5.96,4.42,0,2.84,2.07,4.07,5.57,4.34l7.49.58c2.23.19,3.15.69,3.15,1.73,0,.84-.62,1.46-2.5,1.46h-13.07c-.38,0-.69.31-.69.69v1.54c0,.38.31.69.69.69h12.83c4.34,0,6.03-1.84,6.03-4.45-.04-3.07-2.42-4.22-6.03-4.53Zm-132.96.61h1.84c.38,0,.69.31.69.65v7.06c0,.38-.31.69-.69.69h-11.57c-5.53,0-7.42-2.69-7.42-7.76s1.88-7.68,7.42-7.68h11.37c.38,0,.69.31.69.69v1.77c0,.38-.31.69-.69.69h-11.37c-3.69,0-4.15,1.61-4.15,4.57s.46,4.57,4.15,4.57h8.34c.38,0,.69-.31.69-.69v-3.88c0-.38.31-.69.69-.69Zm63.29-7.03h2.46c.39,0,.69.31.77.69v14.05c0,.38-.31.69-.69.69h-1.81c-.38,0-.69-.31-.69-.69v-9.45c0-.61-.81-.92-1.23-.42l-5.92,7.14c-.15.15-.35.23-.54.23h-1.85c-.23,0-.42-.08-.54-.23l-5.92-7.14c-.42-.5-1.23-.23-1.23.42v9.45c0,.38-.31.69-.69.69h-1.81c-.39,0-.69-.31-.69-.69V6.95c0-.38.31-.69.69-.69h2.46c1.19,0,1.73.61,2.19,1.19l5.88,7.22c.27.35.81.35,1.08,0l5.88-7.22c.46-.58,1-1.19,2.19-1.19Zm16.1,0h-1.84c-.38,0-.69.31-.69.69v14.05c0,.38.31.69.69.69h1.84c.38,0,.69-.31.69-.69V6.95c0-.38-.31-.69-.69-.69Zm27.75,0h1.85c.38,0,.69.31.69.69v7.29c0,5.57-2.65,7.68-9.57,7.68s-9.57-2.11-9.57-7.68v-7.29c0-.38.31-.69.69-.69h1.85c.38,0,.69.31.69.69v7.29c0,3.69,1.27,4.53,6.34,4.53s6.34-.84,6.34-4.53v-7.29c0-.38.31-.69.69-.69Zm-91.77,0h16.45c.39,0,.69.31.69.69v1.69c0,.38-.31.69-.69.69h-15.76v3.19h15.76c.39,0,.69.31.69.69v1.54c0,.38-.31.69-.69.69h-15.76v3.19h15.76c.39,0,.69.31.69.69v1.73c0,.38-.31.69-.69.69h-18.14c-.38,0-.69-.31-.69-.69V6.95c0-.38.31-.69.69-.69h1.69Z"/><path class="cls-2" d="m14.72,6.26h3.11c.88,0,1.58-.69,1.58-1.57V1.57c0-.88-.69-1.57-1.58-1.57h-3.11c-.88,0-1.58.69-1.58,1.57v3.11c0,.88.69,1.57,1.58,1.57Zm16.91,0h-3.11c-.88,0-1.58-.69-1.58-1.57V1.57c0-.88.69-1.57,1.58-1.57h3.11c.88,0,1.58.69,1.58,1.57v3.11c0,.88-.73,1.57-1.58,1.57Zm13.76,0h-3.11c-.88,0-1.58-.69-1.58-1.57V1.57c0-.88.69-1.57,1.58-1.57h3.11c.88,0,1.58.69,1.58,1.57v3.11c0,.88-.69,1.57-1.58,1.57Zm-27.55,10.83h-3.11c-.88,0-1.58-.69-1.58-1.57v-3.11c0-.88.69-1.57,1.58-1.57h3.11c.88,0,1.58.69,1.58,1.57v3.11c0,.88-.69,1.57-1.58,1.57Zm10.68,10.9h3.11c.85,0,1.58-.73,1.58-1.57v-3.11c0-.88-.69-1.57-1.58-1.57h-3.11c-.88,0-1.58.69-1.58,1.57v3.11c0,.88.69,1.57,1.58,1.57Zm-10.68,0h-3.11c-.88,0-1.58-.69-1.58-1.57v-3.11c0-.88.69-1.57,1.58-1.57h3.11c.88,0,1.58.69,1.58,1.57v3.11c0,.84-.69,1.57-1.58,1.57Zm24.44-10.9h3.11c.88,0,1.58-.69,1.58-1.57v-3.11c0-.88-.69-1.57-1.58-1.57h-3.11c-.88,0-1.58.69-1.58,1.57v3.11c0,.88.69,1.57,1.58,1.57Zm3.11,10.9h-3.11c-.88,0-1.58-.69-1.58-1.57v-3.11c0-.88.69-1.57,1.58-1.57h3.11c.88,0,1.58.69,1.58,1.57v3.11c0,.84-.69,1.57-1.58,1.57ZM2.08,16.09h.81c.88,0,1.61-.69,1.61-1.61v-.81c0-.88-.73-1.61-1.61-1.61h-.81c-.88,0-1.61.73-1.61,1.61v.81c0,.88.73,1.61,1.61,1.61Zm.42,10.37c-.88,0-1.61-.73-1.61-1.61s.73-1.61,1.61-1.61,1.61.73,1.61,1.61-.73,1.61-1.61,1.61ZM1.61,5.61h1.77c.88,0,1.58-.69,1.61-1.61v-1.77c0-.88-.73-1.61-1.61-1.61h-1.77c-.88,0-1.61.73-1.61,1.61v1.77c0,.88.73,1.61,1.61,1.61Z"/><path class="cls-1" d="m31.63,17.09h-3.11c-.88,0-1.58-.69-1.58-1.57v-3.11c0-.88.69-1.57,1.58-1.57h3.11c.88,0,1.58.69,1.58,1.57v3.11c0,.88-.73,1.57-1.58,1.57Z"/></g></svg>