<svg width="24" height="24" viewBox="0 0 24 24" fill="none" xmlns="http://www.w3.org/2000/svg"><g clip-path="url(#clip0_3746_35462)"><path d="M12 1C5.92 1 1 5.92 1 12C1 18.08 5.92 23 12 23C18.08 23 23 18.08 23 12C23 5.92 18.08 1 12 1ZM17.83 9.33L17.75 9.42L10.25 16.72C9.92 17.04 9.42 17.07 9.06 16.8L8.97 16.72L5.26 13.09C4.94 12.75 4.95 12.21 5.29 11.89C5.61 11.58 6.11 11.55 6.46 11.82L6.55 11.9L9.61 14.9L16.5 8.19C16.82 7.88 17.32 7.85 17.67 8.11L17.77 8.2L17.85 8.3C18.07 8.61 18.06 9.03 17.84 9.32L17.83 9.33Z" fill="#06B365"/></g><defs><clipPath id="clip0_3746_35462"><rect width="22" height="22" fill="white" transform="translate(1 1)"/></clipPath></defs></svg>