<svg width="19" height="21" viewBox="0 0 19 21" fill="none" xmlns="http://www.w3.org/2000/svg"><path d="M15.9031 6.20513C16.1138 6.21889 16.3109 6.30665 16.4547 6.45065C16.5985 6.59464 16.6782 6.78413 16.6777 6.98077V17.8397C16.6608 18.4519 16.3922 19.0347 15.9272 19.4677C15.4623 19.9008 14.8365 20.151 14.1792 20.1667C10.848 20.1667 7.51678 20.1667 4.18556 20.1667C3.52825 20.151 2.90252 19.9008 2.43758 19.4677C1.97264 19.0347 1.704 18.4519 1.68714 17.8397V6.98077C1.66947 6.77506 1.74027 6.57123 1.88395 6.41413C2.02764 6.25704 2.23245 6.15953 2.45332 6.14308C2.6742 6.12662 2.89304 6.19256 3.06172 6.32638C3.2304 6.4602 3.33508 6.65095 3.35275 6.85667C3.35689 6.89794 3.35689 6.93949 3.35275 6.98077C3.35275 10.603 3.35275 14.2175 3.35275 17.8397C3.35275 18.0455 3.4405 18.2427 3.59668 18.3882C3.75286 18.5337 3.96469 18.6154 4.18556 18.6154C7.51678 18.6154 10.848 18.6154 14.1792 18.6154C14.4001 18.6154 14.6119 18.5337 14.7681 18.3882C14.9243 18.2427 15.012 18.0455 15.012 17.8397V6.98077C15.0098 6.79371 15.0802 6.61219 15.2102 6.46966C15.3403 6.32712 15.5213 6.23318 15.7199 6.20513C15.7808 6.19885 15.8423 6.19885 15.9031 6.20513ZM10.9063 7.75641C11.0011 7.75537 11.095 7.77391 11.1811 7.8107C11.3183 7.86374 11.4377 7.94996 11.527 8.06042C11.6163 8.17089 11.6723 8.30158 11.6891 8.43897C11.6913 8.47021 11.6885 8.50158 11.6808 8.53205V14.7372C11.6813 14.8554 11.6528 14.9721 11.5975 15.0785C11.5345 15.2004 11.4383 15.3048 11.3185 15.3814C11.1988 15.458 11.0595 15.5041 10.9147 15.5151C10.7699 15.526 10.6245 15.5015 10.493 15.444C10.3615 15.3865 10.2485 15.2979 10.1651 15.1871C10.0663 15.0552 10.0139 14.898 10.0152 14.7372V8.53205C10.0096 8.44495 10.0238 8.35773 10.0568 8.27609C10.1077 8.13754 10.1995 8.01521 10.3218 7.92325C10.4442 7.83128 10.5919 7.77344 10.7481 7.75641H10.9063ZM7.57508 7.75641C7.66721 7.7552 7.75841 7.77378 7.84158 7.8107C7.9787 7.86374 8.09811 7.94996 8.18743 8.06042C8.27675 8.17089 8.33274 8.30158 8.34959 8.43897C8.35449 8.46983 8.35449 8.50119 8.34959 8.53205V14.7372C8.35011 14.8554 8.32162 14.9721 8.26631 15.0785C8.20328 15.2004 8.1071 15.3048 7.98732 15.3814C7.86754 15.458 7.72832 15.5041 7.58351 15.5151C7.43869 15.526 7.29331 15.5015 7.16181 15.444C7.03031 15.3865 6.91725 15.2979 6.83388 15.1871C6.73831 15.0537 6.68625 14.8975 6.68398 14.7372V8.53205C6.67591 8.44411 6.69316 8.35576 6.73395 8.27609C6.78476 8.13754 6.87663 8.01521 6.99895 7.92325C7.12127 7.83128 7.26904 7.77344 7.42518 7.75641H7.57508ZM5.01837 3.10256V0.775641C5.01638 0.68806 5.03337 0.601004 5.06833 0.51968C5.11914 0.381128 5.21102 0.258798 5.33334 0.166835C5.45566 0.0748724 5.60343 0.0170314 5.75956 0H12.5553C12.65 0.00594095 12.7429 0.0269271 12.8301 0.0620512C12.9672 0.115088 13.0866 0.201304 13.1759 0.311769C13.2653 0.422233 13.3212 0.552929 13.3381 0.690321L13.3464 0.775641V3.10256H17.5771H17.7187C17.8773 3.14265 18.0196 3.22554 18.1277 3.34079C18.2358 3.45605 18.3049 3.59852 18.3263 3.75027C18.3476 3.90202 18.3203 4.05626 18.2478 4.19358C18.1752 4.33091 18.0607 4.44517 17.9185 4.52199C17.8011 4.60541 17.6581 4.65162 17.5105 4.65385H0.854335C0.807253 4.6581 0.75984 4.6581 0.712758 4.65385C0.539451 4.63033 0.378513 4.55653 0.252828 4.44294C0.127144 4.32934 0.0431092 4.18173 0.0126731 4.0211C-0.017763 3.86047 0.00694865 3.69499 0.0832945 3.54819C0.15964 3.40139 0.283734 3.28074 0.437932 3.2034C0.562357 3.13083 0.707718 3.09563 0.854335 3.10256H5.01837ZM11.6808 3.10256V1.55128H6.68398V3.10256H11.6808Z" fill="#7A7A80"/></svg>