<svg xmlns="http://www.w3.org/2000/svg" viewBox="0 0 2479.893 744.915"><defs><clipPath id="a" clipPathUnits="userSpaceOnUse"><path d="M-780.808 372.463h1859.92v-558.686h-1859.92Z"/></clipPath><clipPath id="b" clipPathUnits="userSpaceOnUse"><path d="M0 558.686h1859.921V0H0Z"/></clipPath><clipPath id="c" clipPathUnits="userSpaceOnUse"><path d="M-1083.072 372.445H776.85V-186.24h-1859.92Z"/></clipPath><clipPath id="d" clipPathUnits="userSpaceOnUse"><path d="M0 558.686h1859.921V0H0Z"/></clipPath><clipPath id="e" clipPathUnits="userSpaceOnUse"><path d="M-1523.467 186.24h1859.92v-558.685h-1859.92Z"/></clipPath><clipPath id="f" clipPathUnits="userSpaceOnUse"><path d="M-330.716 188.066h1859.921V-370.62H-330.716Z"/></clipPath><clipPath id="g" clipPathUnits="userSpaceOnUse"><path d="M0 558.686h1859.921V0H0Z"/></clipPath><clipPath id="h" clipPathUnits="userSpaceOnUse"><path d="M-478.355 186.24h1859.921v-558.685H-478.355Z"/></clipPath><clipPath id="i" clipPathUnits="userSpaceOnUse"><path d="M-1432.031 301.725h1859.92v-558.686h-1859.92Z"/></clipPath></defs><path d="m0 0-82.153 184.397h39.642L7.301 72.769a27343.64 27343.64 0 0 0 24.649 55.945 6629.309 6629.309 0 0 0 24.915 55.683h39.642L15.127 0Z" clip-path="url(#a)" style="fill:#00a1e0;fill-opacity:1;fill-rule:nonzero;stroke:none" transform="matrix(1.33333 0 0 -1.33333 1041.078 496.618)"/><path d="M928.456 370.62h35.991V188.048h-35.991z" clip-path="url(#b)" style="fill:#00a1e0;fill-opacity:1;fill-rule:nonzero;stroke:none" transform="matrix(1.33333 0 0 -1.33333 0 744.915)"/><path d="M0 0c-8.003 0-15.74 1.132-23.209 3.389a86.106 86.106 0 0 0-21.132 9.65h.267c-4.699 2.958-8.874 6.173-12.524 9.651-3.651 3.477-6.173 6-7.559 7.563l27.118 25.04c1.217-1.564 3.171-3.433 5.871-5.61 2.691-2.176 5.782-4.259 9.264-6.257a69.021 69.021 0 0 1 10.952-5.085c3.82-1.395 7.47-2.088 10.952-2.088 2.958 0 5.907.347 8.865 1.044 2.957.693 5.649 1.781 8.091 3.26 2.434 1.474 4.433 3.433 5.996 5.867 1.563 2.433 2.345 5.48 2.345 9.131 0 1.39-.48 2.909-1.43 4.565-.959 1.648-2.612 3.429-4.956 5.343-2.345 1.914-5.605 3.957-9.78 6.133-4.175 2.172-9.389 4.472-15.651 6.911-7.301 2.78-14.087 5.778-20.34 8.997-6.262 3.216-11.698 6.995-16.308 11.348-4.61 4.343-8.172 9.299-10.694 14.864-2.523 5.565-3.775 11.996-3.775 19.301 0 7.475 1.385 14.474 4.174 20.994 2.772 6.524 6.733 12.169 11.867 16.956 5.125 4.779 11.298 8.514 18.511 11.214 7.212 2.692 15.171 4.042 23.867 4.042 4.698 0 9.69-.609 15.002-1.826a119.26 119.26 0 0 0 15.517-4.694c5.037-1.914 9.78-4.13 14.212-6.653 4.432-2.522 8.128-5.085 11.085-7.692l-22.428-28.17A124.139 124.139 0 0 1 24 143.45c-2.967 1.563-6.351 3.038-10.179 4.432a34.089 34.089 0 0 1-11.734 2.087c-7.301 0-13.003-1.434-17.08-4.303-4.095-2.869-6.129-6.999-6.129-12.387 0-2.438.737-4.654 2.212-6.652 1.474-2.003 3.481-3.829 6.004-5.476 2.514-1.657 5.427-3.176 8.731-4.566a144.209 144.209 0 0 1 10.437-3.913c10.428-4.001 19.213-8.043 26.345-12.128 7.124-4.086 12.862-8.434 17.214-13.04 4.344-4.61 7.426-9.566 9.255-14.869 1.821-5.302 2.736-11.08 2.736-17.342 0-7.653-1.563-14.865-4.69-21.647-3.135-6.781-7.434-12.653-12.915-17.605-5.471-4.956-12-8.869-19.558-11.738C17.081 1.434 8.865 0 0 0" clip-path="url(#c)" style="fill:#00a1e0;fill-opacity:1;fill-rule:nonzero;stroke:none" transform="matrix(1.33333 0 0 -1.33333 1444.095 496.594)"/><path d="M1199.358 370.62h35.991V188.048h-35.991z" clip-path="url(#d)" style="fill:#00a1e0;fill-opacity:1;fill-rule:nonzero;stroke:none" transform="matrix(1.33333 0 0 -1.33333 0 744.915)"/><path d="M0 0h15.908l98.594-109.541V-1.825h35.991v-184.398h-16.174L35.991-76.939v-107.458H0Z" clip-path="url(#e)" style="fill:#00a1e0;fill-opacity:1;fill-rule:nonzero;stroke:none" transform="matrix(1.33333 0 0 -1.33333 2031.29 248.32)"/><path d="M0 0v-182.572h-36.258v73.031h-72.506v-73.031h-35.991V0h35.991v-73.031h72.506V0Z" clip-path="url(#f)" style="fill:#00a1e0;fill-opacity:1;fill-rule:nonzero;stroke:none" transform="matrix(1.33333 0 0 -1.33333 440.955 250.755)"/><path d="M611.523 370.62h35.991V188.048h-35.991z" clip-path="url(#g)" style="fill:#00a1e0;fill-opacity:1;fill-rule:nonzero;stroke:none" transform="matrix(1.33333 0 0 -1.33333 0 744.915)"/><path d="M0 0h-15.384l-81.114-184.397h39.642c2.088 5.04 49.297 111.89 49.297 111.89l49.812-111.89h39.909z" clip-path="url(#h)" style="fill:#00a1e0;fill-opacity:1;fill-rule:nonzero;stroke:none" transform="matrix(1.33333 0 0 -1.33333 637.807 248.32)"/><path d="M0 0c-3.05-6.88-7.158-12.915-12.336-18.097-5.186-5.186-11.221-9.295-18.096-12.331-6.885-3.041-14.263-4.556-22.125-4.556-7.861 0-15.33 1.474-22.388 4.423-7.058 2.95-13.176 7.013-18.362 12.199-5.186 5.182-9.295 11.258-12.336 18.229-3.04 6.972-4.556 14.386-4.556 22.252s1.516 15.285 4.556 22.256c3.041 6.972 7.15 13.089 12.336 18.367 5.186 5.268 11.258 9.423 18.234 12.463 6.967 3.041 14.473 4.561 22.516 4.561 7.689 0 14.975-1.52 21.85-4.561 6.885-3.04 12.957-7.195 18.234-12.463C-7.204 57.464-3.05 51.347 0 44.375c3.032-6.971 4.556-14.39 4.556-22.256S3.032 6.88 0 0m32.462 59.662c-5.213 11.41-12.115 21.266-20.688 29.578-8.583 8.311-18.484 14.766-29.714 19.369-11.23 4.594-22.766 6.893-34.619 6.893-13.443 0-25.82-2.566-37.14-7.693-11.32-5.131-21.131-11.979-29.442-20.557-8.312-8.578-14.817-18.529-19.497-29.844-4.688-11.32-7.028-23.079-7.028-35.284 0-14.147 2.647-26.922 7.959-38.332 5.303-11.406 12.332-21.136 21.086-29.181 8.754-8.049 18.701-14.283 29.84-18.7 11.148-4.423 22.55-6.632 34.222-6.632 13.443 0 25.865 2.562 37.275 7.693 11.401 5.127 21.222 12.025 29.443 20.693 8.221 8.664 14.635 18.57 19.233 29.709 4.599 11.144 6.903 22.726 6.903 34.75 0 13.619-2.62 26.132-7.833 37.538" clip-path="url(#i)" style="fill:#00a1e0;fill-opacity:1;fill-rule:nonzero;stroke:none" transform="matrix(1.33333 0 0 -1.33333 1909.375 402.3)"/></svg>
