<?xml version="1.0" encoding="utf-8"?>
<!-- Generator: Adobe Illustrator 25.2.0, SVG Export Plug-In . SVG Version: 6.00 Build 0)  -->
<svg version="1.1" id="Layer_1" xmlns="http://www.w3.org/2000/svg" xmlns:xlink="http://www.w3.org/1999/xlink" x="0px" y="0px"
	 width="816.4px" height="533.2px" viewBox="0 0 816.4 533.2" style="enable-background:new 0 0 816.4 533.2;" xml:space="preserve"
	>
<style type="text/css">
	.st0{fill:#344A5E;}
	.st1{fill:#344A5E;stroke:#344A5E;stroke-width:1.44;stroke-miterlimit:10;}
	.st2{fill:#2BA24C;}
	.st3{fill:#FFFFFF;}
	.st4{fill:#2571B7;}
	.st5{fill-rule:evenodd;clip-rule:evenodd;fill:#FFFFFF;}
	.st6{fill-rule:evenodd;clip-rule:evenodd;fill:#FFFFFF;stroke:#FFFFFF;}
	.st7{fill-rule:evenodd;clip-rule:evenodd;fill:#2BA24C;}
	.st8{font-family:'MyriadPro-Regular';}
	.st9{font-size:14.4px;}
	.st10{font-size:12.96px;}
	.st11{fill:none;}
	.st12{fill:none;stroke:#344A5E;stroke-width:1.44;stroke-miterlimit:10;}
</style>
<path class="st0" d="M376.9,204.9l5.8-10h-11.5L376.9,204.9z M375.9,144.9v51h2v-51H375.9z"/>
<rect x="374.3" y="317.8" class="st1" width="0.4" height="102.5"/>
<g>
	<path class="st2" d="M616.2,375.5h122c5.5,0,10,4.5,10,10v92c0,5.5-4.5,10-10,10h-122c-5.5,0-10-4.5-10-10v-92
		C606.2,380,610.7,375.5,616.2,375.5z"/>
	<g>
		<path class="st3" d="M660,399h-1.7c-2.9,0-5.2,2.3-5.2,5.2v3.2h12.5L660,399z"/>
	</g>
	<g>
		<path class="st3" d="M683.9,407.4l-5.6-8.4H665l5.6,8.4H683.9z"/>
	</g>
	<g>
		<path class="st3" d="M691.1,399h-7.9l5.6,8.4h7.4v-3.2C696.3,401.3,694,399,691.1,399z"/>
	</g>
	<g>
		<path class="st3" d="M653.2,411.6V437c0,2.9,2.3,5.2,5.2,5.2h32.8c2.9,0,5.2-2.3,5.2-5.2v-25.5h-43.2V411.6z M681.4,427.8
			l-9.8,5.7c-0.3,0.2-0.6,0.2-0.9,0.2s-0.6-0.1-0.9-0.2c-0.5-0.3-0.9-0.9-0.9-1.5v-11.3c0-0.6,0.3-1.2,0.9-1.5
			c0.5-0.3,1.2-0.3,1.7,0l9.8,5.7c0.5,0.3,0.9,0.9,0.9,1.5C682.3,426.9,682,427.5,681.4,427.8L681.4,427.8z"/>
	</g>
</g>
<g>
	<path class="st2" d="M313.9,205.1h122c5.5,0,10,4.5,10,10v92c0,5.5-4.5,10-10,10h-122c-5.5,0-10-4.5-10-10v-92
		C303.9,209.6,308.3,205.1,313.9,205.1z"/>
	<g>
		<g>
			<path class="st3" d="M369.2,248.5c1.2-0.8,2.4-1.7,3.4-2.8l3.5,2l3.2-5.6l-3.5-2c0.4-1.3,0.7-2.8,0.8-4.3l4-0.7l-1.1-6.3l-4,0.7
				c-0.6-1.4-1.3-2.6-2.2-3.8l2.6-3.1l-4.9-4.1l-2.6,3.1c-1.3-0.7-2.7-1.2-4.1-1.5V216h-6.4v4.1c-1.5,0.3-2.9,0.8-4.1,1.5l-2.6-3.1
				l-4.9,4.1l2.6,3.1c-0.9,1.2-1.6,2.4-2.2,3.8l-4-0.7l-1.1,6.3l4,0.7c0.1,1.5,0.3,3,0.8,4.3l-3.5,2l3.2,5.6l3.5-2
				c1,1.1,2.1,2,3.4,2.8l-1.4,3.9l6.1,2.2l1.4-3.8c0.7,0.1,1.5,0.2,2.2,0.2s1.5-0.1,2.2-0.2l1.4,3.8l6.1-2.2L369.2,248.5z
				 M360.9,243.5c-4.5,0-8.2-3.7-8.2-8.2s3.7-8.2,8.2-8.2s8.2,3.7,8.2,8.2S365.4,243.5,360.9,243.5z"/>
			<path class="st3" d="M396.9,253.4l-2.8,0.9c-0.5-0.9-1.2-1.7-2-2.5l1.6-2.5l-3.9-2.5l-1.6,2.5c-1-0.3-2-0.6-3.1-0.7l-0.4-2.9
				l-4.5,0.6l0.4,2.9c-1,0.3-2,0.8-2.8,1.5l-2.2-2l-3.1,3.4l2.2,2c-0.5,0.9-1,1.9-1.2,2.9l-2.9-0.1l-0.2,4.6l2.9,0.1
				c0.2,1.1,0.5,2.1,1,3l-2.3,1.8l2.9,3.6l2.3-1.8c0.8,0.7,1.7,1.2,2.7,1.7l-0.6,2.9l4.5,1l0.6-2.9c0.5,0,1.1-0.1,1.6-0.1
				c0.5-0.1,1.1-0.2,1.6-0.3l1.3,2.6l4.1-2.2l-1.3-2.6c0.8-0.7,1.5-1.5,2.1-2.4l2.7,1.1l1.7-4.3l-2.7-1.1c0.2-1,0.2-2.1,0.1-3.1
				l2.8-0.9L396.9,253.4z M385.2,265.7c-3.2,0.4-6.2-1.8-6.7-5c-0.4-3.2,1.8-6.2,5-6.7c3.2-0.4,6.2,1.8,6.7,5
				C390.7,262.3,388.4,265.2,385.2,265.7z"/>
			<path class="st3" d="M403.1,237.4l0.1-3.6l-2.3-0.1c-0.2-0.8-0.4-1.6-0.8-2.4l1.8-1.5l-2.2-2.9l-1.8,1.4c-0.6-0.6-1.3-1-2.1-1.3
				l0.4-2.2l-3.6-0.7l-0.4,2.2c-0.8,0-1.6,0.1-2.5,0.3l-1.1-2l-3.2,1.7l1.1,2c-0.6,0.6-1.2,1.2-1.6,1.9l-2.1-0.8l-1.3,3.4l2.1,0.8
				c-0.1,0.8-0.2,1.6-0.1,2.5l-2.2,0.7l1.1,3.5l2.2-0.7c0.4,0.7,1,1.4,1.5,2l-1.2,2l3.1,1.9l1.2-2c0.8,0.3,1.6,0.4,2.4,0.5l0.3,2.3
				l3.6-0.5l-0.3-2.3c0.4-0.1,0.8-0.3,1.1-0.5c0.4-0.2,0.7-0.4,1.1-0.7l1.7,1.5l2.4-2.7l-1.7-1.5c0.4-0.7,0.7-1.5,0.9-2.3
				L403.1,237.4z M394.4,239.3c-2.2,1.2-5.1,0.4-6.3-1.9c-1.2-2.2-0.4-5.1,1.9-6.3c2.2-1.2,5.1-0.4,6.3,1.9
				C397.5,235.3,396.7,238.2,394.4,239.3z"/>
		</g>
	</g>
</g>
<g>
	<path class="st4" d="M414,375.5h122c5.5,0,10,4.5,10,10v92c0,5.5-4.5,10-10,10H414c-5.5,0-10-4.5-10-10v-92
		C404,380,408.5,375.5,414,375.5z"/>
	<g>
		<path class="st5" d="M475,395.3c-0.4,0-0.7-0.3-0.7-0.7v-5.2c0-0.4,0.3-0.7,0.7-0.7s0.7,0.3,0.7,0.7v5.2
			C475.7,395,475.4,395.3,475,395.3z"/>
		<g>
			<path class="st5" d="M475,390.1c-1.9,0-3.5-1.6-3.5-3.5s1.6-3.5,3.5-3.5s3.5,1.6,3.5,3.5S476.9,390.1,475,390.1z"/>
		</g>
		<path class="st5" d="M497.2,412.5H492c-0.4,0-0.7-0.3-0.7-0.7c0-0.4,0.3-0.7,0.7-0.7h5.2c0.4,0,0.7,0.3,0.7,0.7
			S497.6,412.5,497.2,412.5z"/>
		<g>
			<path class="st5" d="M500.1,415.3c-1.9,0-3.5-1.6-3.5-3.5s1.6-3.5,3.5-3.5s3.5,1.6,3.5,3.5C503.6,413.8,502,415.3,500.1,415.3z"
				/>
		</g>
		<path class="st5" d="M474.7,434.6c-0.4,0-0.7-0.3-0.7-0.7v-5.2c0-0.4,0.3-0.7,0.7-0.7s0.7,0.3,0.7,0.7v5.2
			C475.4,434.3,475,434.6,474.7,434.6z"/>
		<path class="st5" d="M474.7,440.3c-1.9,0-3.5-1.6-3.5-3.5s1.6-3.5,3.5-3.5s3.5,1.6,3.5,3.5C478.2,438.7,476.6,440.3,474.7,440.3z"
			/>
		<path class="st5" d="M458,412.2h-5.2c-0.4,0-0.7-0.3-0.7-0.7c0-0.4,0.3-0.7,0.7-0.7h5.2c0.4,0,0.7,0.3,0.7,0.7
			C458.6,411.9,458.3,412.2,458,412.2z"/>
		<g>
			<path class="st5" d="M449.9,415c-1.9,0-3.5-1.6-3.5-3.5s1.6-3.5,3.5-3.5s3.5,1.6,3.5,3.5C453.5,413.5,451.9,415,449.9,415z"/>
		</g>
		<path class="st5" d="M490.8,396.5c-0.2,0-0.3-0.1-0.5-0.2c-0.3-0.3-0.3-0.7,0-1l2.3-2.2c0.3-0.3,0.7-0.3,0.9,0
			c0.3,0.3,0.3,0.7,0,0.9l-2.2,2.3C491.1,396.5,491,396.5,490.8,396.5z"/>
		<path class="st5" d="M494.9,395c-0.8,0-1.7-0.3-2.3-1c-0.6-0.6-1-1.4-1-2.3s0.3-1.7,1-2.3c1.3-1.3,3.4-1.3,4.7,0s1.3,3.4,0,4.7
			C496.6,394.7,495.7,395,494.9,395z"/>
		<path class="st5" d="M493,430.4c-0.2,0-0.3-0.1-0.5-0.2l-2.3-2.3c-0.3-0.3-0.3-0.7,0-0.9c0.3-0.3,0.7-0.3,1,0l2.2,2.2
			c0.3,0.3,0.3,0.7,0,1C493.4,430.3,493.2,430.4,493,430.4z"/>
		<path class="st5" d="M494.9,435c-0.8,0-1.7-0.3-2.3-1c-1.3-1.3-1.3-3.4,0-4.7c0.6-0.6,1.5-1,2.3-1c0.9,0,1.7,0.3,2.3,1
			c1.3,1.3,1.3,3.4,0,4.7C496.6,434.6,495.7,435,494.9,435z"/>
		<path class="st5" d="M457,430.4c-0.2,0-0.4-0.1-0.5-0.2c-0.3-0.3-0.3-0.7,0-1l2.2-2.2c0.3-0.3,0.7-0.3,0.9,0
			c0.3,0.3,0.3,0.7,0,0.9l-2.2,2.3C457.3,430.3,457.1,430.4,457,430.4z"/>
		<path class="st5" d="M455.1,435c-0.9,0-1.7-0.3-2.4-1c-0.6-0.6-1-1.5-1-2.4s0.4-1.7,1-2.3c0.6-0.6,1.5-1,2.4-1s1.7,0.4,2.3,1
			s1,1.5,1,2.3c0,0.9-0.4,1.7-1,2.4C456.8,434.6,455.9,435,455.1,435z"/>
		<path class="st5" d="M459.2,396.5c-0.2,0-0.3-0.1-0.5-0.2l-2.2-2.3c-0.3-0.3-0.3-0.7,0-0.9c0.2-0.3,0.7-0.3,0.9,0l2.2,2.2
			c0.3,0.3,0.3,0.7,0,1C459.5,396.5,459.4,396.5,459.2,396.5z"/>
		<path class="st5" d="M455.1,395c-0.9,0-1.7-0.3-2.4-1c-0.6-0.6-1-1.4-1-2.3s0.4-1.7,1-2.3c0.6-0.6,1.5-1,2.4-1s1.7,0.3,2.3,1
			c0.6,0.6,1,1.5,1,2.3c0,0.9-0.4,1.7-1,2.3C456.8,394.7,456,395,455.1,395z"/>
		<path class="st6" d="M481.4,429.4h-13.5c-6.6,0-12-5.4-12-12v-11.2c0-6.6,5.4-12,12-12h13.5c6.6,0,12,5.4,12,12v11.2
			C493.4,424,488,429.4,481.4,429.4z"/>
	</g>
</g>
<g>
	<path class="st2" d="M213.4,375.5h122c5.5,0,10,4.5,10,10v92c0,5.5-4.5,10-10,10h-122c-5.5,0-10-4.5-10-10v-92
		C203.4,380,207.9,375.5,213.4,375.5z"/>
	<g>
		<g>
			<path class="st5" d="M294.3,407.2h-39.8c-1.6,0-3-1.3-3-3v-6.6c0-1.6,1.4-3,3-3h39.8c1.6,0,3,1.4,3,3v6.6
				C297.3,405.9,295.9,407.2,294.3,407.2z"/>
			<circle class="st7" cx="290.8" cy="401.3" r="1.7"/>
		</g>
		<g>
			<path class="st5" d="M294.4,421.4h-39.8c-1.6,0-3-1.4-3-3v-6.6c0-1.6,1.4-3,3-3h39.8c1.7,0,3,1.4,3,3v6.6
				C297.4,420.1,296,421.4,294.4,421.4z"/>
			<circle class="st7" cx="290.9" cy="415.5" r="1.7"/>
		</g>
		<g>
			<path class="st5" d="M294.4,435.6h-39.8c-1.6,0-3-1.4-3-3V426c0-1.6,1.4-3,3-3h39.8c1.7,0,3,1.4,3,3v6.6
				C297.4,434.3,296,435.6,294.4,435.6z"/>
			<circle class="st7" cx="290.9" cy="429.7" r="1.7"/>
		</g>
	</g>
</g>
<g>
	<g>
		<path class="st4" d="M116,35.5h122c5.5,0,10,4.5,10,10v92c0,5.5-4.5,10-10,10H116c-5.5,0-10-4.5-10-10v-92
			C106,40,110.5,35.5,116,35.5z"/>
		<path class="st3" d="M170.2,72.1c-0.4,0-0.7,0.4-0.7,0.8v1.5c0,0.4,0.3,0.8,0.7,0.8c0.5,0,0.9-0.3,0.9-0.8v-1.5
			C171.1,72.4,170.7,72,170.2,72.1z"/>
		<path class="st3" d="M170.2,81c-0.4,0-0.7,0.4-0.7,0.8v1.5c0,0.4,0.3,0.8,0.7,0.8c0.5,0,0.9-0.3,0.9-0.8v-1.5
			C171.1,81.3,170.7,80.9,170.2,81z"/>
		<path class="st3" d="M170.2,76.6c-0.4,0-0.7,0.4-0.7,0.8v1.5c0,0.4,0.3,0.8,0.7,0.8c0.5,0,0.9-0.3,0.9-0.8v-1.5
			C171.1,76.9,170.7,76.5,170.2,76.6z"/>
		<path class="st3" d="M170.2,67.7c-0.4,0-0.7,0.4-0.7,0.8V70c0,0.4,0.3,0.8,0.7,0.8c0.5,0,0.9-0.3,0.9-0.8v-1.5
			C171.1,68,170.7,67.6,170.2,67.7z"/>
		<path class="st3" d="M174.4,85.4c-0.4,0-0.7,0.4-0.7,0.8v1.5c0,0.4,0.3,0.8,0.7,0.8c0.5,0,0.9-0.3,0.9-0.8v-1.5
			C175.3,85.8,174.9,85.4,174.4,85.4z"/>
		<path class="st3" d="M174.4,81c-0.4,0-0.7,0.4-0.7,0.8v1.5c0,0.4,0.3,0.8,0.7,0.8c0.5,0,0.9-0.3,0.9-0.8v-1.5
			C175.3,81.3,174.9,80.9,174.4,81z"/>
		<path class="st3" d="M166.3,81c-0.4,0-0.7,0.4-0.7,0.8v1.5c0,0.4,0.3,0.8,0.7,0.8c0.5,0,0.9-0.3,0.9-0.8v-1.5
			C167.1,81.3,166.7,80.9,166.3,81z"/>
		<path class="st3" d="M170.2,85.4c-0.4,0-0.7,0.4-0.7,0.8v1.5c0,0.4,0.3,0.8,0.7,0.8c0.5,0,0.9-0.3,0.9-0.8v-1.5
			C171.1,85.8,170.7,85.4,170.2,85.4z"/>
		<path class="st3" d="M166.3,85.4c-0.4,0-0.7,0.4-0.7,0.8v1.5c0,0.4,0.3,0.8,0.7,0.8c0.5,0,0.9-0.3,0.9-0.8v-1.5
			C167.1,85.8,166.7,85.4,166.3,85.4z"/>
		<path class="st3" d="M166.3,72.1c-0.4,0-0.7,0.4-0.7,0.8v1.5c0,0.4,0.3,0.8,0.7,0.8c0.5,0,0.9-0.3,0.9-0.8v-1.5
			C167.1,72.4,166.7,72,166.3,72.1z"/>
		<path class="st3" d="M166.3,76.6c-0.4,0-0.7,0.4-0.7,0.8v1.5c0,0.4,0.3,0.8,0.7,0.8c0.5,0,0.9-0.3,0.9-0.8v-1.5
			C167.1,76.9,166.7,76.5,166.3,76.6z"/>
		<path class="st3" d="M187.5,81.9c-0.4,0-0.7,0.4-0.7,0.8v1.7c0,0.5,0.4,0.9,0.9,0.8c0.4,0,0.7-0.4,0.7-0.8v-1.7
			C188.4,82.2,188,81.8,187.5,81.9z"/>
		<path class="st3" d="M183.9,81.9c-0.4,0-0.7,0.4-0.7,0.8v1.7c0,0.5,0.4,0.9,0.9,0.8c0.4,0,0.7-0.4,0.7-0.8v-1.7
			C184.8,82.2,184.4,81.8,183.9,81.9z"/>
		<path class="st3" d="M187.7,91.5c-0.5,0-0.9,0.3-0.9,0.8V94c0,0.5,0.4,0.9,0.9,0.8c0.4,0,0.7-0.4,0.7-0.8v-1.7
			C188.4,91.9,188.1,91.5,187.7,91.5z"/>
		<path class="st3" d="M187.7,86.7c-0.5,0-0.9,0.3-0.9,0.8v1.7c0,0.5,0.4,0.9,0.9,0.8c0.4,0,0.7-0.4,0.7-0.8v-1.7
			C188.4,87.1,188.1,86.8,187.7,86.7z"/>
		<path class="st3" d="M184.1,86.7c-0.5,0-0.9,0.3-0.9,0.8v1.7c0,0.5,0.4,0.9,0.9,0.8c0.4,0,0.7-0.4,0.7-0.8v-1.7
			C184.8,87.1,184.5,86.8,184.1,86.7z"/>
		<path class="st3" d="M184.1,91.5c-0.5,0-0.9,0.3-0.9,0.8V94c0,0.5,0.4,0.9,0.9,0.8c0.4,0,0.7-0.4,0.7-0.8v-1.7
			C184.8,91.9,184.5,91.5,184.1,91.5z"/>
		<g>
			<path class="st3" d="M176.5,50.5C160.2,50.5,147,63.7,147,80s13.2,29.5,29.5,29.5S206,96.3,206,80
				C206.1,63.7,192.8,50.5,176.5,50.5z M174,97.9h-6.9v-6h6.9V97.9z M179.3,97.9h-3.9v-6.6c0-0.4-0.4-0.8-0.8-0.8h-8.1
				c-0.4,0-0.8,0.4-0.8,0.8v6.6h-4V68.7c0-0.2,0.1-0.3,0.2-0.4c0.6-0.6,1.9-1.7,4-2.9c2.6-1.4,6.9-3.1,12.9-3.2
				c0.2,0,0.4,0.2,0.4,0.4L179.3,97.9L179.3,97.9z M191.3,97.9h-10.8V80.1c0-0.4,0.3-0.6,0.6-0.6h9.5c0.4,0,0.6,0.3,0.6,0.6
				L191.3,97.9L191.3,97.9z"/>
		</g>
		<path class="st3" d="M174.4,67.7c-0.4,0-0.7,0.4-0.7,0.8V70c0,0.4,0.3,0.8,0.7,0.8c0.5,0,0.9-0.3,0.9-0.8v-1.5
			C175.3,68,174.9,67.6,174.4,67.7z"/>
		<path class="st3" d="M174.4,72.1c-0.4,0-0.7,0.4-0.7,0.8v1.5c0,0.4,0.3,0.8,0.7,0.8c0.5,0,0.9-0.3,0.9-0.8v-1.5
			C175.3,72.4,174.9,72,174.4,72.1z"/>
		<path class="st3" d="M174.4,76.6c-0.4,0-0.7,0.4-0.7,0.8v1.5c0,0.4,0.3,0.8,0.7,0.8c0.5,0,0.9-0.3,0.9-0.8v-1.5
			C175.3,76.9,174.9,76.5,174.4,76.6z"/>
	</g>
	<text transform="matrix(1 0 0 1 146.2371 134.2341)" class="st3 st8 st9">Advertiser</text>
</g>
<g>
	<g>
		<path class="st4" d="M316.4,35.5h122c5.5,0,10,4.5,10,10v92c0,5.5-4.5,10-10,10h-122c-5.5,0-10-4.5-10-10v-92
			C306.4,40,310.8,35.5,316.4,35.5z"/>
		<g>
			<path class="st5" d="M391.6,73.5c-0.6,0.3-1.2,0.6-1.8,0.8c-0.1,0-0.3,0.1-0.4,0.1c-0.4,0-0.8-0.3-1-0.7
				c-0.2-0.5,0.1-1.1,0.6-1.4c0.6-0.2,1.1-0.5,1.6-0.7c0.5-0.3,1.1-0.1,1.4,0.5C392.3,72.7,392.1,73.3,391.6,73.5z M365.9,75.2
				c-0.1,0.5-0.5,0.8-1,0.8c-0.1,0-0.1,0-0.2,0c-0.8-0.2-1.6-0.3-2.3-0.5c-0.6-0.1-0.9-0.7-0.7-1.3c0.1-0.6,0.7-0.9,1.3-0.7
				c0.7,0.2,1.4,0.3,2.2,0.5C365.7,74,366,74.6,365.9,75.2z M360.3,73.8c-0.2,0.4-0.6,0.7-1,0.7c-0.1,0-0.3,0-0.4-0.1
				c-0.6-0.3-1.3-0.5-1.8-0.8s-0.7-0.9-0.5-1.4c0.3-0.5,0.9-0.7,1.4-0.5c0.5,0.3,1.1,0.5,1.6,0.7C360.3,72.6,360.6,73.2,360.3,73.8z
				 M391.2,68c2.2-1,3.9-2.1,5.2-3.4v8c-0.6,1.9-2.7,3.7-6,5.2c-4.3,1.9-9.9,2.9-16,2.9s-11.7-1-16-2.9c-3.3-1.5-5.4-3.3-6-5.2v-8
				c1.2,1.3,3,2.4,5.2,3.4c4.5,2,10.5,3.1,16.8,3.1S386.7,70,391.2,68z M389.6,52.9c4.4,1.7,6.8,4.1,6.8,6.8s-2.4,5.1-6.8,6.8
				c-4.1,1.6-9.5,2.4-15.2,2.4s-11.1-0.9-15.2-2.4c-4.4-1.7-6.8-4.1-6.8-6.8s2.4-5.1,6.8-6.8c4.1-1.6,9.5-2.4,15.2-2.4
				S385.5,51.4,389.6,52.9z M392.1,83.8c0.3,0.5,0.1,1.1-0.5,1.4s-1.2,0.6-1.8,0.8c-0.1,0-0.3,0.1-0.4,0.1c-0.4,0-0.8-0.3-1-0.7
				c-0.2-0.5,0.1-1.1,0.6-1.4c0.6-0.2,1.1-0.5,1.6-0.7C391.2,83.1,391.8,83.3,392.1,83.8z M365.9,86.9c-0.1,0.5-0.5,0.9-1,0.9
				c-0.1,0-0.1,0-0.2,0c-0.8-0.2-1.6-0.3-2.3-0.5c-0.6-0.1-0.9-0.7-0.7-1.3c0.1-0.6,0.7-0.9,1.3-0.8c0.7,0.2,1.4,0.4,2.2,0.5
				C365.7,85.7,366,86.3,365.9,86.9z M360.3,85.5c-0.2,0.4-0.6,0.7-1,0.7c-0.1,0-0.3,0-0.4-0.1c-0.6-0.3-1.3-0.5-1.8-0.8
				s-0.7-0.9-0.5-1.4c0.3-0.5,0.9-0.7,1.4-0.5c0.5,0.3,1.1,0.5,1.6,0.7C360.3,84.3,360.6,84.9,360.3,85.5z M374.4,83
				c-6.3,0-12.3-1.1-16.8-3.1c-2.2-1-3.9-2.1-5.2-3.4v8c0.6,1.9,2.7,3.7,6,5.2c4.3,1.9,9.9,2.9,16,2.9s11.7-1,16-2.9
				c3.3-1.5,5.4-3.3,6-5.2v-8c-1.2,1.3-3,2.4-5.2,3.4C386.7,81.9,380.7,83,374.4,83z M392.1,95.9c0.3,0.5,0.1,1.1-0.5,1.4
				s-1.2,0.6-1.8,0.8c-0.1,0-0.3,0.1-0.4,0.1c-0.4,0-0.8-0.3-1-0.7c-0.2-0.5,0.1-1.1,0.6-1.4c0.6-0.2,1.1-0.5,1.6-0.7
				C391.2,95.2,391.8,95.4,392.1,95.9z M365.9,99c-0.1,0.5-0.5,0.8-1,0.8c-0.1,0-0.1,0-0.2,0c-0.8-0.2-1.6-0.3-2.3-0.5
				c-0.6-0.1-0.9-0.7-0.7-1.3c0.1-0.6,0.7-0.9,1.3-0.8c0.7,0.2,1.4,0.4,2.2,0.5C365.7,97.8,366,98.4,365.9,99z M360.3,97.6
				c-0.2,0.4-0.6,0.7-1,0.7c-0.1,0-0.3,0-0.4-0.1c-0.6-0.3-1.3-0.5-1.8-0.8s-0.7-0.9-0.5-1.4c0.3-0.5,0.9-0.7,1.4-0.5
				c0.5,0.3,1.1,0.5,1.6,0.7C360.3,96.4,360.6,97,360.3,97.6z M374.4,94.7c-6.3,0-12.3-1.1-16.8-3.1c-2.2-1-3.9-2.1-5.2-3.4v8
				c0.6,1.9,2.7,3.7,6,5.2c4.3,1.9,9.9,2.9,16,2.9s11.7-1,16-2.9c3.3-1.5,5.4-3.3,6-5.2v-8c-1.2,1.3-3,2.4-5.2,3.4
				C386.7,93.6,380.7,94.7,374.4,94.7z"/>
		</g>
	</g>
	<text transform="matrix(1 0 0 1 348.3565 134.2342)" class="st3 st8 st9">Ad Server</text>
</g>
<g>
	<g>
		<path class="st4" d="M616.7,204.4h122c5.5,0,10,4.5,10,10v92c0,5.5-4.5,10-10,10h-122c-5.5,0-10-4.5-10-10v-92
			C606.7,208.9,611.2,204.4,616.7,204.4z"/>
		<g>
			<path class="st3" d="M690.6,227.3v3.7c0,0.2,0,0.4-0.1,0.6c0,0.2-0.1,0.4-0.2,0.5c-0.1,0.2-0.2,0.3-0.3,0.5s-0.2,0.3-0.4,0.4
				c-0.1,0.1-0.3,0.3-0.4,0.4c-0.2,0.1-0.3,0.2-0.5,0.3s-0.4,0.1-0.5,0.2c-0.2,0-0.4,0.1-0.6,0.1h-23.3c-0.2,0-0.4,0-0.6-0.1
				c-0.2,0-0.4-0.1-0.5-0.2c-0.2-0.1-0.3-0.2-0.5-0.3s-0.3-0.2-0.4-0.4c-0.1-0.1-0.3-0.3-0.4-0.4c-0.1-0.2-0.2-0.3-0.3-0.5
				s-0.1-0.4-0.2-0.5c0-0.2-0.1-0.4-0.1-0.6v-3.7c0-0.2,0-0.4,0.1-0.6c0-0.2,0.1-0.4,0.2-0.5c0.1-0.2,0.2-0.3,0.3-0.5
				s0.2-0.3,0.4-0.4c0.1-0.1,0.3-0.3,0.4-0.4c0.2-0.1,0.3-0.2,0.5-0.3s0.4-0.1,0.5-0.2c0.2,0,0.4-0.1,0.6-0.1h23.3
				c0.2,0,0.4,0,0.6,0.1c0.2,0,0.4,0.1,0.5,0.2c0.2,0.1,0.3,0.2,0.5,0.3s0.3,0.2,0.4,0.4c0.1,0.1,0.3,0.3,0.4,0.4
				c0.1,0.2,0.2,0.3,0.3,0.5s0.1,0.4,0.2,0.5C690.6,226.9,690.6,227.1,690.6,227.3z"/>
		</g>
		<g>
			<path class="st3" d="M672.8,248.3v4.1c0,0.2,0,0.3-0.1,0.5c0,0.2-0.1,0.3-0.2,0.5c-0.1,0.2-0.2,0.3-0.2,0.5
				c-0.1,0.1-0.2,0.3-0.3,0.4c-0.1,0.1-0.3,0.2-0.4,0.3c-0.1,0.1-0.3,0.2-0.5,0.2c-0.2,0.1-0.3,0.1-0.5,0.2c-0.2,0-0.3,0.1-0.5,0.1
				h-18.7c-0.2,0-0.3,0-0.5-0.1c-0.2,0-0.3-0.1-0.5-0.2c-0.2-0.1-0.3-0.1-0.5-0.2c-0.1-0.1-0.3-0.2-0.4-0.3
				c-0.1-0.1-0.2-0.3-0.3-0.4c-0.1-0.1-0.2-0.3-0.2-0.5c-0.1-0.2-0.1-0.3-0.2-0.5c0-0.2-0.1-0.3-0.1-0.5v-4.1c0-0.2,0-0.3,0.1-0.5
				c0-0.2,0.1-0.3,0.2-0.5c0.1-0.2,0.1-0.3,0.2-0.5c0.1-0.1,0.2-0.3,0.3-0.4c0.1-0.1,0.3-0.2,0.4-0.3c0.1-0.1,0.3-0.2,0.5-0.2
				c0.2-0.1,0.3-0.1,0.5-0.2c0.2,0,0.3-0.1,0.5-0.1h18.7c0.2,0,0.3,0,0.5,0.1c0.2,0,0.3,0.1,0.5,0.2c0.2,0.1,0.3,0.2,0.5,0.2
				s0.3,0.2,0.4,0.3c0.1,0.1,0.2,0.3,0.3,0.4c0.1,0.1,0.2,0.3,0.2,0.5c0.1,0.2,0.1,0.3,0.2,0.5C672.7,248,672.8,248.2,672.8,248.3z"
				/>
		</g>
		<g>
			<path class="st3" d="M650.1,266.9h5.8c0.1,0,0.2,0,0.3,0s0.2,0,0.3,0.1c0.1,0,0.2,0.1,0.2,0.1c0.1,0.1,0.1,0.1,0.2,0.2
				c0.1,0.1,0.1,0.1,0.2,0.2c0.1,0.1,0.1,0.2,0.1,0.2c0,0.1,0.1,0.2,0.1,0.3c0,0.1,0,0.2,0,0.3v4.1c0,0.1,0,0.2,0,0.3
				c0,0.1,0,0.2-0.1,0.3c0,0.1-0.1,0.2-0.1,0.2c-0.1,0.1-0.1,0.1-0.2,0.2c-0.1,0.1-0.1,0.1-0.2,0.2c-0.1,0.1-0.2,0.1-0.2,0.1
				c-0.1,0-0.2,0.1-0.3,0.1s-0.2,0-0.3,0h-5.8c-0.1,0-0.2,0-0.3,0s-0.2,0-0.3-0.1c-0.1,0-0.2-0.1-0.2-0.1c-0.1-0.1-0.1-0.1-0.2-0.2
				c-0.1-0.1-0.1-0.1-0.2-0.2c-0.1-0.1-0.1-0.2-0.1-0.2c0-0.1-0.1-0.2-0.1-0.3c0-0.1,0-0.2,0-0.3v-4.1c0-0.1,0-0.2,0-0.3
				c0-0.1,0-0.2,0.1-0.3c0-0.1,0.1-0.2,0.1-0.2c0-0.1,0.1-0.1,0.2-0.2c0.1-0.1,0.1-0.1,0.2-0.2c0.1,0,0.2-0.1,0.2-0.1
				c0.1,0,0.2-0.1,0.3-0.1C649.9,266.9,650,266.9,650.1,266.9z"/>
		</g>
		<g>
			<path class="st3" d="M665.5,266.9h5.8c0.1,0,0.2,0,0.3,0s0.2,0,0.3,0.1c0.1,0,0.2,0.1,0.2,0.1c0.1,0.1,0.1,0.1,0.2,0.2
				c0.1,0.1,0.1,0.1,0.2,0.2c0.1,0.1,0.1,0.2,0.1,0.2c0,0.1,0.1,0.2,0.1,0.3c0,0.1,0,0.2,0,0.3v4.1c0,0.1,0,0.2,0,0.3
				c0,0.1,0,0.2-0.1,0.3c0,0.1-0.1,0.2-0.1,0.2c-0.1,0.1-0.1,0.1-0.2,0.2c-0.1,0.1-0.1,0.1-0.2,0.2c-0.1,0.1-0.2,0.1-0.2,0.1
				c-0.1,0-0.2,0.1-0.3,0.1s-0.2,0-0.3,0h-5.8c-0.1,0-0.2,0-0.3,0s-0.2,0-0.3-0.1c-0.1,0-0.2-0.1-0.2-0.1c-0.1-0.1-0.1-0.1-0.2-0.2
				c-0.1-0.1-0.1-0.1-0.2-0.2c0-0.1-0.1-0.2-0.1-0.2c0-0.1-0.1-0.2-0.1-0.3c0-0.1,0-0.2,0-0.3v-4.1c0-0.1,0-0.2,0-0.3
				c0-0.1,0-0.2,0.1-0.3c0-0.1,0.1-0.2,0.1-0.2c0.1-0.1,0.1-0.1,0.2-0.2c0.1-0.1,0.1-0.1,0.2-0.2c0.1,0,0.2-0.1,0.2-0.1
				c0.1,0,0.2-0.1,0.3-0.1S665.4,266.9,665.5,266.9z"/>
		</g>
		<g>
			<path class="st3" d="M703.4,248.3v4.1c0,0.2,0,0.3-0.1,0.5c0,0.2-0.1,0.3-0.2,0.5c-0.1,0.2-0.1,0.3-0.2,0.5
				c-0.1,0.1-0.2,0.3-0.3,0.4c-0.1,0.1-0.3,0.2-0.4,0.3c-0.1,0.1-0.3,0.2-0.5,0.2c-0.2,0.1-0.3,0.1-0.5,0.2c-0.2,0-0.3,0.1-0.5,0.1
				H682c-0.2,0-0.3,0-0.5-0.1c-0.2,0-0.3-0.1-0.5-0.2c-0.2-0.1-0.3-0.1-0.5-0.2c-0.1-0.1-0.3-0.2-0.4-0.3c-0.1-0.1-0.2-0.3-0.3-0.4
				c-0.1-0.1-0.2-0.3-0.2-0.5c-0.1-0.2-0.1-0.3-0.2-0.5c0-0.2-0.1-0.3-0.1-0.5v-4.1c0-0.2,0-0.3,0.1-0.5c0-0.2,0.1-0.3,0.2-0.5
				c0.1-0.2,0.1-0.3,0.2-0.5c0.1-0.1,0.2-0.3,0.3-0.4c0.1-0.1,0.3-0.2,0.4-0.3c0.1-0.1,0.3-0.2,0.5-0.2c0.2-0.1,0.3-0.1,0.5-0.2
				c0.2,0,0.3-0.1,0.5-0.1h18.7c0.2,0,0.3,0,0.5,0.1c0.2,0,0.3,0.1,0.5,0.2c0.2,0.1,0.3,0.1,0.5,0.2c0.1,0.1,0.3,0.2,0.4,0.3
				c0.1,0.1,0.2,0.3,0.3,0.4c0.1,0.1,0.2,0.3,0.2,0.5c0.1,0.2,0.1,0.3,0.2,0.5C703.4,248,703.4,248.2,703.4,248.3z"/>
		</g>
		<path class="st3" d="M692.2,242v2h-1.6v-2c0-0.1,0-0.2,0-0.3s0-0.2-0.1-0.3c0-0.1-0.1-0.2-0.1-0.3c-0.1-0.1-0.1-0.2-0.2-0.2
			c-0.1-0.1-0.1-0.1-0.2-0.2c-0.1-0.1-0.2-0.1-0.3-0.1s-0.2-0.1-0.3-0.1s-0.2,0-0.3,0H663c-0.1,0-0.2,0-0.3,0s-0.2,0-0.3,0.1
			c-0.1,0-0.2,0.1-0.3,0.1c-0.1,0.1-0.2,0.1-0.2,0.2c-0.1,0.1-0.1,0.1-0.2,0.2c-0.1,0.1-0.1,0.2-0.1,0.3s-0.1,0.2-0.1,0.3
			s0,0.2,0,0.3v2h-1.6v-2c0-0.2,0-0.4,0.1-0.6c0-0.2,0.1-0.4,0.2-0.6c0.1-0.2,0.2-0.4,0.3-0.5c0.1-0.2,0.2-0.3,0.4-0.5
			c0.1-0.1,0.3-0.3,0.5-0.4c0.2-0.1,0.3-0.2,0.5-0.3s0.4-0.1,0.6-0.2c0.2,0,0.4-0.1,0.6-0.1h12.3v-3.5h1.6v3.5h12.3
			c0.2,0,0.4,0,0.6,0.1c0.2,0,0.4,0.1,0.6,0.2c0.2,0.1,0.4,0.2,0.5,0.3c0.2,0.1,0.3,0.2,0.5,0.4c0.1,0.1,0.3,0.3,0.4,0.5
			c0.1,0.2,0.2,0.3,0.3,0.5s0.1,0.4,0.2,0.6C692.2,241.6,692.2,241.8,692.2,242z"/>
		<path class="st3" d="M669.2,263.3v2h-1.6v-2c0-0.1,0-0.2,0-0.3c0-0.1,0-0.2-0.1-0.3c0-0.1-0.1-0.2-0.1-0.3
			c-0.1-0.1-0.1-0.2-0.2-0.2c-0.1-0.1-0.1-0.1-0.2-0.2c-0.1-0.1-0.2-0.1-0.3-0.1s-0.2-0.1-0.3-0.1s-0.2,0-0.3,0h-10.8
			c-0.1,0-0.2,0-0.3,0s-0.2,0-0.3,0.1c-0.1,0-0.2,0.1-0.3,0.1c-0.1,0.1-0.2,0.1-0.2,0.2c-0.1,0.1-0.1,0.1-0.2,0.2
			c-0.1,0.1-0.1,0.2-0.1,0.3c0,0.1-0.1,0.2-0.1,0.3c0,0.1,0,0.2,0,0.3v2h-1.6v-2c0-0.2,0-0.4,0.1-0.6c0-0.2,0.1-0.4,0.2-0.6
			c0.1-0.2,0.2-0.4,0.3-0.5c0.1-0.2,0.2-0.3,0.4-0.5c0.1-0.1,0.3-0.3,0.5-0.4s0.3-0.2,0.5-0.3c0.2-0.1,0.4-0.1,0.6-0.2
			c0.2,0,0.4-0.1,0.6-0.1h4.6v-3.5h1.6v3.5h4.6c0.2,0,0.4,0,0.6,0.1c0.2,0,0.4,0.1,0.6,0.2c0.2,0.1,0.4,0.2,0.5,0.3s0.3,0.2,0.5,0.4
			c0.1,0.1,0.3,0.3,0.4,0.5c0.1,0.2,0.2,0.3,0.3,0.5s0.1,0.4,0.2,0.6C669.2,262.9,669.2,263.1,669.2,263.3z"/>
		<g>
			<path class="st3" d="M680.8,266.9h5.8c0.1,0,0.2,0,0.3,0s0.2,0,0.3,0.1c0.1,0,0.2,0.1,0.2,0.1c0.1,0.1,0.1,0.1,0.2,0.2
				c0.1,0.1,0.1,0.1,0.2,0.2c0.1,0.1,0.1,0.2,0.1,0.2c0,0.1,0.1,0.2,0.1,0.3c0,0.1,0,0.2,0,0.3v4.1c0,0.1,0,0.2,0,0.3
				c0,0.1,0,0.2-0.1,0.3c0,0.1-0.1,0.2-0.1,0.2c-0.1,0.1-0.1,0.1-0.2,0.2c-0.1,0.1-0.1,0.1-0.2,0.2c-0.1,0.1-0.2,0.1-0.2,0.1
				c-0.1,0-0.2,0.1-0.3,0.1s-0.2,0-0.3,0h-5.8c-0.1,0-0.2,0-0.3,0s-0.2,0-0.3-0.1c-0.1,0-0.2-0.1-0.2-0.1c-0.1-0.1-0.1-0.1-0.2-0.2
				c-0.1-0.1-0.1-0.1-0.2-0.2c-0.1-0.1-0.1-0.2-0.1-0.2c0-0.1-0.1-0.2-0.1-0.3c0-0.1,0-0.2,0-0.3v-4.1c0-0.1,0-0.2,0-0.3
				c0-0.1,0-0.2,0.1-0.3c0-0.1,0.1-0.2,0.1-0.2c0-0.1,0.1-0.1,0.2-0.2c0.1-0.1,0.1-0.1,0.2-0.2c0.1,0,0.2-0.1,0.2-0.1
				c0.1,0,0.2-0.1,0.3-0.1S680.7,266.9,680.8,266.9z"/>
		</g>
		<g>
			<path class="st3" d="M696.2,266.9h5.8c0.1,0,0.2,0,0.3,0s0.2,0,0.3,0.1c0.1,0,0.2,0.1,0.2,0.1c0.1,0.1,0.1,0.1,0.2,0.2
				c0.1,0.1,0.1,0.1,0.2,0.2c0.1,0.1,0.1,0.2,0.1,0.2c0,0.1,0.1,0.2,0.1,0.3c0,0.1,0,0.2,0,0.3v4.1c0,0.1,0,0.2,0,0.3
				c0,0.1,0,0.2-0.1,0.3c0,0.1-0.1,0.2-0.1,0.2c-0.1,0.1-0.1,0.1-0.2,0.2c-0.1,0.1-0.1,0.1-0.2,0.2c-0.1,0.1-0.2,0.1-0.2,0.1
				c-0.1,0-0.2,0.1-0.3,0.1s-0.2,0-0.3,0h-5.8c-0.1,0-0.2,0-0.3,0s-0.2,0-0.3-0.1c-0.1,0-0.2-0.1-0.2-0.1c-0.1-0.1-0.1-0.1-0.2-0.2
				c-0.1-0.1-0.1-0.1-0.2-0.2c0-0.1-0.1-0.2-0.1-0.2c0-0.1-0.1-0.2-0.1-0.3s0-0.2,0-0.3v-4.1c0-0.1,0-0.2,0-0.3c0-0.1,0-0.2,0.1-0.3
				c0-0.1,0.1-0.2,0.1-0.2c0.1-0.1,0.1-0.1,0.2-0.2c0.1-0.1,0.1-0.1,0.2-0.2c0.1,0,0.2-0.1,0.2-0.1c0.1,0,0.2-0.1,0.3-0.1
				S696.1,266.9,696.2,266.9z"/>
		</g>
		<path class="st3" d="M699.9,263.3v2h-1.6v-2c0-0.1,0-0.2,0-0.3c0-0.1,0-0.2-0.1-0.3c0-0.1-0.1-0.2-0.1-0.3
			c-0.1-0.1-0.1-0.2-0.2-0.2c-0.1-0.1-0.1-0.1-0.2-0.2c-0.1-0.1-0.2-0.1-0.3-0.1s-0.2-0.1-0.3-0.1s-0.2,0-0.3,0H686
			c-0.1,0-0.2,0-0.3,0s-0.2,0-0.3,0.1c-0.1,0-0.2,0.1-0.3,0.1c-0.1,0.1-0.2,0.1-0.2,0.2c-0.1,0.1-0.1,0.1-0.2,0.2
			c-0.1,0.1-0.1,0.2-0.1,0.3c0,0.1-0.1,0.2-0.1,0.3c0,0.1,0,0.2,0,0.3v2h-1.6v-2c0-0.2,0-0.4,0.1-0.6c0-0.2,0.1-0.4,0.2-0.6
			c0.1-0.2,0.2-0.4,0.3-0.5c0.1-0.2,0.2-0.3,0.4-0.5c0.1-0.1,0.3-0.3,0.5-0.4s0.3-0.2,0.5-0.3c0.2-0.1,0.4-0.1,0.6-0.2
			c0.2,0,0.4-0.1,0.6-0.1h4.6v-3.5h1.6v3.5h4.6c0.2,0,0.4,0,0.6,0.1c0.2,0,0.4,0.1,0.6,0.2c0.2,0.1,0.4,0.2,0.5,0.3
			c0.2,0.1,0.3,0.2,0.5,0.4c0.1,0.1,0.3,0.3,0.4,0.5c0.1,0.2,0.2,0.3,0.3,0.5s0.1,0.4,0.2,0.6C699.8,262.9,699.9,263.1,699.9,263.3z
			"/>
	</g>
	<text transform="matrix(1 0 0 1 632.2843 303.1425)" class="st3 st8 st9">Ad Decisioning</text>
</g>
<text transform="matrix(1 0 0 1 314.3858 302.8366)" class="st3 st8 st9">OptiView Ad Engine</text>
<text transform="matrix(1 0 0 1 215.8986 474.6278)" class="st3 st8 st9">OptiView Streaming</text>
<text transform="matrix(1 0 0 1 456.3713 474.6277)" class="st3 st8 st9">CDN</text>
<text transform="matrix(1 0 0 1 627.7427 474.6275)" class="st3 st8 st9">OptiView Player</text>
<text transform="matrix(1 0 0 1 317.3943 181.6855)" class="st8 st10">Ad Master</text>
<text transform="matrix(1 0 0 1 290.1788 351.3403)" class="st8 st10">Conformed Ad</text>
<polygon class="st11" points="340,342.5 381.3,342.5 381.3,342.5 "/>
<text transform="matrix(1 0 0 1 32.9893 438.412)" class="st8 st9">Primary Content</text>
<g>
	<line class="st11" x1="248.6" y1="95" x2="306.1" y2="95"/>
	<g>
		<line class="st12" x1="248.6" y1="95" x2="295.7" y2="95"/>
		<g>
			<polygon class="st0" points="293.6,102.2 306.1,95 293.6,87.8 			"/>
		</g>
	</g>
</g>
<g>
	<line class="st11" x1="65.8" y1="434.1" x2="203.1" y2="434.1"/>
	<g>
		<line class="st12" x1="142" y1="434.1" x2="192.8" y2="434.1"/>
		<g>
			<polygon class="st0" points="190.7,441.3 203.1,434.1 190.7,426.9 			"/>
		</g>
	</g>
</g>
<g>
	<line class="st11" x1="344.8" y1="454.9" x2="404.4" y2="454.9"/>
	<g>
		<line class="st12" x1="344.8" y1="454.9" x2="394.1" y2="454.9"/>
		<g>
			<polygon class="st0" points="392,462.1 404.4,454.9 392,447.7 			"/>
		</g>
	</g>
</g>
<g>
	<line class="st11" x1="375.3" y1="420.3" x2="404.2" y2="420.3"/>
	<g>
		<line class="st12" x1="375.3" y1="420.3" x2="393.9" y2="420.3"/>
		<g>
			<polygon class="st0" points="391.8,427.4 404.2,420.3 391.8,413.1 			"/>
		</g>
	</g>
</g>
<g>
	<line class="st11" x1="546.2" y1="435.4" x2="605.8" y2="435.4"/>
	<g>
		<line class="st12" x1="546.2" y1="435.4" x2="595.5" y2="435.4"/>
		<g>
			<polygon class="st0" points="593.4,442.6 605.8,435.4 593.4,428.2 			"/>
		</g>
	</g>
</g>
<g>
	<line class="st11" x1="677.7" y1="316.3" x2="677.7" y2="375.9"/>
	<g>
		<line class="st12" x1="677.7" y1="326.6" x2="677.7" y2="365.5"/>
		<g>
			<polygon class="st0" points="670.5,328.7 677.7,316.3 684.8,328.7 			"/>
		</g>
		<g>
			<polygon class="st0" points="670.5,363.4 677.7,375.9 684.8,363.4 			"/>
		</g>
	</g>
</g>
</svg>
