<svg xmlns="http://www.w3.org/2000/svg" viewBox="0 0 1038.123 127.809"><path d="M610.736 50.704c0-5.981-.983-11.623-2.945-16.924-1.964-5.301-4.794-9.944-8.49-13.933-3.7-3.987-8.15-7.136-13.356-9.448-5.204-2.311-11.004-3.467-17.393-3.467-6.484 0-12.304 1.156-17.461 3.467-5.16 2.312-9.567 5.461-13.216 9.448-3.655 3.989-6.462 8.632-8.424 13.933-1.964 5.301-2.946 10.943-2.946 16.924 0 5.892.982 11.487 2.946 16.788 1.962 5.301 4.77 9.947 8.424 13.933 3.65 3.988 8.056 7.16 13.216 9.516 5.157 2.358 10.977 3.534 17.461 3.534 6.483 0 12.327-1.176 17.532-3.534 5.204-2.356 9.63-5.528 13.284-9.516 3.65-3.986 6.459-8.632 8.423-13.933 1.962-5.301 2.945-10.896 2.945-16.788m8.217 0c0 7.34-1.28 14.116-3.834 20.323-2.558 6.208-6.075 11.553-10.547 16.04-4.475 4.486-9.792 7.998-15.956 10.534-6.163 2.536-12.852 3.807-20.064 3.807-7.213 0-13.88-1.27-19.996-3.807-6.119-2.536-11.413-6.048-15.887-10.534-4.474-4.487-7.99-9.832-10.546-16.04-2.558-6.207-3.835-12.983-3.835-20.323 0-7.341 1.277-14.113 3.835-20.323 2.556-6.205 6.072-11.553 10.546-16.04 4.474-4.485 9.768-7.997 15.887-10.534C554.672 1.27 561.34 0 568.552 0c7.212 0 13.901 1.27 20.064 3.807 6.164 2.537 11.481 6.049 15.956 10.534 4.472 4.487 7.99 9.835 10.547 16.04 2.554 6.21 3.834 12.982 3.834 20.323M691.678 67.152c0-3.715-.571-7.225-1.711-10.535-1.144-3.308-2.81-6.185-5-8.632-2.192-2.446-4.863-4.394-8.012-5.845-3.15-1.45-6.735-2.175-10.75-2.175-3.746 0-7.191.703-10.34 2.107-3.153 1.407-5.87 3.33-8.151 5.777-2.283 2.447-4.064 5.326-5.342 8.632-1.278 3.31-1.917 6.866-1.917 10.67 0 3.806.639 7.365 1.917 10.672 1.278 3.309 3.059 6.164 5.342 8.565 2.28 2.401 4.998 4.304 8.15 5.708 3.15 1.407 6.595 2.107 10.34 2.107 4.016 0 7.602-.7 10.75-2.107 3.15-1.404 5.82-3.33 8.013-5.777 2.19-2.447 3.856-5.322 5-8.632 1.14-3.307 1.71-6.818 1.71-10.535m-50.537 60.513h-7.396V35.48h7.396V48.12h.41c2.74-4.893 6.39-8.496 10.958-10.806 4.564-2.311 9.359-3.467 14.38-3.467 4.93 0 9.404.839 13.423 2.515 4.016 1.678 7.464 4.01 10.339 7 2.877 2.99 5.09 6.526 6.644 10.604 1.55 4.077 2.328 8.474 2.328 13.185 0 4.713-.778 9.108-2.328 13.187-1.554 4.077-3.746 7.612-6.575 10.602-2.83 2.99-6.232 5.348-10.203 7.07-3.973 1.72-8.422 2.58-13.354 2.58-2.464 0-4.954-.271-7.463-.814a27.783 27.783 0 0 1-7.123-2.584 28.876 28.876 0 0 1-6.162-4.35c-1.874-1.72-3.492-3.806-4.863-6.252h-.41zM740.83 41.733h-18.215v40.1c0 4.533.935 7.613 2.807 9.244 1.87 1.63 4.314 2.446 7.326 2.446 2.74 0 5.343-.588 7.808-1.766l.411 6.389c-1.553.544-3.15.972-4.793 1.29-1.644.318-3.426.477-5.342.477-1.918 0-3.813-.272-5.684-.816a13.084 13.084 0 0 1-5-2.72c-1.46-1.267-2.648-2.943-3.56-5.028-.913-2.084-1.369-4.667-1.369-7.75V41.733h-13.421v-6.254h13.284V17.4h7.533v18.08h18.215ZM757.948 98.825h-7.532V35.478h7.532zm1.781-88.494c0 1.631-.57 2.97-1.712 4.01-1.143 1.042-2.444 1.564-3.904 1.564-1.37 0-2.624-.522-3.765-1.564-1.143-1.04-1.712-2.379-1.712-4.01 0-1.63.569-2.966 1.712-4.01 1.141-1.04 2.396-1.563 3.765-1.563 1.46 0 2.761.523 3.904 1.563 1.141 1.044 1.712 2.38 1.712 4.01M808.185 89.174h.274l32.733-86.59h8.355l-36.979 96.24h-8.765L766.96 2.585h8.492zM866.158 98.825h-7.532V35.478h7.532zm1.782-88.494c0 1.631-.572 2.97-1.714 4.01-1.142 1.042-2.444 1.564-3.902 1.564-1.371 0-2.626-.522-3.766-1.564-1.144-1.04-1.713-2.379-1.713-4.01 0-1.63.57-2.966 1.713-4.01 1.14-1.04 2.395-1.563 3.766-1.563 1.458 0 2.76.523 3.902 1.563 1.142 1.044 1.714 2.38 1.714 4.01M933.98 62.802c-.183-3.352-.82-6.411-1.916-9.175-1.096-2.764-2.603-5.167-4.52-7.205-1.918-2.04-4.246-3.623-6.984-4.76-2.74-1.13-5.89-1.696-9.451-1.696-3.561 0-6.78.7-9.656 2.106-2.876 1.407-5.341 3.195-7.395 5.368a24.318 24.318 0 0 0-4.794 7.342c-1.143 2.718-1.76 5.393-1.85 8.02Zm-22.05 37.79c-4.656 0-8.97-.838-12.942-2.514-3.972-1.676-7.396-4.011-10.272-7.002-2.875-2.99-5.115-6.545-6.711-10.67-1.599-4.123-2.396-8.584-2.396-13.39 0-4.71.821-9.108 2.464-13.186 1.644-4.078 3.88-7.588 6.712-10.535 2.83-2.944 6.163-5.253 9.999-6.932 3.834-1.676 7.988-2.515 12.46-2.515 5.022 0 9.405.839 13.15 2.515 3.743 1.679 6.87 3.943 9.382 6.797 2.51 2.854 4.402 6.14 5.682 9.855 1.278 3.716 1.919 7.659 1.919 11.825v3.808h-54.099c.09 3.352.73 6.57 1.918 9.65 1.185 3.084 2.852 5.802 4.998 8.157 2.146 2.357 4.747 4.237 7.807 5.641 3.059 1.406 6.457 2.107 10.204 2.107 4.93 0 9.083-.928 12.463-2.787 3.377-1.856 6.526-4.506 9.45-7.952l4.93 3.943c-3.56 4.621-7.6 7.976-12.12 10.059-4.52 2.084-9.52 3.126-14.998 3.126M953.619 35.479l16.024 54.102h.275l18.214-54.102h7.532l18.49 54.102h.274l15.887-54.102h7.808L1018.4 98.825h-8.354l-18.078-53.83h-.274l-17.942 53.83h-8.354L945.675 35.48ZM331.076 2.995h14.529v95.828h-14.53zM288.466 85.608c-11.111 0-20.023-9.035-20.023-20.023 0-11.11 9.035-20.023 20.023-20.023s20.022 9.035 20.022 20.023c0 11.11-9.034 20.023-20.022 20.023m0-53.11c-18.314 0-33.208 14.895-33.208 33.208 0 18.315 14.894 33.21 33.208 33.21 18.313 0 33.208-14.895 33.208-33.21 0-18.313-14.895-33.208-33.208-33.208M136.325 98.823h-14.139c-26.398 0-47.918-21.52-47.918-47.92 0-26.399 21.52-47.919 47.918-47.919h14.139ZM0 2.984H14.14c26.398 0 47.918 21.52 47.918 47.92 0 26.399-21.52 47.919-47.918 47.919H0ZM391.36 85.612c-8.884 0-16.348-5.783-18.99-13.716a19.939 19.939 0 0 1-1.033-6.307c0-2.215.372-4.335 1.033-6.321 2.659-7.982 10.191-13.702 18.99-13.702 10.988 0 20.022 9.035 20.022 20.023 0 11.11-9.034 20.023-20.022 20.023m0-53.11a33.018 33.018 0 0 0-18.99 5.987V2.996h-14.557v95.828h14.557v-5.891a33.028 33.028 0 0 0 18.99 5.987c18.313 0 33.208-14.895 33.208-33.21 0-18.313-14.895-33.208-33.208-33.208M199.962 84.293h-20.085V17.509h20.085c18.396 0 33.392 14.996 33.392 33.392s-14.996 33.392-33.392 33.392m0-81.315h-34.615v95.845h34.615c26.424 0 47.923-21.497 47.923-47.922 0-26.424-21.499-47.923-47.923-47.923M477.799 32.557l-18.927 42.556-18.927-42.556h-15.872l26.863 60.382s-6.57 14.792-6.587 14.826c-1.741 3.904-6.334 5.671-10.23 3.934l-2.083-.931-5.865 13.163v.001l.025.01 5.032 2.246c9.445 4.213 20.588-.072 24.812-9.541.035-.078 34.4-76.875 37.63-84.09z"/></svg>
