<?xml version="1.0" encoding="utf-8"?>
<!-- Generator: Adobe Illustrator 25.2.0, SVG Export Plug-In . SVG Version: 6.00 Build 0)  -->
<svg version="1.1" id="Layer_2_1_" xmlns="http://www.w3.org/2000/svg" xmlns:xlink="http://www.w3.org/1999/xlink" x="0px" y="0px"
	 width="250px" height="44px" viewBox="0 0 250 44" style="enable-background:new 0 0 250 44;" xml:space="preserve">
<style type="text/css">
	.st0{fill:#FFFFFF;}
</style>
<g>
	<g>
		<path class="st0" d="M51.6,22.2l-19.4,4.4c-0.6,0.2-1-0.2-1-0.7V13.1c0-0.4,0.3-0.6,0.7-0.7L51.3,8c0.6-0.2,1,0.2,1,0.7v12.7
			C52.3,21.7,52,22.1,51.6,22.2z"/>
		<path class="st0" d="M54.8,8.7v14.2c0,0.4-0.3,0.6-0.7,0.7l-21,4.7c-0.4,0.1-0.7,0.4-0.7,0.7v4.1c0,0.5,0.5,0.9,1,0.7l24.1-5.4
			c2-0.4,3.3-2,3.3-3.8V7.7c0-0.5-0.5-0.9-1-0.7l-4.4,1C55.1,8,54.8,8.3,54.8,8.7z"/>
	</g>
	<g>
		<path class="st0" d="M72.3,31.1h-3.4l9.4-23H81l9.3,23h-3.4l-2.3-5.6H74.3L72.3,31.1z M75.6,22.6h8.1l-4-10.8L75.6,22.6z"/>
		<path class="st0" d="M104.7,28.5c-0.6,0.9-1.3,1.6-2.3,2.1s-2,0.7-2.9,0.7c-1.2,0-2.2-0.2-3-0.6c-1-0.4-1.7-1-2.3-1.7
			c-0.6-0.7-1.2-1.6-1.6-2.7S92,24.2,92,23.1s0.1-2.3,0.5-3.1c0.4-1,0.8-1.8,1.6-2.7c0.7-0.7,1.4-1.3,2.3-1.7c1-0.4,1.9-0.6,2.9-0.6
			c1.2,0,2.3,0.2,3,0.7s1.6,1.1,2.2,1.9h0.1V6.3h2.9v24.6h-2.8V28.5L104.7,28.5z M95.2,23.3c0,0.7,0.1,1.3,0.4,2.1
			c0.2,0.6,0.5,1.2,1,1.7c0.4,0.5,1,0.9,1.6,1.2s1.3,0.5,2.2,0.5c0.7,0,1.4-0.1,2-0.5c0.6-0.2,1.2-0.7,1.6-1.2
			c0.5-0.5,0.7-1.1,1-1.7c0.2-0.6,0.4-1.3,0.4-2.1s-0.1-1.5-0.4-2.1c-0.2-0.6-0.6-1.2-1-1.7c-0.5-0.5-1-0.9-1.6-1.2
			c-0.6-0.2-1.3-0.5-2-0.5c-0.8,0-1.6,0.1-2.2,0.5s-1.1,0.7-1.6,1.2c-0.4,0.5-0.7,1.1-1,1.7C95.3,21.8,95.2,22.6,95.2,23.3z"/>
		<path class="st0" d="M123.5,28.2h11.4v2.9h-14.4V7.9h13.9v2.9h-11v6.9h10.3v2.8h-10.3L123.5,28.2L123.5,28.2z"/>
		<path class="st0" d="M141.4,15.6c0,0.4,0.1,0.9,0.1,1.3s0,0.9,0,1.2h0.1c0.2-0.4,0.5-0.7,0.7-1.1c0.4-0.4,0.7-0.6,1.1-1
			c0.4-0.2,0.8-0.5,1.3-0.6s1.1-0.2,1.6-0.2c1,0,1.8,0.1,2.4,0.5c0.7,0.4,1.3,0.7,1.7,1.3c0.5,0.6,0.8,1.2,1,1.9
			c0.2,0.7,0.4,1.6,0.4,2.5V31h-2.9v-8.6c0-0.6,0-1.2-0.1-1.7c-0.1-0.6-0.2-1.1-0.5-1.5c-0.2-0.4-0.6-0.7-1.1-1
			c-0.5-0.2-1-0.4-1.7-0.4c-1.2,0-2.2,0.5-2.8,1.3c-0.7,0.9-1.1,2.1-1.1,3.8v8.2h-2.9V19c0-0.4,0-1,0-1.6s0-1.2-0.1-1.7
			C138.4,15.6,141.4,15.6,141.4,15.6z"/>
		<path class="st0" d="M157.8,33.6c0.6,0.7,1.4,1.3,2.3,1.8S162,36,163,36s1.8-0.1,2.4-0.5c0.7-0.2,1.2-0.7,1.6-1.2
			c0.4-0.5,0.7-1.1,0.8-1.7c0.1-0.7,0.2-1.5,0.2-2.3v-1.9l0,0c-0.6,0.9-1.3,1.5-2.3,1.9s-1.9,0.6-2.9,0.6s-2.2-0.2-3-0.6
			c-1-0.4-1.7-1-2.3-1.7s-1.2-1.5-1.6-2.5c-0.4-0.9-0.5-1.9-0.5-3.1c0-1.1,0.1-2.1,0.5-3.1s0.8-1.8,1.6-2.5c0.6-0.7,1.4-1.2,2.3-1.7
			c1-0.4,1.9-0.6,3-0.6s2,0.2,2.9,0.7c1,0.5,1.7,1.2,2.3,2.1h0.1v-2.5h2.8v14.7c0,1.1-0.1,2.3-0.4,3.3c-0.2,1-0.7,1.9-1.3,2.8
			s-1.4,1.3-2.4,1.8c-1.1,0.5-2.3,0.7-3.8,0.7c-1.3,0-2.5-0.2-3.8-0.7s-2.3-1.1-3.3-2.1L157.8,33.6z M158.6,23.2
			c0,0.7,0.1,1.3,0.4,1.9c0.2,0.6,0.6,1.2,1,1.7c0.5,0.5,1,0.9,1.6,1.2c0.6,0.2,1.3,0.5,2,0.5s1.4-0.1,2-0.4
			c0.6-0.2,1.2-0.6,1.6-1.1c0.5-0.5,0.7-1.1,1-1.7c0.2-0.6,0.4-1.3,0.4-2.1s-0.1-1.3-0.4-2.1c-0.2-0.6-0.6-1.2-1.1-1.7
			s-1-0.9-1.6-1.2c-0.6-0.2-1.3-0.5-2-0.5s-1.4,0.1-2,0.5c-0.6,0.2-1.1,0.6-1.6,1.1s-0.7,1.1-1,1.7
			C158.7,21.6,158.6,22.5,158.6,23.2z"/>
		<path class="st0" d="M179.4,10c0,0.6-0.2,1-0.6,1.3c-0.4,0.4-0.8,0.5-1.4,0.5s-1-0.2-1.3-0.6c-0.4-0.4-0.6-0.9-0.6-1.3
			c0-0.6,0.2-1,0.6-1.3c0.4-0.4,0.8-0.6,1.3-0.6s1,0.2,1.4,0.6C179.2,9,179.4,9.5,179.4,10z M178.9,31.1H176V15.6h2.9V31.1z"/>
		<path class="st0" d="M186.7,15.6c0,0.4,0.1,0.9,0.1,1.3s0,0.9,0,1.2h0.1c0.2-0.4,0.5-0.7,0.7-1.1c0.4-0.4,0.7-0.6,1.1-1
			c0.4-0.2,0.8-0.5,1.3-0.6s1.1-0.2,1.6-0.2c1,0,1.8,0.1,2.4,0.5c0.7,0.4,1.3,0.7,1.7,1.3c0.5,0.6,0.8,1.2,1,1.9
			c0.2,0.7,0.4,1.6,0.4,2.5V31H194v-8.6c0-0.6,0-1.2-0.1-1.7c-0.1-0.6-0.2-1.1-0.5-1.5c-0.2-0.4-0.6-0.7-1.1-1
			c-0.5-0.2-1-0.4-1.7-0.4c-1.2,0-2.2,0.5-2.8,1.3c-0.7,0.9-1.1,2.1-1.1,3.8v8.2h-2.9V19c0-0.4,0-1,0-1.6s0-1.2-0.1-1.7
			C183.7,15.6,186.7,15.6,186.7,15.6z"/>
		<path class="st0" d="M215.4,23.2c0,0.1,0,0.4,0,0.5s0,0.4,0,0.5h-11.5c0,0.6,0.1,1.2,0.5,1.8c0.2,0.6,0.6,1.1,1.1,1.5s1,0.7,1.6,1
			c0.6,0.2,1.2,0.4,1.8,0.4c1,0,1.9-0.2,2.5-0.6c0.7-0.5,1.3-1,1.7-1.6l2,1.7c-0.8,1.1-1.7,1.8-2.7,2.4c-1.1,0.5-2.3,0.7-3.5,0.7
			c-1.1,0-2.2-0.2-3-0.6c-1-0.4-1.8-1-2.4-1.6c-0.7-0.7-1.2-1.5-1.7-2.5c-0.4-1-0.6-2.1-0.6-3.4c0-1.2,0.2-2.3,0.6-3.3
			c0.4-1,1-1.8,1.6-2.7c0.7-0.7,1.6-1.2,2.3-1.6c1-0.4,1.9-0.6,2.9-0.6s2,0.1,2.9,0.5c0.8,0.4,1.7,0.9,2.3,1.6s1.1,1.5,1.4,2.5
			C215.3,20.8,215.4,21.9,215.4,23.2z M212.5,21.9c0-0.6-0.1-1.1-0.2-1.7c-0.1-0.5-0.5-1-0.8-1.3c-0.4-0.4-0.7-0.7-1.3-0.9
			c-0.5-0.2-1.1-0.4-1.8-0.4c-0.6,0-1.2,0.1-1.8,0.4s-1.1,0.5-1.4,0.9c-0.4,0.4-0.7,0.9-1,1.3s-0.4,1.1-0.5,1.7H212.5z"/>
	</g>
</g>
</svg>
