<svg xmlns="http://www.w3.org/2000/svg" xmlns:xlink="http://www.w3.org/1999/xlink" xml:space="preserve" id="Layer_1" x="0" y="0" version="1.1" viewBox="0 0 195 60"><style>.st1,.st2{clip-path:url(#SVGID_4_);fill:#ffc60f}.st2{fill:#fff}</style><g id="THEO_Logo_-_Horizontal_2_"><defs><path id="SVGID_1_" d="M0 11h195v38.72H0z"/></defs><clipPath id="SVGID_2_"><use xlink:href="#SVGID_1_" overflow="visible"/></clipPath><g clip-path="url(#SVGID_2_)"><defs><path id="SVGID_3_" d="M0 11h195v38.72H0z"/></defs><clipPath id="SVGID_4_"><use xlink:href="#SVGID_3_" overflow="visible"/></clipPath><path d="M18.55 16.58c-3.8 3.78-5.7 8.36-5.72 13.74-.01 5.4 1.87 10 5.66 13.83 1.73 1.69 3.5 3 5.32 3.91 1.3.65 2.68 1.12 4.16 1.41v.26l-19.93-.05C2.67 49.67-.01 46.98 0 41.6l.05-22.52c.01-5.4 2.7-8.09 8.08-8.08l20.15.04v.23c-1.56.3-3.04.78-4.42 1.45-1.81.89-3.58 2.17-5.31 3.86" class="st1"/><path d="M45.66 32.33c-2.34 1.67-5.37 3.54-9.08 5.59-3.58 2.01-6.71 3.59-9.41 4.74l-2.99 1.11c-.19-.81-.36-2-.53-3.59-.37-3.16-.56-6.64-.56-10.46 0-3.49.25-6.76.76-9.79l.73-3.49 3.17 1.07c2.75 1.09 5.72 2.64 8.93 4.66 3.39 2.13 6.31 4.15 8.74 6.07 1.21.97 2.09 1.71 2.62 2.23l-2.38 1.86" class="st2"/><path d="M67.48 19.1v22.54c0 5.38-2.69 8.07-8.07 8.07H39.09v-.26c3.73-.72 6.99-2.48 9.79-5.3 3.79-3.82 5.69-8.42 5.69-13.82 0-5.38-1.9-9.96-5.69-13.76-2.84-2.84-6.16-4.61-9.95-5.3V11h20.49c5.38 0 8.06 2.7 8.06 8.1" class="st1"/><path d="M95.85 12.27v4.6H85.08v30.7H79.6v-30.7H68.83v-4.6zM97.1 47.57v-35.3h5.44V27.4h19.77V12.27h5.44v35.3h-5.44V32h-19.77v15.57zM156.3 12.27v4.6h-18.02V27.4h17.18V32h-17.18v11.02h18.41v4.55h-23.84v-35.3h23.45M177.52 43.26c7.87 0 11.8-4.47 11.8-13.41 0-8.81-3.93-13.22-11.8-13.22-8.03 0-12.04 4.41-12.04 13.22 0 8.94 4.01 13.41 12.04 13.41M159.8 29.99c0-11.98 5.91-17.97 17.72-17.97 11.65 0 17.48 5.99 17.48 17.97 0 11.88-5.83 17.82-17.48 17.82-11.81 0-17.72-5.94-17.72-17.82" class="st2"/></g></g></svg>