<svg xmlns="http://www.w3.org/2000/svg" fill="#fff" viewBox="0 0 1251.42 209.42"><path fill="#ffc60f" d="M100.18 30.18c-20.55 20.47-30.86 45.24-30.91 74.3-.06 29.18 10.14 54.11 30.61 74.78 9.33 9.16 18.93 16.21 28.79 21.15a86.286 86.286 0 0 0 22.48 7.59v1.4l-107.76-.2c-29.07-.05-43.57-14.61-43.51-43.68L.12 43.69C.18 14.51 14.74-.05 43.81 0l109 .22v1.24a96.975 96.975 0 0 0-23.92 7.86c-9.74 4.79-19.31 11.74-28.7 20.86"/><path d="M246.81 115.38c-12.67 9.03-29.04 19.12-49.12 30.25-19.33 10.88-36.3 19.42-50.9 25.62l-16.16 6a167.4 167.4 0 0 1-2.86-19.42 485.93 485.93 0 0 1-3-56.57c-.09-17.75 1.27-35.48 4.09-53l4-18.87L150 35.16c14.85 5.91 30.94 14.3 48.29 25.18a533.172 533.172 0 0 1 47.2 32.86c6.56 5.23 11.29 9.26 14.18 12.08l-12.86 10.1"/><path fill="#ffc60f" d="M364.87 43.8v121.91c0 29.09-14.54 43.64-43.63 43.63h-110v-1.41c20.18-3.86 37.85-13.42 53-28.67C284.75 158.62 295 133.7 295 104.5s-10.26-53.9-30.78-74.42c-15.35-15.39-33.28-24.94-53.8-28.67V0h110.82c29.09 0 43.63 14.6 43.63 43.8"/><path d="M508.64 20.38v20.9h-48.92v139.4h-24.9V41.28h-48.91v-20.9h122.73m5.68 160.3V20.38H539v68.7h89.82v-68.7h24.67v160.3h-24.67V110H539v70.7h-24.68M783.15 20.38v20.9h-81.81v47.8h78V110h-78v50h83.59v20.67H676.66V20.37h106.49m96.41 140.75c35.72 0 53.58-20.31 53.58-60.93 0-40-17.86-60-53.58-60s-54.7 20-54.7 60c0 40.62 18.23 60.93 54.7 60.93m-80.49-60.26c0-54.4 26.83-81.6 80.49-81.59 52.91 0 79.37 27.2 79.37 81.59s-26.46 80.94-79.37 80.93c-53.66 0-80.49-26.98-80.49-80.93"/><path fill="#999" d="M972.06 152.55c0-19.85 12.85-29.78 38.56-29.78 9.04 0 16.31.59 21.83 1.76v-6.7c0-8.69-7.57-13.04-22.71-13.04-9.04 0-19.19 1.41-30.46 4.23V92.98c10.8-3.17 20.95-4.76 30.46-4.76 28.17 0 42.25 10.28 42.25 30.84v63.44h-10.74l-5.99-6.34c-7.28 4.23-16.44 6.34-27.47 6.34-23.83 0-35.74-9.98-35.74-29.96m38.57-13.21c-12.68 0-19.01 4.29-19.01 12.86 0 9.29 5.4 13.92 16.2 13.92s18.9-2.11 24.65-6.34v-19.03c-5.28-.94-12.56-1.41-21.83-1.41m224.85-33.74c-4.81-2.07-9.29-3.57-13.44-4.5-4.15-.93-8.26-1.42-12.35-1.48-6.35-.09-11.17.88-14.45 2.9-3.28 2.03-4.95 4.77-4.99 8.25-.04 2.68 1.14 5 3.53 6.97 2.39 1.97 7.36 3.95 14.89 5.93l6.78 1.9c9.79 2.82 17.19 6.4 22.2 10.74 5.01 4.35 7.46 10.13 7.36 17.35-.12 8.82-4 15.88-11.64 21.18-7.64 5.3-18.03 7.86-31.19 7.67-7.11-.1-13.72-.77-19.83-1.99-6.11-1.22-11.57-2.87-16.38-4.95l5.66-15.55c4.36 1.94 9.03 3.54 14 4.81 4.97 1.28 10.11 1.95 15.4 2.03 6.5.09 11.58-.84 15.24-2.79 3.66-1.95 5.51-5 5.57-9.14.05-3.87-1.53-6.67-4.76-8.39-3.23-1.72-8.23-3.56-15.01-5.53l-7.01-1.9c-9.49-2.94-16.51-6.58-21.07-10.93-4.56-4.34-6.78-9.99-6.69-16.93.06-4.14 1.09-7.87 3.1-11.18 2.01-3.31 4.77-6.15 8.29-8.5 3.51-2.36 7.73-4.16 12.67-5.43 4.93-1.26 10.35-1.86 16.25-1.77 5.59.08 11.3.63 17.11 1.65 5.81 1.02 11.2 2.57 16.16 4.64l-5.43 14.96ZM1132.7 38.11l20.15.31-1.87 142.79-15.84-.24-2.21-10.48h-.78c-3.45 3.95-7.27 6.98-11.47 9.05-4.2 2.08-9.63 3.07-16.28 2.96-5.22-.08-10.19-1.19-14.92-3.34-4.74-2.15-8.93-5.32-12.59-9.53-3.66-4.21-6.56-9.41-8.7-15.6-2.14-6.19-3.15-13.31-3.05-21.34.1-7.5 1.13-14.24 3.1-20.24 1.97-6 4.77-11.11 8.42-15.34 3.64-4.23 8.09-7.47 13.33-9.74 5.25-2.26 11.2-3.35 17.85-3.24 4.56.07 8.99.87 13.27 2.41 4.28 1.54 7.91 3.67 10.87 6.39l.72-54.83Zm-.94 71.49c-5.39-6.51-11.94-9.82-19.63-9.94-3.39-.05-6.66.5-9.81 1.66-3.15 1.16-5.98 3.06-8.49 5.7s-4.52 6.03-6 10.15c-1.49 4.13-2.27 9.21-2.35 15.23-.08 6.02.54 11.19 1.85 15.49 1.31 4.31 3.06 7.88 5.24 10.73 2.18 2.85 4.73 4.93 7.65 6.24 2.92 1.32 5.94 2 9.07 2.05 4.7.07 8.85-.93 12.46-3.02 3.61-2.09 6.75-5.05 9.41-8.89l.59-45.39Z"/></svg>