<svg xmlns="http://www.w3.org/2000/svg" xml:space="preserve" version="1.1" viewBox="0 0 156 175"><style>.st0{fill:#fff}.st1{fill:#85c300}</style><path d="M102 65.9c-1.2-2.1-.5-4.9 1.6-6.1l22.7-13.1c1.1-.7 1.5-2.1.9-3.2-.2-.4-.5-.7-.9-.9l-44.9-26c-1.5-.9-3.3-.9-4.7 0l-44.9 26c-1.1.7-1.5 2.1-.9 3.2.2.4.5.7.9.9l22.7 13.1c2.1 1.2 2.9 4 1.6 6.1-1.2 2.1-4 2.9-6.1 1.6L17.3 48.7c-2.3-1.3-3-4.2-1.7-6.5.4-.7 1-1.3 1.7-1.7L76.6 6.2c1.5-.9 3.3-.9 4.7 0l59.4 34.3c2.3 1.3 3 4.2 1.7 6.5-.4.7-1 1.3-1.7 1.7l-32.6 18.8c-2.1 1.3-4.9.5-6.1-1.6z" class="st0"/><path d="M127.2 112.2 86 88.4c-1.5-.8-2.4-2.4-2.4-4.1V36.8c0-2.6 2.1-4.7 4.7-4.7.8 0 1.7.2 2.4.6l15.1 8.7c2.1 1.2 2.9 4 1.6 6.1-1.2 2.1-4 2.9-6.1 1.7l-5.1-3c-1.1-.7-2.6-.3-3.2.8-.2.4-.3.7-.3 1.2V79c0 1.7.9 3.3 2.4 4.1l30.3 17.5v-10c0-2.5 2-4.5 4.5-4.5s4.5 2 4.5 4.5V108c0 2.6-2 4.8-4.7 4.8-.9 0-1.8-.2-2.5-.6z" class="st1"/><path d="M83.6 163.6V126c0-2.5 2-4.5 4.5-4.5s4.5 2 4.5 4.5v26.2c0 1.3 1.1 2.4 2.4 2.4.4 0 .8-.1 1.2-.3l44.9-25.9c1.5-.8 2.4-2.4 2.4-4.1v-52c0-1.3-1.1-2.3-2.4-2.3-.4 0-.8.1-1.1.3l-22.7 13.1c-2.2 1.2-4.9.5-6.1-1.6-1.2-2.1-.5-4.9 1.6-6.1l32.6-18.8c2.3-1.3 5.2-.5 6.5 1.7.4.7.6 1.5.6 2.4v68.5c0 1.7-.9 3.3-2.4 4.1l-59.4 34.3c-2.3 1.3-5.2.5-6.5-1.7-.4-.9-.6-1.7-.6-2.6z" class="st0"/><path d="M23.7 108.1V90.7c0-2.5 2-4.5 4.5-4.5s4.5 2 4.5 4.5v10L63 83.2c1.5-.8 2.4-2.4 2.4-4.1V48.2c0-1.3-1.1-2.3-2.4-2.3-.4 0-.8.1-1.2.3l-5.1 3c-2.1 1.2-4.9.5-6.1-1.7-1.2-2.1-.5-4.9 1.6-6.1l15.1-8.7c2.3-1.3 5.2-.5 6.5 1.7.4.7.6 1.5.6 2.4v47.5c0 1.7-.9 3.3-2.4 4.1l-41.2 23.8c-2.3 1.3-5.2.5-6.5-1.7-.4-.8-.6-1.6-.6-2.4z" class="st1"/><path d="M67.3 167.8 7.9 133.5c-1.5-.9-2.4-2.4-2.4-4.1V60.8c0-2.6 2.1-4.7 4.7-4.7.8 0 1.7.2 2.4.6l32.6 18.8c2.1 1.2 2.9 4 1.6 6.1-1.2 2.1-4 2.9-6.1 1.6l-22.6-13c-1.1-.7-2.6-.3-3.2.9-.2.3-.3.7-.3 1.1v52c0 1.7.9 3.3 2.4 4.1l44.9 25.9c1.1.7 2.6.3 3.2-.9.2-.4.3-.8.3-1.2V126c0-2.5 2-4.5 4.5-4.5s4.5 2 4.5 4.5v37.6c0 2.6-2.1 4.8-4.7 4.8-.9 0-1.7-.2-2.4-.6z" class="st0"/><path d="M101.4 135.4c-1.2-2.1-.5-4.9 1.6-6.1l5.1-3c1.1-.7 1.5-2.1.9-3.2-.2-.4-.5-.7-.9-.9l-26.8-15.4c-1.5-.8-3.3-.8-4.7 0l-26.8 15.4c-1.1.7-1.5 2.1-.9 3.2.2.4.5.7.9.9l5.1 3c2.1 1.2 2.9 4 1.6 6.1-1.2 2.1-4 2.9-6.1 1.6l-15-8.7c-2.3-1.3-3-4.2-1.7-6.5.4-.7 1-1.3 1.7-1.7l41.2-23.8c1.5-.9 3.3-.9 4.7 0l41.2 23.8c2.3 1.3 3 4.2 1.7 6.5-.4.7-1 1.3-1.7 1.7l-15 8.7c-2.1 1.4-4.8.7-6.1-1.6 0 .1 0 .1 0 0z" class="st1"/></svg>
