<?xml version="1.0" encoding="UTF-8"?>
<svg id="Layer_1" data-name="Layer 1" xmlns="http://www.w3.org/2000/svg" viewBox="0 0 250 44">
  <defs>
    <style>
      .cls-1 {
        stroke: #fff;
        stroke-linecap: round;
        stroke-linejoin: round;
        stroke-width: 2px;
      }

      .cls-1, .cls-2 {
        fill: #fff;
      }
    </style>
  </defs>
  <line class="cls-1" x1="78.28" y1="36.16" x2="108.72" y2="36.16"/>
  <g>
    <g>
      <path class="cls-2" d="M79.39,30.74c-.7,0-1.25-.64-1.25-1.45V8.64c0-.82.55-1.45,1.25-1.45h28.22c.7,0,1.25.64,1.25,1.45v20.65c0,.81-.55,1.45-1.25,1.45h-28.22Z"/>
      <path class="cls-2" d="M107.61,8.18c.14,0,.25.21.25.45v20.65c0,.24-.12.45-.25.45h-28.22c-.14,0-.25-.21-.25-.45V8.64c0-.25.12-.45.25-.45h28.22M107.61,6.18h-28.22c-1.26,0-2.25,1.08-2.25,2.45v20.65c0,1.38.99,2.45,2.25,2.45h28.22c1.26,0,2.25-1.08,2.25-2.45V8.64c0-1.38-.99-2.45-2.25-2.45h0Z"/>
    </g>
    <g>
      <path d="M91.34,22.33l-.53-1.35h-2.66l-.5,1.35h-1.8l2.88-6.87h1.61l2.85,6.87h-1.84ZM100.83,20.43c-.22.44-.52.8-.88,1.08-.37.28-.78.49-1.24.62-.46.13-.92.2-1.4.2h-2.56v-6.87h2.48c.49,0,.96.06,1.44.17.47.11.89.3,1.26.56.37.26.67.61.89,1.05.23.44.34.98.34,1.63,0,.6-.11,1.12-.33,1.56ZM98.75,17.3c-.21-.15-.45-.26-.72-.32s-.54-.1-.83-.1h-.82v4.02h.78c.3,0,.58-.03.86-.1.27-.07.52-.18.73-.33.21-.15.38-.36.5-.62s.19-.58.19-.96-.06-.71-.19-.97c-.13-.25-.29-.46-.5-.61h0ZM88.62,19.65h1.73l-.85-2.36-.87,2.36Z"/>
      <path d="M97.24,15.46h-2.48v6.87h2.56c.47,0,.94-.07,1.4-.2.46-.13.87-.34,1.24-.62.36-.28.66-.64.88-1.08.22-.44.33-.96.33-1.56,0-.65-.11-1.19-.34-1.63-.23-.44-.52-.79-.89-1.05-.37-.26-.79-.45-1.26-.56-.47-.11-.95-.17-1.44-.17h0ZM96.37,20.89v-4.02h.82c.28,0,.56.03.83.1.27.06.51.17.72.32h0c.21.15.38.36.5.61.13.26.19.59.19.97s-.06.7-.19.96c-.13.26-.29.47-.5.62-.21.16-.45.27-.73.33-.27.07-.56.1-.86.1h-.78ZM90.33,15.46h-1.61l-2.88,6.87h1.8l.5-1.35h2.66l.53,1.35h1.84l-2.85-6.87h0ZM88.62,19.65l.87-2.36.85,2.36h-1.73Z"/>
    </g>
    <g>
      <path class="cls-2" d="M119.19,31.18h-3.53l9.84-22.69h2.88l9.74,22.69h-3.59l-2.31-5.58h-10.77l-2.27,5.58ZM122.58,22.81h8.49l-4.23-10.64-4.26,10.64Z"/>
      <path class="cls-2" d="M152.99,28.77c-.58.92-1.36,1.62-2.35,2.1-.99.48-2.04.72-3.12.72-1.17,0-2.23-.21-3.17-.62-.94-.42-1.74-.99-2.4-1.71-.66-.73-1.18-1.58-1.54-2.56-.36-.98-.54-2.03-.54-3.14s.18-2.15.54-3.12c.36-.97.88-1.82,1.55-2.55.67-.73,1.48-1.29,2.42-1.7.94-.41,1.98-.61,3.11-.61,1.24,0,2.32.26,3.24.79.92.52,1.64,1.16,2.18,1.91h.06V6.95h3.01v24.23h-2.92v-2.4h-.06ZM143,23.57c0,.7.11,1.38.32,2.04.21.66.53,1.25.96,1.76.43.51.95.92,1.57,1.23.62.31,1.35.46,2.18.46.77,0,1.47-.15,2.1-.45.63-.3,1.17-.7,1.62-1.2.45-.5.79-1.08,1.04-1.74.25-.66.37-1.35.37-2.08s-.12-1.42-.37-2.08c-.25-.66-.59-1.25-1.04-1.76-.45-.51-.99-.92-1.62-1.21-.63-.3-1.33-.45-2.1-.45-.83,0-1.56.15-2.18.45-.62.3-1.14.7-1.57,1.21-.43.51-.75,1.1-.96,1.76-.21.66-.32,1.34-.32,2.04Z"/>
      <path class="cls-2" d="M169.43,19.83c-.34-.56-.82-1.01-1.44-1.36-.62-.35-1.31-.53-2.08-.53-.34,0-.68.04-1.03.11-.34.08-.65.19-.91.35-.27.16-.48.36-.64.61-.16.25-.24.55-.24.91,0,.64.29,1.12.87,1.43s1.44.59,2.6.85c.73.17,1.4.37,2.02.61.62.24,1.16.53,1.62.88s.82.77,1.07,1.27c.26.49.38,1.07.38,1.73,0,.9-.17,1.66-.51,2.28-.34.62-.8,1.13-1.36,1.52-.57.4-1.21.68-1.94.85-.73.17-1.47.26-2.24.26-1.15,0-2.28-.22-3.38-.67-1.1-.45-2.01-1.13-2.74-2.05l2.15-1.83c.41.6.97,1.1,1.68,1.51.72.41,1.5.61,2.36.61.38,0,.75-.04,1.11-.11.35-.07.67-.2.96-.37.29-.17.52-.4.69-.67.17-.28.26-.63.26-1.06,0-.71-.34-1.23-1.01-1.57s-1.66-.66-2.96-.96c-.51-.13-1.03-.28-1.55-.46s-1-.43-1.43-.75c-.43-.32-.77-.72-1.04-1.2-.27-.48-.4-1.07-.4-1.78,0-.81.17-1.51.5-2.1.33-.59.76-1.07,1.3-1.44s1.14-.65,1.83-.83,1.39-.27,2.12-.27c1.09,0,2.14.21,3.16.64,1.01.43,1.8,1.05,2.36,1.86l-2.08,1.76Z"/>
    </g>
  </g>
</svg>