<svg width="760" height="260" viewBox="0 0 760 260" xmlns="http://www.w3.org/2000/svg" role="img" aria-label="Break lifecycle: initial to preparing, preparing to cued or ready or error, cued to ready, and ready to signaled">
  <defs>
    <marker id="arrow" markerWidth="8" markerHeight="8" refX="7" refY="4" orient="auto">
      <path d="M0,0 L8,4 L0,8 z" fill="#1A202C"/>
    </marker>
  </defs>
  <rect x="18" y="108" width="105" height="42" rx="7" fill="#E2E8F0" stroke="#1A202C" stroke-width="2"/>
  <text x="70" y="134" text-anchor="middle" font-family="Arial, sans-serif" font-size="15" font-weight="bold" fill="#1A202C">initial</text>
  <rect x="170" y="108" width="130" height="42" rx="7" fill="#E2E8F0" stroke="#1A202C" stroke-width="2"/>
  <text x="235" y="134" text-anchor="middle" font-family="Arial, sans-serif" font-size="15" font-weight="bold" fill="#1A202C">PREPARING</text>
  <rect x="390" y="32" width="105" height="42" rx="7" fill="#E2E8F0" stroke="#1A202C" stroke-width="2"/>
  <text x="442" y="58" text-anchor="middle" font-family="Arial, sans-serif" font-size="15" font-weight="bold" fill="#1A202C">CUED</text>
  <rect x="390" y="108" width="105" height="42" rx="7" fill="#E2E8F0" stroke="#1A202C" stroke-width="2"/>
  <text x="442" y="134" text-anchor="middle" font-family="Arial, sans-serif" font-size="15" font-weight="bold" fill="#1A202C">READY</text>
  <rect x="390" y="184" width="105" height="42" rx="7" fill="#E2E8F0" stroke="#1A202C" stroke-width="2"/>
  <text x="442" y="210" text-anchor="middle" font-family="Arial, sans-serif" font-size="15" font-weight="bold" fill="#1A202C">ERROR</text>
  <rect x="610" y="108" width="125" height="42" rx="7" fill="#E2E8F0" stroke="#1A202C" stroke-width="2"/>
  <text x="672" y="134" text-anchor="middle" font-family="Arial, sans-serif" font-size="15" font-weight="bold" fill="#1A202C">SIGNALED</text>
  <line x1="123" y1="129" x2="170" y2="129" stroke="#1A202C" stroke-width="2" marker-end="url(#arrow)"/>
  <line x1="300" y1="119" x2="390" y2="62" stroke="#1A202C" stroke-width="2" marker-end="url(#arrow)"/>
  <text x="345" y="76" text-anchor="middle" font-family="Arial, sans-serif" font-size="11" fill="#1A202C">worker/EABN</text>
  <line x1="300" y1="129" x2="390" y2="129" stroke="#1A202C" stroke-width="2" marker-end="url(#arrow)"/>
  <text x="345" y="120" text-anchor="middle" font-family="Arial, sans-serif" font-size="11" fill="#1A202C">worker/EABN</text>
  <line x1="300" y1="140" x2="390" y2="205" stroke="#1A202C" stroke-width="2" marker-end="url(#arrow)"/>
  <text x="345" y="194" text-anchor="middle" font-family="Arial, sans-serif" font-size="11" fill="#1A202C">worker/health</text>
  <line x1="442" y1="74" x2="442" y2="108" stroke="#1A202C" stroke-width="2" marker-end="url(#arrow)"/>
  <text x="510" y="96" font-family="Arial, sans-serif" font-size="11" fill="#1A202C">API punch</text>
  <line x1="495" y1="129" x2="610" y2="129" stroke="#1A202C" stroke-width="2" marker-end="url(#arrow)"/>
  <text x="552" y="120" text-anchor="middle" font-family="Arial, sans-serif" font-size="11" fill="#1A202C">manifest / proxy</text>
</svg>
