<?xml version="1.0" encoding="UTF-8"?>
<svg id="Layer_1" data-name="Layer 1" xmlns="http://www.w3.org/2000/svg" viewBox="0 0 250 44">
  <defs>
    <style>
      .cls-1 {
        stroke: #fff;
        stroke-linecap: round;
        stroke-linejoin: round;
        stroke-width: 2px;
      }

      .cls-1, .cls-2 {
        fill: #fff;
      }
    </style>
  </defs>
  <g>
    <path class="cls-2" d="M82.83,12.69c-.45-.62-1.06-1.13-1.83-1.52-.77-.4-1.63-.59-2.6-.59-.51,0-1.03.07-1.55.21-.52.14-1,.36-1.43.67-.43.31-.77.69-1.04,1.15-.27.46-.4,1.01-.4,1.65s.12,1.14.37,1.55c.25.42.58.77.99,1.06.42.29.91.53,1.47.74.57.2,1.17.41,1.81.62.77.24,1.55.5,2.34.8s1.51.69,2.15,1.19c.64.49,1.16,1.11,1.57,1.84.41.74.61,1.67.61,2.8s-.22,2.19-.66,3.06-1.02,1.58-1.75,2.15c-.73.57-1.57.99-2.52,1.27-.95.28-1.93.42-2.93.42-1.43,0-2.82-.28-4.15-.83-1.33-.55-2.44-1.38-3.32-2.47l2.47-2.08c.53.79,1.25,1.43,2.15,1.92s1.87.74,2.92.74c.53,0,1.07-.07,1.6-.22s1.02-.38,1.46-.71c.44-.32.8-.72,1.07-1.2.28-.48.42-1.06.42-1.75s-.14-1.25-.43-1.71c-.29-.46-.68-.85-1.17-1.17s-1.06-.59-1.71-.82c-.65-.22-1.34-.45-2.07-.69-.73-.21-1.44-.48-2.15-.79s-1.34-.71-1.89-1.19c-.56-.48-1-1.07-1.35-1.78-.34-.7-.51-1.58-.51-2.63,0-1.13.23-2.1.69-2.92.46-.81,1.06-1.49,1.79-2.02.74-.53,1.57-.92,2.5-1.17.93-.25,1.86-.37,2.8-.37,1.32,0,2.56.24,3.72.71,1.15.47,2.08,1.1,2.79,1.89l-2.24,2.18Z"/>
    <path class="cls-2" d="M96.87,18.46h-4.04v7.89c0,.92.17,1.57.51,1.96.34.39.89.59,1.63.59.28,0,.58-.03.9-.09.32-.06.61-.15.87-.26l.1,2.47c-.36.13-.76.23-1.2.3-.44.07-.89.11-1.36.11-1.43,0-2.53-.4-3.29-1.19-.76-.79-1.14-1.98-1.14-3.56v-8.24h-2.92v-2.47h2.92v-4.36h2.98v4.36h4.04v2.47Z"/>
    <path class="cls-2" d="M99.94,17.69c-.02-.64-.05-1.21-.1-1.7h2.85c.04.38.07.83.1,1.33s.03.91.03,1.23h.1c.43-.9,1.05-1.62,1.87-2.16.82-.54,1.75-.82,2.77-.82.47,0,.87.04,1.19.13l-.13,2.79c-.43-.11-.89-.16-1.38-.16-.73,0-1.36.13-1.89.4-.53.27-.98.62-1.33,1.07-.35.45-.61.97-.79,1.55s-.26,1.2-.26,1.84v7.98h-3.01v-11.92c0-.41-.01-.93-.03-1.57Z"/>
    <path class="cls-2" d="M125.2,23.45v.51c0,.17-.01.34-.03.51h-12.08c.02.64.17,1.24.43,1.8.27.56.62,1.05,1.07,1.46.45.41.97.74,1.55.97.59.23,1.21.35,1.88.35,1.03,0,1.91-.22,2.66-.67.75-.45,1.33-.99,1.76-1.63l2.12,1.7c-.81,1.08-1.77,1.87-2.87,2.38-1.1.51-2.32.76-3.67.76-1.15,0-2.22-.19-3.2-.58-.98-.38-1.83-.92-2.53-1.62-.7-.69-1.26-1.53-1.67-2.52-.41-.98-.61-2.07-.61-3.27s.2-2.26.59-3.25c.4-.99.95-1.84,1.65-2.55.71-.71,1.54-1.25,2.5-1.65.96-.4,2-.59,3.12-.59s2.12.18,3.03.54,1.68.89,2.31,1.57c.63.68,1.12,1.51,1.46,2.48.34.97.51,2.07.51,3.28ZM122.12,22.24c-.02-.6-.12-1.16-.3-1.68-.18-.52-.45-.98-.8-1.36-.35-.38-.79-.69-1.31-.91-.52-.22-1.14-.34-1.84-.34-.64,0-1.25.11-1.81.34-.57.22-1.06.53-1.47.91-.42.38-.76.84-1.03,1.36-.27.52-.42,1.08-.46,1.68h9.04Z"/>
    <path class="cls-2" d="M138.62,21.34c0-1.13-.34-1.97-1.03-2.52-.68-.54-1.59-.82-2.72-.82-.85,0-1.66.17-2.42.5-.76.33-1.39.75-1.91,1.27l-1.6-1.92c.75-.71,1.66-1.26,2.74-1.67,1.08-.41,2.24-.61,3.48-.61,1.09,0,2.04.16,2.84.46s1.46.73,1.97,1.27.9,1.16,1.15,1.89c.26.73.38,1.51.38,2.34v6.63c0,.51.02,1.05.05,1.62.03.57.09,1.03.18,1.39h-2.72c-.17-.73-.26-1.45-.26-2.18h-.1c-.56.81-1.26,1.44-2.1,1.89-.84.45-1.84.67-3,.67-.6,0-1.22-.08-1.87-.24-.65-.16-1.25-.42-1.78-.79-.53-.36-.98-.84-1.33-1.44-.35-.6-.53-1.33-.53-2.21,0-1.15.31-2.07.93-2.74.62-.67,1.43-1.19,2.44-1.54,1-.35,2.14-.58,3.4-.69,1.26-.11,2.53-.16,3.81-.16v-.42ZM137.89,23.94c-.75,0-1.52.03-2.32.1-.8.06-1.53.19-2.18.38-.65.19-1.19.48-1.62.87-.43.38-.64.9-.64,1.54,0,.45.09.82.27,1.12s.42.54.72.74c.3.19.63.33.99.4s.74.11,1.12.11c1.41,0,2.49-.42,3.25-1.27.76-.84,1.14-1.91,1.14-3.19v-.8h-.74Z"/>
    <path class="cls-2" d="M151.33,16.42c.84-.57,1.84-.85,3-.85,1.03,0,1.95.24,2.77.71s1.47,1.25,1.94,2.34c.51-.98,1.23-1.74,2.15-2.26.92-.52,1.92-.79,3.01-.79.98,0,1.83.17,2.53.5.71.33,1.29.78,1.76,1.33.47.56.82,1.21,1.04,1.96.22.75.34,1.55.34,2.4v9.42h-3.01v-8.43c0-.62-.05-1.21-.16-1.76-.11-.55-.29-1.05-.54-1.47-.26-.43-.6-.77-1.03-1.03-.43-.26-.97-.38-1.63-.38s-1.27.14-1.76.43c-.49.29-.89.66-1.2,1.12-.31.46-.53.98-.67,1.55-.14.58-.21,1.17-.21,1.76v8.2h-3.01v-9.04c0-.6-.05-1.14-.16-1.63-.11-.49-.29-.91-.54-1.27-.26-.35-.59-.63-.99-.83-.41-.2-.91-.3-1.51-.3-1.11,0-2.04.45-2.77,1.36-.74.91-1.11,2.12-1.11,3.64v8.08h-3.01v-11.92c0-.41-.01-.93-.03-1.57-.02-.64-.05-1.21-.1-1.7h2.85c.04.38.07.82.1,1.3.02.48.03.88.03,1.2h.1c.38-.81,1-1.5,1.84-2.07Z"/>
    <path class="cls-2" d="M178.49,10.51c0,.56-.2,1.02-.59,1.38-.39.36-.86.54-1.41.54s-1.02-.19-1.4-.56c-.38-.37-.57-.83-.57-1.36s.19-1.02.57-1.39c.38-.37.85-.56,1.4-.56s1.02.19,1.41.56c.39.37.59.84.59,1.39ZM178.01,31.18h-3.01v-15.19h3.01v15.19Z"/>
    <path class="cls-2" d="M185.98,15.99c.04.38.07.82.1,1.3.02.48.03.88.03,1.2h.1c.19-.41.45-.79.79-1.14.33-.35.71-.66,1.14-.93.43-.27.9-.47,1.41-.62s1.05-.22,1.6-.22c.98,0,1.83.17,2.53.5.71.33,1.29.78,1.76,1.33.47.56.82,1.21,1.04,1.96.22.75.34,1.55.34,2.4v9.42h-3.01v-8.43c0-.62-.05-1.21-.14-1.76-.1-.55-.27-1.05-.53-1.47-.26-.43-.61-.77-1.06-1.03-.45-.26-1.03-.38-1.73-.38-1.2,0-2.17.45-2.93,1.36-.76.91-1.14,2.12-1.14,3.64v8.08h-3.01v-11.92c0-.41-.01-.93-.03-1.57-.02-.64-.05-1.21-.1-1.7h2.85Z"/>
    <path class="cls-2" d="M203.1,33.77c.66.75,1.49,1.35,2.48,1.79.99.45,2.01.67,3.06.67s1.85-.14,2.53-.43c.68-.29,1.23-.68,1.65-1.19.42-.5.72-1.09.9-1.78.18-.68.27-1.42.27-2.21v-1.95h-.06c-.56.85-1.31,1.51-2.28,1.95-.96.45-1.99.67-3.08.67-1.15,0-2.21-.2-3.16-.61-.95-.41-1.76-.96-2.42-1.67-.66-.7-1.18-1.53-1.54-2.48-.36-.95-.54-1.97-.54-3.06s.18-2.12.54-3.08c.36-.96.88-1.8,1.54-2.52.66-.72,1.46-1.28,2.4-1.7.94-.42,1.99-.62,3.14-.62,1.09,0,2.13.24,3.12.71.99.47,1.78,1.19,2.35,2.15h.06v-2.44h2.92v14.42c0,1.11-.14,2.17-.42,3.19-.28,1.01-.75,1.91-1.41,2.69-.66.78-1.53,1.4-2.6,1.87-1.07.47-2.39.71-3.97.71-1.33,0-2.65-.24-3.99-.72-1.34-.48-2.48-1.16-3.45-2.04l1.92-2.34ZM203.99,23.42c0,.71.11,1.38.34,2.02.23.64.56,1.21,1,1.7.44.49.97.89,1.59,1.19.62.3,1.33.45,2.12.45s1.48-.14,2.12-.42c.64-.28,1.19-.66,1.64-1.14.45-.48.8-1.05,1.04-1.7.25-.65.37-1.35.37-2.1s-.12-1.41-.37-2.05c-.25-.64-.6-1.21-1.06-1.7-.46-.49-1.01-.88-1.64-1.17-.63-.29-1.33-.43-2.11-.43s-1.5.14-2.12.43c-.62.29-1.15.67-1.59,1.15-.44.48-.77,1.05-1,1.7-.22.65-.34,1.34-.34,2.07Z"/>
  </g>
  <g>
    <path class="cls-2" d="M32.69,30.73c-.7,0-1.25-.64-1.25-1.45V8.64c0-.81.55-1.45,1.25-1.45h28.22c.7,0,1.25.64,1.25,1.45v20.65c0,.81-.55,1.45-1.25,1.45h-28.22Z"/>
    <path class="cls-2" d="M60.91,8.18c.14,0,.25.21.25.45v20.65c0,.24-.12.45-.25.45h-28.22c-.14,0-.25-.21-.25-.45V8.64c0-.25.12-.45.25-.45h28.22M60.91,6.18h-28.22c-1.26,0-2.25,1.08-2.25,2.45v20.65c0,1.38.99,2.45,2.25,2.45h28.22c1.26,0,2.25-1.08,2.25-2.45V8.64c0-1.38-.99-2.45-2.25-2.45h0Z"/>
  </g>
  <g>
    <path d="M41.07,22.17l-1.45-2.64h-.55v2.64h-1.57v-6.66h2.54c.32,0,.63.03.94.1.3.07.58.18.82.33.24.16.43.36.58.62.14.26.22.58.22.96,0,.45-.12.83-.37,1.14-.24.31-.58.53-1.01.66l1.74,2.85h-1.88ZM41,17.56c0-.16-.03-.28-.1-.38-.07-.1-.15-.17-.25-.23-.1-.05-.22-.09-.35-.11-.13-.02-.25-.03-.37-.03h-.86v1.55h.76c.13,0,.27-.01.41-.03.14-.02.26-.06.38-.12s.21-.14.28-.24c.07-.11.11-.24.11-.41Z"/>
    <path d="M47.88,16.89v5.28h-1.61v-5.28h-1.88v-1.37h5.37v1.37h-1.88Z"/>
    <path d="M55.42,17.25c-.14-.18-.32-.32-.54-.42-.22-.1-.44-.16-.64-.16-.11,0-.21,0-.32.03s-.21.05-.3.11-.16.12-.22.21c-.06.08-.09.19-.09.32,0,.11.02.21.07.28s.12.14.21.2.2.11.32.16c.13.05.27.1.42.15.23.08.46.16.71.25.25.09.47.21.67.36.2.15.37.34.5.56.13.22.2.5.2.83,0,.38-.07.71-.21.99-.14.28-.33.51-.57.69-.24.18-.51.32-.82.4-.31.09-.62.13-.95.13-.48,0-.94-.08-1.38-.25-.44-.17-.81-.4-1.11-.71l1.05-1.07c.16.2.38.37.64.5s.53.2.79.2c.12,0,.24-.01.35-.04.11-.02.21-.07.3-.12s.15-.13.2-.23c.05-.09.08-.21.08-.34s-.03-.23-.09-.32c-.06-.09-.15-.17-.27-.24s-.26-.14-.43-.2c-.17-.06-.37-.12-.59-.19-.21-.07-.42-.15-.62-.24-.2-.09-.39-.21-.55-.36-.16-.15-.29-.33-.38-.54-.1-.21-.15-.47-.15-.77,0-.37.08-.69.23-.95.15-.26.35-.48.59-.65.24-.17.52-.29.83-.37.31-.08.62-.12.93-.12.38,0,.76.07,1.15.21s.74.34,1.03.61l-1.02,1.08Z"/>
  </g>
  <line class="cls-1" x1="31.58" y1="36.16" x2="62.02" y2="36.16"/>
</svg>